<?xml version="1.0" encoding="UTF-8" standalone="no"?>
<!DOCTYPE svg PUBLIC "-//W3C//DTD SVG 1.1//EN"
 "http://www.w3.org/Graphics/SVG/1.1/DTD/svg11.dtd">
<!-- Generated by graphviz version 2.36.0 (20140111.2315)
 -->
<!-- Title: SkipList Pages: 1 -->
<svg width="936pt" height="172pt"
 viewBox="0.00 0.00 936.00 172.00" xmlns="http://www.w3.org/2000/svg" xmlns:xlink="http://www.w3.org/1999/xlink">
<g id="graph0" class="graph" transform="scale(1 1) rotate(0) translate(4 168)">
<title>SkipList</title>
<polygon fill="white" stroke="none" points="-4,4 -4,-168 932,-168 932,4 -4,4"/>
<text text-anchor="middle" x="464" y="-7.8" font-family="Times,serif" font-size="14.00">SkipList.</text>
<g id="clust1" class="cluster"><title>cluster0</title>
<polygon fill="none" stroke="black" stroke-dasharray="5,2" points="48,-31 48,-156 920,-156 920,-31 48,-31"/>
<text text-anchor="middle" x="484" y="-140.8" font-family="Times,serif" font-size="14.00">Skip list iteration 0</text>
</g>
<!-- HeadNode0 -->
<g id="node1" class="node"><title>HeadNode0</title>
<polygon fill="none" stroke="black" points="56.5,-61.5 56.5,-124.5 161.5,-124.5 161.5,-61.5 56.5,-61.5"/>
<text text-anchor="middle" x="68" y="-110.9" font-family="Times,serif" font-size="12.00">2</text>
<polyline fill="none" stroke="black" points="79.5,-103.5 79.5,-124.5 "/>
<text text-anchor="middle" x="120.5" y="-110.9" font-family="Times,serif" font-size="12.00">0x104c00110</text>
<polyline fill="none" stroke="black" points="56.5,-103.5 161.5,-103.5 "/>
<text text-anchor="middle" x="68" y="-89.9" font-family="Times,serif" font-size="12.00">2</text>
<polyline fill="none" stroke="black" points="79.5,-82.5 79.5,-103.5 "/>
<text text-anchor="middle" x="120.5" y="-89.9" font-family="Times,serif" font-size="12.00">0x104c00110</text>
<polyline fill="none" stroke="black" points="56.5,-82.5 161.5,-82.5 "/>
<text text-anchor="middle" x="68" y="-68.9" font-family="Times,serif" font-size="12.00">1</text>
<polyline fill="none" stroke="black" points="79.5,-61.5 79.5,-82.5 "/>
<text text-anchor="middle" x="120.5" y="-68.9" font-family="Times,serif" font-size="12.00">0x104c00230</text>
</g>
<!-- node00x104c00230 -->
<g id="node2" class="node"><title>node00x104c00230</title>
<polygon fill="none" stroke="black" points="198.5,-40 198.5,-82 303.5,-82 303.5,-40 198.5,-40"/>
<text text-anchor="middle" x="210" y="-68.4" font-family="Times,serif" font-size="12.00">1</text>
<polyline fill="none" stroke="black" points="221.5,-61 221.5,-82 "/>
<text text-anchor="middle" x="262.5" y="-68.4" font-family="Times,serif" font-size="12.00">0x104c00110</text>
<polyline fill="none" stroke="black" points="198.5,-61 303.5,-61 "/>
<text text-anchor="middle" x="251" y="-47.4" font-family="Times,serif" font-size="12.00">12</text>
</g>
<!-- HeadNode0&#45;&gt;node00x104c00230 -->
<g id="edge1" class="edge"><title>HeadNode0:f1&#45;&gt;node00x104c00230:w1</title>
<path fill="none" stroke="black" d="M162,-72C174,-72 179.25,-72 187.875,-72"/>
<polygon fill="black" stroke="black" points="188,-75.5001 198,-72 188,-68.5001 188,-75.5001"/>
</g>
<!-- node00x104c00110 -->
<g id="node3" class="node"><title>node00x104c00110</title>
<polygon fill="none" stroke="black" points="340.5,-40 340.5,-124 445.5,-124 445.5,-40 340.5,-40"/>
<text text-anchor="middle" x="352" y="-110.4" font-family="Times,serif" font-size="12.00">1</text>
<polyline fill="none" stroke="black" points="363.5,-103 363.5,-124 "/>
<text text-anchor="middle" x="404.5" y="-110.4" font-family="Times,serif" font-size="12.00">0x104c00020</text>
<polyline fill="none" stroke="black" points="340.5,-103 445.5,-103 "/>
<text text-anchor="middle" x="352" y="-89.4" font-family="Times,serif" font-size="12.00">1</text>
<polyline fill="none" stroke="black" points="363.5,-82 363.5,-103 "/>
<text text-anchor="middle" x="404.5" y="-89.4" font-family="Times,serif" font-size="12.00">0x104c00020</text>
<polyline fill="none" stroke="black" points="340.5,-82 445.5,-82 "/>
<text text-anchor="middle" x="352" y="-68.4" font-family="Times,serif" font-size="12.00">1</text>
<polyline fill="none" stroke="black" points="363.5,-61 363.5,-82 "/>
<text text-anchor="middle" x="404.5" y="-68.4" font-family="Times,serif" font-size="12.00">0x104c00020</text>
<polyline fill="none" stroke="black" points="340.5,-61 445.5,-61 "/>
<text text-anchor="middle" x="393" y="-47.4" font-family="Times,serif" font-size="12.00">21</text>
</g>
<!-- HeadNode0&#45;&gt;node00x104c00110 -->
<g id="edge2" class="edge"><title>HeadNode0:f2&#45;&gt;node00x104c00110:w2</title>
<path fill="none" stroke="black" d="M162,-93C237.557,-93 258.992,-93 329.687,-93"/>
<polygon fill="black" stroke="black" points="330,-96.5001 340,-93 330,-89.5001 330,-96.5001"/>
</g>
<!-- HeadNode0&#45;&gt;node00x104c00110 -->
<g id="edge3" class="edge"><title>HeadNode0:f3&#45;&gt;node00x104c00110:w3</title>
<path fill="none" stroke="black" d="M162,-114C237.557,-114 258.992,-114 329.687,-114"/>
<polygon fill="black" stroke="black" points="330,-117.5 340,-114 330,-110.5 330,-117.5"/>
</g>
<!-- node00x104c00230&#45;&gt;node00x104c00110 -->
<g id="edge4" class="edge"><title>node00x104c00230:f1&#45;&gt;node00x104c00110:w1</title>
<path fill="none" stroke="black" d="M304,-72C316.005,-72 321.249,-71.4375 329.873,-71.1562"/>
<polygon fill="black" stroke="black" points="330.055,-74.654 340,-71 329.947,-67.6548 330.055,-74.654"/>
</g>
<!-- node00x104c00020 -->
<g id="node4" class="node"><title>node00x104c00020</title>
<polygon fill="none" stroke="black" points="482,-40 482,-124 586,-124 586,-40 482,-40"/>
<text text-anchor="middle" x="505" y="-110.4" font-family="Times,serif" font-size="12.00">3</text>
<polyline fill="none" stroke="black" points="528,-103 528,-124 "/>
<text text-anchor="middle" x="557" y="-110.4" font-family="Times,serif" font-size="12.00">0x0</text>
<polyline fill="none" stroke="black" points="482,-103 586,-103 "/>
<text text-anchor="middle" x="493.5" y="-89.4" font-family="Times,serif" font-size="12.00">1</text>
<polyline fill="none" stroke="black" points="505,-82 505,-103 "/>
<text text-anchor="middle" x="545.5" y="-89.4" font-family="Times,serif" font-size="12.00">0x104c000e0</text>
<polyline fill="none" stroke="black" points="482,-82 586,-82 "/>
<text text-anchor="middle" x="493.5" y="-68.4" font-family="Times,serif" font-size="12.00">1</text>
<polyline fill="none" stroke="black" points="505,-61 505,-82 "/>
<text text-anchor="middle" x="545.5" y="-68.4" font-family="Times,serif" font-size="12.00">0x104c000e0</text>
<polyline fill="none" stroke="black" points="482,-61 586,-61 "/>
<text text-anchor="middle" x="534" y="-47.4" font-family="Times,serif" font-size="12.00">42</text>
</g>
<!-- node00x104c00110&#45;&gt;node00x104c00020 -->
<g id="edge5" class="edge"><title>node00x104c00110:f1&#45;&gt;node00x104c00020:w1</title>
<path fill="none" stroke="black" d="M446,-71C458,-71 463.25,-71 471.875,-71"/>
<polygon fill="black" stroke="black" points="472,-74.5001 482,-71 472,-67.5001 472,-74.5001"/>
</g>
<!-- node00x104c00110&#45;&gt;node00x104c00020 -->
<g id="edge6" class="edge"><title>node00x104c00110:f2&#45;&gt;node00x104c00020:w2</title>
<path fill="none" stroke="black" d="M446,-93C458,-93 463.25,-93 471.875,-93"/>
<polygon fill="black" stroke="black" points="472,-96.5001 482,-93 472,-89.5001 472,-96.5001"/>
</g>
<!-- node00x104c00110&#45;&gt;node00x104c00020 -->
<g id="edge7" class="edge"><title>node00x104c00110:f3&#45;&gt;node00x104c00020:w3</title>
<path fill="none" stroke="black" d="M446,-114C458,-114 463.25,-114 471.875,-114"/>
<polygon fill="black" stroke="black" points="472,-117.5 482,-114 472,-110.5 472,-117.5"/>
</g>
<!-- node00x104c000e0 -->
<g id="node5" class="node"><title>node00x104c000e0</title>
<polygon fill="none" stroke="black" points="622.5,-39.5 622.5,-102.5 727.5,-102.5 727.5,-39.5 622.5,-39.5"/>
<text text-anchor="middle" x="645.5" y="-88.9" font-family="Times,serif" font-size="12.00">2</text>
<polyline fill="none" stroke="black" points="668.5,-81.5 668.5,-102.5 "/>
<text text-anchor="middle" x="698" y="-88.9" font-family="Times,serif" font-size="12.00">0x0</text>
<polyline fill="none" stroke="black" points="622.5,-81.5 727.5,-81.5 "/>
<text text-anchor="middle" x="634" y="-67.9" font-family="Times,serif" font-size="12.00">1</text>
<polyline fill="none" stroke="black" points="645.5,-60.5 645.5,-81.5 "/>
<text text-anchor="middle" x="686.5" y="-67.9" font-family="Times,serif" font-size="12.00">0x104c00200</text>
<polyline fill="none" stroke="black" points="622.5,-60.5 727.5,-60.5 "/>
<text text-anchor="middle" x="675" y="-46.9" font-family="Times,serif" font-size="12.00">84</text>
</g>
<!-- node00x104c00020&#45;&gt;node00x104c000e0 -->
<g id="edge8" class="edge"><title>node00x104c00020:f1&#45;&gt;node00x104c000e0:w1</title>
<path fill="none" stroke="black" d="M586,-71C598,-71 603.25,-71 611.875,-71"/>
<polygon fill="black" stroke="black" points="612,-74.5001 622,-71 612,-67.5001 612,-74.5001"/>
</g>
<!-- node00x104c00020&#45;&gt;node00x104c000e0 -->
<g id="edge9" class="edge"><title>node00x104c00020:f2&#45;&gt;node00x104c000e0:w2</title>
<path fill="none" stroke="black" d="M586,-93C598.005,-93 603.249,-92.4375 611.873,-92.1562"/>
<polygon fill="black" stroke="black" points="612.055,-95.654 622,-92 611.947,-88.6548 612.055,-95.654"/>
</g>
<!-- node00x0 -->
<g id="node6" class="node"><title>node00x0</title>
<polygon fill="none" stroke="black" points="858,-61.5 858,-124.5 912,-124.5 912,-61.5 858,-61.5"/>
<text text-anchor="middle" x="885" y="-110.9" font-family="Times,serif" font-size="12.00">NULL</text>
<polyline fill="none" stroke="black" points="858,-103.5 912,-103.5 "/>
<text text-anchor="middle" x="885" y="-89.9" font-family="Times,serif" font-size="12.00">NULL</text>
<polyline fill="none" stroke="black" points="858,-82.5 912,-82.5 "/>
<text text-anchor="middle" x="885" y="-68.9" font-family="Times,serif" font-size="12.00">NULL</text>
</g>
<!-- node00x104c00020&#45;&gt;node00x0 -->
<g id="edge10" class="edge"><title>node00x104c00020:f3&#45;&gt;node00x0:w3</title>
<path fill="none" stroke="black" d="M586,-114C703.465,-114 735.327,-114 847.943,-114"/>
<polygon fill="black" stroke="black" points="848,-117.5 858,-114 848,-110.5 848,-117.5"/>
</g>
<!-- node00x104c000e0&#45;&gt;node00x0 -->
<g id="edge12" class="edge"><title>node00x104c000e0:f2&#45;&gt;node00x0:w2</title>
<path fill="none" stroke="black" d="M728,-92C782.281,-92 798.313,-92.8826 847.962,-92.9894"/>
<polygon fill="black" stroke="black" points="847.996,-96.4894 858,-93 848.004,-89.4894 847.996,-96.4894"/>
</g>
<!-- node00x104c00200 -->
<g id="node7" class="node"><title>node00x104c00200</title>
<polygon fill="none" stroke="black" points="764,-40 764,-82 822,-82 822,-40 764,-40"/>
<text text-anchor="middle" x="775.5" y="-68.4" font-family="Times,serif" font-size="12.00">1</text>
<polyline fill="none" stroke="black" points="787,-61 787,-82 "/>
<text text-anchor="middle" x="804.5" y="-68.4" font-family="Times,serif" font-size="12.00">0x0</text>
<polyline fill="none" stroke="black" points="764,-61 822,-61 "/>
<text text-anchor="middle" x="793" y="-47.4" font-family="Times,serif" font-size="12.00">100</text>
</g>
<!-- node00x104c000e0&#45;&gt;node00x104c00200 -->
<g id="edge11" class="edge"><title>node00x104c000e0:f1&#45;&gt;node00x104c00200:w1</title>
<path fill="none" stroke="black" d="M728,-71C740.005,-71 745.249,-71.5625 753.873,-71.8438"/>
<polygon fill="black" stroke="black" points="753.947,-75.3452 764,-72 754.055,-68.346 753.947,-75.3452"/>
</g>
<!-- node00x104c00200&#45;&gt;node00x0 -->
<g id="edge13" class="edge"><title>node00x104c00200:f1&#45;&gt;node00x0:w1</title>
<path fill="none" stroke="black" d="M822,-72C834,-72 839.25,-72 847.875,-72"/>
<polygon fill="black" stroke="black" points="848,-75.5001 858,-72 848,-68.5001 848,-75.5001"/>
</g>
<!-- node0 -->
<!-- node0&#45;&gt;HeadNode0 -->
</g>
</svg>
