<?xml version="1.0" encoding="UTF-8" standalone="no"?>
<!DOCTYPE svg PUBLIC "-//W3C//DTD SVG 1.1//EN"
 "http://www.w3.org/Graphics/SVG/1.1/DTD/svg11.dtd">
<!-- Generated by graphviz version 8.1.0 (20230707.0739)
 -->
<!-- Title: SkipList Pages: 1 -->
<svg width="786pt" height="959pt"
 viewBox="0.00 0.00 786.00 958.50" xmlns="http://www.w3.org/2000/svg" xmlns:xlink="http://www.w3.org/1999/xlink">
<g id="graph0" class="graph" transform="scale(1 1) rotate(0) translate(4 954.5)">
<title>SkipList</title>
<polygon fill="white" stroke="none" points="-4,4 -4,-954.5 782,-954.5 782,4 -4,4"/>
<text text-anchor="middle" x="389" y="-7.2" font-family="Times,serif" font-size="14.00">SkipList.</text>
<g id="clust8" class="cluster">
<title>cluster7</title>
<polygon fill="none" stroke="black" stroke-dasharray="5,2" points="47,-118.5 47,-204.5 423,-204.5 423,-118.5 47,-118.5"/>
<text text-anchor="middle" x="235" y="-187.2" font-family="Times,serif" font-size="14.00">Skip list iteration 7</text>
</g>
<g id="clust9" class="cluster">
<title>cluster8</title>
<polygon fill="none" stroke="black" stroke-dasharray="5,2" points="46.88,-32.5 46.88,-110.5 167.12,-110.5 167.12,-32.5 46.88,-32.5"/>
<text text-anchor="middle" x="107" y="-93.2" font-family="Times,serif" font-size="14.00">Skip list iteration 8</text>
</g>
<g id="clust6" class="cluster">
<title>cluster5</title>
<polygon fill="none" stroke="black" stroke-dasharray="5,2" points="47,-306.5 47,-392.5 679,-392.5 679,-306.5 47,-306.5"/>
<text text-anchor="middle" x="363" y="-375.2" font-family="Times,serif" font-size="14.00">Skip list iteration 5</text>
</g>
<g id="clust1" class="cluster">
<title>cluster0</title>
<polygon fill="none" stroke="black" stroke-dasharray="5,2" points="46.88,-864.5 46.88,-942.5 167.12,-942.5 167.12,-864.5 46.88,-864.5"/>
<text text-anchor="middle" x="107" y="-925.2" font-family="Times,serif" font-size="14.00">Skip list iteration 0</text>
</g>
<g id="clust2" class="cluster">
<title>cluster1</title>
<polygon fill="none" stroke="black" stroke-dasharray="5,2" points="47,-748.5 47,-856.5 423,-856.5 423,-748.5 47,-748.5"/>
<text text-anchor="middle" x="235" y="-839.2" font-family="Times,serif" font-size="14.00">Skip list iteration 1</text>
</g>
<g id="clust3" class="cluster">
<title>cluster2</title>
<polygon fill="none" stroke="black" stroke-dasharray="5,2" points="47,-632.5 47,-740.5 563,-740.5 563,-632.5 47,-632.5"/>
<text text-anchor="middle" x="305" y="-723.2" font-family="Times,serif" font-size="14.00">Skip list iteration 2</text>
</g>
<g id="clust4" class="cluster">
<title>cluster3</title>
<polygon fill="none" stroke="black" stroke-dasharray="5,2" points="47,-516.5 47,-624.5 679,-624.5 679,-516.5 47,-516.5"/>
<text text-anchor="middle" x="363" y="-607.2" font-family="Times,serif" font-size="14.00">Skip list iteration 3</text>
</g>
<g id="clust5" class="cluster">
<title>cluster4</title>
<polygon fill="none" stroke="black" stroke-dasharray="5,2" points="47,-400.5 47,-508.5 770,-508.5 770,-400.5 47,-400.5"/>
<text text-anchor="middle" x="408.5" y="-491.2" font-family="Times,serif" font-size="14.00">Skip list iteration 4</text>
</g>
<g id="clust7" class="cluster">
<title>cluster6</title>
<polygon fill="none" stroke="black" stroke-dasharray="5,2" points="47,-212.5 47,-298.5 563,-298.5 563,-212.5 47,-212.5"/>
<text text-anchor="middle" x="305" y="-281.2" font-family="Times,serif" font-size="14.00">Skip list iteration 6</text>
</g>
<!-- HeadNode0 -->
<g id="node1" class="node">
<title>HeadNode0</title>
<polygon fill="none" stroke="black" points="55.88,-873.5 55.88,-909.5 158.12,-909.5 158.12,-873.5 55.88,-873.5"/>
<text text-anchor="middle" x="107" y="-887.6" font-family="Times,serif" font-size="12.00">Empty HeadNode</text>
</g>
<!-- HeadNode1 -->
<g id="node2" class="node">
<title>HeadNode1</title>
<polygon fill="none" stroke="black" points="55,-779.25 55,-823.75 159,-823.75 159,-779.25 55,-779.25"/>
<text text-anchor="middle" x="66" y="-808.35" font-family="Times,serif" font-size="12.00">1</text>
<polyline fill="none" stroke="black" points="77,-801.5 77,-823.75"/>
<text text-anchor="middle" x="118" y="-808.35" font-family="Times,serif" font-size="12.00">0x100700000</text>
<polyline fill="none" stroke="black" points="55,-801.5 159,-801.5"/>
<text text-anchor="middle" x="66" y="-786.1" font-family="Times,serif" font-size="12.00">1</text>
<polyline fill="none" stroke="black" points="77,-779.25 77,-801.5"/>
<text text-anchor="middle" x="118" y="-786.1" font-family="Times,serif" font-size="12.00">0x100700000</text>
</g>
<!-- node10x100700000 -->
<g id="node3" class="node">
<title>node10x100700000</title>
<polygon fill="none" stroke="black" points="220,-757.12 220,-823.88 276,-823.88 276,-757.12 220,-757.12"/>
<text text-anchor="middle" x="231" y="-808.48" font-family="Times,serif" font-size="12.00">1</text>
<polyline fill="none" stroke="black" points="242,-801.62 242,-823.88"/>
<text text-anchor="middle" x="259" y="-808.48" font-family="Times,serif" font-size="12.00">0x0</text>
<polyline fill="none" stroke="black" points="220,-801.62 276,-801.62"/>
<text text-anchor="middle" x="231" y="-786.23" font-family="Times,serif" font-size="12.00">1</text>
<polyline fill="none" stroke="black" points="242,-779.38 242,-801.62"/>
<text text-anchor="middle" x="259" y="-786.23" font-family="Times,serif" font-size="12.00">0x0</text>
<polyline fill="none" stroke="black" points="220,-779.38 276,-779.38"/>
<text text-anchor="middle" x="248" y="-763.98" font-family="Times,serif" font-size="12.00">0</text>
</g>
<!-- HeadNode1&#45;&gt;node10x100700000 -->
<g id="edge1" class="edge">
<title>HeadNode1:f1&#45;&gt;node10x100700000:w1</title>
<path fill="none" stroke="black" d="M160,-790.5C182.23,-790.5 190.32,-790.5 208.25,-790.5"/>
<polygon fill="black" stroke="black" points="208,-794 218,-790.5 208,-787 208,-794"/>
</g>
<!-- HeadNode1&#45;&gt;node10x100700000 -->
<g id="edge2" class="edge">
<title>HeadNode1:f2&#45;&gt;node10x100700000:w2</title>
<path fill="none" stroke="black" d="M160,-812.5C182.23,-812.5 190.32,-812.5 208.25,-812.5"/>
<polygon fill="black" stroke="black" points="208,-816 218,-812.5 208,-809 208,-816"/>
</g>
<!-- node10x0 -->
<g id="node4" class="node">
<title>node10x0</title>
<polygon fill="none" stroke="black" points="361,-779.25 361,-823.75 415,-823.75 415,-779.25 361,-779.25"/>
<text text-anchor="middle" x="388" y="-808.35" font-family="Times,serif" font-size="12.00">NULL</text>
<polyline fill="none" stroke="black" points="361,-801.5 415,-801.5"/>
<text text-anchor="middle" x="388" y="-786.1" font-family="Times,serif" font-size="12.00">NULL</text>
</g>
<!-- node10x100700000&#45;&gt;node10x0 -->
<g id="edge3" class="edge">
<title>node10x100700000:f1&#45;&gt;node10x0:w1</title>
<path fill="none" stroke="black" d="M277,-790.5C310,-790.5 320.86,-790.5 349.19,-790.5"/>
<polygon fill="black" stroke="black" points="349,-794 359,-790.5 349,-787 349,-794"/>
</g>
<!-- node10x100700000&#45;&gt;node10x0 -->
<g id="edge4" class="edge">
<title>node10x100700000:f2&#45;&gt;node10x0:w2</title>
<path fill="none" stroke="black" d="M277,-812.5C310,-812.5 320.86,-812.5 349.19,-812.5"/>
<polygon fill="black" stroke="black" points="349,-816 359,-812.5 349,-809 349,-816"/>
</g>
<!-- HeadNode2 -->
<g id="node5" class="node">
<title>HeadNode2</title>
<polygon fill="none" stroke="black" points="55,-663.25 55,-707.75 159,-707.75 159,-663.25 55,-663.25"/>
<text text-anchor="middle" x="66" y="-692.35" font-family="Times,serif" font-size="12.00">1</text>
<polyline fill="none" stroke="black" points="77,-685.5 77,-707.75"/>
<text text-anchor="middle" x="118" y="-692.35" font-family="Times,serif" font-size="12.00">0x100700000</text>
<polyline fill="none" stroke="black" points="55,-685.5 159,-685.5"/>
<text text-anchor="middle" x="66" y="-670.1" font-family="Times,serif" font-size="12.00">1</text>
<polyline fill="none" stroke="black" points="77,-663.25 77,-685.5"/>
<text text-anchor="middle" x="118" y="-670.1" font-family="Times,serif" font-size="12.00">0x100700000</text>
</g>
<!-- node20x100700000 -->
<g id="node6" class="node">
<title>node20x100700000</title>
<polygon fill="none" stroke="black" points="196,-641.12 196,-707.88 300,-707.88 300,-641.12 196,-641.12"/>
<text text-anchor="middle" x="219" y="-692.48" font-family="Times,serif" font-size="12.00">2</text>
<polyline fill="none" stroke="black" points="242,-685.62 242,-707.88"/>
<text text-anchor="middle" x="271" y="-692.48" font-family="Times,serif" font-size="12.00">0x0</text>
<polyline fill="none" stroke="black" points="196,-685.62 300,-685.62"/>
<text text-anchor="middle" x="207" y="-670.23" font-family="Times,serif" font-size="12.00">1</text>
<polyline fill="none" stroke="black" points="218,-663.38 218,-685.62"/>
<text text-anchor="middle" x="259" y="-670.23" font-family="Times,serif" font-size="12.00">0x100700080</text>
<polyline fill="none" stroke="black" points="196,-663.38 300,-663.38"/>
<text text-anchor="middle" x="248" y="-647.98" font-family="Times,serif" font-size="12.00">0</text>
</g>
<!-- HeadNode2&#45;&gt;node20x100700000 -->
<g id="edge5" class="edge">
<title>HeadNode2:f1&#45;&gt;node20x100700000:w1</title>
<path fill="none" stroke="black" d="M160,-674.5C171.62,-674.5 176.92,-674.5 185.08,-674.5"/>
<polygon fill="black" stroke="black" points="185,-678 195,-674.5 185,-671 185,-678"/>
</g>
<!-- HeadNode2&#45;&gt;node20x100700000 -->
<g id="edge6" class="edge">
<title>HeadNode2:f2&#45;&gt;node20x100700000:w2</title>
<path fill="none" stroke="black" d="M160,-696.5C171.62,-696.5 176.92,-696.5 185.08,-696.5"/>
<polygon fill="black" stroke="black" points="185,-700 195,-696.5 185,-693 185,-700"/>
</g>
<!-- node20x100700080 -->
<g id="node7" class="node">
<title>node20x100700080</title>
<polygon fill="none" stroke="black" points="360,-641.25 360,-685.75 416,-685.75 416,-641.25 360,-641.25"/>
<text text-anchor="middle" x="371" y="-670.35" font-family="Times,serif" font-size="12.00">1</text>
<polyline fill="none" stroke="black" points="382,-663.5 382,-685.75"/>
<text text-anchor="middle" x="399" y="-670.35" font-family="Times,serif" font-size="12.00">0x0</text>
<polyline fill="none" stroke="black" points="360,-663.5 416,-663.5"/>
<text text-anchor="middle" x="388" y="-648.1" font-family="Times,serif" font-size="12.00">1</text>
</g>
<!-- node20x100700000&#45;&gt;node20x100700080 -->
<g id="edge7" class="edge">
<title>node20x100700000:f1&#45;&gt;node20x100700080:w1</title>
<path fill="none" stroke="black" d="M300,-674.5C322.23,-674.5 330.32,-674.5 348.25,-674.5"/>
<polygon fill="black" stroke="black" points="348,-678 358,-674.5 348,-671 348,-678"/>
</g>
<!-- node20x0 -->
<g id="node8" class="node">
<title>node20x0</title>
<polygon fill="none" stroke="black" points="501,-663.25 501,-707.75 555,-707.75 555,-663.25 501,-663.25"/>
<text text-anchor="middle" x="528" y="-692.35" font-family="Times,serif" font-size="12.00">NULL</text>
<polyline fill="none" stroke="black" points="501,-685.5 555,-685.5"/>
<text text-anchor="middle" x="528" y="-670.1" font-family="Times,serif" font-size="12.00">NULL</text>
</g>
<!-- node20x100700000&#45;&gt;node20x0 -->
<g id="edge8" class="edge">
<title>node20x100700000:f2&#45;&gt;node20x0:w2</title>
<path fill="none" stroke="black" d="M300,-696.5C385.24,-696.5 409.18,-696.5 489.39,-696.5"/>
<polygon fill="black" stroke="black" points="489,-700 499,-696.5 489,-693 489,-700"/>
</g>
<!-- node20x100700080&#45;&gt;node20x0 -->
<g id="edge9" class="edge">
<title>node20x100700080:f1&#45;&gt;node20x0:w1</title>
<path fill="none" stroke="black" d="M417,-674.5C450,-674.5 460.86,-674.5 489.19,-674.5"/>
<polygon fill="black" stroke="black" points="489,-678 499,-674.5 489,-671 489,-678"/>
</g>
<!-- HeadNode3 -->
<g id="node9" class="node">
<title>HeadNode3</title>
<polygon fill="none" stroke="black" points="55,-547.25 55,-591.75 159,-591.75 159,-547.25 55,-547.25"/>
<text text-anchor="middle" x="66" y="-576.35" font-family="Times,serif" font-size="12.00">1</text>
<polyline fill="none" stroke="black" points="77,-569.5 77,-591.75"/>
<text text-anchor="middle" x="118" y="-576.35" font-family="Times,serif" font-size="12.00">0x100700000</text>
<polyline fill="none" stroke="black" points="55,-569.5 159,-569.5"/>
<text text-anchor="middle" x="66" y="-554.1" font-family="Times,serif" font-size="12.00">1</text>
<polyline fill="none" stroke="black" points="77,-547.25 77,-569.5"/>
<text text-anchor="middle" x="118" y="-554.1" font-family="Times,serif" font-size="12.00">0x100700000</text>
</g>
<!-- node30x100700000 -->
<g id="node10" class="node">
<title>node30x100700000</title>
<polygon fill="none" stroke="black" points="196,-525.12 196,-591.88 300,-591.88 300,-525.12 196,-525.12"/>
<text text-anchor="middle" x="219" y="-576.48" font-family="Times,serif" font-size="12.00">3</text>
<polyline fill="none" stroke="black" points="242,-569.62 242,-591.88"/>
<text text-anchor="middle" x="271" y="-576.48" font-family="Times,serif" font-size="12.00">0x0</text>
<polyline fill="none" stroke="black" points="196,-569.62 300,-569.62"/>
<text text-anchor="middle" x="207" y="-554.23" font-family="Times,serif" font-size="12.00">1</text>
<polyline fill="none" stroke="black" points="218,-547.38 218,-569.62"/>
<text text-anchor="middle" x="259" y="-554.23" font-family="Times,serif" font-size="12.00">0x100700080</text>
<polyline fill="none" stroke="black" points="196,-547.38 300,-547.38"/>
<text text-anchor="middle" x="248" y="-531.98" font-family="Times,serif" font-size="12.00">0</text>
</g>
<!-- HeadNode3&#45;&gt;node30x100700000 -->
<g id="edge10" class="edge">
<title>HeadNode3:f1&#45;&gt;node30x100700000:w1</title>
<path fill="none" stroke="black" d="M160,-558.5C171.62,-558.5 176.92,-558.5 185.08,-558.5"/>
<polygon fill="black" stroke="black" points="185,-562 195,-558.5 185,-555 185,-562"/>
</g>
<!-- HeadNode3&#45;&gt;node30x100700000 -->
<g id="edge11" class="edge">
<title>HeadNode3:f2&#45;&gt;node30x100700000:w2</title>
<path fill="none" stroke="black" d="M160,-580.5C171.62,-580.5 176.92,-580.5 185.08,-580.5"/>
<polygon fill="black" stroke="black" points="185,-584 195,-580.5 185,-577 185,-584"/>
</g>
<!-- node30x100700080 -->
<g id="node11" class="node">
<title>node30x100700080</title>
<polygon fill="none" stroke="black" points="336,-525.25 336,-569.75 440,-569.75 440,-525.25 336,-525.25"/>
<text text-anchor="middle" x="347" y="-554.35" font-family="Times,serif" font-size="12.00">1</text>
<polyline fill="none" stroke="black" points="358,-547.5 358,-569.75"/>
<text text-anchor="middle" x="399" y="-554.35" font-family="Times,serif" font-size="12.00">0x1007000b0</text>
<polyline fill="none" stroke="black" points="336,-547.5 440,-547.5"/>
<text text-anchor="middle" x="388" y="-532.1" font-family="Times,serif" font-size="12.00">1</text>
</g>
<!-- node30x100700000&#45;&gt;node30x100700080 -->
<g id="edge12" class="edge">
<title>node30x100700000:f1&#45;&gt;node30x100700080:w1</title>
<path fill="none" stroke="black" d="M300,-558.5C311.62,-558.5 316.92,-558.5 325.08,-558.5"/>
<polygon fill="black" stroke="black" points="325,-562 335,-558.5 325,-555 325,-562"/>
</g>
<!-- node30x0 -->
<g id="node12" class="node">
<title>node30x0</title>
<polygon fill="none" stroke="black" points="617,-547.25 617,-591.75 671,-591.75 671,-547.25 617,-547.25"/>
<text text-anchor="middle" x="644" y="-576.35" font-family="Times,serif" font-size="12.00">NULL</text>
<polyline fill="none" stroke="black" points="617,-569.5 671,-569.5"/>
<text text-anchor="middle" x="644" y="-554.1" font-family="Times,serif" font-size="12.00">NULL</text>
</g>
<!-- node30x100700000&#45;&gt;node30x0 -->
<g id="edge13" class="edge">
<title>node30x100700000:f2&#45;&gt;node30x0:w2</title>
<path fill="none" stroke="black" d="M300,-580.5C436.74,-580.5 473.63,-580.5 605.11,-580.5"/>
<polygon fill="black" stroke="black" points="605,-584 615,-580.5 605,-577 605,-584"/>
</g>
<!-- node30x1007000b0 -->
<g id="node13" class="node">
<title>node30x1007000b0</title>
<polygon fill="none" stroke="black" points="500,-525.25 500,-569.75 556,-569.75 556,-525.25 500,-525.25"/>
<text text-anchor="middle" x="511" y="-554.35" font-family="Times,serif" font-size="12.00">1</text>
<polyline fill="none" stroke="black" points="522,-547.5 522,-569.75"/>
<text text-anchor="middle" x="539" y="-554.35" font-family="Times,serif" font-size="12.00">0x0</text>
<polyline fill="none" stroke="black" points="500,-547.5 556,-547.5"/>
<text text-anchor="middle" x="528" y="-532.1" font-family="Times,serif" font-size="12.00">2</text>
</g>
<!-- node30x100700080&#45;&gt;node30x1007000b0 -->
<g id="edge14" class="edge">
<title>node30x100700080:f1&#45;&gt;node30x1007000b0:w1</title>
<path fill="none" stroke="black" d="M440,-558.5C462.23,-558.5 470.32,-558.5 488.25,-558.5"/>
<polygon fill="black" stroke="black" points="488,-562 498,-558.5 488,-555 488,-562"/>
</g>
<!-- node30x1007000b0&#45;&gt;node30x0 -->
<g id="edge15" class="edge">
<title>node30x1007000b0:f1&#45;&gt;node30x0:w1</title>
<path fill="none" stroke="black" d="M557,-558.5C579.23,-558.5 587.32,-558.5 605.25,-558.5"/>
<polygon fill="black" stroke="black" points="605,-562 615,-558.5 605,-555 605,-562"/>
</g>
<!-- HeadNode4 -->
<g id="node14" class="node">
<title>HeadNode4</title>
<polygon fill="none" stroke="black" points="55,-431.25 55,-475.75 159,-475.75 159,-431.25 55,-431.25"/>
<text text-anchor="middle" x="66" y="-460.35" font-family="Times,serif" font-size="12.00">1</text>
<polyline fill="none" stroke="black" points="77,-453.5 77,-475.75"/>
<text text-anchor="middle" x="118" y="-460.35" font-family="Times,serif" font-size="12.00">0x100700000</text>
<polyline fill="none" stroke="black" points="55,-453.5 159,-453.5"/>
<text text-anchor="middle" x="66" y="-438.1" font-family="Times,serif" font-size="12.00">1</text>
<polyline fill="none" stroke="black" points="77,-431.25 77,-453.5"/>
<text text-anchor="middle" x="118" y="-438.1" font-family="Times,serif" font-size="12.00">0x100700000</text>
</g>
<!-- node40x100700000 -->
<g id="node15" class="node">
<title>node40x100700000</title>
<polygon fill="none" stroke="black" points="196,-409.12 196,-475.88 300,-475.88 300,-409.12 196,-409.12"/>
<text text-anchor="middle" x="219" y="-460.48" font-family="Times,serif" font-size="12.00">4</text>
<polyline fill="none" stroke="black" points="242,-453.62 242,-475.88"/>
<text text-anchor="middle" x="271" y="-460.48" font-family="Times,serif" font-size="12.00">0x0</text>
<polyline fill="none" stroke="black" points="196,-453.62 300,-453.62"/>
<text text-anchor="middle" x="207" y="-438.23" font-family="Times,serif" font-size="12.00">1</text>
<polyline fill="none" stroke="black" points="218,-431.38 218,-453.62"/>
<text text-anchor="middle" x="259" y="-438.23" font-family="Times,serif" font-size="12.00">0x100700080</text>
<polyline fill="none" stroke="black" points="196,-431.38 300,-431.38"/>
<text text-anchor="middle" x="248" y="-415.98" font-family="Times,serif" font-size="12.00">0</text>
</g>
<!-- HeadNode4&#45;&gt;node40x100700000 -->
<g id="edge16" class="edge">
<title>HeadNode4:f1&#45;&gt;node40x100700000:w1</title>
<path fill="none" stroke="black" d="M160,-442.5C171.62,-442.5 176.92,-442.5 185.08,-442.5"/>
<polygon fill="black" stroke="black" points="185,-446 195,-442.5 185,-439 185,-446"/>
</g>
<!-- HeadNode4&#45;&gt;node40x100700000 -->
<g id="edge17" class="edge">
<title>HeadNode4:f2&#45;&gt;node40x100700000:w2</title>
<path fill="none" stroke="black" d="M160,-464.5C171.62,-464.5 176.92,-464.5 185.08,-464.5"/>
<polygon fill="black" stroke="black" points="185,-468 195,-464.5 185,-461 185,-468"/>
</g>
<!-- node40x100700080 -->
<g id="node16" class="node">
<title>node40x100700080</title>
<polygon fill="none" stroke="black" points="336,-409.25 336,-453.75 440,-453.75 440,-409.25 336,-409.25"/>
<text text-anchor="middle" x="347" y="-438.35" font-family="Times,serif" font-size="12.00">1</text>
<polyline fill="none" stroke="black" points="358,-431.5 358,-453.75"/>
<text text-anchor="middle" x="399" y="-438.35" font-family="Times,serif" font-size="12.00">0x1007000b0</text>
<polyline fill="none" stroke="black" points="336,-431.5 440,-431.5"/>
<text text-anchor="middle" x="388" y="-416.1" font-family="Times,serif" font-size="12.00">1</text>
</g>
<!-- node40x100700000&#45;&gt;node40x100700080 -->
<g id="edge18" class="edge">
<title>node40x100700000:f1&#45;&gt;node40x100700080:w1</title>
<path fill="none" stroke="black" d="M300,-442.5C311.62,-442.5 316.92,-442.5 325.08,-442.5"/>
<polygon fill="black" stroke="black" points="325,-446 335,-442.5 325,-439 325,-446"/>
</g>
<!-- node40x0 -->
<g id="node17" class="node">
<title>node40x0</title>
<polygon fill="none" stroke="black" points="708,-431.25 708,-475.75 762,-475.75 762,-431.25 708,-431.25"/>
<text text-anchor="middle" x="735" y="-460.35" font-family="Times,serif" font-size="12.00">NULL</text>
<polyline fill="none" stroke="black" points="708,-453.5 762,-453.5"/>
<text text-anchor="middle" x="735" y="-438.1" font-family="Times,serif" font-size="12.00">NULL</text>
</g>
<!-- node40x100700000&#45;&gt;node40x0 -->
<g id="edge19" class="edge">
<title>node40x100700000:f2&#45;&gt;node40x0:w2</title>
<path fill="none" stroke="black" d="M300,-464.5C477.61,-464.5 524.75,-464.5 697.01,-464.5"/>
<polygon fill="black" stroke="black" points="697,-468 707,-464.5 697,-461 697,-468"/>
</g>
<!-- node40x1007000b0 -->
<g id="node18" class="node">
<title>node40x1007000b0</title>
<polygon fill="none" stroke="black" points="476,-409.25 476,-453.75 580,-453.75 580,-409.25 476,-409.25"/>
<text text-anchor="middle" x="487" y="-438.35" font-family="Times,serif" font-size="12.00">1</text>
<polyline fill="none" stroke="black" points="498,-431.5 498,-453.75"/>
<text text-anchor="middle" x="539" y="-438.35" font-family="Times,serif" font-size="12.00">0x100700120</text>
<polyline fill="none" stroke="black" points="476,-431.5 580,-431.5"/>
<text text-anchor="middle" x="528" y="-416.1" font-family="Times,serif" font-size="12.00">2</text>
</g>
<!-- node40x100700080&#45;&gt;node40x1007000b0 -->
<g id="edge20" class="edge">
<title>node40x100700080:f1&#45;&gt;node40x1007000b0:w1</title>
<path fill="none" stroke="black" d="M440,-442.5C451.62,-442.5 456.92,-442.5 465.08,-442.5"/>
<polygon fill="black" stroke="black" points="465,-446 475,-442.5 465,-439 465,-446"/>
</g>
<!-- node40x100700120 -->
<g id="node19" class="node">
<title>node40x100700120</title>
<polygon fill="none" stroke="black" points="616,-409.25 616,-453.75 672,-453.75 672,-409.25 616,-409.25"/>
<text text-anchor="middle" x="627" y="-438.35" font-family="Times,serif" font-size="12.00">1</text>
<polyline fill="none" stroke="black" points="638,-431.5 638,-453.75"/>
<text text-anchor="middle" x="655" y="-438.35" font-family="Times,serif" font-size="12.00">0x0</text>
<polyline fill="none" stroke="black" points="616,-431.5 672,-431.5"/>
<text text-anchor="middle" x="644" y="-416.1" font-family="Times,serif" font-size="12.00">3</text>
</g>
<!-- node40x1007000b0&#45;&gt;node40x100700120 -->
<g id="edge21" class="edge">
<title>node40x1007000b0:f1&#45;&gt;node40x100700120:w1</title>
<path fill="none" stroke="black" d="M580,-442.5C591.62,-442.5 596.92,-442.5 605.08,-442.5"/>
<polygon fill="black" stroke="black" points="605,-446 615,-442.5 605,-439 605,-446"/>
</g>
<!-- node40x100700120&#45;&gt;node40x0 -->
<g id="edge22" class="edge">
<title>node40x100700120:f1&#45;&gt;node40x0:w1</title>
<path fill="none" stroke="black" d="M673,-442.5C684.18,-442.5 689.33,-442.5 697.12,-442.5"/>
<polygon fill="black" stroke="black" points="697,-446 707,-442.5 697,-439 697,-446"/>
</g>
<!-- HeadNode5 -->
<g id="node20" class="node">
<title>HeadNode5</title>
<polygon fill="none" stroke="black" points="55,-323.5 55,-359.5 159,-359.5 159,-323.5 55,-323.5"/>
<text text-anchor="middle" x="66" y="-337.6" font-family="Times,serif" font-size="12.00">1</text>
<polyline fill="none" stroke="black" points="77,-324.25 77,-359.5"/>
<text text-anchor="middle" x="118" y="-337.6" font-family="Times,serif" font-size="12.00">0x100700080</text>
</g>
<!-- node50x100700080 -->
<g id="node21" class="node">
<title>node50x100700080</title>
<polygon fill="none" stroke="black" points="196,-315.25 196,-359.75 300,-359.75 300,-315.25 196,-315.25"/>
<text text-anchor="middle" x="207" y="-344.35" font-family="Times,serif" font-size="12.00">1</text>
<polyline fill="none" stroke="black" points="218,-337.5 218,-359.75"/>
<text text-anchor="middle" x="259" y="-344.35" font-family="Times,serif" font-size="12.00">0x1007000b0</text>
<polyline fill="none" stroke="black" points="196,-337.5 300,-337.5"/>
<text text-anchor="middle" x="248" y="-322.1" font-family="Times,serif" font-size="12.00">1</text>
</g>
<!-- HeadNode5&#45;&gt;node50x100700080 -->
<g id="edge23" class="edge">
<title>HeadNode5:f1&#45;&gt;node50x100700080:w1</title>
<path fill="none" stroke="black" d="M160,-341.5C171.97,-341.5 176.98,-345.28 185.26,-347.28"/>
<polygon fill="black" stroke="black" points="184.67,-350.85 195,-348.5 185.46,-343.89 184.67,-350.85"/>
</g>
<!-- node50x1007000b0 -->
<g id="node22" class="node">
<title>node50x1007000b0</title>
<polygon fill="none" stroke="black" points="336,-315.25 336,-359.75 440,-359.75 440,-315.25 336,-315.25"/>
<text text-anchor="middle" x="347" y="-344.35" font-family="Times,serif" font-size="12.00">1</text>
<polyline fill="none" stroke="black" points="358,-337.5 358,-359.75"/>
<text text-anchor="middle" x="399" y="-344.35" font-family="Times,serif" font-size="12.00">0x100700120</text>
<polyline fill="none" stroke="black" points="336,-337.5 440,-337.5"/>
<text text-anchor="middle" x="388" y="-322.1" font-family="Times,serif" font-size="12.00">2</text>
</g>
<!-- node50x100700080&#45;&gt;node50x1007000b0 -->
<g id="edge24" class="edge">
<title>node50x100700080:f1&#45;&gt;node50x1007000b0:w1</title>
<path fill="none" stroke="black" d="M300,-348.5C311.62,-348.5 316.92,-348.5 325.08,-348.5"/>
<polygon fill="black" stroke="black" points="325,-352 335,-348.5 325,-345 325,-352"/>
</g>
<!-- node50x100700120 -->
<g id="node23" class="node">
<title>node50x100700120</title>
<polygon fill="none" stroke="black" points="500,-315.25 500,-359.75 556,-359.75 556,-315.25 500,-315.25"/>
<text text-anchor="middle" x="511" y="-344.35" font-family="Times,serif" font-size="12.00">1</text>
<polyline fill="none" stroke="black" points="522,-337.5 522,-359.75"/>
<text text-anchor="middle" x="539" y="-344.35" font-family="Times,serif" font-size="12.00">0x0</text>
<polyline fill="none" stroke="black" points="500,-337.5 556,-337.5"/>
<text text-anchor="middle" x="528" y="-322.1" font-family="Times,serif" font-size="12.00">3</text>
</g>
<!-- node50x1007000b0&#45;&gt;node50x100700120 -->
<g id="edge25" class="edge">
<title>node50x1007000b0:f1&#45;&gt;node50x100700120:w1</title>
<path fill="none" stroke="black" d="M440,-348.5C462.23,-348.5 470.32,-348.5 488.25,-348.5"/>
<polygon fill="black" stroke="black" points="488,-352 498,-348.5 488,-345 488,-352"/>
</g>
<!-- node50x0 -->
<g id="node24" class="node">
<title>node50x0</title>
<polygon fill="none" stroke="black" points="617,-323.5 617,-359.5 671,-359.5 671,-323.5 617,-323.5"/>
<text text-anchor="middle" x="644" y="-337.6" font-family="Times,serif" font-size="12.00">NULL</text>
</g>
<!-- node50x100700120&#45;&gt;node50x0 -->
<g id="edge26" class="edge">
<title>node50x100700120:f1&#45;&gt;node50x0:w1</title>
<path fill="none" stroke="black" d="M557,-348.5C573.22,-348.5 591.08,-347.28 606.38,-345.85"/>
<polygon fill="black" stroke="black" points="606.4,-349.27 616,-344.8 605.71,-342.3 606.4,-349.27"/>
</g>
<!-- HeadNode6 -->
<g id="node25" class="node">
<title>HeadNode6</title>
<polygon fill="none" stroke="black" points="55,-229.5 55,-265.5 159,-265.5 159,-229.5 55,-229.5"/>
<text text-anchor="middle" x="66" y="-243.6" font-family="Times,serif" font-size="12.00">1</text>
<polyline fill="none" stroke="black" points="77,-230.25 77,-265.5"/>
<text text-anchor="middle" x="118" y="-243.6" font-family="Times,serif" font-size="12.00">0x1007000b0</text>
</g>
<!-- node60x1007000b0 -->
<g id="node26" class="node">
<title>node60x1007000b0</title>
<polygon fill="none" stroke="black" points="196,-221.25 196,-265.75 300,-265.75 300,-221.25 196,-221.25"/>
<text text-anchor="middle" x="207" y="-250.35" font-family="Times,serif" font-size="12.00">1</text>
<polyline fill="none" stroke="black" points="218,-243.5 218,-265.75"/>
<text text-anchor="middle" x="259" y="-250.35" font-family="Times,serif" font-size="12.00">0x100700120</text>
<polyline fill="none" stroke="black" points="196,-243.5 300,-243.5"/>
<text text-anchor="middle" x="248" y="-228.1" font-family="Times,serif" font-size="12.00">2</text>
</g>
<!-- HeadNode6&#45;&gt;node60x1007000b0 -->
<g id="edge27" class="edge">
<title>HeadNode6:f1&#45;&gt;node60x1007000b0:w1</title>
<path fill="none" stroke="black" d="M160,-247.5C171.97,-247.5 176.98,-251.28 185.26,-253.28"/>
<polygon fill="black" stroke="black" points="184.67,-256.85 195,-254.5 185.46,-249.89 184.67,-256.85"/>
</g>
<!-- node60x100700120 -->
<g id="node27" class="node">
<title>node60x100700120</title>
<polygon fill="none" stroke="black" points="360,-221.25 360,-265.75 416,-265.75 416,-221.25 360,-221.25"/>
<text text-anchor="middle" x="371" y="-250.35" font-family="Times,serif" font-size="12.00">1</text>
<polyline fill="none" stroke="black" points="382,-243.5 382,-265.75"/>
<text text-anchor="middle" x="399" y="-250.35" font-family="Times,serif" font-size="12.00">0x0</text>
<polyline fill="none" stroke="black" points="360,-243.5 416,-243.5"/>
<text text-anchor="middle" x="388" y="-228.1" font-family="Times,serif" font-size="12.00">3</text>
</g>
<!-- node60x1007000b0&#45;&gt;node60x100700120 -->
<g id="edge28" class="edge">
<title>node60x1007000b0:f1&#45;&gt;node60x100700120:w1</title>
<path fill="none" stroke="black" d="M300,-254.5C322.23,-254.5 330.32,-254.5 348.25,-254.5"/>
<polygon fill="black" stroke="black" points="348,-258 358,-254.5 348,-251 348,-258"/>
</g>
<!-- node60x0 -->
<g id="node28" class="node">
<title>node60x0</title>
<polygon fill="none" stroke="black" points="501,-229.5 501,-265.5 555,-265.5 555,-229.5 501,-229.5"/>
<text text-anchor="middle" x="528" y="-243.6" font-family="Times,serif" font-size="12.00">NULL</text>
</g>
<!-- node60x100700120&#45;&gt;node60x0 -->
<g id="edge29" class="edge">
<title>node60x100700120:f1&#45;&gt;node60x0:w1</title>
<path fill="none" stroke="black" d="M417,-254.5C441.39,-254.5 468.73,-252.8 490.17,-251.07"/>
<polygon fill="black" stroke="black" points="490.44,-254.48 500.11,-250.15 489.86,-247.5 490.44,-254.48"/>
</g>
<!-- HeadNode7 -->
<g id="node29" class="node">
<title>HeadNode7</title>
<polygon fill="none" stroke="black" points="55,-135.5 55,-171.5 159,-171.5 159,-135.5 55,-135.5"/>
<text text-anchor="middle" x="66" y="-149.6" font-family="Times,serif" font-size="12.00">1</text>
<polyline fill="none" stroke="black" points="77,-136.25 77,-171.5"/>
<text text-anchor="middle" x="118" y="-149.6" font-family="Times,serif" font-size="12.00">0x100700120</text>
</g>
<!-- node70x100700120 -->
<g id="node30" class="node">
<title>node70x100700120</title>
<polygon fill="none" stroke="black" points="220,-127.25 220,-171.75 276,-171.75 276,-127.25 220,-127.25"/>
<text text-anchor="middle" x="231" y="-156.35" font-family="Times,serif" font-size="12.00">1</text>
<polyline fill="none" stroke="black" points="242,-149.5 242,-171.75"/>
<text text-anchor="middle" x="259" y="-156.35" font-family="Times,serif" font-size="12.00">0x0</text>
<polyline fill="none" stroke="black" points="220,-149.5 276,-149.5"/>
<text text-anchor="middle" x="248" y="-134.1" font-family="Times,serif" font-size="12.00">3</text>
</g>
<!-- HeadNode7&#45;&gt;node70x100700120 -->
<g id="edge30" class="edge">
<title>HeadNode7:f1&#45;&gt;node70x100700120:w1</title>
<path fill="none" stroke="black" d="M160,-153.5C182.38,-153.5 190.24,-158.53 208.2,-160.06"/>
<polygon fill="black" stroke="black" points="207.87,-163.59 218,-160.5 208.15,-156.6 207.87,-163.59"/>
</g>
<!-- node70x0 -->
<g id="node31" class="node">
<title>node70x0</title>
<polygon fill="none" stroke="black" points="361,-135.5 361,-171.5 415,-171.5 415,-135.5 361,-135.5"/>
<text text-anchor="middle" x="388" y="-149.6" font-family="Times,serif" font-size="12.00">NULL</text>
</g>
<!-- node70x100700120&#45;&gt;node70x0 -->
<g id="edge31" class="edge">
<title>node70x100700120:f1&#45;&gt;node70x0:w1</title>
<path fill="none" stroke="black" d="M277,-160.5C301.39,-160.5 328.73,-158.8 350.17,-157.07"/>
<polygon fill="black" stroke="black" points="350.44,-160.48 360.11,-156.15 349.86,-153.5 350.44,-160.48"/>
</g>
<!-- HeadNode8 -->
<g id="node32" class="node">
<title>HeadNode8</title>
<polygon fill="none" stroke="black" points="55.88,-41.5 55.88,-77.5 158.12,-77.5 158.12,-41.5 55.88,-41.5"/>
<text text-anchor="middle" x="107" y="-55.6" font-family="Times,serif" font-size="12.00">Empty HeadNode</text>
</g>
<!-- node0 -->
<!-- node0&#45;&gt;HeadNode0 -->
<!-- node0&#45;&gt;HeadNode1 -->
<!-- node0&#45;&gt;HeadNode2 -->
<!-- node0&#45;&gt;HeadNode3 -->
<!-- node0&#45;&gt;HeadNode4 -->
<!-- node0&#45;&gt;HeadNode5 -->
<!-- node0&#45;&gt;HeadNode6 -->
<!-- node0&#45;&gt;HeadNode7 -->
<!-- node0&#45;&gt;HeadNode8 -->
</g>
</svg>
