<?xml version="1.0" encoding="UTF-8" standalone="no"?>
<!DOCTYPE svg PUBLIC "-//W3C//DTD SVG 1.1//EN"
 "http://www.w3.org/Graphics/SVG/1.1/DTD/svg11.dtd">
<!-- Generated by graphviz version 8.1.0 (20230707.0739)
 -->
<!-- Title: SkipList Pages: 1 -->
<svg width="690pt" height="749pt"
 viewBox="0.00 0.00 690.00 748.50" xmlns="http://www.w3.org/2000/svg" xmlns:xlink="http://www.w3.org/1999/xlink">
<g id="graph0" class="graph" transform="scale(1 1) rotate(0) translate(4 744.5)">
<title>SkipList</title>
<polygon fill="white" stroke="none" points="-4,4 -4,-744.5 686,-744.5 686,4 -4,4"/>
<text text-anchor="middle" x="341" y="-7.2" font-family="Times,serif" font-size="14.00">SkipList.</text>
<g id="clust1" class="cluster">
<title>cluster0</title>
<polygon fill="none" stroke="black" stroke-dasharray="5,2" points="54.38,-654.5 54.38,-732.5 174.62,-732.5 174.62,-654.5 54.38,-654.5"/>
<text text-anchor="middle" x="114.5" y="-715.2" font-family="Times,serif" font-size="14.00">Skip list iteration 0</text>
</g>
<g id="clust2" class="cluster">
<title>cluster1</title>
<polygon fill="none" stroke="black" stroke-dasharray="5,2" points="47,-560.5 47,-646.5 459.5,-646.5 459.5,-560.5 47,-560.5"/>
<text text-anchor="middle" x="253.25" y="-629.2" font-family="Times,serif" font-size="14.00">Skip list iteration 1</text>
</g>
<g id="clust3" class="cluster">
<title>cluster2</title>
<polygon fill="none" stroke="black" stroke-dasharray="5,2" points="47,-444.5 47,-552.5 583,-552.5 583,-444.5 47,-444.5"/>
<text text-anchor="middle" x="315" y="-535.2" font-family="Times,serif" font-size="14.00">Skip list iteration 2</text>
</g>
<g id="clust4" class="cluster">
<title>cluster3</title>
<polygon fill="none" stroke="black" stroke-dasharray="5,2" points="47,-328.5 47,-436.5 674,-436.5 674,-328.5 47,-328.5"/>
<text text-anchor="middle" x="360.5" y="-419.2" font-family="Times,serif" font-size="14.00">Skip list iteration 3</text>
</g>
<g id="clust5" class="cluster">
<title>cluster4</title>
<polygon fill="none" stroke="black" stroke-dasharray="5,2" points="47,-212.5 47,-320.5 583,-320.5 583,-212.5 47,-212.5"/>
<text text-anchor="middle" x="315" y="-303.2" font-family="Times,serif" font-size="14.00">Skip list iteration 4</text>
</g>
<g id="clust6" class="cluster">
<title>cluster5</title>
<polygon fill="none" stroke="black" stroke-dasharray="5,2" points="47,-118.5 47,-204.5 459.5,-204.5 459.5,-118.5 47,-118.5"/>
<text text-anchor="middle" x="253.25" y="-187.2" font-family="Times,serif" font-size="14.00">Skip list iteration 5</text>
</g>
<g id="clust7" class="cluster">
<title>cluster6</title>
<polygon fill="none" stroke="black" stroke-dasharray="5,2" points="54.38,-32.5 54.38,-110.5 174.62,-110.5 174.62,-32.5 54.38,-32.5"/>
<text text-anchor="middle" x="114.5" y="-93.2" font-family="Times,serif" font-size="14.00">Skip list iteration 6</text>
</g>
<!-- HeadNode0 -->
<g id="node1" class="node">
<title>HeadNode0</title>
<polygon fill="none" stroke="black" points="63.38,-663.5 63.38,-699.5 165.62,-699.5 165.62,-663.5 63.38,-663.5"/>
<text text-anchor="middle" x="114.5" y="-677.6" font-family="Times,serif" font-size="12.00">Empty HeadNode</text>
</g>
<!-- HeadNode1 -->
<g id="node2" class="node">
<title>HeadNode1</title>
<polygon fill="none" stroke="black" points="55,-573.5 55,-609.5 174,-609.5 174,-573.5 55,-573.5"/>
<text text-anchor="middle" x="66" y="-587.6" font-family="Times,serif" font-size="12.00">1</text>
<polyline fill="none" stroke="black" points="77,-574.25 77,-609.5"/>
<text text-anchor="middle" x="125.5" y="-587.6" font-family="Times,serif" font-size="12.00">0x600002f4c000</text>
</g>
<!-- node10x600002f4c000 -->
<g id="node3" class="node">
<title>node10x600002f4c000</title>
<polygon fill="none" stroke="black" points="241.5,-569.25 241.5,-613.75 297.5,-613.75 297.5,-569.25 241.5,-569.25"/>
<text text-anchor="middle" x="252.5" y="-598.35" font-family="Times,serif" font-size="12.00">1</text>
<polyline fill="none" stroke="black" points="263.5,-591.5 263.5,-613.75"/>
<text text-anchor="middle" x="280.5" y="-598.35" font-family="Times,serif" font-size="12.00">0x0</text>
<polyline fill="none" stroke="black" points="241.5,-591.5 297.5,-591.5"/>
<text text-anchor="middle" x="269.5" y="-576.1" font-family="Times,serif" font-size="12.00">25</text>
</g>
<!-- HeadNode1&#45;&gt;node10x600002f4c000 -->
<g id="edge1" class="edge">
<title>HeadNode1:f1&#45;&gt;node10x600002f4c000:w1</title>
<path fill="none" stroke="black" d="M174.62,-591.5C200.37,-591.5 208.68,-599.77 229.79,-601.97"/>
<polygon fill="black" stroke="black" points="229.34,-605.5 239.5,-602.5 229.69,-598.51 229.34,-605.5"/>
</g>
<!-- node10x0 -->
<g id="node4" class="node">
<title>node10x0</title>
<polygon fill="none" stroke="black" points="397.5,-577.5 397.5,-613.5 451.5,-613.5 451.5,-577.5 397.5,-577.5"/>
<text text-anchor="middle" x="424.5" y="-591.6" font-family="Times,serif" font-size="12.00">NULL</text>
</g>
<!-- node10x600002f4c000&#45;&gt;node10x0 -->
<g id="edge2" class="edge">
<title>node10x600002f4c000:f1&#45;&gt;node10x0:w1</title>
<path fill="none" stroke="black" d="M298.5,-602.5C328.33,-602.5 362.07,-600.52 387.12,-598.67"/>
<polygon fill="black" stroke="black" points="387.27,-602.09 396.98,-597.83 386.74,-595.11 387.27,-602.09"/>
</g>
<!-- HeadNode2 -->
<g id="node5" class="node">
<title>HeadNode2</title>
<polygon fill="none" stroke="black" points="55,-475.25 55,-519.75 174,-519.75 174,-475.25 55,-475.25"/>
<text text-anchor="middle" x="66" y="-504.35" font-family="Times,serif" font-size="12.00">2</text>
<polyline fill="none" stroke="black" points="77,-497.5 77,-519.75"/>
<text text-anchor="middle" x="125.5" y="-504.35" font-family="Times,serif" font-size="12.00">0x600002f4c030</text>
<polyline fill="none" stroke="black" points="55,-497.5 174,-497.5"/>
<text text-anchor="middle" x="66" y="-482.1" font-family="Times,serif" font-size="12.00">1</text>
<polyline fill="none" stroke="black" points="77,-475.25 77,-497.5"/>
<text text-anchor="middle" x="125.5" y="-482.1" font-family="Times,serif" font-size="12.00">0x600002f4c000</text>
</g>
<!-- node20x600002f4c000 -->
<g id="node6" class="node">
<title>node20x600002f4c000</title>
<polygon fill="none" stroke="black" points="210,-453.25 210,-497.75 329,-497.75 329,-453.25 210,-453.25"/>
<text text-anchor="middle" x="221" y="-482.35" font-family="Times,serif" font-size="12.00">1</text>
<polyline fill="none" stroke="black" points="232,-475.5 232,-497.75"/>
<text text-anchor="middle" x="280.5" y="-482.35" font-family="Times,serif" font-size="12.00">0x600002f4c030</text>
<polyline fill="none" stroke="black" points="210,-475.5 329,-475.5"/>
<text text-anchor="middle" x="269.5" y="-460.1" font-family="Times,serif" font-size="12.00">25</text>
</g>
<!-- HeadNode2&#45;&gt;node20x600002f4c000 -->
<g id="edge3" class="edge">
<title>HeadNode2:f1&#45;&gt;node20x600002f4c000:w1</title>
<path fill="none" stroke="black" d="M174.62,-486.5C185.93,-486.5 191.13,-486.5 199.01,-486.5"/>
<polygon fill="black" stroke="black" points="199,-490 209,-486.5 199,-483 199,-490"/>
</g>
<!-- node20x600002f4c030 -->
<g id="node7" class="node">
<title>node20x600002f4c030</title>
<polygon fill="none" stroke="black" points="396.5,-453.12 396.5,-519.88 452.5,-519.88 452.5,-453.12 396.5,-453.12"/>
<text text-anchor="middle" x="407.5" y="-504.48" font-family="Times,serif" font-size="12.00">1</text>
<polyline fill="none" stroke="black" points="418.5,-497.62 418.5,-519.88"/>
<text text-anchor="middle" x="435.5" y="-504.48" font-family="Times,serif" font-size="12.00">0x0</text>
<polyline fill="none" stroke="black" points="396.5,-497.62 452.5,-497.62"/>
<text text-anchor="middle" x="407.5" y="-482.23" font-family="Times,serif" font-size="12.00">1</text>
<polyline fill="none" stroke="black" points="418.5,-475.38 418.5,-497.62"/>
<text text-anchor="middle" x="435.5" y="-482.23" font-family="Times,serif" font-size="12.00">0x0</text>
<polyline fill="none" stroke="black" points="396.5,-475.38 452.5,-475.38"/>
<text text-anchor="middle" x="424.5" y="-459.98" font-family="Times,serif" font-size="12.00">25</text>
</g>
<!-- HeadNode2&#45;&gt;node20x600002f4c030 -->
<g id="edge4" class="edge">
<title>HeadNode2:f2&#45;&gt;node20x600002f4c030:w2</title>
<path fill="none" stroke="black" d="M174.62,-508.5C269.05,-508.5 295.36,-508.5 384.6,-508.5"/>
<polygon fill="black" stroke="black" points="384.5,-512 394.5,-508.5 384.5,-505 384.5,-512"/>
</g>
<!-- node20x600002f4c000&#45;&gt;node20x600002f4c030 -->
<g id="edge5" class="edge">
<title>node20x600002f4c000:f1&#45;&gt;node20x600002f4c030:w1</title>
<path fill="none" stroke="black" d="M329,-486.5C354.51,-486.5 363.51,-486.5 384.51,-486.5"/>
<polygon fill="black" stroke="black" points="384.5,-490 394.5,-486.5 384.5,-483 384.5,-490"/>
</g>
<!-- node20x0 -->
<g id="node8" class="node">
<title>node20x0</title>
<polygon fill="none" stroke="black" points="521,-475.25 521,-519.75 575,-519.75 575,-475.25 521,-475.25"/>
<text text-anchor="middle" x="548" y="-504.35" font-family="Times,serif" font-size="12.00">NULL</text>
<polyline fill="none" stroke="black" points="521,-497.5 575,-497.5"/>
<text text-anchor="middle" x="548" y="-482.1" font-family="Times,serif" font-size="12.00">NULL</text>
</g>
<!-- node20x600002f4c030&#45;&gt;node20x0 -->
<g id="edge6" class="edge">
<title>node20x600002f4c030:f1&#45;&gt;node20x0:w1</title>
<path fill="none" stroke="black" d="M453.5,-486.5C479.01,-486.5 488.01,-486.5 509.01,-486.5"/>
<polygon fill="black" stroke="black" points="509,-490 519,-486.5 509,-483 509,-490"/>
</g>
<!-- node20x600002f4c030&#45;&gt;node20x0 -->
<g id="edge7" class="edge">
<title>node20x600002f4c030:f2&#45;&gt;node20x0:w2</title>
<path fill="none" stroke="black" d="M453.5,-508.5C479.01,-508.5 488.01,-508.5 509.01,-508.5"/>
<polygon fill="black" stroke="black" points="509,-512 519,-508.5 509,-505 509,-512"/>
</g>
<!-- HeadNode3 -->
<g id="node9" class="node">
<title>HeadNode3</title>
<polygon fill="none" stroke="black" points="55,-359.25 55,-403.75 174,-403.75 174,-359.25 55,-359.25"/>
<text text-anchor="middle" x="66" y="-388.35" font-family="Times,serif" font-size="12.00">2</text>
<polyline fill="none" stroke="black" points="77,-381.5 77,-403.75"/>
<text text-anchor="middle" x="125.5" y="-388.35" font-family="Times,serif" font-size="12.00">0x600002f4c030</text>
<polyline fill="none" stroke="black" points="55,-381.5 174,-381.5"/>
<text text-anchor="middle" x="66" y="-366.1" font-family="Times,serif" font-size="12.00">1</text>
<polyline fill="none" stroke="black" points="77,-359.25 77,-381.5"/>
<text text-anchor="middle" x="125.5" y="-366.1" font-family="Times,serif" font-size="12.00">0x600002f4c000</text>
</g>
<!-- node30x600002f4c000 -->
<g id="node10" class="node">
<title>node30x600002f4c000</title>
<polygon fill="none" stroke="black" points="210,-337.25 210,-381.75 329,-381.75 329,-337.25 210,-337.25"/>
<text text-anchor="middle" x="221" y="-366.35" font-family="Times,serif" font-size="12.00">1</text>
<polyline fill="none" stroke="black" points="232,-359.5 232,-381.75"/>
<text text-anchor="middle" x="280.5" y="-366.35" font-family="Times,serif" font-size="12.00">0x600002f4c030</text>
<polyline fill="none" stroke="black" points="210,-359.5 329,-359.5"/>
<text text-anchor="middle" x="269.5" y="-344.1" font-family="Times,serif" font-size="12.00">25</text>
</g>
<!-- HeadNode3&#45;&gt;node30x600002f4c000 -->
<g id="edge8" class="edge">
<title>HeadNode3:f1&#45;&gt;node30x600002f4c000:w1</title>
<path fill="none" stroke="black" d="M174.62,-370.5C185.93,-370.5 191.13,-370.5 199.01,-370.5"/>
<polygon fill="black" stroke="black" points="199,-374 209,-370.5 199,-367 199,-374"/>
</g>
<!-- node30x600002f4c030 -->
<g id="node11" class="node">
<title>node30x600002f4c030</title>
<polygon fill="none" stroke="black" points="365,-337.12 365,-403.88 484,-403.88 484,-337.12 365,-337.12"/>
<text text-anchor="middle" x="391.5" y="-388.48" font-family="Times,serif" font-size="12.00">2</text>
<polyline fill="none" stroke="black" points="418,-381.62 418,-403.88"/>
<text text-anchor="middle" x="451" y="-388.48" font-family="Times,serif" font-size="12.00">0x0</text>
<polyline fill="none" stroke="black" points="365,-381.62 484,-381.62"/>
<text text-anchor="middle" x="376" y="-366.23" font-family="Times,serif" font-size="12.00">1</text>
<polyline fill="none" stroke="black" points="387,-359.38 387,-381.62"/>
<text text-anchor="middle" x="435.5" y="-366.23" font-family="Times,serif" font-size="12.00">0x600002f4c060</text>
<polyline fill="none" stroke="black" points="365,-359.38 484,-359.38"/>
<text text-anchor="middle" x="424.5" y="-343.98" font-family="Times,serif" font-size="12.00">25</text>
</g>
<!-- HeadNode3&#45;&gt;node30x600002f4c030 -->
<g id="edge9" class="edge">
<title>HeadNode3:f2&#45;&gt;node30x600002f4c030:w2</title>
<path fill="none" stroke="black" d="M174.62,-392.5C255.6,-392.5 278.45,-392.5 354.43,-392.5"/>
<polygon fill="black" stroke="black" points="354,-396 364,-392.5 354,-389 354,-396"/>
</g>
<!-- node30x600002f4c000&#45;&gt;node30x600002f4c030 -->
<g id="edge10" class="edge">
<title>node30x600002f4c000:f1&#45;&gt;node30x600002f4c030:w1</title>
<path fill="none" stroke="black" d="M329,-370.5C340.62,-370.5 345.92,-370.5 354.08,-370.5"/>
<polygon fill="black" stroke="black" points="354,-374 364,-370.5 354,-367 354,-374"/>
</g>
<!-- node30x600002f4c060 -->
<g id="node12" class="node">
<title>node30x600002f4c060</title>
<polygon fill="none" stroke="black" points="520,-337.25 520,-381.75 576,-381.75 576,-337.25 520,-337.25"/>
<text text-anchor="middle" x="531" y="-366.35" font-family="Times,serif" font-size="12.00">1</text>
<polyline fill="none" stroke="black" points="542,-359.5 542,-381.75"/>
<text text-anchor="middle" x="559" y="-366.35" font-family="Times,serif" font-size="12.00">0x0</text>
<polyline fill="none" stroke="black" points="520,-359.5 576,-359.5"/>
<text text-anchor="middle" x="548" y="-344.1" font-family="Times,serif" font-size="12.00">25</text>
</g>
<!-- node30x600002f4c030&#45;&gt;node30x600002f4c060 -->
<g id="edge11" class="edge">
<title>node30x600002f4c030:f1&#45;&gt;node30x600002f4c060:w1</title>
<path fill="none" stroke="black" d="M484,-370.5C495.62,-370.5 500.92,-370.5 509.08,-370.5"/>
<polygon fill="black" stroke="black" points="509,-374 519,-370.5 509,-367 509,-374"/>
</g>
<!-- node30x0 -->
<g id="node13" class="node">
<title>node30x0</title>
<polygon fill="none" stroke="black" points="612,-359.25 612,-403.75 666,-403.75 666,-359.25 612,-359.25"/>
<text text-anchor="middle" x="639" y="-388.35" font-family="Times,serif" font-size="12.00">NULL</text>
<polyline fill="none" stroke="black" points="612,-381.5 666,-381.5"/>
<text text-anchor="middle" x="639" y="-366.1" font-family="Times,serif" font-size="12.00">NULL</text>
</g>
<!-- node30x600002f4c030&#45;&gt;node30x0 -->
<g id="edge12" class="edge">
<title>node30x600002f4c030:f2&#45;&gt;node30x0:w2</title>
<path fill="none" stroke="black" d="M484,-392.5C537.11,-392.5 553.03,-392.5 601.21,-392.5"/>
<polygon fill="black" stroke="black" points="601,-396 611,-392.5 601,-389 601,-396"/>
</g>
<!-- node30x600002f4c060&#45;&gt;node30x0 -->
<g id="edge13" class="edge">
<title>node30x600002f4c060:f1&#45;&gt;node30x0:w1</title>
<path fill="none" stroke="black" d="M577,-370.5C588.18,-370.5 593.33,-370.5 601.12,-370.5"/>
<polygon fill="black" stroke="black" points="601,-374 611,-370.5 601,-367 601,-374"/>
</g>
<!-- HeadNode4 -->
<g id="node14" class="node">
<title>HeadNode4</title>
<polygon fill="none" stroke="black" points="55,-243.25 55,-287.75 174,-287.75 174,-243.25 55,-243.25"/>
<text text-anchor="middle" x="66" y="-272.35" font-family="Times,serif" font-size="12.00">2</text>
<polyline fill="none" stroke="black" points="77,-265.5 77,-287.75"/>
<text text-anchor="middle" x="125.5" y="-272.35" font-family="Times,serif" font-size="12.00">0x600002f4c030</text>
<polyline fill="none" stroke="black" points="55,-265.5 174,-265.5"/>
<text text-anchor="middle" x="66" y="-250.1" font-family="Times,serif" font-size="12.00">1</text>
<polyline fill="none" stroke="black" points="77,-243.25 77,-265.5"/>
<text text-anchor="middle" x="125.5" y="-250.1" font-family="Times,serif" font-size="12.00">0x600002f4c000</text>
</g>
<!-- node40x600002f4c000 -->
<g id="node15" class="node">
<title>node40x600002f4c000</title>
<polygon fill="none" stroke="black" points="210,-221.25 210,-265.75 329,-265.75 329,-221.25 210,-221.25"/>
<text text-anchor="middle" x="221" y="-250.35" font-family="Times,serif" font-size="12.00">1</text>
<polyline fill="none" stroke="black" points="232,-243.5 232,-265.75"/>
<text text-anchor="middle" x="280.5" y="-250.35" font-family="Times,serif" font-size="12.00">0x600002f4c030</text>
<polyline fill="none" stroke="black" points="210,-243.5 329,-243.5"/>
<text text-anchor="middle" x="269.5" y="-228.1" font-family="Times,serif" font-size="12.00">25</text>
</g>
<!-- HeadNode4&#45;&gt;node40x600002f4c000 -->
<g id="edge14" class="edge">
<title>HeadNode4:f1&#45;&gt;node40x600002f4c000:w1</title>
<path fill="none" stroke="black" d="M174.62,-254.5C185.93,-254.5 191.13,-254.5 199.01,-254.5"/>
<polygon fill="black" stroke="black" points="199,-258 209,-254.5 199,-251 199,-258"/>
</g>
<!-- node40x600002f4c030 -->
<g id="node16" class="node">
<title>node40x600002f4c030</title>
<polygon fill="none" stroke="black" points="396.5,-221.12 396.5,-287.88 452.5,-287.88 452.5,-221.12 396.5,-221.12"/>
<text text-anchor="middle" x="407.5" y="-272.48" font-family="Times,serif" font-size="12.00">1</text>
<polyline fill="none" stroke="black" points="418.5,-265.62 418.5,-287.88"/>
<text text-anchor="middle" x="435.5" y="-272.48" font-family="Times,serif" font-size="12.00">0x0</text>
<polyline fill="none" stroke="black" points="396.5,-265.62 452.5,-265.62"/>
<text text-anchor="middle" x="407.5" y="-250.22" font-family="Times,serif" font-size="12.00">1</text>
<polyline fill="none" stroke="black" points="418.5,-243.38 418.5,-265.62"/>
<text text-anchor="middle" x="435.5" y="-250.22" font-family="Times,serif" font-size="12.00">0x0</text>
<polyline fill="none" stroke="black" points="396.5,-243.38 452.5,-243.38"/>
<text text-anchor="middle" x="424.5" y="-227.97" font-family="Times,serif" font-size="12.00">25</text>
</g>
<!-- HeadNode4&#45;&gt;node40x600002f4c030 -->
<g id="edge15" class="edge">
<title>HeadNode4:f2&#45;&gt;node40x600002f4c030:w2</title>
<path fill="none" stroke="black" d="M174.62,-276.5C269.05,-276.5 295.36,-276.5 384.6,-276.5"/>
<polygon fill="black" stroke="black" points="384.5,-280 394.5,-276.5 384.5,-273 384.5,-280"/>
</g>
<!-- node40x600002f4c000&#45;&gt;node40x600002f4c030 -->
<g id="edge16" class="edge">
<title>node40x600002f4c000:f1&#45;&gt;node40x600002f4c030:w1</title>
<path fill="none" stroke="black" d="M329,-254.5C354.51,-254.5 363.51,-254.5 384.51,-254.5"/>
<polygon fill="black" stroke="black" points="384.5,-258 394.5,-254.5 384.5,-251 384.5,-258"/>
</g>
<!-- node40x0 -->
<g id="node17" class="node">
<title>node40x0</title>
<polygon fill="none" stroke="black" points="521,-243.25 521,-287.75 575,-287.75 575,-243.25 521,-243.25"/>
<text text-anchor="middle" x="548" y="-272.35" font-family="Times,serif" font-size="12.00">NULL</text>
<polyline fill="none" stroke="black" points="521,-265.5 575,-265.5"/>
<text text-anchor="middle" x="548" y="-250.1" font-family="Times,serif" font-size="12.00">NULL</text>
</g>
<!-- node40x600002f4c030&#45;&gt;node40x0 -->
<g id="edge17" class="edge">
<title>node40x600002f4c030:f1&#45;&gt;node40x0:w1</title>
<path fill="none" stroke="black" d="M453.5,-254.5C479.01,-254.5 488.01,-254.5 509.01,-254.5"/>
<polygon fill="black" stroke="black" points="509,-258 519,-254.5 509,-251 509,-258"/>
</g>
<!-- node40x600002f4c030&#45;&gt;node40x0 -->
<g id="edge18" class="edge">
<title>node40x600002f4c030:f2&#45;&gt;node40x0:w2</title>
<path fill="none" stroke="black" d="M453.5,-276.5C479.01,-276.5 488.01,-276.5 509.01,-276.5"/>
<polygon fill="black" stroke="black" points="509,-280 519,-276.5 509,-273 509,-280"/>
</g>
<!-- HeadNode5 -->
<g id="node18" class="node">
<title>HeadNode5</title>
<polygon fill="none" stroke="black" points="55,-135.5 55,-171.5 174,-171.5 174,-135.5 55,-135.5"/>
<text text-anchor="middle" x="66" y="-149.6" font-family="Times,serif" font-size="12.00">1</text>
<polyline fill="none" stroke="black" points="77,-136.25 77,-171.5"/>
<text text-anchor="middle" x="125.5" y="-149.6" font-family="Times,serif" font-size="12.00">0x600002f4c000</text>
</g>
<!-- node50x600002f4c000 -->
<g id="node19" class="node">
<title>node50x600002f4c000</title>
<polygon fill="none" stroke="black" points="241.5,-127.25 241.5,-171.75 297.5,-171.75 297.5,-127.25 241.5,-127.25"/>
<text text-anchor="middle" x="252.5" y="-156.35" font-family="Times,serif" font-size="12.00">1</text>
<polyline fill="none" stroke="black" points="263.5,-149.5 263.5,-171.75"/>
<text text-anchor="middle" x="280.5" y="-156.35" font-family="Times,serif" font-size="12.00">0x0</text>
<polyline fill="none" stroke="black" points="241.5,-149.5 297.5,-149.5"/>
<text text-anchor="middle" x="269.5" y="-134.1" font-family="Times,serif" font-size="12.00">25</text>
</g>
<!-- HeadNode5&#45;&gt;node50x600002f4c000 -->
<g id="edge19" class="edge">
<title>HeadNode5:f1&#45;&gt;node50x600002f4c000:w1</title>
<path fill="none" stroke="black" d="M174.62,-153.5C200.04,-153.5 208.73,-158.72 229.57,-160.14"/>
<polygon fill="black" stroke="black" points="229.39,-163.67 239.5,-160.5 229.62,-156.68 229.39,-163.67"/>
</g>
<!-- node50x0 -->
<g id="node20" class="node">
<title>node50x0</title>
<polygon fill="none" stroke="black" points="397.5,-135.5 397.5,-171.5 451.5,-171.5 451.5,-135.5 397.5,-135.5"/>
<text text-anchor="middle" x="424.5" y="-149.6" font-family="Times,serif" font-size="12.00">NULL</text>
</g>
<!-- node50x600002f4c000&#45;&gt;node50x0 -->
<g id="edge20" class="edge">
<title>node50x600002f4c000:f1&#45;&gt;node50x0:w1</title>
<path fill="none" stroke="black" d="M298.5,-160.5C328.33,-160.5 362.07,-158.52 387.12,-156.67"/>
<polygon fill="black" stroke="black" points="387.27,-160.09 396.98,-155.83 386.74,-153.11 387.27,-160.09"/>
</g>
<!-- HeadNode6 -->
<g id="node21" class="node">
<title>HeadNode6</title>
<polygon fill="none" stroke="black" points="63.38,-41.5 63.38,-77.5 165.62,-77.5 165.62,-41.5 63.38,-41.5"/>
<text text-anchor="middle" x="114.5" y="-55.6" font-family="Times,serif" font-size="12.00">Empty HeadNode</text>
</g>
<!-- node0 -->
<!-- node0&#45;&gt;HeadNode0 -->
<!-- node0&#45;&gt;HeadNode1 -->
<!-- node0&#45;&gt;HeadNode2 -->
<!-- node0&#45;&gt;HeadNode3 -->
<!-- node0&#45;&gt;HeadNode4 -->
<!-- node0&#45;&gt;HeadNode5 -->
<!-- node0&#45;&gt;HeadNode6 -->
</g>
</svg>
