<?xml version="1.0" encoding="UTF-8" standalone="no"?>
<!DOCTYPE svg PUBLIC "-//W3C//DTD SVG 1.1//EN"
 "http://www.w3.org/Graphics/SVG/1.1/DTD/svg11.dtd">
<!-- Generated by graphviz version 12.2.0 (20241103.1931)
 -->
<!-- Title: SkipList Pages: 1 -->
<svg width="786pt" height="959pt"
 viewBox="0.00 0.00 786.12 958.50" xmlns="http://www.w3.org/2000/svg" xmlns:xlink="http://www.w3.org/1999/xlink">
<g id="graph0" class="graph" transform="scale(1 1) rotate(0) translate(4 954.5)">
<title>SkipList</title>
<polygon fill="white" stroke="none" points="-4,4 -4,-954.5 782.12,-954.5 782.12,4 -4,4"/>
<text text-anchor="middle" x="389.06" y="-7.2" font-family="Times,serif" font-size="14.00">SkipList.</text>
<g id="clust1" class="cluster">
<title>cluster0</title>
<polygon fill="none" stroke="black" stroke-dasharray="5,2" points="47,-864.5 47,-942.5 167.25,-942.5 167.25,-864.5 47,-864.5"/>
<text text-anchor="middle" x="107.12" y="-925.2" font-family="Times,serif" font-size="14.00">Skip list iteration 0</text>
</g>
<g id="clust2" class="cluster">
<title>cluster1</title>
<polygon fill="none" stroke="black" stroke-dasharray="5,2" points="46.62,-748.5 46.62,-856.5 423.12,-856.5 423.12,-748.5 46.62,-748.5"/>
<text text-anchor="middle" x="234.88" y="-839.2" font-family="Times,serif" font-size="14.00">Skip list iteration 1</text>
</g>
<g id="clust3" class="cluster">
<title>cluster2</title>
<polygon fill="none" stroke="black" stroke-dasharray="5,2" points="46.62,-632.5 46.62,-740.5 563.12,-740.5 563.12,-632.5 46.62,-632.5"/>
<text text-anchor="middle" x="304.88" y="-723.2" font-family="Times,serif" font-size="14.00">Skip list iteration 2</text>
</g>
<g id="clust4" class="cluster">
<title>cluster3</title>
<polygon fill="none" stroke="black" stroke-dasharray="5,2" points="46.62,-516.5 46.62,-624.5 679.12,-624.5 679.12,-516.5 46.62,-516.5"/>
<text text-anchor="middle" x="362.88" y="-607.2" font-family="Times,serif" font-size="14.00">Skip list iteration 3</text>
</g>
<g id="clust5" class="cluster">
<title>cluster4</title>
<polygon fill="none" stroke="black" stroke-dasharray="5,2" points="46.62,-400.5 46.62,-508.5 770.12,-508.5 770.12,-400.5 46.62,-400.5"/>
<text text-anchor="middle" x="408.38" y="-491.2" font-family="Times,serif" font-size="14.00">Skip list iteration 4</text>
</g>
<g id="clust6" class="cluster">
<title>cluster5</title>
<polygon fill="none" stroke="black" stroke-dasharray="5,2" points="46.62,-306.5 46.62,-392.5 679.12,-392.5 679.12,-306.5 46.62,-306.5"/>
<text text-anchor="middle" x="362.88" y="-375.2" font-family="Times,serif" font-size="14.00">Skip list iteration 5</text>
</g>
<g id="clust7" class="cluster">
<title>cluster6</title>
<polygon fill="none" stroke="black" stroke-dasharray="5,2" points="46.62,-212.5 46.62,-298.5 563.12,-298.5 563.12,-212.5 46.62,-212.5"/>
<text text-anchor="middle" x="304.88" y="-281.2" font-family="Times,serif" font-size="14.00">Skip list iteration 6</text>
</g>
<g id="clust8" class="cluster">
<title>cluster7</title>
<polygon fill="none" stroke="black" stroke-dasharray="5,2" points="46.62,-118.5 46.62,-204.5 423.12,-204.5 423.12,-118.5 46.62,-118.5"/>
<text text-anchor="middle" x="234.88" y="-187.2" font-family="Times,serif" font-size="14.00">Skip list iteration 7</text>
</g>
<g id="clust9" class="cluster">
<title>cluster8</title>
<polygon fill="none" stroke="black" stroke-dasharray="5,2" points="47,-32.5 47,-110.5 167.25,-110.5 167.25,-32.5 47,-32.5"/>
<text text-anchor="middle" x="107.12" y="-93.2" font-family="Times,serif" font-size="14.00">Skip list iteration 8</text>
</g>
<!-- HeadNode0 -->
<g id="node1" class="node">
<title>HeadNode0</title>
<polygon fill="none" stroke="black" points="55.5,-873.5 55.5,-909.5 157.75,-909.5 157.75,-873.5 55.5,-873.5"/>
<text text-anchor="middle" x="106.62" y="-887.6" font-family="Times,serif" font-size="12.00">Empty HeadNode</text>
</g>
<!-- HeadNode1 -->
<g id="node2" class="node">
<title>HeadNode1</title>
<polygon fill="none" stroke="black" points="54.62,-779.25 54.62,-823.75 158.62,-823.75 158.62,-779.25 54.62,-779.25"/>
<text text-anchor="middle" x="65.62" y="-808.35" font-family="Times,serif" font-size="12.00">1</text>
<polyline fill="none" stroke="black" points="76.62,-801.5 76.62,-823.75"/>
<text text-anchor="middle" x="117.62" y="-808.35" font-family="Times,serif" font-size="12.00">0x100700000</text>
<polyline fill="none" stroke="black" points="54.62,-801.5 158.62,-801.5"/>
<text text-anchor="middle" x="65.62" y="-786.1" font-family="Times,serif" font-size="12.00">1</text>
<polyline fill="none" stroke="black" points="76.62,-779.25 76.62,-801.5"/>
<text text-anchor="middle" x="117.62" y="-786.1" font-family="Times,serif" font-size="12.00">0x100700000</text>
</g>
<!-- node10x100700000 -->
<g id="node3" class="node">
<title>node10x100700000</title>
<polygon fill="none" stroke="black" points="220.12,-757.12 220.12,-823.88 276.12,-823.88 276.12,-757.12 220.12,-757.12"/>
<text text-anchor="middle" x="231.12" y="-808.48" font-family="Times,serif" font-size="12.00">1</text>
<polyline fill="none" stroke="black" points="242.12,-801.62 242.12,-823.88"/>
<text text-anchor="middle" x="259.12" y="-808.48" font-family="Times,serif" font-size="12.00">0x0</text>
<polyline fill="none" stroke="black" points="220.12,-801.62 276.12,-801.62"/>
<text text-anchor="middle" x="231.12" y="-786.23" font-family="Times,serif" font-size="12.00">1</text>
<polyline fill="none" stroke="black" points="242.12,-779.38 242.12,-801.62"/>
<text text-anchor="middle" x="259.12" y="-786.23" font-family="Times,serif" font-size="12.00">0x0</text>
<polyline fill="none" stroke="black" points="220.12,-779.38 276.12,-779.38"/>
<text text-anchor="middle" x="248.12" y="-763.98" font-family="Times,serif" font-size="12.00">0</text>
</g>
<!-- HeadNode1&#45;&gt;node10x100700000 -->
<g id="edge1" class="edge">
<title>HeadNode1:f1&#45;&gt;node10x100700000:w1</title>
<path fill="none" stroke="black" d="M159.62,-790.38C181.94,-790.38 190.13,-790.46 208.03,-790.49"/>
<polygon fill="black" stroke="black" points="207.61,-793.99 217.61,-790.5 207.61,-786.99 207.61,-793.99"/>
</g>
<!-- HeadNode1&#45;&gt;node10x100700000 -->
<g id="edge2" class="edge">
<title>HeadNode1:f2&#45;&gt;node10x100700000:w2</title>
<path fill="none" stroke="black" d="M159.62,-812.62C181.94,-812.62 190.13,-812.71 208.03,-812.74"/>
<polygon fill="black" stroke="black" points="207.61,-816.24 217.61,-812.75 207.61,-809.24 207.61,-816.24"/>
</g>
<!-- node10x0 -->
<g id="node4" class="node">
<title>node10x0</title>
<polygon fill="none" stroke="black" points="361.12,-779.25 361.12,-823.75 415.12,-823.75 415.12,-779.25 361.12,-779.25"/>
<text text-anchor="middle" x="388.12" y="-808.35" font-family="Times,serif" font-size="12.00">NULL</text>
<polyline fill="none" stroke="black" points="361.12,-801.5 415.12,-801.5"/>
<text text-anchor="middle" x="388.12" y="-786.1" font-family="Times,serif" font-size="12.00">NULL</text>
</g>
<!-- node10x100700000&#45;&gt;node10x0 -->
<g id="edge3" class="edge">
<title>node10x100700000:f1&#45;&gt;node10x0:w1</title>
<path fill="none" stroke="black" d="M277.12,-790.5C309.98,-790.5 320.89,-790.4 348.94,-790.38"/>
<polygon fill="black" stroke="black" points="348.61,-793.88 358.61,-790.38 348.61,-786.88 348.61,-793.88"/>
</g>
<!-- node10x100700000&#45;&gt;node10x0 -->
<g id="edge4" class="edge">
<title>node10x100700000:f2&#45;&gt;node10x0:w2</title>
<path fill="none" stroke="black" d="M277.12,-812.75C309.98,-812.75 320.89,-812.65 348.94,-812.63"/>
<polygon fill="black" stroke="black" points="348.61,-816.13 358.61,-812.63 348.61,-809.13 348.61,-816.13"/>
</g>
<!-- HeadNode2 -->
<g id="node5" class="node">
<title>HeadNode2</title>
<polygon fill="none" stroke="black" points="54.62,-663.25 54.62,-707.75 158.62,-707.75 158.62,-663.25 54.62,-663.25"/>
<text text-anchor="middle" x="65.62" y="-692.35" font-family="Times,serif" font-size="12.00">1</text>
<polyline fill="none" stroke="black" points="76.62,-685.5 76.62,-707.75"/>
<text text-anchor="middle" x="117.62" y="-692.35" font-family="Times,serif" font-size="12.00">0x100700000</text>
<polyline fill="none" stroke="black" points="54.62,-685.5 158.62,-685.5"/>
<text text-anchor="middle" x="65.62" y="-670.1" font-family="Times,serif" font-size="12.00">1</text>
<polyline fill="none" stroke="black" points="76.62,-663.25 76.62,-685.5"/>
<text text-anchor="middle" x="117.62" y="-670.1" font-family="Times,serif" font-size="12.00">0x100700000</text>
</g>
<!-- node20x100700000 -->
<g id="node6" class="node">
<title>node20x100700000</title>
<polygon fill="none" stroke="black" points="196.12,-641.12 196.12,-707.88 300.12,-707.88 300.12,-641.12 196.12,-641.12"/>
<text text-anchor="middle" x="219.12" y="-692.48" font-family="Times,serif" font-size="12.00">2</text>
<polyline fill="none" stroke="black" points="242.12,-685.62 242.12,-707.88"/>
<text text-anchor="middle" x="271.12" y="-692.48" font-family="Times,serif" font-size="12.00">0x0</text>
<polyline fill="none" stroke="black" points="196.12,-685.62 300.12,-685.62"/>
<text text-anchor="middle" x="207.12" y="-670.23" font-family="Times,serif" font-size="12.00">1</text>
<polyline fill="none" stroke="black" points="218.12,-663.38 218.12,-685.62"/>
<text text-anchor="middle" x="259.12" y="-670.23" font-family="Times,serif" font-size="12.00">0x100700080</text>
<polyline fill="none" stroke="black" points="196.12,-663.38 300.12,-663.38"/>
<text text-anchor="middle" x="248.12" y="-647.98" font-family="Times,serif" font-size="12.00">0</text>
</g>
<!-- HeadNode2&#45;&gt;node20x100700000 -->
<g id="edge5" class="edge">
<title>HeadNode2:f1&#45;&gt;node20x100700000:w1</title>
<path fill="none" stroke="black" d="M159.62,-674.38C171.28,-674.38 176.66,-674.44 184.78,-674.48"/>
<polygon fill="black" stroke="black" points="184.6,-677.98 194.61,-674.5 184.62,-670.98 184.6,-677.98"/>
</g>
<!-- HeadNode2&#45;&gt;node20x100700000 -->
<g id="edge6" class="edge">
<title>HeadNode2:f2&#45;&gt;node20x100700000:w2</title>
<path fill="none" stroke="black" d="M159.62,-696.62C171.28,-696.62 176.66,-696.69 184.78,-696.73"/>
<polygon fill="black" stroke="black" points="184.6,-700.23 194.61,-696.75 184.62,-693.23 184.6,-700.23"/>
</g>
<!-- node20x100700080 -->
<g id="node7" class="node">
<title>node20x100700080</title>
<polygon fill="none" stroke="black" points="360.12,-641.25 360.12,-685.75 416.12,-685.75 416.12,-641.25 360.12,-641.25"/>
<text text-anchor="middle" x="371.12" y="-670.35" font-family="Times,serif" font-size="12.00">1</text>
<polyline fill="none" stroke="black" points="382.12,-663.5 382.12,-685.75"/>
<text text-anchor="middle" x="399.12" y="-670.35" font-family="Times,serif" font-size="12.00">0x0</text>
<polyline fill="none" stroke="black" points="360.12,-663.5 416.12,-663.5"/>
<text text-anchor="middle" x="388.12" y="-648.1" font-family="Times,serif" font-size="12.00">1</text>
</g>
<!-- node20x100700000&#45;&gt;node20x100700080 -->
<g id="edge7" class="edge">
<title>node20x100700000:f1&#45;&gt;node20x100700080:w1</title>
<path fill="none" stroke="black" d="M300.12,-674.5C322.05,-674.5 330.22,-674.59 347.63,-674.62"/>
<polygon fill="black" stroke="black" points="347.61,-678.12 357.61,-674.62 347.61,-671.12 347.61,-678.12"/>
</g>
<!-- node20x0 -->
<g id="node8" class="node">
<title>node20x0</title>
<polygon fill="none" stroke="black" points="501.12,-663.25 501.12,-707.75 555.12,-707.75 555.12,-663.25 501.12,-663.25"/>
<text text-anchor="middle" x="528.12" y="-692.35" font-family="Times,serif" font-size="12.00">NULL</text>
<polyline fill="none" stroke="black" points="501.12,-685.5 555.12,-685.5"/>
<text text-anchor="middle" x="528.12" y="-670.1" font-family="Times,serif" font-size="12.00">NULL</text>
</g>
<!-- node20x100700000&#45;&gt;node20x0 -->
<g id="edge8" class="edge">
<title>node20x100700000:f2&#45;&gt;node20x0:w2</title>
<path fill="none" stroke="black" d="M300.12,-696.75C385.19,-696.75 409.2,-696.64 489.03,-696.63"/>
<polygon fill="black" stroke="black" points="488.61,-700.13 498.61,-696.63 488.61,-693.13 488.61,-700.13"/>
</g>
<!-- node20x100700080&#45;&gt;node20x0 -->
<g id="edge9" class="edge">
<title>node20x100700080:f1&#45;&gt;node20x0:w1</title>
<path fill="none" stroke="black" d="M417.12,-674.62C449.98,-674.62 460.89,-674.43 488.94,-674.38"/>
<polygon fill="black" stroke="black" points="488.61,-677.88 498.61,-674.38 488.61,-670.88 488.61,-677.88"/>
</g>
<!-- HeadNode3 -->
<g id="node9" class="node">
<title>HeadNode3</title>
<polygon fill="none" stroke="black" points="54.62,-547.25 54.62,-591.75 158.62,-591.75 158.62,-547.25 54.62,-547.25"/>
<text text-anchor="middle" x="65.62" y="-576.35" font-family="Times,serif" font-size="12.00">1</text>
<polyline fill="none" stroke="black" points="76.62,-569.5 76.62,-591.75"/>
<text text-anchor="middle" x="117.62" y="-576.35" font-family="Times,serif" font-size="12.00">0x100700000</text>
<polyline fill="none" stroke="black" points="54.62,-569.5 158.62,-569.5"/>
<text text-anchor="middle" x="65.62" y="-554.1" font-family="Times,serif" font-size="12.00">1</text>
<polyline fill="none" stroke="black" points="76.62,-547.25 76.62,-569.5"/>
<text text-anchor="middle" x="117.62" y="-554.1" font-family="Times,serif" font-size="12.00">0x100700000</text>
</g>
<!-- node30x100700000 -->
<g id="node10" class="node">
<title>node30x100700000</title>
<polygon fill="none" stroke="black" points="196.12,-525.12 196.12,-591.88 300.12,-591.88 300.12,-525.12 196.12,-525.12"/>
<text text-anchor="middle" x="219.12" y="-576.48" font-family="Times,serif" font-size="12.00">3</text>
<polyline fill="none" stroke="black" points="242.12,-569.62 242.12,-591.88"/>
<text text-anchor="middle" x="271.12" y="-576.48" font-family="Times,serif" font-size="12.00">0x0</text>
<polyline fill="none" stroke="black" points="196.12,-569.62 300.12,-569.62"/>
<text text-anchor="middle" x="207.12" y="-554.23" font-family="Times,serif" font-size="12.00">1</text>
<polyline fill="none" stroke="black" points="218.12,-547.38 218.12,-569.62"/>
<text text-anchor="middle" x="259.12" y="-554.23" font-family="Times,serif" font-size="12.00">0x100700080</text>
<polyline fill="none" stroke="black" points="196.12,-547.38 300.12,-547.38"/>
<text text-anchor="middle" x="248.12" y="-531.98" font-family="Times,serif" font-size="12.00">0</text>
</g>
<!-- HeadNode3&#45;&gt;node30x100700000 -->
<g id="edge10" class="edge">
<title>HeadNode3:f1&#45;&gt;node30x100700000:w1</title>
<path fill="none" stroke="black" d="M159.62,-558.38C171.28,-558.38 176.66,-558.44 184.78,-558.48"/>
<polygon fill="black" stroke="black" points="184.6,-561.98 194.61,-558.5 184.62,-554.98 184.6,-561.98"/>
</g>
<!-- HeadNode3&#45;&gt;node30x100700000 -->
<g id="edge11" class="edge">
<title>HeadNode3:f2&#45;&gt;node30x100700000:w2</title>
<path fill="none" stroke="black" d="M159.62,-580.62C171.28,-580.62 176.66,-580.69 184.78,-580.73"/>
<polygon fill="black" stroke="black" points="184.6,-584.23 194.61,-580.75 184.62,-577.23 184.6,-584.23"/>
</g>
<!-- node30x100700080 -->
<g id="node11" class="node">
<title>node30x100700080</title>
<polygon fill="none" stroke="black" points="336.12,-525.25 336.12,-569.75 440.12,-569.75 440.12,-525.25 336.12,-525.25"/>
<text text-anchor="middle" x="347.12" y="-554.35" font-family="Times,serif" font-size="12.00">1</text>
<polyline fill="none" stroke="black" points="358.12,-547.5 358.12,-569.75"/>
<text text-anchor="middle" x="399.12" y="-554.35" font-family="Times,serif" font-size="12.00">0x1007000b0</text>
<polyline fill="none" stroke="black" points="336.12,-547.5 440.12,-547.5"/>
<text text-anchor="middle" x="388.12" y="-532.1" font-family="Times,serif" font-size="12.00">1</text>
</g>
<!-- node30x100700000&#45;&gt;node30x100700080 -->
<g id="edge12" class="edge">
<title>node30x100700000:f1&#45;&gt;node30x100700080:w1</title>
<path fill="none" stroke="black" d="M300.12,-558.5C311.5,-558.5 316.81,-558.56 324.68,-558.6"/>
<polygon fill="black" stroke="black" points="324.6,-562.1 334.61,-558.62 324.62,-555.1 324.6,-562.1"/>
</g>
<!-- node30x0 -->
<g id="node12" class="node">
<title>node30x0</title>
<polygon fill="none" stroke="black" points="617.12,-547.25 617.12,-591.75 671.12,-591.75 671.12,-547.25 617.12,-547.25"/>
<text text-anchor="middle" x="644.12" y="-576.35" font-family="Times,serif" font-size="12.00">NULL</text>
<polyline fill="none" stroke="black" points="617.12,-569.5 671.12,-569.5"/>
<text text-anchor="middle" x="644.12" y="-554.1" font-family="Times,serif" font-size="12.00">NULL</text>
</g>
<!-- node30x100700000&#45;&gt;node30x0 -->
<g id="edge13" class="edge">
<title>node30x100700000:f2&#45;&gt;node30x0:w2</title>
<path fill="none" stroke="black" d="M300.12,-580.75C436.73,-580.75 473.68,-580.63 604.84,-580.63"/>
<polygon fill="black" stroke="black" points="604.61,-584.13 614.61,-580.63 604.61,-577.13 604.61,-584.13"/>
</g>
<!-- node30x1007000b0 -->
<g id="node13" class="node">
<title>node30x1007000b0</title>
<polygon fill="none" stroke="black" points="500.12,-525.25 500.12,-569.75 556.12,-569.75 556.12,-525.25 500.12,-525.25"/>
<text text-anchor="middle" x="511.12" y="-554.35" font-family="Times,serif" font-size="12.00">1</text>
<polyline fill="none" stroke="black" points="522.12,-547.5 522.12,-569.75"/>
<text text-anchor="middle" x="539.12" y="-554.35" font-family="Times,serif" font-size="12.00">0x0</text>
<polyline fill="none" stroke="black" points="500.12,-547.5 556.12,-547.5"/>
<text text-anchor="middle" x="528.12" y="-532.1" font-family="Times,serif" font-size="12.00">2</text>
</g>
<!-- node30x100700080&#45;&gt;node30x1007000b0 -->
<g id="edge14" class="edge">
<title>node30x100700080:f1&#45;&gt;node30x1007000b0:w1</title>
<path fill="none" stroke="black" d="M440.12,-558.62C462.05,-558.62 470.22,-558.62 487.63,-558.62"/>
<polygon fill="black" stroke="black" points="487.61,-562.13 497.61,-558.63 487.61,-555.13 487.61,-562.13"/>
</g>
<!-- node30x1007000b0&#45;&gt;node30x0 -->
<g id="edge15" class="edge">
<title>node30x1007000b0:f1&#45;&gt;node30x0:w1</title>
<path fill="none" stroke="black" d="M557.12,-558.62C579.05,-558.62 587.22,-558.45 604.63,-558.39"/>
<polygon fill="black" stroke="black" points="604.62,-561.89 614.61,-558.38 604.61,-554.89 604.62,-561.89"/>
</g>
<!-- HeadNode4 -->
<g id="node14" class="node">
<title>HeadNode4</title>
<polygon fill="none" stroke="black" points="54.62,-431.25 54.62,-475.75 158.62,-475.75 158.62,-431.25 54.62,-431.25"/>
<text text-anchor="middle" x="65.62" y="-460.35" font-family="Times,serif" font-size="12.00">1</text>
<polyline fill="none" stroke="black" points="76.62,-453.5 76.62,-475.75"/>
<text text-anchor="middle" x="117.62" y="-460.35" font-family="Times,serif" font-size="12.00">0x100700000</text>
<polyline fill="none" stroke="black" points="54.62,-453.5 158.62,-453.5"/>
<text text-anchor="middle" x="65.62" y="-438.1" font-family="Times,serif" font-size="12.00">1</text>
<polyline fill="none" stroke="black" points="76.62,-431.25 76.62,-453.5"/>
<text text-anchor="middle" x="117.62" y="-438.1" font-family="Times,serif" font-size="12.00">0x100700000</text>
</g>
<!-- node40x100700000 -->
<g id="node15" class="node">
<title>node40x100700000</title>
<polygon fill="none" stroke="black" points="196.12,-409.12 196.12,-475.88 300.12,-475.88 300.12,-409.12 196.12,-409.12"/>
<text text-anchor="middle" x="219.12" y="-460.48" font-family="Times,serif" font-size="12.00">4</text>
<polyline fill="none" stroke="black" points="242.12,-453.62 242.12,-475.88"/>
<text text-anchor="middle" x="271.12" y="-460.48" font-family="Times,serif" font-size="12.00">0x0</text>
<polyline fill="none" stroke="black" points="196.12,-453.62 300.12,-453.62"/>
<text text-anchor="middle" x="207.12" y="-438.23" font-family="Times,serif" font-size="12.00">1</text>
<polyline fill="none" stroke="black" points="218.12,-431.38 218.12,-453.62"/>
<text text-anchor="middle" x="259.12" y="-438.23" font-family="Times,serif" font-size="12.00">0x100700080</text>
<polyline fill="none" stroke="black" points="196.12,-431.38 300.12,-431.38"/>
<text text-anchor="middle" x="248.12" y="-415.98" font-family="Times,serif" font-size="12.00">0</text>
</g>
<!-- HeadNode4&#45;&gt;node40x100700000 -->
<g id="edge16" class="edge">
<title>HeadNode4:f1&#45;&gt;node40x100700000:w1</title>
<path fill="none" stroke="black" d="M159.62,-442.38C171.28,-442.38 176.66,-442.44 184.78,-442.48"/>
<polygon fill="black" stroke="black" points="184.6,-445.98 194.61,-442.5 184.62,-438.98 184.6,-445.98"/>
</g>
<!-- HeadNode4&#45;&gt;node40x100700000 -->
<g id="edge17" class="edge">
<title>HeadNode4:f2&#45;&gt;node40x100700000:w2</title>
<path fill="none" stroke="black" d="M159.62,-464.62C171.28,-464.62 176.66,-464.69 184.78,-464.73"/>
<polygon fill="black" stroke="black" points="184.6,-468.23 194.61,-464.75 184.62,-461.23 184.6,-468.23"/>
</g>
<!-- node40x100700080 -->
<g id="node16" class="node">
<title>node40x100700080</title>
<polygon fill="none" stroke="black" points="336.12,-409.25 336.12,-453.75 440.12,-453.75 440.12,-409.25 336.12,-409.25"/>
<text text-anchor="middle" x="347.12" y="-438.35" font-family="Times,serif" font-size="12.00">1</text>
<polyline fill="none" stroke="black" points="358.12,-431.5 358.12,-453.75"/>
<text text-anchor="middle" x="399.12" y="-438.35" font-family="Times,serif" font-size="12.00">0x1007000b0</text>
<polyline fill="none" stroke="black" points="336.12,-431.5 440.12,-431.5"/>
<text text-anchor="middle" x="388.12" y="-416.1" font-family="Times,serif" font-size="12.00">1</text>
</g>
<!-- node40x100700000&#45;&gt;node40x100700080 -->
<g id="edge18" class="edge">
<title>node40x100700000:f1&#45;&gt;node40x100700080:w1</title>
<path fill="none" stroke="black" d="M300.12,-442.5C311.5,-442.5 316.81,-442.56 324.68,-442.6"/>
<polygon fill="black" stroke="black" points="324.6,-446.1 334.61,-442.62 324.62,-439.1 324.6,-446.1"/>
</g>
<!-- node40x0 -->
<g id="node17" class="node">
<title>node40x0</title>
<polygon fill="none" stroke="black" points="708.12,-431.25 708.12,-475.75 762.12,-475.75 762.12,-431.25 708.12,-431.25"/>
<text text-anchor="middle" x="735.12" y="-460.35" font-family="Times,serif" font-size="12.00">NULL</text>
<polyline fill="none" stroke="black" points="708.12,-453.5 762.12,-453.5"/>
<text text-anchor="middle" x="735.12" y="-438.1" font-family="Times,serif" font-size="12.00">NULL</text>
</g>
<!-- node40x100700000&#45;&gt;node40x0 -->
<g id="edge19" class="edge">
<title>node40x100700000:f2&#45;&gt;node40x0:w2</title>
<path fill="none" stroke="black" d="M300.12,-464.75C477.56,-464.75 524.78,-464.63 696.62,-464.63"/>
<polygon fill="black" stroke="black" points="696.61,-468.13 706.61,-464.63 696.61,-461.13 696.61,-468.13"/>
</g>
<!-- node40x1007000b0 -->
<g id="node18" class="node">
<title>node40x1007000b0</title>
<polygon fill="none" stroke="black" points="476.12,-409.25 476.12,-453.75 580.12,-453.75 580.12,-409.25 476.12,-409.25"/>
<text text-anchor="middle" x="487.12" y="-438.35" font-family="Times,serif" font-size="12.00">1</text>
<polyline fill="none" stroke="black" points="498.12,-431.5 498.12,-453.75"/>
<text text-anchor="middle" x="539.12" y="-438.35" font-family="Times,serif" font-size="12.00">0x100700120</text>
<polyline fill="none" stroke="black" points="476.12,-431.5 580.12,-431.5"/>
<text text-anchor="middle" x="528.12" y="-416.1" font-family="Times,serif" font-size="12.00">2</text>
</g>
<!-- node40x100700080&#45;&gt;node40x1007000b0 -->
<g id="edge20" class="edge">
<title>node40x100700080:f1&#45;&gt;node40x1007000b0:w1</title>
<path fill="none" stroke="black" d="M440.12,-442.62C451.5,-442.62 456.81,-442.62 464.68,-442.62"/>
<polygon fill="black" stroke="black" points="464.61,-446.13 474.61,-442.63 464.61,-439.13 464.61,-446.13"/>
</g>
<!-- node40x100700120 -->
<g id="node19" class="node">
<title>node40x100700120</title>
<polygon fill="none" stroke="black" points="616.12,-409.25 616.12,-453.75 672.12,-453.75 672.12,-409.25 616.12,-409.25"/>
<text text-anchor="middle" x="627.12" y="-438.35" font-family="Times,serif" font-size="12.00">1</text>
<polyline fill="none" stroke="black" points="638.12,-431.5 638.12,-453.75"/>
<text text-anchor="middle" x="655.12" y="-438.35" font-family="Times,serif" font-size="12.00">0x0</text>
<polyline fill="none" stroke="black" points="616.12,-431.5 672.12,-431.5"/>
<text text-anchor="middle" x="644.12" y="-416.1" font-family="Times,serif" font-size="12.00">3</text>
</g>
<!-- node40x1007000b0&#45;&gt;node40x100700120 -->
<g id="edge21" class="edge">
<title>node40x1007000b0:f1&#45;&gt;node40x100700120:w1</title>
<path fill="none" stroke="black" d="M580.12,-442.62C591.5,-442.62 596.81,-442.62 604.68,-442.62"/>
<polygon fill="black" stroke="black" points="604.61,-446.13 614.61,-442.63 604.61,-439.13 604.61,-446.13"/>
</g>
<!-- node40x100700120&#45;&gt;node40x0 -->
<g id="edge22" class="edge">
<title>node40x100700120:f1&#45;&gt;node40x0:w1</title>
<path fill="none" stroke="black" d="M673.12,-442.62C684.06,-442.62 689.23,-442.5 696.74,-442.43"/>
<polygon fill="black" stroke="black" points="696.63,-445.93 706.61,-442.38 696.6,-438.93 696.63,-445.93"/>
</g>
<!-- HeadNode5 -->
<g id="node20" class="node">
<title>HeadNode5</title>
<polygon fill="none" stroke="black" points="54.62,-323.5 54.62,-359.5 158.62,-359.5 158.62,-323.5 54.62,-323.5"/>
<text text-anchor="middle" x="65.62" y="-337.6" font-family="Times,serif" font-size="12.00">1</text>
<polyline fill="none" stroke="black" points="76.62,-324.25 76.62,-359.5"/>
<text text-anchor="middle" x="117.62" y="-337.6" font-family="Times,serif" font-size="12.00">0x100700080</text>
</g>
<!-- node50x100700080 -->
<g id="node21" class="node">
<title>node50x100700080</title>
<polygon fill="none" stroke="black" points="196.12,-315.25 196.12,-359.75 300.12,-359.75 300.12,-315.25 196.12,-315.25"/>
<text text-anchor="middle" x="207.12" y="-344.35" font-family="Times,serif" font-size="12.00">1</text>
<polyline fill="none" stroke="black" points="218.12,-337.5 218.12,-359.75"/>
<text text-anchor="middle" x="259.12" y="-344.35" font-family="Times,serif" font-size="12.00">0x1007000b0</text>
<polyline fill="none" stroke="black" points="196.12,-337.5 300.12,-337.5"/>
<text text-anchor="middle" x="248.12" y="-322.1" font-family="Times,serif" font-size="12.00">1</text>
</g>
<!-- HeadNode5&#45;&gt;node50x100700080 -->
<g id="edge23" class="edge">
<title>HeadNode5:f1&#45;&gt;node50x100700080:w1</title>
<path fill="none" stroke="black" d="M159.62,-341.88C171.48,-341.88 176.63,-345.36 184.71,-347.32"/>
<polygon fill="black" stroke="black" points="184.29,-350.8 194.62,-348.45 185.08,-343.84 184.29,-350.8"/>
</g>
<!-- node50x1007000b0 -->
<g id="node22" class="node">
<title>node50x1007000b0</title>
<polygon fill="none" stroke="black" points="336.12,-315.25 336.12,-359.75 440.12,-359.75 440.12,-315.25 336.12,-315.25"/>
<text text-anchor="middle" x="347.12" y="-344.35" font-family="Times,serif" font-size="12.00">1</text>
<polyline fill="none" stroke="black" points="358.12,-337.5 358.12,-359.75"/>
<text text-anchor="middle" x="399.12" y="-344.35" font-family="Times,serif" font-size="12.00">0x100700120</text>
<polyline fill="none" stroke="black" points="336.12,-337.5 440.12,-337.5"/>
<text text-anchor="middle" x="388.12" y="-322.1" font-family="Times,serif" font-size="12.00">2</text>
</g>
<!-- node50x100700080&#45;&gt;node50x1007000b0 -->
<g id="edge24" class="edge">
<title>node50x100700080:f1&#45;&gt;node50x1007000b0:w1</title>
<path fill="none" stroke="black" d="M300.12,-348.62C311.5,-348.62 316.81,-348.62 324.68,-348.62"/>
<polygon fill="black" stroke="black" points="324.61,-352.13 334.61,-348.63 324.61,-345.13 324.61,-352.13"/>
</g>
<!-- node50x100700120 -->
<g id="node23" class="node">
<title>node50x100700120</title>
<polygon fill="none" stroke="black" points="500.12,-315.25 500.12,-359.75 556.12,-359.75 556.12,-315.25 500.12,-315.25"/>
<text text-anchor="middle" x="511.12" y="-344.35" font-family="Times,serif" font-size="12.00">1</text>
<polyline fill="none" stroke="black" points="522.12,-337.5 522.12,-359.75"/>
<text text-anchor="middle" x="539.12" y="-344.35" font-family="Times,serif" font-size="12.00">0x0</text>
<polyline fill="none" stroke="black" points="500.12,-337.5 556.12,-337.5"/>
<text text-anchor="middle" x="528.12" y="-322.1" font-family="Times,serif" font-size="12.00">3</text>
</g>
<!-- node50x1007000b0&#45;&gt;node50x100700120 -->
<g id="edge25" class="edge">
<title>node50x1007000b0:f1&#45;&gt;node50x100700120:w1</title>
<path fill="none" stroke="black" d="M440.12,-348.62C462.05,-348.62 470.22,-348.62 487.63,-348.62"/>
<polygon fill="black" stroke="black" points="487.61,-352.13 497.61,-348.63 487.61,-345.13 487.61,-352.13"/>
</g>
<!-- node50x0 -->
<g id="node24" class="node">
<title>node50x0</title>
<polygon fill="none" stroke="black" points="617.12,-323.5 617.12,-359.5 671.12,-359.5 671.12,-323.5 617.12,-323.5"/>
<text text-anchor="middle" x="644.12" y="-337.6" font-family="Times,serif" font-size="12.00">NULL</text>
</g>
<!-- node50x100700120&#45;&gt;node50x0 -->
<g id="edge26" class="edge">
<title>node50x100700120:f1&#45;&gt;node50x0:w1</title>
<path fill="none" stroke="black" d="M557.12,-348.62C573.06,-348.62 590.59,-347.49 605.71,-346.14"/>
<polygon fill="black" stroke="black" points="605.61,-349.67 615.23,-345.24 604.95,-342.7 605.61,-349.67"/>
</g>
<!-- HeadNode6 -->
<g id="node25" class="node">
<title>HeadNode6</title>
<polygon fill="none" stroke="black" points="54.62,-229.5 54.62,-265.5 158.62,-265.5 158.62,-229.5 54.62,-229.5"/>
<text text-anchor="middle" x="65.62" y="-243.6" font-family="Times,serif" font-size="12.00">1</text>
<polyline fill="none" stroke="black" points="76.62,-230.25 76.62,-265.5"/>
<text text-anchor="middle" x="117.62" y="-243.6" font-family="Times,serif" font-size="12.00">0x1007000b0</text>
</g>
<!-- node60x1007000b0 -->
<g id="node26" class="node">
<title>node60x1007000b0</title>
<polygon fill="none" stroke="black" points="196.12,-221.25 196.12,-265.75 300.12,-265.75 300.12,-221.25 196.12,-221.25"/>
<text text-anchor="middle" x="207.12" y="-250.35" font-family="Times,serif" font-size="12.00">1</text>
<polyline fill="none" stroke="black" points="218.12,-243.5 218.12,-265.75"/>
<text text-anchor="middle" x="259.12" y="-250.35" font-family="Times,serif" font-size="12.00">0x100700120</text>
<polyline fill="none" stroke="black" points="196.12,-243.5 300.12,-243.5"/>
<text text-anchor="middle" x="248.12" y="-228.1" font-family="Times,serif" font-size="12.00">2</text>
</g>
<!-- HeadNode6&#45;&gt;node60x1007000b0 -->
<g id="edge27" class="edge">
<title>HeadNode6:f1&#45;&gt;node60x1007000b0:w1</title>
<path fill="none" stroke="black" d="M159.62,-247.88C171.48,-247.88 176.63,-251.36 184.71,-253.32"/>
<polygon fill="black" stroke="black" points="184.29,-256.8 194.62,-254.45 185.08,-249.84 184.29,-256.8"/>
</g>
<!-- node60x100700120 -->
<g id="node27" class="node">
<title>node60x100700120</title>
<polygon fill="none" stroke="black" points="360.12,-221.25 360.12,-265.75 416.12,-265.75 416.12,-221.25 360.12,-221.25"/>
<text text-anchor="middle" x="371.12" y="-250.35" font-family="Times,serif" font-size="12.00">1</text>
<polyline fill="none" stroke="black" points="382.12,-243.5 382.12,-265.75"/>
<text text-anchor="middle" x="399.12" y="-250.35" font-family="Times,serif" font-size="12.00">0x0</text>
<polyline fill="none" stroke="black" points="360.12,-243.5 416.12,-243.5"/>
<text text-anchor="middle" x="388.12" y="-228.1" font-family="Times,serif" font-size="12.00">3</text>
</g>
<!-- node60x1007000b0&#45;&gt;node60x100700120 -->
<g id="edge28" class="edge">
<title>node60x1007000b0:f1&#45;&gt;node60x100700120:w1</title>
<path fill="none" stroke="black" d="M300.12,-254.62C322.05,-254.62 330.22,-254.62 347.63,-254.62"/>
<polygon fill="black" stroke="black" points="347.61,-258.13 357.61,-254.63 347.61,-251.13 347.61,-258.13"/>
</g>
<!-- node60x0 -->
<g id="node28" class="node">
<title>node60x0</title>
<polygon fill="none" stroke="black" points="501.12,-229.5 501.12,-265.5 555.12,-265.5 555.12,-229.5 501.12,-229.5"/>
<text text-anchor="middle" x="528.12" y="-243.6" font-family="Times,serif" font-size="12.00">NULL</text>
</g>
<!-- node60x100700120&#45;&gt;node60x0 -->
<g id="edge29" class="edge">
<title>node60x100700120:f1&#45;&gt;node60x0:w1</title>
<path fill="none" stroke="black" d="M417.12,-254.62C441.23,-254.62 468.23,-253.02 489.57,-251.37"/>
<polygon fill="black" stroke="black" points="489.59,-254.88 499.27,-250.59 489.02,-247.91 489.59,-254.88"/>
</g>
<!-- HeadNode7 -->
<g id="node29" class="node">
<title>HeadNode7</title>
<polygon fill="none" stroke="black" points="54.62,-135.5 54.62,-171.5 158.62,-171.5 158.62,-135.5 54.62,-135.5"/>
<text text-anchor="middle" x="65.62" y="-149.6" font-family="Times,serif" font-size="12.00">1</text>
<polyline fill="none" stroke="black" points="76.62,-136.25 76.62,-171.5"/>
<text text-anchor="middle" x="117.62" y="-149.6" font-family="Times,serif" font-size="12.00">0x100700120</text>
</g>
<!-- node70x100700120 -->
<g id="node30" class="node">
<title>node70x100700120</title>
<polygon fill="none" stroke="black" points="220.12,-127.25 220.12,-171.75 276.12,-171.75 276.12,-127.25 220.12,-127.25"/>
<text text-anchor="middle" x="231.12" y="-156.35" font-family="Times,serif" font-size="12.00">1</text>
<polyline fill="none" stroke="black" points="242.12,-149.5 242.12,-171.75"/>
<text text-anchor="middle" x="259.12" y="-156.35" font-family="Times,serif" font-size="12.00">0x0</text>
<polyline fill="none" stroke="black" points="220.12,-149.5 276.12,-149.5"/>
<text text-anchor="middle" x="248.12" y="-134.1" font-family="Times,serif" font-size="12.00">3</text>
</g>
<!-- HeadNode7&#45;&gt;node70x100700120 -->
<g id="edge30" class="edge">
<title>HeadNode7:f1&#45;&gt;node70x100700120:w1</title>
<path fill="none" stroke="black" d="M159.62,-153.88C182.08,-153.88 190.05,-158.68 207.98,-160.18"/>
<polygon fill="black" stroke="black" points="207.48,-163.66 217.61,-160.56 207.76,-156.67 207.48,-163.66"/>
</g>
<!-- node70x0 -->
<g id="node31" class="node">
<title>node70x0</title>
<polygon fill="none" stroke="black" points="361.12,-135.5 361.12,-171.5 415.12,-171.5 415.12,-135.5 361.12,-135.5"/>
<text text-anchor="middle" x="388.12" y="-149.6" font-family="Times,serif" font-size="12.00">NULL</text>
</g>
<!-- node70x100700120&#45;&gt;node70x0 -->
<g id="edge31" class="edge">
<title>node70x100700120:f1&#45;&gt;node70x0:w1</title>
<path fill="none" stroke="black" d="M277.12,-160.62C301.23,-160.62 328.23,-159.02 349.57,-157.37"/>
<polygon fill="black" stroke="black" points="349.59,-160.88 359.27,-156.59 349.02,-153.91 349.59,-160.88"/>
</g>
<!-- HeadNode8 -->
<g id="node32" class="node">
<title>HeadNode8</title>
<polygon fill="none" stroke="black" points="55.5,-41.5 55.5,-77.5 157.75,-77.5 157.75,-41.5 55.5,-41.5"/>
<text text-anchor="middle" x="106.62" y="-55.6" font-family="Times,serif" font-size="12.00">Empty HeadNode</text>
</g>
<!-- node0 -->
<!-- node0&#45;&gt;HeadNode0 -->
<!-- node0&#45;&gt;HeadNode1 -->
<!-- node0&#45;&gt;HeadNode2 -->
<!-- node0&#45;&gt;HeadNode3 -->
<!-- node0&#45;&gt;HeadNode4 -->
<!-- node0&#45;&gt;HeadNode5 -->
<!-- node0&#45;&gt;HeadNode6 -->
<!-- node0&#45;&gt;HeadNode7 -->
<!-- node0&#45;&gt;HeadNode8 -->
</g>
</svg>
