<?xml version="1.0" encoding="UTF-8" standalone="no"?>
<!DOCTYPE svg PUBLIC "-//W3C//DTD SVG 1.1//EN"
 "http://www.w3.org/Graphics/SVG/1.1/DTD/svg11.dtd">
<!-- Generated by graphviz version 7.0.2 (20221119.0110)
 -->
<!-- Title: SkipList Pages: 1 -->
<svg width="695pt" height="150pt"
 viewBox="0.00 0.00 695.00 150.00" xmlns="http://www.w3.org/2000/svg" xmlns:xlink="http://www.w3.org/1999/xlink">
<g id="graph0" class="graph" transform="scale(1 1) rotate(0) translate(4 146)">
<title>SkipList</title>
<polygon fill="white" stroke="none" points="-4,4 -4,-146 691,-146 691,4 -4,4"/>
<text text-anchor="middle" x="343.5" y="-7.8" font-family="Times,serif" font-size="14.00">SkipList.</text>
<g id="clust1" class="cluster">
<title>cluster0</title>
<polygon fill="none" stroke="black" stroke-dasharray="5,2" points="48,-31 48,-134 679,-134 679,-31 48,-31"/>
<text text-anchor="middle" x="363.5" y="-118.8" font-family="Times,serif" font-size="14.00">Skip list iteration 0</text>
</g>
<!-- HeadNode0 -->
<g id="node1" class="node">
<title>HeadNode0</title>
<polygon fill="none" stroke="black" points="56,-60 56,-102 177,-102 177,-60 56,-60"/>
<text text-anchor="middle" x="67.5" y="-88.4" font-family="Times,serif" font-size="12.00">1</text>
<polyline fill="none" stroke="black" points="79,-81 79,-102"/>
<text text-anchor="middle" x="128" y="-88.4" font-family="Times,serif" font-size="12.00">0x7f8a68d86280</text>
<polyline fill="none" stroke="black" points="56,-81 177,-81"/>
<text text-anchor="middle" x="67.5" y="-67.4" font-family="Times,serif" font-size="12.00">1</text>
<polyline fill="none" stroke="black" points="79,-60 79,-81"/>
<text text-anchor="middle" x="128" y="-67.4" font-family="Times,serif" font-size="12.00">0x7f8a68d86280</text>
</g>
<!-- node00x7f8a68d86280 -->
<g id="node2" class="node">
<title>node00x7f8a68d86280</title>
<polygon fill="none" stroke="black" points="213,-39.5 213,-102.5 332,-102.5 332,-39.5 213,-39.5"/>
<text text-anchor="middle" x="224.5" y="-88.9" font-family="Times,serif" font-size="12.00">2</text>
<polyline fill="none" stroke="black" points="236,-81.5 236,-102.5"/>
<text text-anchor="middle" x="284" y="-88.9" font-family="Times,serif" font-size="12.00">0x7f8a68d9dcc0</text>
<polyline fill="none" stroke="black" points="213,-81.5 332,-81.5"/>
<text text-anchor="middle" x="224.5" y="-67.9" font-family="Times,serif" font-size="12.00">1</text>
<polyline fill="none" stroke="black" points="236,-60.5 236,-81.5"/>
<text text-anchor="middle" x="284" y="-67.9" font-family="Times,serif" font-size="12.00">0x7f8a68d44ec0</text>
<polyline fill="none" stroke="black" points="213,-60.5 332,-60.5"/>
<text text-anchor="middle" x="272.5" y="-46.9" font-family="Times,serif" font-size="12.00">21</text>
</g>
<!-- HeadNode0&#45;&gt;node00x7f8a68d86280 -->
<g id="edge1" class="edge">
<title>HeadNode0:f1&#45;&gt;node00x7f8a68d86280:w1</title>
<path fill="none" stroke="black" d="M177,-70C188.38,-70 193.68,-70.51 201.55,-70.8"/>
<polygon fill="black" stroke="black" points="201.43,-74.3 211.49,-70.97 201.55,-67.3 201.43,-74.3"/>
</g>
<!-- HeadNode0&#45;&gt;node00x7f8a68d86280 -->
<g id="edge2" class="edge">
<title>HeadNode0:f2&#45;&gt;node00x7f8a68d86280:w2</title>
<path fill="none" stroke="black" d="M177,-92C188.38,-92 193.68,-92 201.55,-92"/>
<polygon fill="black" stroke="black" points="201.49,-95.5 211.49,-92 201.49,-88.5 201.49,-95.5"/>
</g>
<!-- node00x7f8a68d44ec0 -->
<g id="node3" class="node">
<title>node00x7f8a68d44ec0</title>
<polygon fill="none" stroke="black" points="368,-40 368,-82 487,-82 487,-40 368,-40"/>
<text text-anchor="middle" x="379.5" y="-68.4" font-family="Times,serif" font-size="12.00">1</text>
<polyline fill="none" stroke="black" points="391,-61 391,-82"/>
<text text-anchor="middle" x="439" y="-68.4" font-family="Times,serif" font-size="12.00">0x7f8a68d9dcc0</text>
<polyline fill="none" stroke="black" points="368,-61 487,-61"/>
<text text-anchor="middle" x="427.5" y="-47.4" font-family="Times,serif" font-size="12.00">42</text>
</g>
<!-- node00x7f8a68d86280&#45;&gt;node00x7f8a68d44ec0 -->
<g id="edge3" class="edge">
<title>node00x7f8a68d86280:f1&#45;&gt;node00x7f8a68d44ec0:w1</title>
<path fill="none" stroke="black" d="M332,-71C343.38,-71 348.68,-71.51 356.55,-71.8"/>
<polygon fill="black" stroke="black" points="356.43,-75.3 366.49,-71.97 356.55,-68.3 356.43,-75.3"/>
</g>
<!-- node00x7f8a68d9dcc0 -->
<g id="node4" class="node">
<title>node00x7f8a68d9dcc0</title>
<polygon fill="none" stroke="black" points="523,-39.5 523,-102.5 581,-102.5 581,-39.5 523,-39.5"/>
<text text-anchor="middle" x="534.5" y="-88.9" font-family="Times,serif" font-size="12.00">1</text>
<polyline fill="none" stroke="black" points="546,-81.5 546,-102.5"/>
<text text-anchor="middle" x="563.5" y="-88.9" font-family="Times,serif" font-size="12.00">0x0</text>
<polyline fill="none" stroke="black" points="523,-81.5 581,-81.5"/>
<text text-anchor="middle" x="534.5" y="-67.9" font-family="Times,serif" font-size="12.00">1</text>
<polyline fill="none" stroke="black" points="546,-60.5 546,-81.5"/>
<text text-anchor="middle" x="563.5" y="-67.9" font-family="Times,serif" font-size="12.00">0x0</text>
<polyline fill="none" stroke="black" points="523,-60.5 581,-60.5"/>
<text text-anchor="middle" x="552" y="-46.9" font-family="Times,serif" font-size="12.00">84</text>
</g>
<!-- node00x7f8a68d86280&#45;&gt;node00x7f8a68d9dcc0 -->
<g id="edge4" class="edge">
<title>node00x7f8a68d86280:f2&#45;&gt;node00x7f8a68d9dcc0:w2</title>
<path fill="none" stroke="black" d="M332,-92C413.08,-92 436.08,-92 511.93,-92"/>
<polygon fill="black" stroke="black" points="511.49,-95.5 521.49,-92 511.49,-88.5 511.49,-95.5"/>
</g>
<!-- node00x7f8a68d44ec0&#45;&gt;node00x7f8a68d9dcc0 -->
<g id="edge5" class="edge">
<title>node00x7f8a68d44ec0:f1&#45;&gt;node00x7f8a68d9dcc0:w1</title>
<path fill="none" stroke="black" d="M487,-72C498.38,-72 503.68,-71.49 511.55,-71.2"/>
<polygon fill="black" stroke="black" points="511.55,-74.7 521.49,-71.03 511.43,-67.7 511.55,-74.7"/>
</g>
<!-- node00x0 -->
<g id="node5" class="node">
<title>node00x0</title>
<polygon fill="none" stroke="black" points="617,-60 617,-102 671,-102 671,-60 617,-60"/>
<text text-anchor="middle" x="644" y="-88.4" font-family="Times,serif" font-size="12.00">NULL</text>
<polyline fill="none" stroke="black" points="617,-81 671,-81"/>
<text text-anchor="middle" x="644" y="-67.4" font-family="Times,serif" font-size="12.00">NULL</text>
</g>
<!-- node00x7f8a68d9dcc0&#45;&gt;node00x0 -->
<g id="edge6" class="edge">
<title>node00x7f8a68d9dcc0:f1&#45;&gt;node00x0:w1</title>
<path fill="none" stroke="black" d="M581,-71C592.38,-71 597.68,-70.49 605.55,-70.2"/>
<polygon fill="black" stroke="black" points="605.55,-73.7 615.49,-70.03 605.43,-66.7 605.55,-73.7"/>
</g>
<!-- node00x7f8a68d9dcc0&#45;&gt;node00x0 -->
<g id="edge7" class="edge">
<title>node00x7f8a68d9dcc0:f2&#45;&gt;node00x0:w2</title>
<path fill="none" stroke="black" d="M581,-92C592.38,-92 597.68,-92 605.55,-92"/>
<polygon fill="black" stroke="black" points="605.49,-95.5 615.49,-92 605.49,-88.5 605.49,-95.5"/>
</g>
<!-- node0 -->
<!-- node0&#45;&gt;HeadNode0 -->
</g>
</svg>
