<?xml version="1.0" encoding="UTF-8" standalone="no"?>
<!DOCTYPE svg PUBLIC "-//W3C//DTD SVG 1.1//EN"
 "http://www.w3.org/Graphics/SVG/1.1/DTD/svg11.dtd">
<!-- Generated by graphviz version 8.1.0 (20230707.0739)
 -->
<!-- Title: SkipList Pages: 1 -->
<svg width="786pt" height="1186pt"
 viewBox="0.00 0.00 786.00 1185.50" xmlns="http://www.w3.org/2000/svg" xmlns:xlink="http://www.w3.org/1999/xlink">
<g id="graph0" class="graph" transform="scale(1 1) rotate(0) translate(4 1181.5)">
<title>SkipList</title>
<polygon fill="white" stroke="none" points="-4,4 -4,-1181.5 782,-1181.5 782,4 -4,4"/>
<text text-anchor="middle" x="389" y="-7.2" font-family="Times,serif" font-size="14.00">SkipList.</text>
<g id="clust7" class="cluster">
<title>cluster6</title>
<polygon fill="none" stroke="black" stroke-dasharray="5,2" points="47,-257.5 47,-388.5 563,-388.5 563,-257.5 47,-257.5"/>
<text text-anchor="middle" x="305" y="-371.2" font-family="Times,serif" font-size="14.00">Skip list iteration 6</text>
</g>
<g id="clust8" class="cluster">
<title>cluster7</title>
<polygon fill="none" stroke="black" stroke-dasharray="5,2" points="47,-118.5 47,-249.5 423,-249.5 423,-118.5 47,-118.5"/>
<text text-anchor="middle" x="235" y="-232.2" font-family="Times,serif" font-size="14.00">Skip list iteration 7</text>
</g>
<g id="clust9" class="cluster">
<title>cluster8</title>
<polygon fill="none" stroke="black" stroke-dasharray="5,2" points="46.88,-32.5 46.88,-110.5 167.12,-110.5 167.12,-32.5 46.88,-32.5"/>
<text text-anchor="middle" x="107" y="-93.2" font-family="Times,serif" font-size="14.00">Skip list iteration 8</text>
</g>
<g id="clust1" class="cluster">
<title>cluster0</title>
<polygon fill="none" stroke="black" stroke-dasharray="5,2" points="46.88,-1091.5 46.88,-1169.5 167.12,-1169.5 167.12,-1091.5 46.88,-1091.5"/>
<text text-anchor="middle" x="107" y="-1152.2" font-family="Times,serif" font-size="14.00">Skip list iteration 0</text>
</g>
<g id="clust2" class="cluster">
<title>cluster1</title>
<polygon fill="none" stroke="black" stroke-dasharray="5,2" points="47,-952.5 47,-1083.5 423,-1083.5 423,-952.5 47,-952.5"/>
<text text-anchor="middle" x="235" y="-1066.2" font-family="Times,serif" font-size="14.00">Skip list iteration 1</text>
</g>
<g id="clust3" class="cluster">
<title>cluster2</title>
<polygon fill="none" stroke="black" stroke-dasharray="5,2" points="47,-813.5 47,-944.5 563,-944.5 563,-813.5 47,-813.5"/>
<text text-anchor="middle" x="305" y="-927.2" font-family="Times,serif" font-size="14.00">Skip list iteration 2</text>
</g>
<g id="clust4" class="cluster">
<title>cluster3</title>
<polygon fill="none" stroke="black" stroke-dasharray="5,2" points="47,-674.5 47,-805.5 679,-805.5 679,-674.5 47,-674.5"/>
<text text-anchor="middle" x="363" y="-788.2" font-family="Times,serif" font-size="14.00">Skip list iteration 3</text>
</g>
<g id="clust5" class="cluster">
<title>cluster4</title>
<polygon fill="none" stroke="black" stroke-dasharray="5,2" points="47,-535.5 47,-666.5 770,-666.5 770,-535.5 47,-535.5"/>
<text text-anchor="middle" x="408.5" y="-649.2" font-family="Times,serif" font-size="14.00">Skip list iteration 4</text>
</g>
<g id="clust6" class="cluster">
<title>cluster5</title>
<polygon fill="none" stroke="black" stroke-dasharray="5,2" points="47,-396.5 47,-527.5 679,-527.5 679,-396.5 47,-396.5"/>
<text text-anchor="middle" x="363" y="-510.2" font-family="Times,serif" font-size="14.00">Skip list iteration 5</text>
</g>
<!-- HeadNode0 -->
<g id="node1" class="node">
<title>HeadNode0</title>
<polygon fill="none" stroke="black" points="55.88,-1100.5 55.88,-1136.5 158.12,-1136.5 158.12,-1100.5 55.88,-1100.5"/>
<text text-anchor="middle" x="107" y="-1114.6" font-family="Times,serif" font-size="12.00">Empty HeadNode</text>
</g>
<!-- HeadNode1 -->
<g id="node2" class="node">
<title>HeadNode1</title>
<polygon fill="none" stroke="black" points="55,-983.12 55,-1049.88 159,-1049.88 159,-983.12 55,-983.12"/>
<text text-anchor="middle" x="66" y="-1034.47" font-family="Times,serif" font-size="12.00">1</text>
<polyline fill="none" stroke="black" points="77,-1027.62 77,-1049.88"/>
<text text-anchor="middle" x="118" y="-1034.47" font-family="Times,serif" font-size="12.00">0x100600000</text>
<polyline fill="none" stroke="black" points="55,-1027.62 159,-1027.62"/>
<text text-anchor="middle" x="66" y="-1012.23" font-family="Times,serif" font-size="12.00">1</text>
<polyline fill="none" stroke="black" points="77,-1005.38 77,-1027.62"/>
<text text-anchor="middle" x="118" y="-1012.23" font-family="Times,serif" font-size="12.00">0x100600000</text>
<polyline fill="none" stroke="black" points="55,-1005.38 159,-1005.38"/>
<text text-anchor="middle" x="66" y="-989.98" font-family="Times,serif" font-size="12.00">1</text>
<polyline fill="none" stroke="black" points="77,-983.12 77,-1005.38"/>
<text text-anchor="middle" x="118" y="-989.98" font-family="Times,serif" font-size="12.00">0x100600000</text>
</g>
<!-- node10x100600000 -->
<g id="node3" class="node">
<title>node10x100600000</title>
<polygon fill="none" stroke="black" points="220,-961 220,-1050 276,-1050 276,-961 220,-961"/>
<text text-anchor="middle" x="231" y="-1034.6" font-family="Times,serif" font-size="12.00">1</text>
<polyline fill="none" stroke="black" points="242,-1027.75 242,-1050"/>
<text text-anchor="middle" x="259" y="-1034.6" font-family="Times,serif" font-size="12.00">0x0</text>
<polyline fill="none" stroke="black" points="220,-1027.75 276,-1027.75"/>
<text text-anchor="middle" x="231" y="-1012.35" font-family="Times,serif" font-size="12.00">1</text>
<polyline fill="none" stroke="black" points="242,-1005.5 242,-1027.75"/>
<text text-anchor="middle" x="259" y="-1012.35" font-family="Times,serif" font-size="12.00">0x0</text>
<polyline fill="none" stroke="black" points="220,-1005.5 276,-1005.5"/>
<text text-anchor="middle" x="231" y="-990.1" font-family="Times,serif" font-size="12.00">1</text>
<polyline fill="none" stroke="black" points="242,-983.25 242,-1005.5"/>
<text text-anchor="middle" x="259" y="-990.1" font-family="Times,serif" font-size="12.00">0x0</text>
<polyline fill="none" stroke="black" points="220,-983.25 276,-983.25"/>
<text text-anchor="middle" x="248" y="-967.85" font-family="Times,serif" font-size="12.00">0</text>
</g>
<!-- HeadNode1&#45;&gt;node10x100600000 -->
<g id="edge1" class="edge">
<title>HeadNode1:f1&#45;&gt;node10x100600000:w1</title>
<path fill="none" stroke="black" d="M160,-994.5C182.23,-994.5 190.32,-994.5 208.25,-994.5"/>
<polygon fill="black" stroke="black" points="208,-998 218,-994.5 208,-991 208,-998"/>
</g>
<!-- HeadNode1&#45;&gt;node10x100600000 -->
<g id="edge2" class="edge">
<title>HeadNode1:f2&#45;&gt;node10x100600000:w2</title>
<path fill="none" stroke="black" d="M160,-1016.5C182.23,-1016.5 190.32,-1016.5 208.25,-1016.5"/>
<polygon fill="black" stroke="black" points="208,-1020 218,-1016.5 208,-1013 208,-1020"/>
</g>
<!-- HeadNode1&#45;&gt;node10x100600000 -->
<g id="edge3" class="edge">
<title>HeadNode1:f3&#45;&gt;node10x100600000:w3</title>
<path fill="none" stroke="black" d="M160,-1038.5C182.23,-1038.5 190.32,-1038.5 208.25,-1038.5"/>
<polygon fill="black" stroke="black" points="208,-1042 218,-1038.5 208,-1035 208,-1042"/>
</g>
<!-- node10x0 -->
<g id="node4" class="node">
<title>node10x0</title>
<polygon fill="none" stroke="black" points="361,-983.12 361,-1049.88 415,-1049.88 415,-983.12 361,-983.12"/>
<text text-anchor="middle" x="388" y="-1034.47" font-family="Times,serif" font-size="12.00">NULL</text>
<polyline fill="none" stroke="black" points="361,-1027.62 415,-1027.62"/>
<text text-anchor="middle" x="388" y="-1012.23" font-family="Times,serif" font-size="12.00">NULL</text>
<polyline fill="none" stroke="black" points="361,-1005.38 415,-1005.38"/>
<text text-anchor="middle" x="388" y="-989.98" font-family="Times,serif" font-size="12.00">NULL</text>
</g>
<!-- node10x100600000&#45;&gt;node10x0 -->
<g id="edge4" class="edge">
<title>node10x100600000:f1&#45;&gt;node10x0:w1</title>
<path fill="none" stroke="black" d="M277,-994.5C310,-994.5 320.86,-994.5 349.19,-994.5"/>
<polygon fill="black" stroke="black" points="349,-998 359,-994.5 349,-991 349,-998"/>
</g>
<!-- node10x100600000&#45;&gt;node10x0 -->
<g id="edge5" class="edge">
<title>node10x100600000:f2&#45;&gt;node10x0:w2</title>
<path fill="none" stroke="black" d="M277,-1016.5C310,-1016.5 320.86,-1016.5 349.19,-1016.5"/>
<polygon fill="black" stroke="black" points="349,-1020 359,-1016.5 349,-1013 349,-1020"/>
</g>
<!-- node10x100600000&#45;&gt;node10x0 -->
<g id="edge6" class="edge">
<title>node10x100600000:f3&#45;&gt;node10x0:w3</title>
<path fill="none" stroke="black" d="M277,-1038.5C310,-1038.5 320.86,-1038.5 349.19,-1038.5"/>
<polygon fill="black" stroke="black" points="349,-1042 359,-1038.5 349,-1035 349,-1042"/>
</g>
<!-- HeadNode2 -->
<g id="node5" class="node">
<title>HeadNode2</title>
<polygon fill="none" stroke="black" points="55,-844.12 55,-910.88 159,-910.88 159,-844.12 55,-844.12"/>
<text text-anchor="middle" x="66" y="-895.48" font-family="Times,serif" font-size="12.00">1</text>
<polyline fill="none" stroke="black" points="77,-888.62 77,-910.88"/>
<text text-anchor="middle" x="118" y="-895.48" font-family="Times,serif" font-size="12.00">0x100600000</text>
<polyline fill="none" stroke="black" points="55,-888.62 159,-888.62"/>
<text text-anchor="middle" x="66" y="-873.23" font-family="Times,serif" font-size="12.00">1</text>
<polyline fill="none" stroke="black" points="77,-866.38 77,-888.62"/>
<text text-anchor="middle" x="118" y="-873.23" font-family="Times,serif" font-size="12.00">0x100600000</text>
<polyline fill="none" stroke="black" points="55,-866.38 159,-866.38"/>
<text text-anchor="middle" x="66" y="-850.98" font-family="Times,serif" font-size="12.00">1</text>
<polyline fill="none" stroke="black" points="77,-844.12 77,-866.38"/>
<text text-anchor="middle" x="118" y="-850.98" font-family="Times,serif" font-size="12.00">0x100600000</text>
</g>
<!-- node20x100600000 -->
<g id="node6" class="node">
<title>node20x100600000</title>
<polygon fill="none" stroke="black" points="196,-822 196,-911 300,-911 300,-822 196,-822"/>
<text text-anchor="middle" x="219" y="-895.6" font-family="Times,serif" font-size="12.00">2</text>
<polyline fill="none" stroke="black" points="242,-888.75 242,-911"/>
<text text-anchor="middle" x="271" y="-895.6" font-family="Times,serif" font-size="12.00">0x0</text>
<polyline fill="none" stroke="black" points="196,-888.75 300,-888.75"/>
<text text-anchor="middle" x="219" y="-873.35" font-family="Times,serif" font-size="12.00">2</text>
<polyline fill="none" stroke="black" points="242,-866.5 242,-888.75"/>
<text text-anchor="middle" x="271" y="-873.35" font-family="Times,serif" font-size="12.00">0x0</text>
<polyline fill="none" stroke="black" points="196,-866.5 300,-866.5"/>
<text text-anchor="middle" x="207" y="-851.1" font-family="Times,serif" font-size="12.00">1</text>
<polyline fill="none" stroke="black" points="218,-844.25 218,-866.5"/>
<text text-anchor="middle" x="259" y="-851.1" font-family="Times,serif" font-size="12.00">0x1005078b0</text>
<polyline fill="none" stroke="black" points="196,-844.25 300,-844.25"/>
<text text-anchor="middle" x="248" y="-828.85" font-family="Times,serif" font-size="12.00">0</text>
</g>
<!-- HeadNode2&#45;&gt;node20x100600000 -->
<g id="edge7" class="edge">
<title>HeadNode2:f1&#45;&gt;node20x100600000:w1</title>
<path fill="none" stroke="black" d="M160,-855.5C171.62,-855.5 176.92,-855.5 185.08,-855.5"/>
<polygon fill="black" stroke="black" points="185,-859 195,-855.5 185,-852 185,-859"/>
</g>
<!-- HeadNode2&#45;&gt;node20x100600000 -->
<g id="edge8" class="edge">
<title>HeadNode2:f2&#45;&gt;node20x100600000:w2</title>
<path fill="none" stroke="black" d="M160,-877.5C171.62,-877.5 176.92,-877.5 185.08,-877.5"/>
<polygon fill="black" stroke="black" points="185,-881 195,-877.5 185,-874 185,-881"/>
</g>
<!-- HeadNode2&#45;&gt;node20x100600000 -->
<g id="edge9" class="edge">
<title>HeadNode2:f3&#45;&gt;node20x100600000:w3</title>
<path fill="none" stroke="black" d="M160,-899.5C171.62,-899.5 176.92,-899.5 185.08,-899.5"/>
<polygon fill="black" stroke="black" points="185,-903 195,-899.5 185,-896 185,-903"/>
</g>
<!-- node20x1005078b0 -->
<g id="node7" class="node">
<title>node20x1005078b0</title>
<polygon fill="none" stroke="black" points="360,-822.25 360,-866.75 416,-866.75 416,-822.25 360,-822.25"/>
<text text-anchor="middle" x="371" y="-851.35" font-family="Times,serif" font-size="12.00">1</text>
<polyline fill="none" stroke="black" points="382,-844.5 382,-866.75"/>
<text text-anchor="middle" x="399" y="-851.35" font-family="Times,serif" font-size="12.00">0x0</text>
<polyline fill="none" stroke="black" points="360,-844.5 416,-844.5"/>
<text text-anchor="middle" x="388" y="-829.1" font-family="Times,serif" font-size="12.00">1</text>
</g>
<!-- node20x100600000&#45;&gt;node20x1005078b0 -->
<g id="edge10" class="edge">
<title>node20x100600000:f1&#45;&gt;node20x1005078b0:w1</title>
<path fill="none" stroke="black" d="M300,-855.5C322.23,-855.5 330.32,-855.5 348.25,-855.5"/>
<polygon fill="black" stroke="black" points="348,-859 358,-855.5 348,-852 348,-859"/>
</g>
<!-- node20x0 -->
<g id="node8" class="node">
<title>node20x0</title>
<polygon fill="none" stroke="black" points="501,-845.12 501,-911.88 555,-911.88 555,-845.12 501,-845.12"/>
<text text-anchor="middle" x="528" y="-896.48" font-family="Times,serif" font-size="12.00">NULL</text>
<polyline fill="none" stroke="black" points="501,-889.62 555,-889.62"/>
<text text-anchor="middle" x="528" y="-874.23" font-family="Times,serif" font-size="12.00">NULL</text>
<polyline fill="none" stroke="black" points="501,-867.38 555,-867.38"/>
<text text-anchor="middle" x="528" y="-851.98" font-family="Times,serif" font-size="12.00">NULL</text>
</g>
<!-- node20x100600000&#45;&gt;node20x0 -->
<g id="edge11" class="edge">
<title>node20x100600000:f2&#45;&gt;node20x0:w2</title>
<path fill="none" stroke="black" d="M300,-877.5C385.24,-877.5 409.18,-878.42 489.39,-878.5"/>
<polygon fill="black" stroke="black" points="489,-882 499,-878.5 489,-875 489,-882"/>
</g>
<!-- node20x100600000&#45;&gt;node20x0 -->
<g id="edge12" class="edge">
<title>node20x100600000:f3&#45;&gt;node20x0:w3</title>
<path fill="none" stroke="black" d="M300,-899.5C385.24,-899.5 409.18,-900.42 489.39,-900.5"/>
<polygon fill="black" stroke="black" points="489,-904 499,-900.5 489,-897 489,-904"/>
</g>
<!-- node20x1005078b0&#45;&gt;node20x0 -->
<g id="edge13" class="edge">
<title>node20x1005078b0:f1&#45;&gt;node20x0:w1</title>
<path fill="none" stroke="black" d="M417,-855.5C450,-855.5 460.86,-856.3 489.19,-856.47"/>
<polygon fill="black" stroke="black" points="488.99,-859.97 499,-856.5 489.01,-852.97 488.99,-859.97"/>
</g>
<!-- HeadNode3 -->
<g id="node9" class="node">
<title>HeadNode3</title>
<polygon fill="none" stroke="black" points="55,-705.12 55,-771.88 159,-771.88 159,-705.12 55,-705.12"/>
<text text-anchor="middle" x="66" y="-756.48" font-family="Times,serif" font-size="12.00">1</text>
<polyline fill="none" stroke="black" points="77,-749.62 77,-771.88"/>
<text text-anchor="middle" x="118" y="-756.48" font-family="Times,serif" font-size="12.00">0x100600000</text>
<polyline fill="none" stroke="black" points="55,-749.62 159,-749.62"/>
<text text-anchor="middle" x="66" y="-734.23" font-family="Times,serif" font-size="12.00">1</text>
<polyline fill="none" stroke="black" points="77,-727.38 77,-749.62"/>
<text text-anchor="middle" x="118" y="-734.23" font-family="Times,serif" font-size="12.00">0x100600000</text>
<polyline fill="none" stroke="black" points="55,-727.38 159,-727.38"/>
<text text-anchor="middle" x="66" y="-711.98" font-family="Times,serif" font-size="12.00">1</text>
<polyline fill="none" stroke="black" points="77,-705.12 77,-727.38"/>
<text text-anchor="middle" x="118" y="-711.98" font-family="Times,serif" font-size="12.00">0x100600000</text>
</g>
<!-- node30x100600000 -->
<g id="node10" class="node">
<title>node30x100600000</title>
<polygon fill="none" stroke="black" points="196,-683 196,-772 300,-772 300,-683 196,-683"/>
<text text-anchor="middle" x="219" y="-756.6" font-family="Times,serif" font-size="12.00">3</text>
<polyline fill="none" stroke="black" points="242,-749.75 242,-772"/>
<text text-anchor="middle" x="271" y="-756.6" font-family="Times,serif" font-size="12.00">0x0</text>
<polyline fill="none" stroke="black" points="196,-749.75 300,-749.75"/>
<text text-anchor="middle" x="219" y="-734.35" font-family="Times,serif" font-size="12.00">3</text>
<polyline fill="none" stroke="black" points="242,-727.5 242,-749.75"/>
<text text-anchor="middle" x="271" y="-734.35" font-family="Times,serif" font-size="12.00">0x0</text>
<polyline fill="none" stroke="black" points="196,-727.5 300,-727.5"/>
<text text-anchor="middle" x="207" y="-712.1" font-family="Times,serif" font-size="12.00">1</text>
<polyline fill="none" stroke="black" points="218,-705.25 218,-727.5"/>
<text text-anchor="middle" x="259" y="-712.1" font-family="Times,serif" font-size="12.00">0x1005078b0</text>
<polyline fill="none" stroke="black" points="196,-705.25 300,-705.25"/>
<text text-anchor="middle" x="248" y="-689.85" font-family="Times,serif" font-size="12.00">0</text>
</g>
<!-- HeadNode3&#45;&gt;node30x100600000 -->
<g id="edge14" class="edge">
<title>HeadNode3:f1&#45;&gt;node30x100600000:w1</title>
<path fill="none" stroke="black" d="M160,-716.5C171.62,-716.5 176.92,-716.5 185.08,-716.5"/>
<polygon fill="black" stroke="black" points="185,-720 195,-716.5 185,-713 185,-720"/>
</g>
<!-- HeadNode3&#45;&gt;node30x100600000 -->
<g id="edge15" class="edge">
<title>HeadNode3:f2&#45;&gt;node30x100600000:w2</title>
<path fill="none" stroke="black" d="M160,-738.5C171.62,-738.5 176.92,-738.5 185.08,-738.5"/>
<polygon fill="black" stroke="black" points="185,-742 195,-738.5 185,-735 185,-742"/>
</g>
<!-- HeadNode3&#45;&gt;node30x100600000 -->
<g id="edge16" class="edge">
<title>HeadNode3:f3&#45;&gt;node30x100600000:w3</title>
<path fill="none" stroke="black" d="M160,-760.5C171.62,-760.5 176.92,-760.5 185.08,-760.5"/>
<polygon fill="black" stroke="black" points="185,-764 195,-760.5 185,-757 185,-764"/>
</g>
<!-- node30x1005078b0 -->
<g id="node11" class="node">
<title>node30x1005078b0</title>
<polygon fill="none" stroke="black" points="336,-683.25 336,-727.75 440,-727.75 440,-683.25 336,-683.25"/>
<text text-anchor="middle" x="347" y="-712.35" font-family="Times,serif" font-size="12.00">1</text>
<polyline fill="none" stroke="black" points="358,-705.5 358,-727.75"/>
<text text-anchor="middle" x="399" y="-712.35" font-family="Times,serif" font-size="12.00">0x100507920</text>
<polyline fill="none" stroke="black" points="336,-705.5 440,-705.5"/>
<text text-anchor="middle" x="388" y="-690.1" font-family="Times,serif" font-size="12.00">1</text>
</g>
<!-- node30x100600000&#45;&gt;node30x1005078b0 -->
<g id="edge17" class="edge">
<title>node30x100600000:f1&#45;&gt;node30x1005078b0:w1</title>
<path fill="none" stroke="black" d="M300,-716.5C311.62,-716.5 316.92,-716.5 325.08,-716.5"/>
<polygon fill="black" stroke="black" points="325,-720 335,-716.5 325,-713 325,-720"/>
</g>
<!-- node30x0 -->
<g id="node12" class="node">
<title>node30x0</title>
<polygon fill="none" stroke="black" points="617,-706.12 617,-772.88 671,-772.88 671,-706.12 617,-706.12"/>
<text text-anchor="middle" x="644" y="-757.48" font-family="Times,serif" font-size="12.00">NULL</text>
<polyline fill="none" stroke="black" points="617,-750.62 671,-750.62"/>
<text text-anchor="middle" x="644" y="-735.23" font-family="Times,serif" font-size="12.00">NULL</text>
<polyline fill="none" stroke="black" points="617,-728.38 671,-728.38"/>
<text text-anchor="middle" x="644" y="-712.98" font-family="Times,serif" font-size="12.00">NULL</text>
</g>
<!-- node30x100600000&#45;&gt;node30x0 -->
<g id="edge18" class="edge">
<title>node30x100600000:f2&#45;&gt;node30x0:w2</title>
<path fill="none" stroke="black" d="M300,-738.5C436.74,-738.5 473.63,-739.45 605.11,-739.5"/>
<polygon fill="black" stroke="black" points="605,-743 615,-739.5 605,-736 605,-743"/>
</g>
<!-- node30x100600000&#45;&gt;node30x0 -->
<g id="edge19" class="edge">
<title>node30x100600000:f3&#45;&gt;node30x0:w3</title>
<path fill="none" stroke="black" d="M300,-760.5C436.74,-760.5 473.63,-761.45 605.11,-761.5"/>
<polygon fill="black" stroke="black" points="605,-765 615,-761.5 605,-758 605,-765"/>
</g>
<!-- node30x100507920 -->
<g id="node13" class="node">
<title>node30x100507920</title>
<polygon fill="none" stroke="black" points="500,-683.25 500,-727.75 556,-727.75 556,-683.25 500,-683.25"/>
<text text-anchor="middle" x="511" y="-712.35" font-family="Times,serif" font-size="12.00">1</text>
<polyline fill="none" stroke="black" points="522,-705.5 522,-727.75"/>
<text text-anchor="middle" x="539" y="-712.35" font-family="Times,serif" font-size="12.00">0x0</text>
<polyline fill="none" stroke="black" points="500,-705.5 556,-705.5"/>
<text text-anchor="middle" x="528" y="-690.1" font-family="Times,serif" font-size="12.00">2</text>
</g>
<!-- node30x1005078b0&#45;&gt;node30x100507920 -->
<g id="edge20" class="edge">
<title>node30x1005078b0:f1&#45;&gt;node30x100507920:w1</title>
<path fill="none" stroke="black" d="M440,-716.5C462.23,-716.5 470.32,-716.5 488.25,-716.5"/>
<polygon fill="black" stroke="black" points="488,-720 498,-716.5 488,-713 488,-720"/>
</g>
<!-- node30x100507920&#45;&gt;node30x0 -->
<g id="edge21" class="edge">
<title>node30x100507920:f1&#45;&gt;node30x0:w1</title>
<path fill="none" stroke="black" d="M557,-716.5C579.23,-716.5 587.32,-717.22 605.24,-717.44"/>
<polygon fill="black" stroke="black" points="604.98,-720.94 615,-717.5 605.02,-713.94 604.98,-720.94"/>
</g>
<!-- HeadNode4 -->
<g id="node14" class="node">
<title>HeadNode4</title>
<polygon fill="none" stroke="black" points="55,-566.12 55,-632.88 159,-632.88 159,-566.12 55,-566.12"/>
<text text-anchor="middle" x="66" y="-617.48" font-family="Times,serif" font-size="12.00">1</text>
<polyline fill="none" stroke="black" points="77,-610.62 77,-632.88"/>
<text text-anchor="middle" x="118" y="-617.48" font-family="Times,serif" font-size="12.00">0x100600000</text>
<polyline fill="none" stroke="black" points="55,-610.62 159,-610.62"/>
<text text-anchor="middle" x="66" y="-595.23" font-family="Times,serif" font-size="12.00">1</text>
<polyline fill="none" stroke="black" points="77,-588.38 77,-610.62"/>
<text text-anchor="middle" x="118" y="-595.23" font-family="Times,serif" font-size="12.00">0x100600000</text>
<polyline fill="none" stroke="black" points="55,-588.38 159,-588.38"/>
<text text-anchor="middle" x="66" y="-572.98" font-family="Times,serif" font-size="12.00">1</text>
<polyline fill="none" stroke="black" points="77,-566.12 77,-588.38"/>
<text text-anchor="middle" x="118" y="-572.98" font-family="Times,serif" font-size="12.00">0x100600000</text>
</g>
<!-- node40x100600000 -->
<g id="node15" class="node">
<title>node40x100600000</title>
<polygon fill="none" stroke="black" points="196,-544 196,-633 300,-633 300,-544 196,-544"/>
<text text-anchor="middle" x="207" y="-617.6" font-family="Times,serif" font-size="12.00">3</text>
<polyline fill="none" stroke="black" points="218,-610.75 218,-633"/>
<text text-anchor="middle" x="259" y="-617.6" font-family="Times,serif" font-size="12.00">0x1005079b0</text>
<polyline fill="none" stroke="black" points="196,-610.75 300,-610.75"/>
<text text-anchor="middle" x="207" y="-595.35" font-family="Times,serif" font-size="12.00">3</text>
<polyline fill="none" stroke="black" points="218,-588.5 218,-610.75"/>
<text text-anchor="middle" x="259" y="-595.35" font-family="Times,serif" font-size="12.00">0x1005079b0</text>
<polyline fill="none" stroke="black" points="196,-588.5 300,-588.5"/>
<text text-anchor="middle" x="207" y="-573.1" font-family="Times,serif" font-size="12.00">1</text>
<polyline fill="none" stroke="black" points="218,-566.25 218,-588.5"/>
<text text-anchor="middle" x="259" y="-573.1" font-family="Times,serif" font-size="12.00">0x1005078b0</text>
<polyline fill="none" stroke="black" points="196,-566.25 300,-566.25"/>
<text text-anchor="middle" x="248" y="-550.85" font-family="Times,serif" font-size="12.00">0</text>
</g>
<!-- HeadNode4&#45;&gt;node40x100600000 -->
<g id="edge22" class="edge">
<title>HeadNode4:f1&#45;&gt;node40x100600000:w1</title>
<path fill="none" stroke="black" d="M160,-577.5C171.62,-577.5 176.92,-577.5 185.08,-577.5"/>
<polygon fill="black" stroke="black" points="185,-581 195,-577.5 185,-574 185,-581"/>
</g>
<!-- HeadNode4&#45;&gt;node40x100600000 -->
<g id="edge23" class="edge">
<title>HeadNode4:f2&#45;&gt;node40x100600000:w2</title>
<path fill="none" stroke="black" d="M160,-599.5C171.62,-599.5 176.92,-599.5 185.08,-599.5"/>
<polygon fill="black" stroke="black" points="185,-603 195,-599.5 185,-596 185,-603"/>
</g>
<!-- HeadNode4&#45;&gt;node40x100600000 -->
<g id="edge24" class="edge">
<title>HeadNode4:f3&#45;&gt;node40x100600000:w3</title>
<path fill="none" stroke="black" d="M160,-621.5C171.62,-621.5 176.92,-621.5 185.08,-621.5"/>
<polygon fill="black" stroke="black" points="185,-625 195,-621.5 185,-618 185,-625"/>
</g>
<!-- node40x1005078b0 -->
<g id="node16" class="node">
<title>node40x1005078b0</title>
<polygon fill="none" stroke="black" points="336,-544.25 336,-588.75 440,-588.75 440,-544.25 336,-544.25"/>
<text text-anchor="middle" x="347" y="-573.35" font-family="Times,serif" font-size="12.00">1</text>
<polyline fill="none" stroke="black" points="358,-566.5 358,-588.75"/>
<text text-anchor="middle" x="399" y="-573.35" font-family="Times,serif" font-size="12.00">0x100507920</text>
<polyline fill="none" stroke="black" points="336,-566.5 440,-566.5"/>
<text text-anchor="middle" x="388" y="-551.1" font-family="Times,serif" font-size="12.00">1</text>
</g>
<!-- node40x100600000&#45;&gt;node40x1005078b0 -->
<g id="edge25" class="edge">
<title>node40x100600000:f1&#45;&gt;node40x1005078b0:w1</title>
<path fill="none" stroke="black" d="M300,-577.5C311.62,-577.5 316.92,-577.5 325.08,-577.5"/>
<polygon fill="black" stroke="black" points="325,-581 335,-577.5 325,-574 325,-581"/>
</g>
<!-- node40x1005079b0 -->
<g id="node17" class="node">
<title>node40x1005079b0</title>
<polygon fill="none" stroke="black" points="616,-544 616,-633 672,-633 672,-544 616,-544"/>
<text text-anchor="middle" x="627" y="-617.6" font-family="Times,serif" font-size="12.00">1</text>
<polyline fill="none" stroke="black" points="638,-610.75 638,-633"/>
<text text-anchor="middle" x="655" y="-617.6" font-family="Times,serif" font-size="12.00">0x0</text>
<polyline fill="none" stroke="black" points="616,-610.75 672,-610.75"/>
<text text-anchor="middle" x="627" y="-595.35" font-family="Times,serif" font-size="12.00">1</text>
<polyline fill="none" stroke="black" points="638,-588.5 638,-610.75"/>
<text text-anchor="middle" x="655" y="-595.35" font-family="Times,serif" font-size="12.00">0x0</text>
<polyline fill="none" stroke="black" points="616,-588.5 672,-588.5"/>
<text text-anchor="middle" x="627" y="-573.1" font-family="Times,serif" font-size="12.00">1</text>
<polyline fill="none" stroke="black" points="638,-566.25 638,-588.5"/>
<text text-anchor="middle" x="655" y="-573.1" font-family="Times,serif" font-size="12.00">0x0</text>
<polyline fill="none" stroke="black" points="616,-566.25 672,-566.25"/>
<text text-anchor="middle" x="644" y="-550.85" font-family="Times,serif" font-size="12.00">3</text>
</g>
<!-- node40x100600000&#45;&gt;node40x1005079b0 -->
<g id="edge26" class="edge">
<title>node40x100600000:f2&#45;&gt;node40x1005079b0:w2</title>
<path fill="none" stroke="black" d="M300,-599.5C436.74,-599.5 473.63,-599.5 605.11,-599.5"/>
<polygon fill="black" stroke="black" points="605,-603 615,-599.5 605,-596 605,-603"/>
</g>
<!-- node40x100600000&#45;&gt;node40x1005079b0 -->
<g id="edge27" class="edge">
<title>node40x100600000:f3&#45;&gt;node40x1005079b0:w3</title>
<path fill="none" stroke="black" d="M300,-621.5C436.74,-621.5 473.63,-621.5 605.11,-621.5"/>
<polygon fill="black" stroke="black" points="605,-625 615,-621.5 605,-618 605,-625"/>
</g>
<!-- node40x100507920 -->
<g id="node18" class="node">
<title>node40x100507920</title>
<polygon fill="none" stroke="black" points="476,-544.25 476,-588.75 580,-588.75 580,-544.25 476,-544.25"/>
<text text-anchor="middle" x="487" y="-573.35" font-family="Times,serif" font-size="12.00">1</text>
<polyline fill="none" stroke="black" points="498,-566.5 498,-588.75"/>
<text text-anchor="middle" x="539" y="-573.35" font-family="Times,serif" font-size="12.00">0x1005079b0</text>
<polyline fill="none" stroke="black" points="476,-566.5 580,-566.5"/>
<text text-anchor="middle" x="528" y="-551.1" font-family="Times,serif" font-size="12.00">2</text>
</g>
<!-- node40x1005078b0&#45;&gt;node40x100507920 -->
<g id="edge28" class="edge">
<title>node40x1005078b0:f1&#45;&gt;node40x100507920:w1</title>
<path fill="none" stroke="black" d="M440,-577.5C451.62,-577.5 456.92,-577.5 465.08,-577.5"/>
<polygon fill="black" stroke="black" points="465,-581 475,-577.5 465,-574 465,-581"/>
</g>
<!-- node40x0 -->
<g id="node19" class="node">
<title>node40x0</title>
<polygon fill="none" stroke="black" points="708,-566.12 708,-632.88 762,-632.88 762,-566.12 708,-566.12"/>
<text text-anchor="middle" x="735" y="-617.48" font-family="Times,serif" font-size="12.00">NULL</text>
<polyline fill="none" stroke="black" points="708,-610.62 762,-610.62"/>
<text text-anchor="middle" x="735" y="-595.23" font-family="Times,serif" font-size="12.00">NULL</text>
<polyline fill="none" stroke="black" points="708,-588.38 762,-588.38"/>
<text text-anchor="middle" x="735" y="-572.98" font-family="Times,serif" font-size="12.00">NULL</text>
</g>
<!-- node40x1005079b0&#45;&gt;node40x0 -->
<g id="edge30" class="edge">
<title>node40x1005079b0:f1&#45;&gt;node40x0:w1</title>
<path fill="none" stroke="black" d="M673,-577.5C684.18,-577.5 689.33,-577.5 697.12,-577.5"/>
<polygon fill="black" stroke="black" points="697,-581 707,-577.5 697,-574 697,-581"/>
</g>
<!-- node40x1005079b0&#45;&gt;node40x0 -->
<g id="edge31" class="edge">
<title>node40x1005079b0:f2&#45;&gt;node40x0:w2</title>
<path fill="none" stroke="black" d="M673,-599.5C684.18,-599.5 689.33,-599.5 697.12,-599.5"/>
<polygon fill="black" stroke="black" points="697,-603 707,-599.5 697,-596 697,-603"/>
</g>
<!-- node40x1005079b0&#45;&gt;node40x0 -->
<g id="edge32" class="edge">
<title>node40x1005079b0:f3&#45;&gt;node40x0:w3</title>
<path fill="none" stroke="black" d="M673,-621.5C684.18,-621.5 689.33,-621.5 697.12,-621.5"/>
<polygon fill="black" stroke="black" points="697,-625 707,-621.5 697,-618 697,-625"/>
</g>
<!-- node40x100507920&#45;&gt;node40x1005079b0 -->
<g id="edge29" class="edge">
<title>node40x100507920:f1&#45;&gt;node40x1005079b0:w1</title>
<path fill="none" stroke="black" d="M580,-577.5C591.62,-577.5 596.92,-577.5 605.08,-577.5"/>
<polygon fill="black" stroke="black" points="605,-581 615,-577.5 605,-574 605,-581"/>
</g>
<!-- HeadNode5 -->
<g id="node20" class="node">
<title>HeadNode5</title>
<polygon fill="none" stroke="black" points="55,-428.12 55,-494.88 159,-494.88 159,-428.12 55,-428.12"/>
<text text-anchor="middle" x="66" y="-479.48" font-family="Times,serif" font-size="12.00">3</text>
<polyline fill="none" stroke="black" points="77,-472.62 77,-494.88"/>
<text text-anchor="middle" x="118" y="-479.48" font-family="Times,serif" font-size="12.00">0x1005079b0</text>
<polyline fill="none" stroke="black" points="55,-472.62 159,-472.62"/>
<text text-anchor="middle" x="66" y="-457.23" font-family="Times,serif" font-size="12.00">3</text>
<polyline fill="none" stroke="black" points="77,-450.38 77,-472.62"/>
<text text-anchor="middle" x="118" y="-457.23" font-family="Times,serif" font-size="12.00">0x1005079b0</text>
<polyline fill="none" stroke="black" points="55,-450.38 159,-450.38"/>
<text text-anchor="middle" x="66" y="-434.98" font-family="Times,serif" font-size="12.00">1</text>
<polyline fill="none" stroke="black" points="77,-428.12 77,-450.38"/>
<text text-anchor="middle" x="118" y="-434.98" font-family="Times,serif" font-size="12.00">0x1005078b0</text>
</g>
<!-- node50x1005078b0 -->
<g id="node21" class="node">
<title>node50x1005078b0</title>
<polygon fill="none" stroke="black" points="196,-405.25 196,-449.75 300,-449.75 300,-405.25 196,-405.25"/>
<text text-anchor="middle" x="207" y="-434.35" font-family="Times,serif" font-size="12.00">1</text>
<polyline fill="none" stroke="black" points="218,-427.5 218,-449.75"/>
<text text-anchor="middle" x="259" y="-434.35" font-family="Times,serif" font-size="12.00">0x100507920</text>
<polyline fill="none" stroke="black" points="196,-427.5 300,-427.5"/>
<text text-anchor="middle" x="248" y="-412.1" font-family="Times,serif" font-size="12.00">1</text>
</g>
<!-- HeadNode5&#45;&gt;node50x1005078b0 -->
<g id="edge33" class="edge">
<title>HeadNode5:f1&#45;&gt;node50x1005078b0:w1</title>
<path fill="none" stroke="black" d="M160,-439.5C171.63,-439.5 176.91,-438.97 185.07,-438.68"/>
<polygon fill="black" stroke="black" points="185.06,-442.17 195,-438.5 184.94,-435.17 185.06,-442.17"/>
</g>
<!-- node50x1005079b0 -->
<g id="node22" class="node">
<title>node50x1005079b0</title>
<polygon fill="none" stroke="black" points="500,-405 500,-494 556,-494 556,-405 500,-405"/>
<text text-anchor="middle" x="511" y="-478.6" font-family="Times,serif" font-size="12.00">1</text>
<polyline fill="none" stroke="black" points="522,-471.75 522,-494"/>
<text text-anchor="middle" x="539" y="-478.6" font-family="Times,serif" font-size="12.00">0x0</text>
<polyline fill="none" stroke="black" points="500,-471.75 556,-471.75"/>
<text text-anchor="middle" x="511" y="-456.35" font-family="Times,serif" font-size="12.00">1</text>
<polyline fill="none" stroke="black" points="522,-449.5 522,-471.75"/>
<text text-anchor="middle" x="539" y="-456.35" font-family="Times,serif" font-size="12.00">0x0</text>
<polyline fill="none" stroke="black" points="500,-449.5 556,-449.5"/>
<text text-anchor="middle" x="511" y="-434.1" font-family="Times,serif" font-size="12.00">1</text>
<polyline fill="none" stroke="black" points="522,-427.25 522,-449.5"/>
<text text-anchor="middle" x="539" y="-434.1" font-family="Times,serif" font-size="12.00">0x0</text>
<polyline fill="none" stroke="black" points="500,-427.25 556,-427.25"/>
<text text-anchor="middle" x="528" y="-411.85" font-family="Times,serif" font-size="12.00">3</text>
</g>
<!-- HeadNode5&#45;&gt;node50x1005079b0 -->
<g id="edge34" class="edge">
<title>HeadNode5:f2&#45;&gt;node50x1005079b0:w2</title>
<path fill="none" stroke="black" d="M160,-461.5C306.99,-461.5 346.43,-460.55 488.16,-460.5"/>
<polygon fill="black" stroke="black" points="488,-464 498,-460.5 488,-457 488,-464"/>
</g>
<!-- HeadNode5&#45;&gt;node50x1005079b0 -->
<g id="edge35" class="edge">
<title>HeadNode5:f3&#45;&gt;node50x1005079b0:w3</title>
<path fill="none" stroke="black" d="M160,-483.5C306.99,-483.5 346.43,-482.55 488.16,-482.5"/>
<polygon fill="black" stroke="black" points="488,-486 498,-482.5 488,-479 488,-486"/>
</g>
<!-- node50x100507920 -->
<g id="node23" class="node">
<title>node50x100507920</title>
<polygon fill="none" stroke="black" points="336,-405.25 336,-449.75 440,-449.75 440,-405.25 336,-405.25"/>
<text text-anchor="middle" x="347" y="-434.35" font-family="Times,serif" font-size="12.00">1</text>
<polyline fill="none" stroke="black" points="358,-427.5 358,-449.75"/>
<text text-anchor="middle" x="399" y="-434.35" font-family="Times,serif" font-size="12.00">0x1005079b0</text>
<polyline fill="none" stroke="black" points="336,-427.5 440,-427.5"/>
<text text-anchor="middle" x="388" y="-412.1" font-family="Times,serif" font-size="12.00">2</text>
</g>
<!-- node50x1005078b0&#45;&gt;node50x100507920 -->
<g id="edge36" class="edge">
<title>node50x1005078b0:f1&#45;&gt;node50x100507920:w1</title>
<path fill="none" stroke="black" d="M300,-438.5C311.62,-438.5 316.92,-438.5 325.08,-438.5"/>
<polygon fill="black" stroke="black" points="325,-442 335,-438.5 325,-435 325,-442"/>
</g>
<!-- node50x0 -->
<g id="node24" class="node">
<title>node50x0</title>
<polygon fill="none" stroke="black" points="617,-427.12 617,-493.88 671,-493.88 671,-427.12 617,-427.12"/>
<text text-anchor="middle" x="644" y="-478.48" font-family="Times,serif" font-size="12.00">NULL</text>
<polyline fill="none" stroke="black" points="617,-471.62 671,-471.62"/>
<text text-anchor="middle" x="644" y="-456.23" font-family="Times,serif" font-size="12.00">NULL</text>
<polyline fill="none" stroke="black" points="617,-449.38 671,-449.38"/>
<text text-anchor="middle" x="644" y="-433.98" font-family="Times,serif" font-size="12.00">NULL</text>
</g>
<!-- node50x1005079b0&#45;&gt;node50x0 -->
<g id="edge38" class="edge">
<title>node50x1005079b0:f1&#45;&gt;node50x0:w1</title>
<path fill="none" stroke="black" d="M557,-438.5C579.23,-438.5 587.32,-438.5 605.25,-438.5"/>
<polygon fill="black" stroke="black" points="605,-442 615,-438.5 605,-435 605,-442"/>
</g>
<!-- node50x1005079b0&#45;&gt;node50x0 -->
<g id="edge39" class="edge">
<title>node50x1005079b0:f2&#45;&gt;node50x0:w2</title>
<path fill="none" stroke="black" d="M557,-460.5C579.23,-460.5 587.32,-460.5 605.25,-460.5"/>
<polygon fill="black" stroke="black" points="605,-464 615,-460.5 605,-457 605,-464"/>
</g>
<!-- node50x1005079b0&#45;&gt;node50x0 -->
<g id="edge40" class="edge">
<title>node50x1005079b0:f3&#45;&gt;node50x0:w3</title>
<path fill="none" stroke="black" d="M557,-482.5C579.23,-482.5 587.32,-482.5 605.25,-482.5"/>
<polygon fill="black" stroke="black" points="605,-486 615,-482.5 605,-479 605,-486"/>
</g>
<!-- node50x100507920&#45;&gt;node50x1005079b0 -->
<g id="edge37" class="edge">
<title>node50x100507920:f1&#45;&gt;node50x1005079b0:w1</title>
<path fill="none" stroke="black" d="M440,-438.5C462.23,-438.5 470.32,-438.5 488.25,-438.5"/>
<polygon fill="black" stroke="black" points="488,-442 498,-438.5 488,-435 488,-442"/>
</g>
<!-- HeadNode6 -->
<g id="node25" class="node">
<title>HeadNode6</title>
<polygon fill="none" stroke="black" points="55,-289.12 55,-355.88 159,-355.88 159,-289.12 55,-289.12"/>
<text text-anchor="middle" x="66" y="-340.48" font-family="Times,serif" font-size="12.00">2</text>
<polyline fill="none" stroke="black" points="77,-333.62 77,-355.88"/>
<text text-anchor="middle" x="118" y="-340.48" font-family="Times,serif" font-size="12.00">0x1005079b0</text>
<polyline fill="none" stroke="black" points="55,-333.62 159,-333.62"/>
<text text-anchor="middle" x="66" y="-318.23" font-family="Times,serif" font-size="12.00">2</text>
<polyline fill="none" stroke="black" points="77,-311.38 77,-333.62"/>
<text text-anchor="middle" x="118" y="-318.23" font-family="Times,serif" font-size="12.00">0x1005079b0</text>
<polyline fill="none" stroke="black" points="55,-311.38 159,-311.38"/>
<text text-anchor="middle" x="66" y="-295.98" font-family="Times,serif" font-size="12.00">1</text>
<polyline fill="none" stroke="black" points="77,-289.12 77,-311.38"/>
<text text-anchor="middle" x="118" y="-295.98" font-family="Times,serif" font-size="12.00">0x100507920</text>
</g>
<!-- node60x100507920 -->
<g id="node26" class="node">
<title>node60x100507920</title>
<polygon fill="none" stroke="black" points="196,-266.25 196,-310.75 300,-310.75 300,-266.25 196,-266.25"/>
<text text-anchor="middle" x="207" y="-295.35" font-family="Times,serif" font-size="12.00">1</text>
<polyline fill="none" stroke="black" points="218,-288.5 218,-310.75"/>
<text text-anchor="middle" x="259" y="-295.35" font-family="Times,serif" font-size="12.00">0x1005079b0</text>
<polyline fill="none" stroke="black" points="196,-288.5 300,-288.5"/>
<text text-anchor="middle" x="248" y="-273.1" font-family="Times,serif" font-size="12.00">2</text>
</g>
<!-- HeadNode6&#45;&gt;node60x100507920 -->
<g id="edge41" class="edge">
<title>HeadNode6:f1&#45;&gt;node60x100507920:w1</title>
<path fill="none" stroke="black" d="M160,-300.5C171.63,-300.5 176.91,-299.97 185.07,-299.68"/>
<polygon fill="black" stroke="black" points="185.06,-303.17 195,-299.5 184.94,-296.17 185.06,-303.17"/>
</g>
<!-- node60x1005079b0 -->
<g id="node27" class="node">
<title>node60x1005079b0</title>
<polygon fill="none" stroke="black" points="360,-266 360,-355 416,-355 416,-266 360,-266"/>
<text text-anchor="middle" x="371" y="-339.6" font-family="Times,serif" font-size="12.00">1</text>
<polyline fill="none" stroke="black" points="382,-332.75 382,-355"/>
<text text-anchor="middle" x="399" y="-339.6" font-family="Times,serif" font-size="12.00">0x0</text>
<polyline fill="none" stroke="black" points="360,-332.75 416,-332.75"/>
<text text-anchor="middle" x="371" y="-317.35" font-family="Times,serif" font-size="12.00">1</text>
<polyline fill="none" stroke="black" points="382,-310.5 382,-332.75"/>
<text text-anchor="middle" x="399" y="-317.35" font-family="Times,serif" font-size="12.00">0x0</text>
<polyline fill="none" stroke="black" points="360,-310.5 416,-310.5"/>
<text text-anchor="middle" x="371" y="-295.1" font-family="Times,serif" font-size="12.00">1</text>
<polyline fill="none" stroke="black" points="382,-288.25 382,-310.5"/>
<text text-anchor="middle" x="399" y="-295.1" font-family="Times,serif" font-size="12.00">0x0</text>
<polyline fill="none" stroke="black" points="360,-288.25 416,-288.25"/>
<text text-anchor="middle" x="388" y="-272.85" font-family="Times,serif" font-size="12.00">3</text>
</g>
<!-- HeadNode6&#45;&gt;node60x1005079b0 -->
<g id="edge42" class="edge">
<title>HeadNode6:f2&#45;&gt;node60x1005079b0:w2</title>
<path fill="none" stroke="black" d="M160,-322.5C244.82,-322.5 268.63,-321.58 348.44,-321.5"/>
<polygon fill="black" stroke="black" points="348,-325 358,-321.5 348,-318 348,-325"/>
</g>
<!-- HeadNode6&#45;&gt;node60x1005079b0 -->
<g id="edge43" class="edge">
<title>HeadNode6:f3&#45;&gt;node60x1005079b0:w3</title>
<path fill="none" stroke="black" d="M160,-344.5C244.82,-344.5 268.63,-343.58 348.44,-343.5"/>
<polygon fill="black" stroke="black" points="348,-347 358,-343.5 348,-340 348,-347"/>
</g>
<!-- node60x100507920&#45;&gt;node60x1005079b0 -->
<g id="edge44" class="edge">
<title>node60x100507920:f1&#45;&gt;node60x1005079b0:w1</title>
<path fill="none" stroke="black" d="M300,-299.5C322.23,-299.5 330.32,-299.5 348.25,-299.5"/>
<polygon fill="black" stroke="black" points="348,-303 358,-299.5 348,-296 348,-303"/>
</g>
<!-- node60x0 -->
<g id="node28" class="node">
<title>node60x0</title>
<polygon fill="none" stroke="black" points="501,-288.12 501,-354.88 555,-354.88 555,-288.12 501,-288.12"/>
<text text-anchor="middle" x="528" y="-339.48" font-family="Times,serif" font-size="12.00">NULL</text>
<polyline fill="none" stroke="black" points="501,-332.62 555,-332.62"/>
<text text-anchor="middle" x="528" y="-317.23" font-family="Times,serif" font-size="12.00">NULL</text>
<polyline fill="none" stroke="black" points="501,-310.38 555,-310.38"/>
<text text-anchor="middle" x="528" y="-294.98" font-family="Times,serif" font-size="12.00">NULL</text>
</g>
<!-- node60x1005079b0&#45;&gt;node60x0 -->
<g id="edge45" class="edge">
<title>node60x1005079b0:f1&#45;&gt;node60x0:w1</title>
<path fill="none" stroke="black" d="M417,-299.5C450,-299.5 460.86,-299.5 489.19,-299.5"/>
<polygon fill="black" stroke="black" points="489,-303 499,-299.5 489,-296 489,-303"/>
</g>
<!-- node60x1005079b0&#45;&gt;node60x0 -->
<g id="edge46" class="edge">
<title>node60x1005079b0:f2&#45;&gt;node60x0:w2</title>
<path fill="none" stroke="black" d="M417,-321.5C450,-321.5 460.86,-321.5 489.19,-321.5"/>
<polygon fill="black" stroke="black" points="489,-325 499,-321.5 489,-318 489,-325"/>
</g>
<!-- node60x1005079b0&#45;&gt;node60x0 -->
<g id="edge47" class="edge">
<title>node60x1005079b0:f3&#45;&gt;node60x0:w3</title>
<path fill="none" stroke="black" d="M417,-343.5C450,-343.5 460.86,-343.5 489.19,-343.5"/>
<polygon fill="black" stroke="black" points="489,-347 499,-343.5 489,-340 489,-347"/>
</g>
<!-- HeadNode7 -->
<g id="node29" class="node">
<title>HeadNode7</title>
<polygon fill="none" stroke="black" points="55,-149.12 55,-215.88 159,-215.88 159,-149.12 55,-149.12"/>
<text text-anchor="middle" x="66" y="-200.47" font-family="Times,serif" font-size="12.00">1</text>
<polyline fill="none" stroke="black" points="77,-193.62 77,-215.88"/>
<text text-anchor="middle" x="118" y="-200.47" font-family="Times,serif" font-size="12.00">0x1005079b0</text>
<polyline fill="none" stroke="black" points="55,-193.62 159,-193.62"/>
<text text-anchor="middle" x="66" y="-178.22" font-family="Times,serif" font-size="12.00">1</text>
<polyline fill="none" stroke="black" points="77,-171.38 77,-193.62"/>
<text text-anchor="middle" x="118" y="-178.22" font-family="Times,serif" font-size="12.00">0x1005079b0</text>
<polyline fill="none" stroke="black" points="55,-171.38 159,-171.38"/>
<text text-anchor="middle" x="66" y="-155.97" font-family="Times,serif" font-size="12.00">1</text>
<polyline fill="none" stroke="black" points="77,-149.12 77,-171.38"/>
<text text-anchor="middle" x="118" y="-155.97" font-family="Times,serif" font-size="12.00">0x1005079b0</text>
</g>
<!-- node70x1005079b0 -->
<g id="node30" class="node">
<title>node70x1005079b0</title>
<polygon fill="none" stroke="black" points="220,-127 220,-216 276,-216 276,-127 220,-127"/>
<text text-anchor="middle" x="231" y="-200.6" font-family="Times,serif" font-size="12.00">1</text>
<polyline fill="none" stroke="black" points="242,-193.75 242,-216"/>
<text text-anchor="middle" x="259" y="-200.6" font-family="Times,serif" font-size="12.00">0x0</text>
<polyline fill="none" stroke="black" points="220,-193.75 276,-193.75"/>
<text text-anchor="middle" x="231" y="-178.35" font-family="Times,serif" font-size="12.00">1</text>
<polyline fill="none" stroke="black" points="242,-171.5 242,-193.75"/>
<text text-anchor="middle" x="259" y="-178.35" font-family="Times,serif" font-size="12.00">0x0</text>
<polyline fill="none" stroke="black" points="220,-171.5 276,-171.5"/>
<text text-anchor="middle" x="231" y="-156.1" font-family="Times,serif" font-size="12.00">1</text>
<polyline fill="none" stroke="black" points="242,-149.25 242,-171.5"/>
<text text-anchor="middle" x="259" y="-156.1" font-family="Times,serif" font-size="12.00">0x0</text>
<polyline fill="none" stroke="black" points="220,-149.25 276,-149.25"/>
<text text-anchor="middle" x="248" y="-133.85" font-family="Times,serif" font-size="12.00">3</text>
</g>
<!-- HeadNode7&#45;&gt;node70x1005079b0 -->
<g id="edge48" class="edge">
<title>HeadNode7:f1&#45;&gt;node70x1005079b0:w1</title>
<path fill="none" stroke="black" d="M160,-160.5C182.23,-160.5 190.32,-160.5 208.25,-160.5"/>
<polygon fill="black" stroke="black" points="208,-164 218,-160.5 208,-157 208,-164"/>
</g>
<!-- HeadNode7&#45;&gt;node70x1005079b0 -->
<g id="edge49" class="edge">
<title>HeadNode7:f2&#45;&gt;node70x1005079b0:w2</title>
<path fill="none" stroke="black" d="M160,-182.5C182.23,-182.5 190.32,-182.5 208.25,-182.5"/>
<polygon fill="black" stroke="black" points="208,-186 218,-182.5 208,-179 208,-186"/>
</g>
<!-- HeadNode7&#45;&gt;node70x1005079b0 -->
<g id="edge50" class="edge">
<title>HeadNode7:f3&#45;&gt;node70x1005079b0:w3</title>
<path fill="none" stroke="black" d="M160,-204.5C182.23,-204.5 190.32,-204.5 208.25,-204.5"/>
<polygon fill="black" stroke="black" points="208,-208 218,-204.5 208,-201 208,-208"/>
</g>
<!-- node70x0 -->
<g id="node31" class="node">
<title>node70x0</title>
<polygon fill="none" stroke="black" points="361,-149.12 361,-215.88 415,-215.88 415,-149.12 361,-149.12"/>
<text text-anchor="middle" x="388" y="-200.47" font-family="Times,serif" font-size="12.00">NULL</text>
<polyline fill="none" stroke="black" points="361,-193.62 415,-193.62"/>
<text text-anchor="middle" x="388" y="-178.22" font-family="Times,serif" font-size="12.00">NULL</text>
<polyline fill="none" stroke="black" points="361,-171.38 415,-171.38"/>
<text text-anchor="middle" x="388" y="-155.97" font-family="Times,serif" font-size="12.00">NULL</text>
</g>
<!-- node70x1005079b0&#45;&gt;node70x0 -->
<g id="edge51" class="edge">
<title>node70x1005079b0:f1&#45;&gt;node70x0:w1</title>
<path fill="none" stroke="black" d="M277,-160.5C310,-160.5 320.86,-160.5 349.19,-160.5"/>
<polygon fill="black" stroke="black" points="349,-164 359,-160.5 349,-157 349,-164"/>
</g>
<!-- node70x1005079b0&#45;&gt;node70x0 -->
<g id="edge52" class="edge">
<title>node70x1005079b0:f2&#45;&gt;node70x0:w2</title>
<path fill="none" stroke="black" d="M277,-182.5C310,-182.5 320.86,-182.5 349.19,-182.5"/>
<polygon fill="black" stroke="black" points="349,-186 359,-182.5 349,-179 349,-186"/>
</g>
<!-- node70x1005079b0&#45;&gt;node70x0 -->
<g id="edge53" class="edge">
<title>node70x1005079b0:f3&#45;&gt;node70x0:w3</title>
<path fill="none" stroke="black" d="M277,-204.5C310,-204.5 320.86,-204.5 349.19,-204.5"/>
<polygon fill="black" stroke="black" points="349,-208 359,-204.5 349,-201 349,-208"/>
</g>
<!-- HeadNode8 -->
<g id="node32" class="node">
<title>HeadNode8</title>
<polygon fill="none" stroke="black" points="55.88,-41.5 55.88,-77.5 158.12,-77.5 158.12,-41.5 55.88,-41.5"/>
<text text-anchor="middle" x="107" y="-55.6" font-family="Times,serif" font-size="12.00">Empty HeadNode</text>
</g>
<!-- node0 -->
<!-- node0&#45;&gt;HeadNode0 -->
<!-- node0&#45;&gt;HeadNode1 -->
<!-- node0&#45;&gt;HeadNode2 -->
<!-- node0&#45;&gt;HeadNode3 -->
<!-- node0&#45;&gt;HeadNode4 -->
<!-- node0&#45;&gt;HeadNode5 -->
<!-- node0&#45;&gt;HeadNode6 -->
<!-- node0&#45;&gt;HeadNode7 -->
<!-- node0&#45;&gt;HeadNode8 -->
</g>
</svg>
