<?xml version="1.0" encoding="UTF-8" standalone="no"?>
<!DOCTYPE svg PUBLIC "-//W3C//DTD SVG 1.1//EN"
 "http://www.w3.org/Graphics/SVG/1.1/DTD/svg11.dtd">
<!-- Generated by graphviz version 9.0.0 (20230911.1827)
 -->
<!-- Title: SkipList Pages: 1 -->
<svg width="687pt" height="157pt"
 viewBox="0.00 0.00 687.00 156.50" xmlns="http://www.w3.org/2000/svg" xmlns:xlink="http://www.w3.org/1999/xlink">
<g id="graph0" class="graph" transform="scale(1 1) rotate(0) translate(4 152.5)">
<title>SkipList</title>
<polygon fill="white" stroke="none" points="-4,4 -4,-152.5 683,-152.5 683,4 -4,4"/>
<text text-anchor="middle" x="339.5" y="-7.2" font-family="Times,serif" font-size="14.00">SkipList.</text>
<g id="clust1" class="cluster">
<title>cluster0</title>
<polygon fill="none" stroke="black" stroke-dasharray="5,2" points="47,-32.5 47,-140.5 671,-140.5 671,-32.5 47,-32.5"/>
<text text-anchor="middle" x="359" y="-123.2" font-family="Times,serif" font-size="14.00">Skip list iteration 0</text>
</g>
<!-- HeadNode0 -->
<g id="node1" class="node">
<title>HeadNode0</title>
<polygon fill="none" stroke="black" points="55,-63.25 55,-107.75 174,-107.75 174,-63.25 55,-63.25"/>
<text text-anchor="middle" x="66" y="-92.35" font-family="Times,serif" font-size="12.00">1</text>
<polyline fill="none" stroke="black" points="77,-85.5 77,-107.75"/>
<text text-anchor="middle" x="125.5" y="-92.35" font-family="Times,serif" font-size="12.00">0x7f8a68d86280</text>
<polyline fill="none" stroke="black" points="55,-85.5 174,-85.5"/>
<text text-anchor="middle" x="66" y="-70.1" font-family="Times,serif" font-size="12.00">1</text>
<polyline fill="none" stroke="black" points="77,-63.25 77,-85.5"/>
<text text-anchor="middle" x="125.5" y="-70.1" font-family="Times,serif" font-size="12.00">0x7f8a68d86280</text>
</g>
<!-- node00x7f8a68d86280 -->
<g id="node2" class="node">
<title>node00x7f8a68d86280</title>
<polygon fill="none" stroke="black" points="210,-41.12 210,-107.88 327.5,-107.88 327.5,-41.12 210,-41.12"/>
<text text-anchor="middle" x="221" y="-92.47" font-family="Times,serif" font-size="12.00">2</text>
<polyline fill="none" stroke="black" points="232,-85.62 232,-107.88"/>
<text text-anchor="middle" x="279.75" y="-92.47" font-family="Times,serif" font-size="12.00">0x7f8a68d9dcc0</text>
<polyline fill="none" stroke="black" points="210,-85.62 327.5,-85.62"/>
<text text-anchor="middle" x="221" y="-70.22" font-family="Times,serif" font-size="12.00">1</text>
<polyline fill="none" stroke="black" points="232,-63.38 232,-85.62"/>
<text text-anchor="middle" x="279.75" y="-70.22" font-family="Times,serif" font-size="12.00">0x7f8a68d44ec0</text>
<polyline fill="none" stroke="black" points="210,-63.38 327.5,-63.38"/>
<text text-anchor="middle" x="268.75" y="-47.98" font-family="Times,serif" font-size="12.00">21</text>
</g>
<!-- HeadNode0&#45;&gt;node00x7f8a68d86280 -->
<g id="edge1" class="edge">
<title>HeadNode0:f1&#45;&gt;node00x7f8a68d86280:w1</title>
<path fill="none" stroke="black" d="M174,-74.5C185.38,-74.5 190.68,-74.5 198.55,-74.5"/>
<polygon fill="black" stroke="black" points="198.49,-78 208.49,-74.5 198.49,-71 198.49,-78"/>
</g>
<!-- HeadNode0&#45;&gt;node00x7f8a68d86280 -->
<g id="edge2" class="edge">
<title>HeadNode0:f2&#45;&gt;node00x7f8a68d86280:w2</title>
<path fill="none" stroke="black" d="M174,-96.5C185.38,-96.5 190.68,-96.5 198.55,-96.5"/>
<polygon fill="black" stroke="black" points="198.49,-100 208.49,-96.5 198.49,-93 198.49,-100"/>
</g>
<!-- node00x7f8a68d44ec0 -->
<g id="node3" class="node">
<title>node00x7f8a68d44ec0</title>
<polygon fill="none" stroke="black" points="363.5,-41.25 363.5,-85.75 481,-85.75 481,-41.25 363.5,-41.25"/>
<text text-anchor="middle" x="374.5" y="-70.35" font-family="Times,serif" font-size="12.00">1</text>
<polyline fill="none" stroke="black" points="385.5,-63.5 385.5,-85.75"/>
<text text-anchor="middle" x="433.25" y="-70.35" font-family="Times,serif" font-size="12.00">0x7f8a68d9dcc0</text>
<polyline fill="none" stroke="black" points="363.5,-63.5 481,-63.5"/>
<text text-anchor="middle" x="422.25" y="-48.1" font-family="Times,serif" font-size="12.00">42</text>
</g>
<!-- node00x7f8a68d86280&#45;&gt;node00x7f8a68d44ec0 -->
<g id="edge3" class="edge">
<title>node00x7f8a68d86280:f1&#45;&gt;node00x7f8a68d44ec0:w1</title>
<path fill="none" stroke="black" d="M327.5,-74.5C338.88,-74.5 344.18,-74.5 352.05,-74.5"/>
<polygon fill="black" stroke="black" points="351.99,-78 361.99,-74.5 351.99,-71 351.99,-78"/>
</g>
<!-- node00x7f8a68d9dcc0 -->
<g id="node4" class="node">
<title>node00x7f8a68d9dcc0</title>
<polygon fill="none" stroke="black" points="517,-41.12 517,-107.88 573,-107.88 573,-41.12 517,-41.12"/>
<text text-anchor="middle" x="528" y="-92.47" font-family="Times,serif" font-size="12.00">1</text>
<polyline fill="none" stroke="black" points="539,-85.62 539,-107.88"/>
<text text-anchor="middle" x="556" y="-92.47" font-family="Times,serif" font-size="12.00">0x0</text>
<polyline fill="none" stroke="black" points="517,-85.62 573,-85.62"/>
<text text-anchor="middle" x="528" y="-70.22" font-family="Times,serif" font-size="12.00">1</text>
<polyline fill="none" stroke="black" points="539,-63.38 539,-85.62"/>
<text text-anchor="middle" x="556" y="-70.22" font-family="Times,serif" font-size="12.00">0x0</text>
<polyline fill="none" stroke="black" points="517,-63.38 573,-63.38"/>
<text text-anchor="middle" x="545" y="-47.98" font-family="Times,serif" font-size="12.00">84</text>
</g>
<!-- node00x7f8a68d86280&#45;&gt;node00x7f8a68d9dcc0 -->
<g id="edge4" class="edge">
<title>node00x7f8a68d86280:f2&#45;&gt;node00x7f8a68d9dcc0:w2</title>
<path fill="none" stroke="black" d="M327.5,-96.5C407.77,-96.5 430.67,-96.5 505.56,-96.5"/>
<polygon fill="black" stroke="black" points="505.49,-100 515.49,-96.5 505.49,-93 505.49,-100"/>
</g>
<!-- node00x7f8a68d44ec0&#45;&gt;node00x7f8a68d9dcc0 -->
<g id="edge5" class="edge">
<title>node00x7f8a68d44ec0:f1&#45;&gt;node00x7f8a68d9dcc0:w1</title>
<path fill="none" stroke="black" d="M481,-74.5C492.38,-74.5 497.68,-74.5 505.55,-74.5"/>
<polygon fill="black" stroke="black" points="505.49,-78 515.49,-74.5 505.49,-71 505.49,-78"/>
</g>
<!-- node00x0 -->
<g id="node5" class="node">
<title>node00x0</title>
<polygon fill="none" stroke="black" points="609,-63.25 609,-107.75 663,-107.75 663,-63.25 609,-63.25"/>
<text text-anchor="middle" x="636" y="-92.35" font-family="Times,serif" font-size="12.00">NULL</text>
<polyline fill="none" stroke="black" points="609,-85.5 663,-85.5"/>
<text text-anchor="middle" x="636" y="-70.1" font-family="Times,serif" font-size="12.00">NULL</text>
</g>
<!-- node00x7f8a68d9dcc0&#45;&gt;node00x0 -->
<g id="edge6" class="edge">
<title>node00x7f8a68d9dcc0:f1&#45;&gt;node00x0:w1</title>
<path fill="none" stroke="black" d="M573,-74.5C584.38,-74.5 589.68,-74.5 597.55,-74.5"/>
<polygon fill="black" stroke="black" points="597.49,-78 607.49,-74.5 597.49,-71 597.49,-78"/>
</g>
<!-- node00x7f8a68d9dcc0&#45;&gt;node00x0 -->
<g id="edge7" class="edge">
<title>node00x7f8a68d9dcc0:f2&#45;&gt;node00x0:w2</title>
<path fill="none" stroke="black" d="M573,-96.5C584.38,-96.5 589.68,-96.5 597.55,-96.5"/>
<polygon fill="black" stroke="black" points="597.49,-100 607.49,-96.5 597.49,-93 597.49,-100"/>
</g>
<!-- node0 -->
<!-- node0&#45;&gt;HeadNode0 -->
</g>
</svg>
