<?xml version="1.0" encoding="UTF-8" standalone="no"?>
<!DOCTYPE svg PUBLIC "-//W3C//DTD SVG 1.1//EN"
 "http://www.w3.org/Graphics/SVG/1.1/DTD/svg11.dtd">
<!-- Generated by graphviz version 8.1.0 (20230707.0739)
 -->
<!-- Title: SkipList Pages: 1 -->
<svg width="921pt" height="180pt"
 viewBox="0.00 0.00 920.50 179.50" xmlns="http://www.w3.org/2000/svg" xmlns:xlink="http://www.w3.org/1999/xlink">
<g id="graph0" class="graph" transform="scale(1 1) rotate(0) translate(4 175.5)">
<title>SkipList</title>
<polygon fill="white" stroke="none" points="-4,4 -4,-175.5 916.5,-175.5 916.5,4 -4,4"/>
<text text-anchor="middle" x="456.25" y="-7.2" font-family="Times,serif" font-size="14.00">SkipList.</text>
<g id="clust1" class="cluster">
<title>cluster0</title>
<polygon fill="none" stroke="black" stroke-dasharray="5,2" points="47,-32.5 47,-163.5 904.5,-163.5 904.5,-32.5 47,-32.5"/>
<text text-anchor="middle" x="475.75" y="-146.2" font-family="Times,serif" font-size="14.00">Skip list iteration 0</text>
</g>
<!-- HeadNode0 -->
<g id="node1" class="node">
<title>HeadNode0</title>
<polygon fill="none" stroke="black" points="55,-64.12 55,-130.88 158.25,-130.88 158.25,-64.12 55,-64.12"/>
<text text-anchor="middle" x="66" y="-115.47" font-family="Times,serif" font-size="12.00">2</text>
<polyline fill="none" stroke="black" points="77,-108.62 77,-130.88"/>
<text text-anchor="middle" x="117.62" y="-115.47" font-family="Times,serif" font-size="12.00">0x104c00110</text>
<polyline fill="none" stroke="black" points="55,-108.62 158.25,-108.62"/>
<text text-anchor="middle" x="66" y="-93.22" font-family="Times,serif" font-size="12.00">2</text>
<polyline fill="none" stroke="black" points="77,-86.38 77,-108.62"/>
<text text-anchor="middle" x="117.62" y="-93.22" font-family="Times,serif" font-size="12.00">0x104c00110</text>
<polyline fill="none" stroke="black" points="55,-86.38 158.25,-86.38"/>
<text text-anchor="middle" x="66" y="-70.97" font-family="Times,serif" font-size="12.00">1</text>
<polyline fill="none" stroke="black" points="77,-64.12 77,-86.38"/>
<text text-anchor="middle" x="117.62" y="-70.97" font-family="Times,serif" font-size="12.00">0x104c00230</text>
</g>
<!-- node00x104c00230 -->
<g id="node2" class="node">
<title>node00x104c00230</title>
<polygon fill="none" stroke="black" points="194.25,-41.25 194.25,-85.75 297.5,-85.75 297.5,-41.25 194.25,-41.25"/>
<text text-anchor="middle" x="205.25" y="-70.35" font-family="Times,serif" font-size="12.00">1</text>
<polyline fill="none" stroke="black" points="216.25,-63.5 216.25,-85.75"/>
<text text-anchor="middle" x="256.88" y="-70.35" font-family="Times,serif" font-size="12.00">0x104c00110</text>
<polyline fill="none" stroke="black" points="194.25,-63.5 297.5,-63.5"/>
<text text-anchor="middle" x="245.88" y="-48.1" font-family="Times,serif" font-size="12.00">12</text>
</g>
<!-- HeadNode0&#45;&gt;node00x104c00230 -->
<g id="edge1" class="edge">
<title>HeadNode0:f1&#45;&gt;node00x104c00230:w1</title>
<path fill="none" stroke="black" d="M158.25,-75.5C169.88,-75.5 175.16,-74.97 183.32,-74.68"/>
<polygon fill="black" stroke="black" points="183.31,-78.17 193.25,-74.5 183.19,-71.17 183.31,-78.17"/>
</g>
<!-- node00x104c00110 -->
<g id="node3" class="node">
<title>node00x104c00110</title>
<polygon fill="none" stroke="black" points="333.5,-41 333.5,-130 436.75,-130 436.75,-41 333.5,-41"/>
<text text-anchor="middle" x="344.5" y="-114.6" font-family="Times,serif" font-size="12.00">1</text>
<polyline fill="none" stroke="black" points="355.5,-107.75 355.5,-130"/>
<text text-anchor="middle" x="396.12" y="-114.6" font-family="Times,serif" font-size="12.00">0x104c00020</text>
<polyline fill="none" stroke="black" points="333.5,-107.75 436.75,-107.75"/>
<text text-anchor="middle" x="344.5" y="-92.35" font-family="Times,serif" font-size="12.00">1</text>
<polyline fill="none" stroke="black" points="355.5,-85.5 355.5,-107.75"/>
<text text-anchor="middle" x="396.12" y="-92.35" font-family="Times,serif" font-size="12.00">0x104c00020</text>
<polyline fill="none" stroke="black" points="333.5,-85.5 436.75,-85.5"/>
<text text-anchor="middle" x="344.5" y="-70.1" font-family="Times,serif" font-size="12.00">1</text>
<polyline fill="none" stroke="black" points="355.5,-63.25 355.5,-85.5"/>
<text text-anchor="middle" x="396.12" y="-70.1" font-family="Times,serif" font-size="12.00">0x104c00020</text>
<polyline fill="none" stroke="black" points="333.5,-63.25 436.75,-63.25"/>
<text text-anchor="middle" x="385.12" y="-47.85" font-family="Times,serif" font-size="12.00">21</text>
</g>
<!-- HeadNode0&#45;&gt;node00x104c00110 -->
<g id="edge2" class="edge">
<title>HeadNode0:f2&#45;&gt;node00x104c00110:w2</title>
<path fill="none" stroke="black" d="M158.25,-97.5C232.49,-97.5 253.66,-96.59 322.92,-96.51"/>
<polygon fill="black" stroke="black" points="322.5,-100.01 332.5,-96.5 322.5,-93.01 322.5,-100.01"/>
</g>
<!-- HeadNode0&#45;&gt;node00x104c00110 -->
<g id="edge3" class="edge">
<title>HeadNode0:f3&#45;&gt;node00x104c00110:w3</title>
<path fill="none" stroke="black" d="M158.25,-119.5C232.49,-119.5 253.66,-118.59 322.92,-118.51"/>
<polygon fill="black" stroke="black" points="322.5,-122.01 332.5,-118.5 322.5,-115.01 322.5,-122.01"/>
</g>
<!-- node00x104c00230&#45;&gt;node00x104c00110 -->
<g id="edge4" class="edge">
<title>node00x104c00230:f1&#45;&gt;node00x104c00110:w1</title>
<path fill="none" stroke="black" d="M297.5,-74.5C309.12,-74.5 314.42,-74.5 322.58,-74.5"/>
<polygon fill="black" stroke="black" points="322.5,-78 332.5,-74.5 322.5,-71 322.5,-78"/>
</g>
<!-- node00x104c00020 -->
<g id="node4" class="node">
<title>node00x104c00020</title>
<polygon fill="none" stroke="black" points="472.75,-41 472.75,-130 575.25,-130 575.25,-41 472.75,-41"/>
<text text-anchor="middle" x="495.25" y="-114.6" font-family="Times,serif" font-size="12.00">3</text>
<polyline fill="none" stroke="black" points="517.75,-107.75 517.75,-130"/>
<text text-anchor="middle" x="546.25" y="-114.6" font-family="Times,serif" font-size="12.00">0x0</text>
<polyline fill="none" stroke="black" points="472.75,-107.75 575.25,-107.75"/>
<text text-anchor="middle" x="483.75" y="-92.35" font-family="Times,serif" font-size="12.00">1</text>
<polyline fill="none" stroke="black" points="494.75,-85.5 494.75,-107.75"/>
<text text-anchor="middle" x="535" y="-92.35" font-family="Times,serif" font-size="12.00">0x104c000e0</text>
<polyline fill="none" stroke="black" points="472.75,-85.5 575.25,-85.5"/>
<text text-anchor="middle" x="483.75" y="-70.1" font-family="Times,serif" font-size="12.00">1</text>
<polyline fill="none" stroke="black" points="494.75,-63.25 494.75,-85.5"/>
<text text-anchor="middle" x="535" y="-70.1" font-family="Times,serif" font-size="12.00">0x104c000e0</text>
<polyline fill="none" stroke="black" points="472.75,-63.25 575.25,-63.25"/>
<text text-anchor="middle" x="524" y="-47.85" font-family="Times,serif" font-size="12.00">42</text>
</g>
<!-- node00x104c00110&#45;&gt;node00x104c00020 -->
<g id="edge5" class="edge">
<title>node00x104c00110:f1&#45;&gt;node00x104c00020:w1</title>
<path fill="none" stroke="black" d="M436.75,-74.5C448.38,-74.5 453.67,-74.5 461.83,-74.5"/>
<polygon fill="black" stroke="black" points="461.75,-78 471.75,-74.5 461.75,-71 461.75,-78"/>
</g>
<!-- node00x104c00110&#45;&gt;node00x104c00020 -->
<g id="edge6" class="edge">
<title>node00x104c00110:f2&#45;&gt;node00x104c00020:w2</title>
<path fill="none" stroke="black" d="M436.75,-96.5C448.38,-96.5 453.67,-96.5 461.83,-96.5"/>
<polygon fill="black" stroke="black" points="461.75,-100 471.75,-96.5 461.75,-93 461.75,-100"/>
</g>
<!-- node00x104c00110&#45;&gt;node00x104c00020 -->
<g id="edge7" class="edge">
<title>node00x104c00110:f3&#45;&gt;node00x104c00020:w3</title>
<path fill="none" stroke="black" d="M436.75,-118.5C448.38,-118.5 453.67,-118.5 461.83,-118.5"/>
<polygon fill="black" stroke="black" points="461.75,-122 471.75,-118.5 461.75,-115 461.75,-122"/>
</g>
<!-- node00x104c000e0 -->
<g id="node5" class="node">
<title>node00x104c000e0</title>
<polygon fill="none" stroke="black" points="611.25,-41.12 611.25,-107.88 714.5,-107.88 714.5,-41.12 611.25,-41.12"/>
<text text-anchor="middle" x="633.75" y="-92.47" font-family="Times,serif" font-size="12.00">2</text>
<polyline fill="none" stroke="black" points="656.25,-85.62 656.25,-107.88"/>
<text text-anchor="middle" x="685.25" y="-92.47" font-family="Times,serif" font-size="12.00">0x0</text>
<polyline fill="none" stroke="black" points="611.25,-85.62 714.5,-85.62"/>
<text text-anchor="middle" x="622.25" y="-70.22" font-family="Times,serif" font-size="12.00">1</text>
<polyline fill="none" stroke="black" points="633.25,-63.38 633.25,-85.62"/>
<text text-anchor="middle" x="673.88" y="-70.22" font-family="Times,serif" font-size="12.00">0x104c00200</text>
<polyline fill="none" stroke="black" points="611.25,-63.38 714.5,-63.38"/>
<text text-anchor="middle" x="662.88" y="-47.98" font-family="Times,serif" font-size="12.00">84</text>
</g>
<!-- node00x104c00020&#45;&gt;node00x104c000e0 -->
<g id="edge8" class="edge">
<title>node00x104c00020:f1&#45;&gt;node00x104c000e0:w1</title>
<path fill="none" stroke="black" d="M575.25,-74.5C586.88,-74.5 592.17,-74.5 600.33,-74.5"/>
<polygon fill="black" stroke="black" points="600.25,-78 610.25,-74.5 600.25,-71 600.25,-78"/>
</g>
<!-- node00x104c00020&#45;&gt;node00x104c000e0 -->
<g id="edge9" class="edge">
<title>node00x104c00020:f2&#45;&gt;node00x104c000e0:w2</title>
<path fill="none" stroke="black" d="M575.25,-96.5C586.88,-96.5 592.17,-96.5 600.33,-96.5"/>
<polygon fill="black" stroke="black" points="600.25,-100 610.25,-96.5 600.25,-93 600.25,-100"/>
</g>
<!-- node00x0 -->
<g id="node6" class="node">
<title>node00x0</title>
<polygon fill="none" stroke="black" points="842.5,-64.12 842.5,-130.88 896.5,-130.88 896.5,-64.12 842.5,-64.12"/>
<text text-anchor="middle" x="869.5" y="-115.47" font-family="Times,serif" font-size="12.00">NULL</text>
<polyline fill="none" stroke="black" points="842.5,-108.62 896.5,-108.62"/>
<text text-anchor="middle" x="869.5" y="-93.22" font-family="Times,serif" font-size="12.00">NULL</text>
<polyline fill="none" stroke="black" points="842.5,-86.38 896.5,-86.38"/>
<text text-anchor="middle" x="869.5" y="-70.97" font-family="Times,serif" font-size="12.00">NULL</text>
</g>
<!-- node00x104c00020&#45;&gt;node00x0 -->
<g id="edge10" class="edge">
<title>node00x104c00020:f3&#45;&gt;node00x0:w3</title>
<path fill="none" stroke="black" d="M575.25,-118.5C690.32,-118.5 721.78,-119.44 831.62,-119.5"/>
<polygon fill="black" stroke="black" points="831.5,-123 841.5,-119.5 831.5,-116 831.5,-123"/>
</g>
<!-- node00x104c000e0&#45;&gt;node00x0 -->
<g id="edge12" class="edge">
<title>node00x104c000e0:f2&#45;&gt;node00x0:w2</title>
<path fill="none" stroke="black" d="M714.5,-96.5C767.61,-96.5 783.53,-97.37 831.71,-97.49"/>
<polygon fill="black" stroke="black" points="831.5,-100.99 841.5,-97.5 831.5,-93.99 831.5,-100.99"/>
</g>
<!-- node00x104c00200 -->
<g id="node7" class="node">
<title>node00x104c00200</title>
<polygon fill="none" stroke="black" points="750.5,-41.25 750.5,-85.75 806.5,-85.75 806.5,-41.25 750.5,-41.25"/>
<text text-anchor="middle" x="761.5" y="-70.35" font-family="Times,serif" font-size="12.00">1</text>
<polyline fill="none" stroke="black" points="772.5,-63.5 772.5,-85.75"/>
<text text-anchor="middle" x="789.5" y="-70.35" font-family="Times,serif" font-size="12.00">0x0</text>
<polyline fill="none" stroke="black" points="750.5,-63.5 806.5,-63.5"/>
<text text-anchor="middle" x="778.5" y="-48.1" font-family="Times,serif" font-size="12.00">100</text>
</g>
<!-- node00x104c000e0&#45;&gt;node00x104c00200 -->
<g id="edge11" class="edge">
<title>node00x104c000e0:f1&#45;&gt;node00x104c00200:w1</title>
<path fill="none" stroke="black" d="M714.5,-74.5C726.12,-74.5 731.42,-74.5 739.58,-74.5"/>
<polygon fill="black" stroke="black" points="739.5,-78 749.5,-74.5 739.5,-71 739.5,-78"/>
</g>
<!-- node00x104c00200&#45;&gt;node00x0 -->
<g id="edge13" class="edge">
<title>node00x104c00200:f1&#45;&gt;node00x0:w1</title>
<path fill="none" stroke="black" d="M806.5,-74.5C818.13,-74.5 823.41,-75.03 831.57,-75.32"/>
<polygon fill="black" stroke="black" points="831.44,-78.83 841.5,-75.5 831.56,-71.83 831.44,-78.83"/>
</g>
<!-- node0 -->
<!-- node0&#45;&gt;HeadNode0 -->
</g>
</svg>
