<?xml version="1.0" encoding="UTF-8" standalone="no"?>
<!DOCTYPE svg PUBLIC "-//W3C//DTD SVG 1.1//EN"
 "http://www.w3.org/Graphics/SVG/1.1/DTD/svg11.dtd">
<!-- Generated by graphviz version 7.0.2 (20221119.0110)
 -->
<!-- Title: SkipList Pages: 1 -->
<svg width="932pt" height="172pt"
 viewBox="0.00 0.00 932.00 172.00" xmlns="http://www.w3.org/2000/svg" xmlns:xlink="http://www.w3.org/1999/xlink">
<g id="graph0" class="graph" transform="scale(1 1) rotate(0) translate(4 168)">
<title>SkipList</title>
<polygon fill="white" stroke="none" points="-4,4 -4,-168 928,-168 928,4 -4,4"/>
<text text-anchor="middle" x="462" y="-7.8" font-family="Times,serif" font-size="14.00">SkipList.</text>
<g id="clust1" class="cluster">
<title>cluster0</title>
<polygon fill="none" stroke="black" stroke-dasharray="5,2" points="48,-31 48,-156 916,-156 916,-31 48,-31"/>
<text text-anchor="middle" x="482" y="-140.8" font-family="Times,serif" font-size="14.00">Skip list iteration 0</text>
</g>
<!-- HeadNode0 -->
<g id="node1" class="node">
<title>HeadNode0</title>
<polygon fill="none" stroke="black" points="56,-61.5 56,-124.5 161,-124.5 161,-61.5 56,-61.5"/>
<text text-anchor="middle" x="67.5" y="-110.9" font-family="Times,serif" font-size="12.00">2</text>
<polyline fill="none" stroke="black" points="79,-103.5 79,-124.5"/>
<text text-anchor="middle" x="120" y="-110.9" font-family="Times,serif" font-size="12.00">0x104c00110</text>
<polyline fill="none" stroke="black" points="56,-103.5 161,-103.5"/>
<text text-anchor="middle" x="67.5" y="-89.9" font-family="Times,serif" font-size="12.00">2</text>
<polyline fill="none" stroke="black" points="79,-82.5 79,-103.5"/>
<text text-anchor="middle" x="120" y="-89.9" font-family="Times,serif" font-size="12.00">0x104c00110</text>
<polyline fill="none" stroke="black" points="56,-82.5 161,-82.5"/>
<text text-anchor="middle" x="67.5" y="-68.9" font-family="Times,serif" font-size="12.00">1</text>
<polyline fill="none" stroke="black" points="79,-61.5 79,-82.5"/>
<text text-anchor="middle" x="120" y="-68.9" font-family="Times,serif" font-size="12.00">0x104c00230</text>
</g>
<!-- node00x104c00230 -->
<g id="node2" class="node">
<title>node00x104c00230</title>
<polygon fill="none" stroke="black" points="197,-40 197,-82 302,-82 302,-40 197,-40"/>
<text text-anchor="middle" x="208.5" y="-68.4" font-family="Times,serif" font-size="12.00">1</text>
<polyline fill="none" stroke="black" points="220,-61 220,-82"/>
<text text-anchor="middle" x="261" y="-68.4" font-family="Times,serif" font-size="12.00">0x104c00110</text>
<polyline fill="none" stroke="black" points="197,-61 302,-61"/>
<text text-anchor="middle" x="249.5" y="-47.4" font-family="Times,serif" font-size="12.00">12</text>
</g>
<!-- HeadNode0&#45;&gt;node00x104c00230 -->
<g id="edge1" class="edge">
<title>HeadNode0:f1&#45;&gt;node00x104c00230:w1</title>
<path fill="none" stroke="black" d="M161,-72C172.38,-72 177.68,-72 185.55,-72"/>
<polygon fill="black" stroke="black" points="185.49,-75.5 195.49,-72 185.49,-68.5 185.49,-75.5"/>
</g>
<!-- node00x104c00110 -->
<g id="node3" class="node">
<title>node00x104c00110</title>
<polygon fill="none" stroke="black" points="338,-40 338,-124 443,-124 443,-40 338,-40"/>
<text text-anchor="middle" x="349.5" y="-110.4" font-family="Times,serif" font-size="12.00">1</text>
<polyline fill="none" stroke="black" points="361,-103 361,-124"/>
<text text-anchor="middle" x="402" y="-110.4" font-family="Times,serif" font-size="12.00">0x104c00020</text>
<polyline fill="none" stroke="black" points="338,-103 443,-103"/>
<text text-anchor="middle" x="349.5" y="-89.4" font-family="Times,serif" font-size="12.00">1</text>
<polyline fill="none" stroke="black" points="361,-82 361,-103"/>
<text text-anchor="middle" x="402" y="-89.4" font-family="Times,serif" font-size="12.00">0x104c00020</text>
<polyline fill="none" stroke="black" points="338,-82 443,-82"/>
<text text-anchor="middle" x="349.5" y="-68.4" font-family="Times,serif" font-size="12.00">1</text>
<polyline fill="none" stroke="black" points="361,-61 361,-82"/>
<text text-anchor="middle" x="402" y="-68.4" font-family="Times,serif" font-size="12.00">0x104c00020</text>
<polyline fill="none" stroke="black" points="338,-61 443,-61"/>
<text text-anchor="middle" x="390.5" y="-47.4" font-family="Times,serif" font-size="12.00">21</text>
</g>
<!-- HeadNode0&#45;&gt;node00x104c00110 -->
<g id="edge2" class="edge">
<title>HeadNode0:f2&#45;&gt;node00x104c00110:w2</title>
<path fill="none" stroke="black" d="M161,-93C235.83,-93 257.27,-93 326.88,-93"/>
<polygon fill="black" stroke="black" points="326.49,-96.5 336.49,-93 326.49,-89.5 326.49,-96.5"/>
</g>
<!-- HeadNode0&#45;&gt;node00x104c00110 -->
<g id="edge3" class="edge">
<title>HeadNode0:f3&#45;&gt;node00x104c00110:w3</title>
<path fill="none" stroke="black" d="M161,-114C235.83,-114 257.27,-114 326.88,-114"/>
<polygon fill="black" stroke="black" points="326.49,-117.5 336.49,-114 326.49,-110.5 326.49,-117.5"/>
</g>
<!-- node00x104c00230&#45;&gt;node00x104c00110 -->
<g id="edge4" class="edge">
<title>node00x104c00230:f1&#45;&gt;node00x104c00110:w1</title>
<path fill="none" stroke="black" d="M302,-72C313.38,-72 318.68,-71.49 326.55,-71.2"/>
<polygon fill="black" stroke="black" points="326.55,-74.7 336.49,-71.03 326.43,-67.7 326.55,-74.7"/>
</g>
<!-- node00x104c00020 -->
<g id="node4" class="node">
<title>node00x104c00020</title>
<polygon fill="none" stroke="black" points="479,-40 479,-124 583,-124 583,-40 479,-40"/>
<text text-anchor="middle" x="502" y="-110.4" font-family="Times,serif" font-size="12.00">3</text>
<polyline fill="none" stroke="black" points="525,-103 525,-124"/>
<text text-anchor="middle" x="554" y="-110.4" font-family="Times,serif" font-size="12.00">0x0</text>
<polyline fill="none" stroke="black" points="479,-103 583,-103"/>
<text text-anchor="middle" x="490.5" y="-89.4" font-family="Times,serif" font-size="12.00">1</text>
<polyline fill="none" stroke="black" points="502,-82 502,-103"/>
<text text-anchor="middle" x="542.5" y="-89.4" font-family="Times,serif" font-size="12.00">0x104c000e0</text>
<polyline fill="none" stroke="black" points="479,-82 583,-82"/>
<text text-anchor="middle" x="490.5" y="-68.4" font-family="Times,serif" font-size="12.00">1</text>
<polyline fill="none" stroke="black" points="502,-61 502,-82"/>
<text text-anchor="middle" x="542.5" y="-68.4" font-family="Times,serif" font-size="12.00">0x104c000e0</text>
<polyline fill="none" stroke="black" points="479,-61 583,-61"/>
<text text-anchor="middle" x="531" y="-47.4" font-family="Times,serif" font-size="12.00">42</text>
</g>
<!-- node00x104c00110&#45;&gt;node00x104c00020 -->
<g id="edge5" class="edge">
<title>node00x104c00110:f1&#45;&gt;node00x104c00020:w1</title>
<path fill="none" stroke="black" d="M443,-71C454.38,-71 459.68,-71 467.55,-71"/>
<polygon fill="black" stroke="black" points="467.49,-74.5 477.49,-71 467.49,-67.5 467.49,-74.5"/>
</g>
<!-- node00x104c00110&#45;&gt;node00x104c00020 -->
<g id="edge6" class="edge">
<title>node00x104c00110:f2&#45;&gt;node00x104c00020:w2</title>
<path fill="none" stroke="black" d="M443,-93C454.38,-93 459.68,-93 467.55,-93"/>
<polygon fill="black" stroke="black" points="467.49,-96.5 477.49,-93 467.49,-89.5 467.49,-96.5"/>
</g>
<!-- node00x104c00110&#45;&gt;node00x104c00020 -->
<g id="edge7" class="edge">
<title>node00x104c00110:f3&#45;&gt;node00x104c00020:w3</title>
<path fill="none" stroke="black" d="M443,-114C454.38,-114 459.68,-114 467.55,-114"/>
<polygon fill="black" stroke="black" points="467.49,-117.5 477.49,-114 467.49,-110.5 467.49,-117.5"/>
</g>
<!-- node00x104c000e0 -->
<g id="node5" class="node">
<title>node00x104c000e0</title>
<polygon fill="none" stroke="black" points="619,-39.5 619,-102.5 724,-102.5 724,-39.5 619,-39.5"/>
<text text-anchor="middle" x="642" y="-88.9" font-family="Times,serif" font-size="12.00">2</text>
<polyline fill="none" stroke="black" points="665,-81.5 665,-102.5"/>
<text text-anchor="middle" x="694.5" y="-88.9" font-family="Times,serif" font-size="12.00">0x0</text>
<polyline fill="none" stroke="black" points="619,-81.5 724,-81.5"/>
<text text-anchor="middle" x="630.5" y="-67.9" font-family="Times,serif" font-size="12.00">1</text>
<polyline fill="none" stroke="black" points="642,-60.5 642,-81.5"/>
<text text-anchor="middle" x="683" y="-67.9" font-family="Times,serif" font-size="12.00">0x104c00200</text>
<polyline fill="none" stroke="black" points="619,-60.5 724,-60.5"/>
<text text-anchor="middle" x="671.5" y="-46.9" font-family="Times,serif" font-size="12.00">84</text>
</g>
<!-- node00x104c00020&#45;&gt;node00x104c000e0 -->
<g id="edge8" class="edge">
<title>node00x104c00020:f1&#45;&gt;node00x104c000e0:w1</title>
<path fill="none" stroke="black" d="M583,-71C594.38,-71 599.68,-71 607.55,-71"/>
<polygon fill="black" stroke="black" points="607.49,-74.5 617.49,-71 607.49,-67.5 607.49,-74.5"/>
</g>
<!-- node00x104c00020&#45;&gt;node00x104c000e0 -->
<g id="edge9" class="edge">
<title>node00x104c00020:f2&#45;&gt;node00x104c000e0:w2</title>
<path fill="none" stroke="black" d="M583,-93C594.38,-93 599.68,-92.49 607.55,-92.2"/>
<polygon fill="black" stroke="black" points="607.55,-95.7 617.49,-92.03 607.43,-88.7 607.55,-95.7"/>
</g>
<!-- node00x0 -->
<g id="node6" class="node">
<title>node00x0</title>
<polygon fill="none" stroke="black" points="854,-61.5 854,-124.5 908,-124.5 908,-61.5 854,-61.5"/>
<text text-anchor="middle" x="881" y="-110.9" font-family="Times,serif" font-size="12.00">NULL</text>
<polyline fill="none" stroke="black" points="854,-103.5 908,-103.5"/>
<text text-anchor="middle" x="881" y="-89.9" font-family="Times,serif" font-size="12.00">NULL</text>
<polyline fill="none" stroke="black" points="854,-82.5 908,-82.5"/>
<text text-anchor="middle" x="881" y="-68.9" font-family="Times,serif" font-size="12.00">NULL</text>
</g>
<!-- node00x104c00020&#45;&gt;node00x0 -->
<g id="edge10" class="edge">
<title>node00x104c00020:f3&#45;&gt;node00x0:w3</title>
<path fill="none" stroke="black" d="M583,-114C699.56,-114 731.52,-114 842.63,-114"/>
<polygon fill="black" stroke="black" points="842.49,-117.5 852.49,-114 842.49,-110.5 842.49,-117.5"/>
</g>
<!-- node00x104c000e0&#45;&gt;node00x0 -->
<g id="edge12" class="edge">
<title>node00x104c000e0:f2&#45;&gt;node00x0:w2</title>
<path fill="none" stroke="black" d="M724,-92C777.83,-92 794.04,-92.87 842.73,-92.99"/>
<polygon fill="black" stroke="black" points="842.48,-96.49 852.49,-93 842.49,-89.49 842.48,-96.49"/>
</g>
<!-- node00x104c00200 -->
<g id="node7" class="node">
<title>node00x104c00200</title>
<polygon fill="none" stroke="black" points="760,-40 760,-82 818,-82 818,-40 760,-40"/>
<text text-anchor="middle" x="771.5" y="-68.4" font-family="Times,serif" font-size="12.00">1</text>
<polyline fill="none" stroke="black" points="783,-61 783,-82"/>
<text text-anchor="middle" x="800.5" y="-68.4" font-family="Times,serif" font-size="12.00">0x0</text>
<polyline fill="none" stroke="black" points="760,-61 818,-61"/>
<text text-anchor="middle" x="789" y="-47.4" font-family="Times,serif" font-size="12.00">100</text>
</g>
<!-- node00x104c000e0&#45;&gt;node00x104c00200 -->
<g id="edge11" class="edge">
<title>node00x104c000e0:f1&#45;&gt;node00x104c00200:w1</title>
<path fill="none" stroke="black" d="M724,-71C735.38,-71 740.68,-71.51 748.55,-71.8"/>
<polygon fill="black" stroke="black" points="748.43,-75.3 758.49,-71.97 748.55,-68.3 748.43,-75.3"/>
</g>
<!-- node00x104c00200&#45;&gt;node00x0 -->
<g id="edge13" class="edge">
<title>node00x104c00200:f1&#45;&gt;node00x0:w1</title>
<path fill="none" stroke="black" d="M818,-72C829.38,-72 834.68,-72 842.55,-72"/>
<polygon fill="black" stroke="black" points="842.49,-75.5 852.49,-72 842.49,-68.5 842.49,-75.5"/>
</g>
<!-- node0 -->
<!-- node0&#45;&gt;HeadNode0 -->
</g>
</svg>
