<?xml version="1.0" encoding="UTF-8" standalone="no"?>
<!DOCTYPE svg PUBLIC "-//W3C//DTD SVG 1.1//EN"
 "http://www.w3.org/Graphics/SVG/1.1/DTD/svg11.dtd">
<!-- Generated by graphviz version 9.0.0 (20230911.1827)
 -->
<!-- Title: SkipList Pages: 1 -->
<svg width="786pt" height="959pt"
 viewBox="0.00 0.00 786.00 958.50" xmlns="http://www.w3.org/2000/svg" xmlns:xlink="http://www.w3.org/1999/xlink">
<g id="graph0" class="graph" transform="scale(1 1) rotate(0) translate(4 954.5)">
<title>SkipList</title>
<polygon fill="white" stroke="none" points="-4,4 -4,-954.5 782,-954.5 782,4 -4,4"/>
<text text-anchor="middle" x="389" y="-7.2" font-family="Times,serif" font-size="14.00">SkipList.</text>
<g id="clust8" class="cluster">
<title>cluster7</title>
<polygon fill="none" stroke="black" stroke-dasharray="5,2" points="47,-118.5 47,-204.5 423,-204.5 423,-118.5 47,-118.5"/>
<text text-anchor="middle" x="235" y="-187.2" font-family="Times,serif" font-size="14.00">Skip list iteration 7</text>
</g>
<g id="clust9" class="cluster">
<title>cluster8</title>
<polygon fill="none" stroke="black" stroke-dasharray="5,2" points="46.88,-32.5 46.88,-110.5 167.12,-110.5 167.12,-32.5 46.88,-32.5"/>
<text text-anchor="middle" x="107" y="-93.2" font-family="Times,serif" font-size="14.00">Skip list iteration 8</text>
</g>
<g id="clust1" class="cluster">
<title>cluster0</title>
<polygon fill="none" stroke="black" stroke-dasharray="5,2" points="46.88,-864.5 46.88,-942.5 167.12,-942.5 167.12,-864.5 46.88,-864.5"/>
<text text-anchor="middle" x="107" y="-925.2" font-family="Times,serif" font-size="14.00">Skip list iteration 0</text>
</g>
<g id="clust2" class="cluster">
<title>cluster1</title>
<polygon fill="none" stroke="black" stroke-dasharray="5,2" points="47,-748.5 47,-856.5 423,-856.5 423,-748.5 47,-748.5"/>
<text text-anchor="middle" x="235" y="-839.2" font-family="Times,serif" font-size="14.00">Skip list iteration 1</text>
</g>
<g id="clust3" class="cluster">
<title>cluster2</title>
<polygon fill="none" stroke="black" stroke-dasharray="5,2" points="47,-632.5 47,-740.5 563,-740.5 563,-632.5 47,-632.5"/>
<text text-anchor="middle" x="305" y="-723.2" font-family="Times,serif" font-size="14.00">Skip list iteration 2</text>
</g>
<g id="clust4" class="cluster">
<title>cluster3</title>
<polygon fill="none" stroke="black" stroke-dasharray="5,2" points="47,-516.5 47,-624.5 679,-624.5 679,-516.5 47,-516.5"/>
<text text-anchor="middle" x="363" y="-607.2" font-family="Times,serif" font-size="14.00">Skip list iteration 3</text>
</g>
<g id="clust5" class="cluster">
<title>cluster4</title>
<polygon fill="none" stroke="black" stroke-dasharray="5,2" points="47,-400.5 47,-508.5 770,-508.5 770,-400.5 47,-400.5"/>
<text text-anchor="middle" x="408.5" y="-491.2" font-family="Times,serif" font-size="14.00">Skip list iteration 4</text>
</g>
<g id="clust6" class="cluster">
<title>cluster5</title>
<polygon fill="none" stroke="black" stroke-dasharray="5,2" points="47,-306.5 47,-392.5 679,-392.5 679,-306.5 47,-306.5"/>
<text text-anchor="middle" x="363" y="-375.2" font-family="Times,serif" font-size="14.00">Skip list iteration 5</text>
</g>
<g id="clust7" class="cluster">
<title>cluster6</title>
<polygon fill="none" stroke="black" stroke-dasharray="5,2" points="47,-212.5 47,-298.5 563,-298.5 563,-212.5 47,-212.5"/>
<text text-anchor="middle" x="305" y="-281.2" font-family="Times,serif" font-size="14.00">Skip list iteration 6</text>
</g>
<!-- HeadNode0 -->
<g id="node1" class="node">
<title>HeadNode0</title>
<polygon fill="none" stroke="black" points="55.88,-873.5 55.88,-909.5 158.12,-909.5 158.12,-873.5 55.88,-873.5"/>
<text text-anchor="middle" x="107" y="-887.6" font-family="Times,serif" font-size="12.00">Empty HeadNode</text>
</g>
<!-- HeadNode1 -->
<g id="node2" class="node">
<title>HeadNode1</title>
<polygon fill="none" stroke="black" points="55,-779.25 55,-823.75 159,-823.75 159,-779.25 55,-779.25"/>
<text text-anchor="middle" x="66" y="-808.35" font-family="Times,serif" font-size="12.00">1</text>
<polyline fill="none" stroke="black" points="77,-801.5 77,-823.75"/>
<text text-anchor="middle" x="118" y="-808.35" font-family="Times,serif" font-size="12.00">0x100700000</text>
<polyline fill="none" stroke="black" points="55,-801.5 159,-801.5"/>
<text text-anchor="middle" x="66" y="-786.1" font-family="Times,serif" font-size="12.00">1</text>
<polyline fill="none" stroke="black" points="77,-779.25 77,-801.5"/>
<text text-anchor="middle" x="118" y="-786.1" font-family="Times,serif" font-size="12.00">0x100700000</text>
</g>
<!-- node10x100700000 -->
<g id="node3" class="node">
<title>node10x100700000</title>
<polygon fill="none" stroke="black" points="220,-757.12 220,-823.88 276,-823.88 276,-757.12 220,-757.12"/>
<text text-anchor="middle" x="231" y="-808.48" font-family="Times,serif" font-size="12.00">1</text>
<polyline fill="none" stroke="black" points="242,-801.62 242,-823.88"/>
<text text-anchor="middle" x="259" y="-808.48" font-family="Times,serif" font-size="12.00">0x0</text>
<polyline fill="none" stroke="black" points="220,-801.62 276,-801.62"/>
<text text-anchor="middle" x="231" y="-786.23" font-family="Times,serif" font-size="12.00">1</text>
<polyline fill="none" stroke="black" points="242,-779.38 242,-801.62"/>
<text text-anchor="middle" x="259" y="-786.23" font-family="Times,serif" font-size="12.00">0x0</text>
<polyline fill="none" stroke="black" points="220,-779.38 276,-779.38"/>
<text text-anchor="middle" x="248" y="-763.98" font-family="Times,serif" font-size="12.00">0</text>
</g>
<!-- HeadNode1&#45;&gt;node10x100700000 -->
<g id="edge1" class="edge">
<title>HeadNode1:f1&#45;&gt;node10x100700000:w1</title>
<path fill="none" stroke="black" d="M160,-790.5C181.92,-790.5 190.1,-790.5 207.51,-790.5"/>
<polygon fill="black" stroke="black" points="207.49,-794 217.49,-790.5 207.49,-787 207.49,-794"/>
</g>
<!-- HeadNode1&#45;&gt;node10x100700000 -->
<g id="edge2" class="edge">
<title>HeadNode1:f2&#45;&gt;node10x100700000:w2</title>
<path fill="none" stroke="black" d="M160,-812.5C181.92,-812.5 190.1,-812.5 207.51,-812.5"/>
<polygon fill="black" stroke="black" points="207.49,-816 217.49,-812.5 207.49,-809 207.49,-816"/>
</g>
<!-- node10x0 -->
<g id="node4" class="node">
<title>node10x0</title>
<polygon fill="none" stroke="black" points="361,-779.25 361,-823.75 415,-823.75 415,-779.25 361,-779.25"/>
<text text-anchor="middle" x="388" y="-808.35" font-family="Times,serif" font-size="12.00">NULL</text>
<polyline fill="none" stroke="black" points="361,-801.5 415,-801.5"/>
<text text-anchor="middle" x="388" y="-786.1" font-family="Times,serif" font-size="12.00">NULL</text>
</g>
<!-- node10x100700000&#45;&gt;node10x0 -->
<g id="edge3" class="edge">
<title>node10x100700000:f1&#45;&gt;node10x0:w1</title>
<path fill="none" stroke="black" d="M277,-790.5C309.85,-790.5 320.76,-790.5 348.82,-790.5"/>
<polygon fill="black" stroke="black" points="348.49,-794 358.49,-790.5 348.49,-787 348.49,-794"/>
</g>
<!-- node10x100700000&#45;&gt;node10x0 -->
<g id="edge4" class="edge">
<title>node10x100700000:f2&#45;&gt;node10x0:w2</title>
<path fill="none" stroke="black" d="M277,-812.5C309.85,-812.5 320.76,-812.5 348.82,-812.5"/>
<polygon fill="black" stroke="black" points="348.49,-816 358.49,-812.5 348.49,-809 348.49,-816"/>
</g>
<!-- HeadNode2 -->
<g id="node5" class="node">
<title>HeadNode2</title>
<polygon fill="none" stroke="black" points="55,-663.25 55,-707.75 159,-707.75 159,-663.25 55,-663.25"/>
<text text-anchor="middle" x="66" y="-692.35" font-family="Times,serif" font-size="12.00">1</text>
<polyline fill="none" stroke="black" points="77,-685.5 77,-707.75"/>
<text text-anchor="middle" x="118" y="-692.35" font-family="Times,serif" font-size="12.00">0x100700000</text>
<polyline fill="none" stroke="black" points="55,-685.5 159,-685.5"/>
<text text-anchor="middle" x="66" y="-670.1" font-family="Times,serif" font-size="12.00">1</text>
<polyline fill="none" stroke="black" points="77,-663.25 77,-685.5"/>
<text text-anchor="middle" x="118" y="-670.1" font-family="Times,serif" font-size="12.00">0x100700000</text>
</g>
<!-- node20x100700000 -->
<g id="node6" class="node">
<title>node20x100700000</title>
<polygon fill="none" stroke="black" points="196,-641.12 196,-707.88 300,-707.88 300,-641.12 196,-641.12"/>
<text text-anchor="middle" x="219" y="-692.48" font-family="Times,serif" font-size="12.00">2</text>
<polyline fill="none" stroke="black" points="242,-685.62 242,-707.88"/>
<text text-anchor="middle" x="271" y="-692.48" font-family="Times,serif" font-size="12.00">0x0</text>
<polyline fill="none" stroke="black" points="196,-685.62 300,-685.62"/>
<text text-anchor="middle" x="207" y="-670.23" font-family="Times,serif" font-size="12.00">1</text>
<polyline fill="none" stroke="black" points="218,-663.38 218,-685.62"/>
<text text-anchor="middle" x="259" y="-670.23" font-family="Times,serif" font-size="12.00">0x100700080</text>
<polyline fill="none" stroke="black" points="196,-663.38 300,-663.38"/>
<text text-anchor="middle" x="248" y="-647.98" font-family="Times,serif" font-size="12.00">0</text>
</g>
<!-- HeadNode2&#45;&gt;node20x100700000 -->
<g id="edge5" class="edge">
<title>HeadNode2:f1&#45;&gt;node20x100700000:w1</title>
<path fill="none" stroke="black" d="M160,-674.5C171.38,-674.5 176.68,-674.5 184.55,-674.5"/>
<polygon fill="black" stroke="black" points="184.49,-678 194.49,-674.5 184.49,-671 184.49,-678"/>
</g>
<!-- HeadNode2&#45;&gt;node20x100700000 -->
<g id="edge6" class="edge">
<title>HeadNode2:f2&#45;&gt;node20x100700000:w2</title>
<path fill="none" stroke="black" d="M160,-696.5C171.38,-696.5 176.68,-696.5 184.55,-696.5"/>
<polygon fill="black" stroke="black" points="184.49,-700 194.49,-696.5 184.49,-693 184.49,-700"/>
</g>
<!-- node20x100700080 -->
<g id="node7" class="node">
<title>node20x100700080</title>
<polygon fill="none" stroke="black" points="360,-641.25 360,-685.75 416,-685.75 416,-641.25 360,-641.25"/>
<text text-anchor="middle" x="371" y="-670.35" font-family="Times,serif" font-size="12.00">1</text>
<polyline fill="none" stroke="black" points="382,-663.5 382,-685.75"/>
<text text-anchor="middle" x="399" y="-670.35" font-family="Times,serif" font-size="12.00">0x0</text>
<polyline fill="none" stroke="black" points="360,-663.5 416,-663.5"/>
<text text-anchor="middle" x="388" y="-648.1" font-family="Times,serif" font-size="12.00">1</text>
</g>
<!-- node20x100700000&#45;&gt;node20x100700080 -->
<g id="edge7" class="edge">
<title>node20x100700000:f1&#45;&gt;node20x100700080:w1</title>
<path fill="none" stroke="black" d="M300,-674.5C321.92,-674.5 330.1,-674.5 347.51,-674.5"/>
<polygon fill="black" stroke="black" points="347.49,-678 357.49,-674.5 347.49,-671 347.49,-678"/>
</g>
<!-- node20x0 -->
<g id="node8" class="node">
<title>node20x0</title>
<polygon fill="none" stroke="black" points="501,-663.25 501,-707.75 555,-707.75 555,-663.25 501,-663.25"/>
<text text-anchor="middle" x="528" y="-692.35" font-family="Times,serif" font-size="12.00">NULL</text>
<polyline fill="none" stroke="black" points="501,-685.5 555,-685.5"/>
<text text-anchor="middle" x="528" y="-670.1" font-family="Times,serif" font-size="12.00">NULL</text>
</g>
<!-- node20x100700000&#45;&gt;node20x0 -->
<g id="edge8" class="edge">
<title>node20x100700000:f2&#45;&gt;node20x0:w2</title>
<path fill="none" stroke="black" d="M300,-696.5C385.07,-696.5 409.08,-696.5 488.9,-696.5"/>
<polygon fill="black" stroke="black" points="488.49,-700 498.49,-696.5 488.49,-693 488.49,-700"/>
</g>
<!-- node20x100700080&#45;&gt;node20x0 -->
<g id="edge9" class="edge">
<title>node20x100700080:f1&#45;&gt;node20x0:w1</title>
<path fill="none" stroke="black" d="M417,-674.5C449.85,-674.5 460.76,-674.5 488.82,-674.5"/>
<polygon fill="black" stroke="black" points="488.49,-678 498.49,-674.5 488.49,-671 488.49,-678"/>
</g>
<!-- HeadNode3 -->
<g id="node9" class="node">
<title>HeadNode3</title>
<polygon fill="none" stroke="black" points="55,-547.25 55,-591.75 159,-591.75 159,-547.25 55,-547.25"/>
<text text-anchor="middle" x="66" y="-576.35" font-family="Times,serif" font-size="12.00">1</text>
<polyline fill="none" stroke="black" points="77,-569.5 77,-591.75"/>
<text text-anchor="middle" x="118" y="-576.35" font-family="Times,serif" font-size="12.00">0x100700000</text>
<polyline fill="none" stroke="black" points="55,-569.5 159,-569.5"/>
<text text-anchor="middle" x="66" y="-554.1" font-family="Times,serif" font-size="12.00">1</text>
<polyline fill="none" stroke="black" points="77,-547.25 77,-569.5"/>
<text text-anchor="middle" x="118" y="-554.1" font-family="Times,serif" font-size="12.00">0x100700000</text>
</g>
<!-- node30x100700000 -->
<g id="node10" class="node">
<title>node30x100700000</title>
<polygon fill="none" stroke="black" points="196,-525.12 196,-591.88 300,-591.88 300,-525.12 196,-525.12"/>
<text text-anchor="middle" x="219" y="-576.48" font-family="Times,serif" font-size="12.00">3</text>
<polyline fill="none" stroke="black" points="242,-569.62 242,-591.88"/>
<text text-anchor="middle" x="271" y="-576.48" font-family="Times,serif" font-size="12.00">0x0</text>
<polyline fill="none" stroke="black" points="196,-569.62 300,-569.62"/>
<text text-anchor="middle" x="207" y="-554.23" font-family="Times,serif" font-size="12.00">1</text>
<polyline fill="none" stroke="black" points="218,-547.38 218,-569.62"/>
<text text-anchor="middle" x="259" y="-554.23" font-family="Times,serif" font-size="12.00">0x100700080</text>
<polyline fill="none" stroke="black" points="196,-547.38 300,-547.38"/>
<text text-anchor="middle" x="248" y="-531.98" font-family="Times,serif" font-size="12.00">0</text>
</g>
<!-- HeadNode3&#45;&gt;node30x100700000 -->
<g id="edge10" class="edge">
<title>HeadNode3:f1&#45;&gt;node30x100700000:w1</title>
<path fill="none" stroke="black" d="M160,-558.5C171.38,-558.5 176.68,-558.5 184.55,-558.5"/>
<polygon fill="black" stroke="black" points="184.49,-562 194.49,-558.5 184.49,-555 184.49,-562"/>
</g>
<!-- HeadNode3&#45;&gt;node30x100700000 -->
<g id="edge11" class="edge">
<title>HeadNode3:f2&#45;&gt;node30x100700000:w2</title>
<path fill="none" stroke="black" d="M160,-580.5C171.38,-580.5 176.68,-580.5 184.55,-580.5"/>
<polygon fill="black" stroke="black" points="184.49,-584 194.49,-580.5 184.49,-577 184.49,-584"/>
</g>
<!-- node30x100700080 -->
<g id="node11" class="node">
<title>node30x100700080</title>
<polygon fill="none" stroke="black" points="336,-525.25 336,-569.75 440,-569.75 440,-525.25 336,-525.25"/>
<text text-anchor="middle" x="347" y="-554.35" font-family="Times,serif" font-size="12.00">1</text>
<polyline fill="none" stroke="black" points="358,-547.5 358,-569.75"/>
<text text-anchor="middle" x="399" y="-554.35" font-family="Times,serif" font-size="12.00">0x1007000b0</text>
<polyline fill="none" stroke="black" points="336,-547.5 440,-547.5"/>
<text text-anchor="middle" x="388" y="-532.1" font-family="Times,serif" font-size="12.00">1</text>
</g>
<!-- node30x100700000&#45;&gt;node30x100700080 -->
<g id="edge12" class="edge">
<title>node30x100700000:f1&#45;&gt;node30x100700080:w1</title>
<path fill="none" stroke="black" d="M300,-558.5C311.38,-558.5 316.68,-558.5 324.55,-558.5"/>
<polygon fill="black" stroke="black" points="324.49,-562 334.49,-558.5 324.49,-555 324.49,-562"/>
</g>
<!-- node30x0 -->
<g id="node12" class="node">
<title>node30x0</title>
<polygon fill="none" stroke="black" points="617,-547.25 617,-591.75 671,-591.75 671,-547.25 617,-547.25"/>
<text text-anchor="middle" x="644" y="-576.35" font-family="Times,serif" font-size="12.00">NULL</text>
<polyline fill="none" stroke="black" points="617,-569.5 671,-569.5"/>
<text text-anchor="middle" x="644" y="-554.1" font-family="Times,serif" font-size="12.00">NULL</text>
</g>
<!-- node30x100700000&#45;&gt;node30x0 -->
<g id="edge13" class="edge">
<title>node30x100700000:f2&#45;&gt;node30x0:w2</title>
<path fill="none" stroke="black" d="M300,-580.5C436.6,-580.5 473.56,-580.5 604.71,-580.5"/>
<polygon fill="black" stroke="black" points="604.49,-584 614.49,-580.5 604.49,-577 604.49,-584"/>
</g>
<!-- node30x1007000b0 -->
<g id="node13" class="node">
<title>node30x1007000b0</title>
<polygon fill="none" stroke="black" points="500,-525.25 500,-569.75 556,-569.75 556,-525.25 500,-525.25"/>
<text text-anchor="middle" x="511" y="-554.35" font-family="Times,serif" font-size="12.00">1</text>
<polyline fill="none" stroke="black" points="522,-547.5 522,-569.75"/>
<text text-anchor="middle" x="539" y="-554.35" font-family="Times,serif" font-size="12.00">0x0</text>
<polyline fill="none" stroke="black" points="500,-547.5 556,-547.5"/>
<text text-anchor="middle" x="528" y="-532.1" font-family="Times,serif" font-size="12.00">2</text>
</g>
<!-- node30x100700080&#45;&gt;node30x1007000b0 -->
<g id="edge14" class="edge">
<title>node30x100700080:f1&#45;&gt;node30x1007000b0:w1</title>
<path fill="none" stroke="black" d="M440,-558.5C461.92,-558.5 470.1,-558.5 487.51,-558.5"/>
<polygon fill="black" stroke="black" points="487.49,-562 497.49,-558.5 487.49,-555 487.49,-562"/>
</g>
<!-- node30x1007000b0&#45;&gt;node30x0 -->
<g id="edge15" class="edge">
<title>node30x1007000b0:f1&#45;&gt;node30x0:w1</title>
<path fill="none" stroke="black" d="M557,-558.5C578.92,-558.5 587.1,-558.5 604.51,-558.5"/>
<polygon fill="black" stroke="black" points="604.49,-562 614.49,-558.5 604.49,-555 604.49,-562"/>
</g>
<!-- HeadNode4 -->
<g id="node14" class="node">
<title>HeadNode4</title>
<polygon fill="none" stroke="black" points="55,-431.25 55,-475.75 159,-475.75 159,-431.25 55,-431.25"/>
<text text-anchor="middle" x="66" y="-460.35" font-family="Times,serif" font-size="12.00">1</text>
<polyline fill="none" stroke="black" points="77,-453.5 77,-475.75"/>
<text text-anchor="middle" x="118" y="-460.35" font-family="Times,serif" font-size="12.00">0x100700000</text>
<polyline fill="none" stroke="black" points="55,-453.5 159,-453.5"/>
<text text-anchor="middle" x="66" y="-438.1" font-family="Times,serif" font-size="12.00">1</text>
<polyline fill="none" stroke="black" points="77,-431.25 77,-453.5"/>
<text text-anchor="middle" x="118" y="-438.1" font-family="Times,serif" font-size="12.00">0x100700000</text>
</g>
<!-- node40x100700000 -->
<g id="node15" class="node">
<title>node40x100700000</title>
<polygon fill="none" stroke="black" points="196,-409.12 196,-475.88 300,-475.88 300,-409.12 196,-409.12"/>
<text text-anchor="middle" x="219" y="-460.48" font-family="Times,serif" font-size="12.00">4</text>
<polyline fill="none" stroke="black" points="242,-453.62 242,-475.88"/>
<text text-anchor="middle" x="271" y="-460.48" font-family="Times,serif" font-size="12.00">0x0</text>
<polyline fill="none" stroke="black" points="196,-453.62 300,-453.62"/>
<text text-anchor="middle" x="207" y="-438.23" font-family="Times,serif" font-size="12.00">1</text>
<polyline fill="none" stroke="black" points="218,-431.38 218,-453.62"/>
<text text-anchor="middle" x="259" y="-438.23" font-family="Times,serif" font-size="12.00">0x100700080</text>
<polyline fill="none" stroke="black" points="196,-431.38 300,-431.38"/>
<text text-anchor="middle" x="248" y="-415.98" font-family="Times,serif" font-size="12.00">0</text>
</g>
<!-- HeadNode4&#45;&gt;node40x100700000 -->
<g id="edge16" class="edge">
<title>HeadNode4:f1&#45;&gt;node40x100700000:w1</title>
<path fill="none" stroke="black" d="M160,-442.5C171.38,-442.5 176.68,-442.5 184.55,-442.5"/>
<polygon fill="black" stroke="black" points="184.49,-446 194.49,-442.5 184.49,-439 184.49,-446"/>
</g>
<!-- HeadNode4&#45;&gt;node40x100700000 -->
<g id="edge17" class="edge">
<title>HeadNode4:f2&#45;&gt;node40x100700000:w2</title>
<path fill="none" stroke="black" d="M160,-464.5C171.38,-464.5 176.68,-464.5 184.55,-464.5"/>
<polygon fill="black" stroke="black" points="184.49,-468 194.49,-464.5 184.49,-461 184.49,-468"/>
</g>
<!-- node40x100700080 -->
<g id="node16" class="node">
<title>node40x100700080</title>
<polygon fill="none" stroke="black" points="336,-409.25 336,-453.75 440,-453.75 440,-409.25 336,-409.25"/>
<text text-anchor="middle" x="347" y="-438.35" font-family="Times,serif" font-size="12.00">1</text>
<polyline fill="none" stroke="black" points="358,-431.5 358,-453.75"/>
<text text-anchor="middle" x="399" y="-438.35" font-family="Times,serif" font-size="12.00">0x1007000b0</text>
<polyline fill="none" stroke="black" points="336,-431.5 440,-431.5"/>
<text text-anchor="middle" x="388" y="-416.1" font-family="Times,serif" font-size="12.00">1</text>
</g>
<!-- node40x100700000&#45;&gt;node40x100700080 -->
<g id="edge18" class="edge">
<title>node40x100700000:f1&#45;&gt;node40x100700080:w1</title>
<path fill="none" stroke="black" d="M300,-442.5C311.38,-442.5 316.68,-442.5 324.55,-442.5"/>
<polygon fill="black" stroke="black" points="324.49,-446 334.49,-442.5 324.49,-439 324.49,-446"/>
</g>
<!-- node40x0 -->
<g id="node17" class="node">
<title>node40x0</title>
<polygon fill="none" stroke="black" points="708,-431.25 708,-475.75 762,-475.75 762,-431.25 708,-431.25"/>
<text text-anchor="middle" x="735" y="-460.35" font-family="Times,serif" font-size="12.00">NULL</text>
<polyline fill="none" stroke="black" points="708,-453.5 762,-453.5"/>
<text text-anchor="middle" x="735" y="-438.1" font-family="Times,serif" font-size="12.00">NULL</text>
</g>
<!-- node40x100700000&#45;&gt;node40x0 -->
<g id="edge19" class="edge">
<title>node40x100700000:f2&#45;&gt;node40x0:w2</title>
<path fill="none" stroke="black" d="M300,-464.5C477.44,-464.5 524.66,-464.5 696.5,-464.5"/>
<polygon fill="black" stroke="black" points="696.49,-468 706.49,-464.5 696.49,-461 696.49,-468"/>
</g>
<!-- node40x1007000b0 -->
<g id="node18" class="node">
<title>node40x1007000b0</title>
<polygon fill="none" stroke="black" points="476,-409.25 476,-453.75 580,-453.75 580,-409.25 476,-409.25"/>
<text text-anchor="middle" x="487" y="-438.35" font-family="Times,serif" font-size="12.00">1</text>
<polyline fill="none" stroke="black" points="498,-431.5 498,-453.75"/>
<text text-anchor="middle" x="539" y="-438.35" font-family="Times,serif" font-size="12.00">0x100700120</text>
<polyline fill="none" stroke="black" points="476,-431.5 580,-431.5"/>
<text text-anchor="middle" x="528" y="-416.1" font-family="Times,serif" font-size="12.00">2</text>
</g>
<!-- node40x100700080&#45;&gt;node40x1007000b0 -->
<g id="edge20" class="edge">
<title>node40x100700080:f1&#45;&gt;node40x1007000b0:w1</title>
<path fill="none" stroke="black" d="M440,-442.5C451.38,-442.5 456.68,-442.5 464.55,-442.5"/>
<polygon fill="black" stroke="black" points="464.49,-446 474.49,-442.5 464.49,-439 464.49,-446"/>
</g>
<!-- node40x100700120 -->
<g id="node19" class="node">
<title>node40x100700120</title>
<polygon fill="none" stroke="black" points="616,-409.25 616,-453.75 672,-453.75 672,-409.25 616,-409.25"/>
<text text-anchor="middle" x="627" y="-438.35" font-family="Times,serif" font-size="12.00">1</text>
<polyline fill="none" stroke="black" points="638,-431.5 638,-453.75"/>
<text text-anchor="middle" x="655" y="-438.35" font-family="Times,serif" font-size="12.00">0x0</text>
<polyline fill="none" stroke="black" points="616,-431.5 672,-431.5"/>
<text text-anchor="middle" x="644" y="-416.1" font-family="Times,serif" font-size="12.00">3</text>
</g>
<!-- node40x1007000b0&#45;&gt;node40x100700120 -->
<g id="edge21" class="edge">
<title>node40x1007000b0:f1&#45;&gt;node40x100700120:w1</title>
<path fill="none" stroke="black" d="M580,-442.5C591.38,-442.5 596.68,-442.5 604.55,-442.5"/>
<polygon fill="black" stroke="black" points="604.49,-446 614.49,-442.5 604.49,-439 604.49,-446"/>
</g>
<!-- node40x100700120&#45;&gt;node40x0 -->
<g id="edge22" class="edge">
<title>node40x100700120:f1&#45;&gt;node40x0:w1</title>
<path fill="none" stroke="black" d="M673,-442.5C683.94,-442.5 689.11,-442.5 696.62,-442.5"/>
<polygon fill="black" stroke="black" points="696.49,-446 706.49,-442.5 696.49,-439 696.49,-446"/>
</g>
<!-- HeadNode5 -->
<g id="node20" class="node">
<title>HeadNode5</title>
<polygon fill="none" stroke="black" points="55,-323.5 55,-359.5 159,-359.5 159,-323.5 55,-323.5"/>
<text text-anchor="middle" x="66" y="-337.6" font-family="Times,serif" font-size="12.00">1</text>
<polyline fill="none" stroke="black" points="77,-324.25 77,-359.5"/>
<text text-anchor="middle" x="118" y="-337.6" font-family="Times,serif" font-size="12.00">0x100700080</text>
</g>
<!-- node50x100700080 -->
<g id="node21" class="node">
<title>node50x100700080</title>
<polygon fill="none" stroke="black" points="196,-315.25 196,-359.75 300,-359.75 300,-315.25 196,-315.25"/>
<text text-anchor="middle" x="207" y="-344.35" font-family="Times,serif" font-size="12.00">1</text>
<polyline fill="none" stroke="black" points="218,-337.5 218,-359.75"/>
<text text-anchor="middle" x="259" y="-344.35" font-family="Times,serif" font-size="12.00">0x1007000b0</text>
<polyline fill="none" stroke="black" points="196,-337.5 300,-337.5"/>
<text text-anchor="middle" x="248" y="-322.1" font-family="Times,serif" font-size="12.00">1</text>
</g>
<!-- HeadNode5&#45;&gt;node50x100700080 -->
<g id="edge23" class="edge">
<title>HeadNode5:f1&#45;&gt;node50x100700080:w1</title>
<path fill="none" stroke="black" d="M160,-341.5C171.72,-341.5 176.77,-345.12 184.73,-347.15"/>
<polygon fill="black" stroke="black" points="184.15,-350.61 194.5,-348.32 184.98,-343.66 184.15,-350.61"/>
</g>
<!-- node50x1007000b0 -->
<g id="node22" class="node">
<title>node50x1007000b0</title>
<polygon fill="none" stroke="black" points="336,-315.25 336,-359.75 440,-359.75 440,-315.25 336,-315.25"/>
<text text-anchor="middle" x="347" y="-344.35" font-family="Times,serif" font-size="12.00">1</text>
<polyline fill="none" stroke="black" points="358,-337.5 358,-359.75"/>
<text text-anchor="middle" x="399" y="-344.35" font-family="Times,serif" font-size="12.00">0x100700120</text>
<polyline fill="none" stroke="black" points="336,-337.5 440,-337.5"/>
<text text-anchor="middle" x="388" y="-322.1" font-family="Times,serif" font-size="12.00">2</text>
</g>
<!-- node50x100700080&#45;&gt;node50x1007000b0 -->
<g id="edge24" class="edge">
<title>node50x100700080:f1&#45;&gt;node50x1007000b0:w1</title>
<path fill="none" stroke="black" d="M300,-348.5C311.38,-348.5 316.68,-348.5 324.55,-348.5"/>
<polygon fill="black" stroke="black" points="324.49,-352 334.49,-348.5 324.49,-345 324.49,-352"/>
</g>
<!-- node50x100700120 -->
<g id="node23" class="node">
<title>node50x100700120</title>
<polygon fill="none" stroke="black" points="500,-315.25 500,-359.75 556,-359.75 556,-315.25 500,-315.25"/>
<text text-anchor="middle" x="511" y="-344.35" font-family="Times,serif" font-size="12.00">1</text>
<polyline fill="none" stroke="black" points="522,-337.5 522,-359.75"/>
<text text-anchor="middle" x="539" y="-344.35" font-family="Times,serif" font-size="12.00">0x0</text>
<polyline fill="none" stroke="black" points="500,-337.5 556,-337.5"/>
<text text-anchor="middle" x="528" y="-322.1" font-family="Times,serif" font-size="12.00">3</text>
</g>
<!-- node50x1007000b0&#45;&gt;node50x100700120 -->
<g id="edge25" class="edge">
<title>node50x1007000b0:f1&#45;&gt;node50x100700120:w1</title>
<path fill="none" stroke="black" d="M440,-348.5C461.92,-348.5 470.1,-348.5 487.51,-348.5"/>
<polygon fill="black" stroke="black" points="487.49,-352 497.49,-348.5 487.49,-345 487.49,-352"/>
</g>
<!-- node50x0 -->
<g id="node24" class="node">
<title>node50x0</title>
<polygon fill="none" stroke="black" points="617,-323.5 617,-359.5 671,-359.5 671,-323.5 617,-323.5"/>
<text text-anchor="middle" x="644" y="-337.6" font-family="Times,serif" font-size="12.00">NULL</text>
</g>
<!-- node50x100700120&#45;&gt;node50x0 -->
<g id="edge26" class="edge">
<title>node50x100700120:f1&#45;&gt;node50x0:w1</title>
<path fill="none" stroke="black" d="M557,-348.5C572.94,-348.5 590.47,-347.32 605.59,-345.93"/>
<polygon fill="black" stroke="black" points="605.5,-349.45 615.11,-344.98 604.81,-342.49 605.5,-349.45"/>
</g>
<!-- HeadNode6 -->
<g id="node25" class="node">
<title>HeadNode6</title>
<polygon fill="none" stroke="black" points="55,-229.5 55,-265.5 159,-265.5 159,-229.5 55,-229.5"/>
<text text-anchor="middle" x="66" y="-243.6" font-family="Times,serif" font-size="12.00">1</text>
<polyline fill="none" stroke="black" points="77,-230.25 77,-265.5"/>
<text text-anchor="middle" x="118" y="-243.6" font-family="Times,serif" font-size="12.00">0x1007000b0</text>
</g>
<!-- node60x1007000b0 -->
<g id="node26" class="node">
<title>node60x1007000b0</title>
<polygon fill="none" stroke="black" points="196,-221.25 196,-265.75 300,-265.75 300,-221.25 196,-221.25"/>
<text text-anchor="middle" x="207" y="-250.35" font-family="Times,serif" font-size="12.00">1</text>
<polyline fill="none" stroke="black" points="218,-243.5 218,-265.75"/>
<text text-anchor="middle" x="259" y="-250.35" font-family="Times,serif" font-size="12.00">0x100700120</text>
<polyline fill="none" stroke="black" points="196,-243.5 300,-243.5"/>
<text text-anchor="middle" x="248" y="-228.1" font-family="Times,serif" font-size="12.00">2</text>
</g>
<!-- HeadNode6&#45;&gt;node60x1007000b0 -->
<g id="edge27" class="edge">
<title>HeadNode6:f1&#45;&gt;node60x1007000b0:w1</title>
<path fill="none" stroke="black" d="M160,-247.5C171.72,-247.5 176.77,-251.12 184.73,-253.15"/>
<polygon fill="black" stroke="black" points="184.15,-256.61 194.5,-254.32 184.98,-249.66 184.15,-256.61"/>
</g>
<!-- node60x100700120 -->
<g id="node27" class="node">
<title>node60x100700120</title>
<polygon fill="none" stroke="black" points="360,-221.25 360,-265.75 416,-265.75 416,-221.25 360,-221.25"/>
<text text-anchor="middle" x="371" y="-250.35" font-family="Times,serif" font-size="12.00">1</text>
<polyline fill="none" stroke="black" points="382,-243.5 382,-265.75"/>
<text text-anchor="middle" x="399" y="-250.35" font-family="Times,serif" font-size="12.00">0x0</text>
<polyline fill="none" stroke="black" points="360,-243.5 416,-243.5"/>
<text text-anchor="middle" x="388" y="-228.1" font-family="Times,serif" font-size="12.00">3</text>
</g>
<!-- node60x1007000b0&#45;&gt;node60x100700120 -->
<g id="edge28" class="edge">
<title>node60x1007000b0:f1&#45;&gt;node60x100700120:w1</title>
<path fill="none" stroke="black" d="M300,-254.5C321.92,-254.5 330.1,-254.5 347.51,-254.5"/>
<polygon fill="black" stroke="black" points="347.49,-258 357.49,-254.5 347.49,-251 347.49,-258"/>
</g>
<!-- node60x0 -->
<g id="node28" class="node">
<title>node60x0</title>
<polygon fill="none" stroke="black" points="501,-229.5 501,-265.5 555,-265.5 555,-229.5 501,-229.5"/>
<text text-anchor="middle" x="528" y="-243.6" font-family="Times,serif" font-size="12.00">NULL</text>
</g>
<!-- node60x100700120&#45;&gt;node60x0 -->
<g id="edge29" class="edge">
<title>node60x100700120:f1&#45;&gt;node60x0:w1</title>
<path fill="none" stroke="black" d="M417,-254.5C441.11,-254.5 468.11,-252.83 489.45,-251.13"/>
<polygon fill="black" stroke="black" points="489.48,-254.64 499.15,-250.31 488.89,-247.66 489.48,-254.64"/>
</g>
<!-- HeadNode7 -->
<g id="node29" class="node">
<title>HeadNode7</title>
<polygon fill="none" stroke="black" points="55,-135.5 55,-171.5 159,-171.5 159,-135.5 55,-135.5"/>
<text text-anchor="middle" x="66" y="-149.6" font-family="Times,serif" font-size="12.00">1</text>
<polyline fill="none" stroke="black" points="77,-136.25 77,-171.5"/>
<text text-anchor="middle" x="118" y="-149.6" font-family="Times,serif" font-size="12.00">0x100700120</text>
</g>
<!-- node70x100700120 -->
<g id="node30" class="node">
<title>node70x100700120</title>
<polygon fill="none" stroke="black" points="220,-127.25 220,-171.75 276,-171.75 276,-127.25 220,-127.25"/>
<text text-anchor="middle" x="231" y="-156.35" font-family="Times,serif" font-size="12.00">1</text>
<polyline fill="none" stroke="black" points="242,-149.5 242,-171.75"/>
<text text-anchor="middle" x="259" y="-156.35" font-family="Times,serif" font-size="12.00">0x0</text>
<polyline fill="none" stroke="black" points="220,-149.5 276,-149.5"/>
<text text-anchor="middle" x="248" y="-134.1" font-family="Times,serif" font-size="12.00">3</text>
</g>
<!-- HeadNode7&#45;&gt;node70x100700120 -->
<g id="edge30" class="edge">
<title>HeadNode7:f1&#45;&gt;node70x100700120:w1</title>
<path fill="none" stroke="black" d="M160,-153.5C182.28,-153.5 190.17,-158.48 207.95,-160.04"/>
<polygon fill="black" stroke="black" points="207.35,-163.52 217.49,-160.44 207.64,-156.52 207.35,-163.52"/>
</g>
<!-- node70x0 -->
<g id="node31" class="node">
<title>node70x0</title>
<polygon fill="none" stroke="black" points="361,-135.5 361,-171.5 415,-171.5 415,-135.5 361,-135.5"/>
<text text-anchor="middle" x="388" y="-149.6" font-family="Times,serif" font-size="12.00">NULL</text>
</g>
<!-- node70x100700120&#45;&gt;node70x0 -->
<g id="edge31" class="edge">
<title>node70x100700120:f1&#45;&gt;node70x0:w1</title>
<path fill="none" stroke="black" d="M277,-160.5C301.11,-160.5 328.11,-158.83 349.45,-157.13"/>
<polygon fill="black" stroke="black" points="349.48,-160.64 359.15,-156.31 348.89,-153.66 349.48,-160.64"/>
</g>
<!-- HeadNode8 -->
<g id="node32" class="node">
<title>HeadNode8</title>
<polygon fill="none" stroke="black" points="55.88,-41.5 55.88,-77.5 158.12,-77.5 158.12,-41.5 55.88,-41.5"/>
<text text-anchor="middle" x="107" y="-55.6" font-family="Times,serif" font-size="12.00">Empty HeadNode</text>
</g>
<!-- node0 -->
<!-- node0&#45;&gt;HeadNode0 -->
<!-- node0&#45;&gt;HeadNode1 -->
<!-- node0&#45;&gt;HeadNode2 -->
<!-- node0&#45;&gt;HeadNode3 -->
<!-- node0&#45;&gt;HeadNode4 -->
<!-- node0&#45;&gt;HeadNode5 -->
<!-- node0&#45;&gt;HeadNode6 -->
<!-- node0&#45;&gt;HeadNode7 -->
<!-- node0&#45;&gt;HeadNode8 -->
</g>
</svg>
