<?xml version="1.0" encoding="UTF-8" standalone="no"?>
<!DOCTYPE svg PUBLIC "-//W3C//DTD SVG 1.1//EN"
 "http://www.w3.org/Graphics/SVG/1.1/DTD/svg11.dtd">
<!-- Generated by graphviz version 2.36.0 (20140111.2315)
 -->
<!-- Title: SkipList Pages: 1 -->
<svg width="798pt" height="1140pt"
 viewBox="0.00 0.00 798.00 1140.00" xmlns="http://www.w3.org/2000/svg" xmlns:xlink="http://www.w3.org/1999/xlink">
<g id="graph0" class="graph" transform="scale(1 1) rotate(0) translate(4 1136)">
<title>SkipList</title>
<polygon fill="white" stroke="none" points="-4,4 -4,-1136 794,-1136 794,4 -4,4"/>
<text text-anchor="middle" x="395" y="-7.8" font-family="Times,serif" font-size="14.00">SkipList.</text>
<g id="clust7" class="cluster"><title>cluster6</title>
<polygon fill="none" stroke="black" stroke-dasharray="5,2" points="48,-249 48,-374 572,-374 572,-249 48,-249"/>
<text text-anchor="middle" x="310" y="-358.8" font-family="Times,serif" font-size="14.00">Skip list iteration 6</text>
</g>
<g id="clust8" class="cluster"><title>cluster7</title>
<polygon fill="none" stroke="black" stroke-dasharray="5,2" points="48,-116 48,-241 430,-241 430,-116 48,-116"/>
<text text-anchor="middle" x="239" y="-225.8" font-family="Times,serif" font-size="14.00">Skip list iteration 7</text>
</g>
<g id="clust9" class="cluster"><title>cluster8</title>
<polygon fill="none" stroke="black" stroke-dasharray="5,2" points="48,-31 48,-108 171,-108 171,-31 48,-31"/>
<text text-anchor="middle" x="109.5" y="-92.8" font-family="Times,serif" font-size="14.00">Skip list iteration 8</text>
</g>
<g id="clust1" class="cluster"><title>cluster0</title>
<polygon fill="none" stroke="black" stroke-dasharray="5,2" points="48,-1047 48,-1124 171,-1124 171,-1047 48,-1047"/>
<text text-anchor="middle" x="109.5" y="-1108.8" font-family="Times,serif" font-size="14.00">Skip list iteration 0</text>
</g>
<g id="clust2" class="cluster"><title>cluster1</title>
<polygon fill="none" stroke="black" stroke-dasharray="5,2" points="48,-914 48,-1039 430,-1039 430,-914 48,-914"/>
<text text-anchor="middle" x="239" y="-1023.8" font-family="Times,serif" font-size="14.00">Skip list iteration 1</text>
</g>
<g id="clust3" class="cluster"><title>cluster2</title>
<polygon fill="none" stroke="black" stroke-dasharray="5,2" points="48,-781 48,-906 572,-906 572,-781 48,-781"/>
<text text-anchor="middle" x="310" y="-890.8" font-family="Times,serif" font-size="14.00">Skip list iteration 2</text>
</g>
<g id="clust4" class="cluster"><title>cluster3</title>
<polygon fill="none" stroke="black" stroke-dasharray="5,2" points="48,-648 48,-773 690,-773 690,-648 48,-648"/>
<text text-anchor="middle" x="369" y="-757.8" font-family="Times,serif" font-size="14.00">Skip list iteration 3</text>
</g>
<g id="clust5" class="cluster"><title>cluster4</title>
<polygon fill="none" stroke="black" stroke-dasharray="5,2" points="48,-515 48,-640 782,-640 782,-515 48,-515"/>
<text text-anchor="middle" x="415" y="-624.8" font-family="Times,serif" font-size="14.00">Skip list iteration 4</text>
</g>
<g id="clust6" class="cluster"><title>cluster5</title>
<polygon fill="none" stroke="black" stroke-dasharray="5,2" points="48,-382 48,-507 690,-507 690,-382 48,-382"/>
<text text-anchor="middle" x="369" y="-491.8" font-family="Times,serif" font-size="14.00">Skip list iteration 5</text>
</g>
<!-- HeadNode0 -->
<g id="node1" class="node"><title>HeadNode0</title>
<polygon fill="none" stroke="black" points="57.5,-1056 57.5,-1092 160.5,-1092 160.5,-1056 57.5,-1056"/>
<text text-anchor="middle" x="109" y="-1070.9" font-family="Times,serif" font-size="12.00">Empty HeadNode</text>
</g>
<!-- HeadNode1 -->
<g id="node2" class="node"><title>HeadNode1</title>
<polygon fill="none" stroke="black" points="56,-943.5 56,-1006.5 162,-1006.5 162,-943.5 56,-943.5"/>
<text text-anchor="middle" x="67.5" y="-992.9" font-family="Times,serif" font-size="12.00">1</text>
<polyline fill="none" stroke="black" points="79,-985.5 79,-1006.5 "/>
<text text-anchor="middle" x="120.5" y="-992.9" font-family="Times,serif" font-size="12.00">0x100600000</text>
<polyline fill="none" stroke="black" points="56,-985.5 162,-985.5 "/>
<text text-anchor="middle" x="67.5" y="-971.9" font-family="Times,serif" font-size="12.00">1</text>
<polyline fill="none" stroke="black" points="79,-964.5 79,-985.5 "/>
<text text-anchor="middle" x="120.5" y="-971.9" font-family="Times,serif" font-size="12.00">0x100600000</text>
<polyline fill="none" stroke="black" points="56,-964.5 162,-964.5 "/>
<text text-anchor="middle" x="67.5" y="-950.9" font-family="Times,serif" font-size="12.00">1</text>
<polyline fill="none" stroke="black" points="79,-943.5 79,-964.5 "/>
<text text-anchor="middle" x="120.5" y="-950.9" font-family="Times,serif" font-size="12.00">0x100600000</text>
</g>
<!-- node10x100600000 -->
<g id="node3" class="node"><title>node10x100600000</title>
<polygon fill="none" stroke="black" points="224,-923 224,-1007 282,-1007 282,-923 224,-923"/>
<text text-anchor="middle" x="235.5" y="-993.4" font-family="Times,serif" font-size="12.00">1</text>
<polyline fill="none" stroke="black" points="247,-986 247,-1007 "/>
<text text-anchor="middle" x="264.5" y="-993.4" font-family="Times,serif" font-size="12.00">0x0</text>
<polyline fill="none" stroke="black" points="224,-986 282,-986 "/>
<text text-anchor="middle" x="235.5" y="-972.4" font-family="Times,serif" font-size="12.00">1</text>
<polyline fill="none" stroke="black" points="247,-965 247,-986 "/>
<text text-anchor="middle" x="264.5" y="-972.4" font-family="Times,serif" font-size="12.00">0x0</text>
<polyline fill="none" stroke="black" points="224,-965 282,-965 "/>
<text text-anchor="middle" x="235.5" y="-951.4" font-family="Times,serif" font-size="12.00">1</text>
<polyline fill="none" stroke="black" points="247,-944 247,-965 "/>
<text text-anchor="middle" x="264.5" y="-951.4" font-family="Times,serif" font-size="12.00">0x0</text>
<polyline fill="none" stroke="black" points="224,-944 282,-944 "/>
<text text-anchor="middle" x="253" y="-930.4" font-family="Times,serif" font-size="12.00">0</text>
</g>
<!-- HeadNode1&#45;&gt;node10x100600000 -->
<g id="edge1" class="edge"><title>HeadNode1:f1&#45;&gt;node10x100600000:w1</title>
<path fill="none" stroke="black" d="M163,-954C185.917,-954 194.063,-954 212.825,-954"/>
<polygon fill="black" stroke="black" points="213,-957.5 223,-954 213,-950.5 213,-957.5"/>
</g>
<!-- HeadNode1&#45;&gt;node10x100600000 -->
<g id="edge2" class="edge"><title>HeadNode1:f2&#45;&gt;node10x100600000:w2</title>
<path fill="none" stroke="black" d="M163,-975C185.92,-975 194.061,-975.739 212.824,-975.946"/>
<polygon fill="black" stroke="black" points="212.982,-979.447 223,-976 213.019,-972.447 212.982,-979.447"/>
</g>
<!-- HeadNode1&#45;&gt;node10x100600000 -->
<g id="edge3" class="edge"><title>HeadNode1:f3&#45;&gt;node10x100600000:w3</title>
<path fill="none" stroke="black" d="M163,-996C185.92,-996 194.061,-996.739 212.824,-996.946"/>
<polygon fill="black" stroke="black" points="212.982,-1000.45 223,-997 213.019,-993.447 212.982,-1000.45"/>
</g>
<!-- node10x0 -->
<g id="node4" class="node"><title>node10x0</title>
<polygon fill="none" stroke="black" points="368,-944.5 368,-1007.5 422,-1007.5 422,-944.5 368,-944.5"/>
<text text-anchor="middle" x="395" y="-993.9" font-family="Times,serif" font-size="12.00">NULL</text>
<polyline fill="none" stroke="black" points="368,-986.5 422,-986.5 "/>
<text text-anchor="middle" x="395" y="-972.9" font-family="Times,serif" font-size="12.00">NULL</text>
<polyline fill="none" stroke="black" points="368,-965.5 422,-965.5 "/>
<text text-anchor="middle" x="395" y="-951.9" font-family="Times,serif" font-size="12.00">NULL</text>
</g>
<!-- node10x100600000&#45;&gt;node10x0 -->
<g id="edge4" class="edge"><title>node10x100600000:f1&#45;&gt;node10x0:w1</title>
<path fill="none" stroke="black" d="M283,-954C316.69,-954 327.575,-954.814 356.811,-954.973"/>
<polygon fill="black" stroke="black" points="356.991,-958.474 367,-955 357.009,-951.474 356.991,-958.474"/>
</g>
<!-- node10x100600000&#45;&gt;node10x0 -->
<g id="edge5" class="edge"><title>node10x100600000:f2&#45;&gt;node10x0:w2</title>
<path fill="none" stroke="black" d="M283,-976C316.688,-976 327.577,-976 356.811,-976"/>
<polygon fill="black" stroke="black" points="357,-979.5 367,-976 357,-972.5 357,-979.5"/>
</g>
<!-- node10x100600000&#45;&gt;node10x0 -->
<g id="edge6" class="edge"><title>node10x100600000:f3&#45;&gt;node10x0:w3</title>
<path fill="none" stroke="black" d="M283,-997C316.688,-997 327.577,-997 356.811,-997"/>
<polygon fill="black" stroke="black" points="357,-1000.5 367,-997 357,-993.5 357,-1000.5"/>
</g>
<!-- HeadNode2 -->
<g id="node5" class="node"><title>HeadNode2</title>
<polygon fill="none" stroke="black" points="56,-810.5 56,-873.5 162,-873.5 162,-810.5 56,-810.5"/>
<text text-anchor="middle" x="67.5" y="-859.9" font-family="Times,serif" font-size="12.00">1</text>
<polyline fill="none" stroke="black" points="79,-852.5 79,-873.5 "/>
<text text-anchor="middle" x="120.5" y="-859.9" font-family="Times,serif" font-size="12.00">0x100600000</text>
<polyline fill="none" stroke="black" points="56,-852.5 162,-852.5 "/>
<text text-anchor="middle" x="67.5" y="-838.9" font-family="Times,serif" font-size="12.00">1</text>
<polyline fill="none" stroke="black" points="79,-831.5 79,-852.5 "/>
<text text-anchor="middle" x="120.5" y="-838.9" font-family="Times,serif" font-size="12.00">0x100600000</text>
<polyline fill="none" stroke="black" points="56,-831.5 162,-831.5 "/>
<text text-anchor="middle" x="67.5" y="-817.9" font-family="Times,serif" font-size="12.00">1</text>
<polyline fill="none" stroke="black" points="79,-810.5 79,-831.5 "/>
<text text-anchor="middle" x="120.5" y="-817.9" font-family="Times,serif" font-size="12.00">0x100600000</text>
</g>
<!-- node20x100600000 -->
<g id="node6" class="node"><title>node20x100600000</title>
<polygon fill="none" stroke="black" points="200,-790 200,-874 306,-874 306,-790 200,-790"/>
<text text-anchor="middle" x="223.5" y="-860.4" font-family="Times,serif" font-size="12.00">2</text>
<polyline fill="none" stroke="black" points="247,-853 247,-874 "/>
<text text-anchor="middle" x="276.5" y="-860.4" font-family="Times,serif" font-size="12.00">0x0</text>
<polyline fill="none" stroke="black" points="200,-853 306,-853 "/>
<text text-anchor="middle" x="223.5" y="-839.4" font-family="Times,serif" font-size="12.00">2</text>
<polyline fill="none" stroke="black" points="247,-832 247,-853 "/>
<text text-anchor="middle" x="276.5" y="-839.4" font-family="Times,serif" font-size="12.00">0x0</text>
<polyline fill="none" stroke="black" points="200,-832 306,-832 "/>
<text text-anchor="middle" x="211.5" y="-818.4" font-family="Times,serif" font-size="12.00">1</text>
<polyline fill="none" stroke="black" points="223,-811 223,-832 "/>
<text text-anchor="middle" x="264.5" y="-818.4" font-family="Times,serif" font-size="12.00">0x1005078b0</text>
<polyline fill="none" stroke="black" points="200,-811 306,-811 "/>
<text text-anchor="middle" x="253" y="-797.4" font-family="Times,serif" font-size="12.00">0</text>
</g>
<!-- HeadNode2&#45;&gt;node20x100600000 -->
<g id="edge7" class="edge"><title>HeadNode2:f1&#45;&gt;node20x100600000:w1</title>
<path fill="none" stroke="black" d="M163,-821C175.462,-821 180.841,-821 189.872,-821"/>
<polygon fill="black" stroke="black" points="190,-824.5 200,-821 190,-817.5 190,-824.5"/>
</g>
<!-- HeadNode2&#45;&gt;node20x100600000 -->
<g id="edge8" class="edge"><title>HeadNode2:f2&#45;&gt;node20x100600000:w2</title>
<path fill="none" stroke="black" d="M163,-842C175.466,-842 180.84,-842.574 189.87,-842.852"/>
<polygon fill="black" stroke="black" points="189.95,-846.354 200,-843 190.052,-839.355 189.95,-846.354"/>
</g>
<!-- HeadNode2&#45;&gt;node20x100600000 -->
<g id="edge9" class="edge"><title>HeadNode2:f3&#45;&gt;node20x100600000:w3</title>
<path fill="none" stroke="black" d="M163,-863C175.466,-863 180.84,-863.574 189.87,-863.852"/>
<polygon fill="black" stroke="black" points="189.95,-867.354 200,-864 190.052,-860.355 189.95,-867.354"/>
</g>
<!-- node20x1005078b0 -->
<g id="node7" class="node"><title>node20x1005078b0</title>
<polygon fill="none" stroke="black" points="366,-790 366,-832 424,-832 424,-790 366,-790"/>
<text text-anchor="middle" x="377.5" y="-818.4" font-family="Times,serif" font-size="12.00">1</text>
<polyline fill="none" stroke="black" points="389,-811 389,-832 "/>
<text text-anchor="middle" x="406.5" y="-818.4" font-family="Times,serif" font-size="12.00">0x0</text>
<polyline fill="none" stroke="black" points="366,-811 424,-811 "/>
<text text-anchor="middle" x="395" y="-797.4" font-family="Times,serif" font-size="12.00">1</text>
</g>
<!-- node20x100600000&#45;&gt;node20x1005078b0 -->
<g id="edge10" class="edge"><title>node20x100600000:f1&#45;&gt;node20x1005078b0:w1</title>
<path fill="none" stroke="black" d="M306,-821C328.538,-821 336.543,-821.739 354.994,-821.946"/>
<polygon fill="black" stroke="black" points="354.981,-825.446 365,-822 355.019,-818.446 354.981,-825.446"/>
</g>
<!-- node20x0 -->
<g id="node8" class="node"><title>node20x0</title>
<polygon fill="none" stroke="black" points="510,-811.5 510,-874.5 564,-874.5 564,-811.5 510,-811.5"/>
<text text-anchor="middle" x="537" y="-860.9" font-family="Times,serif" font-size="12.00">NULL</text>
<polyline fill="none" stroke="black" points="510,-853.5 564,-853.5 "/>
<text text-anchor="middle" x="537" y="-839.9" font-family="Times,serif" font-size="12.00">NULL</text>
<polyline fill="none" stroke="black" points="510,-832.5 564,-832.5 "/>
<text text-anchor="middle" x="537" y="-818.9" font-family="Times,serif" font-size="12.00">NULL</text>
</g>
<!-- node20x100600000&#45;&gt;node20x0 -->
<g id="edge11" class="edge"><title>node20x100600000:f2&#45;&gt;node20x0:w2</title>
<path fill="none" stroke="black" d="M306,-843C392.786,-843 416.962,-843 498.978,-843"/>
<polygon fill="black" stroke="black" points="499,-846.5 509,-843 499,-839.5 499,-846.5"/>
</g>
<!-- node20x100600000&#45;&gt;node20x0 -->
<g id="edge12" class="edge"><title>node20x100600000:f3&#45;&gt;node20x0:w3</title>
<path fill="none" stroke="black" d="M306,-864C392.786,-864 416.962,-864 498.978,-864"/>
<polygon fill="black" stroke="black" points="499,-867.5 509,-864 499,-860.5 499,-867.5"/>
</g>
<!-- node20x1005078b0&#45;&gt;node20x0 -->
<g id="edge13" class="edge"><title>node20x1005078b0:f1&#45;&gt;node20x0:w1</title>
<path fill="none" stroke="black" d="M425,-822C458.688,-822 469.577,-822 498.811,-822"/>
<polygon fill="black" stroke="black" points="499,-825.5 509,-822 499,-818.5 499,-825.5"/>
</g>
<!-- HeadNode3 -->
<g id="node9" class="node"><title>HeadNode3</title>
<polygon fill="none" stroke="black" points="56,-677.5 56,-740.5 162,-740.5 162,-677.5 56,-677.5"/>
<text text-anchor="middle" x="67.5" y="-726.9" font-family="Times,serif" font-size="12.00">1</text>
<polyline fill="none" stroke="black" points="79,-719.5 79,-740.5 "/>
<text text-anchor="middle" x="120.5" y="-726.9" font-family="Times,serif" font-size="12.00">0x100600000</text>
<polyline fill="none" stroke="black" points="56,-719.5 162,-719.5 "/>
<text text-anchor="middle" x="67.5" y="-705.9" font-family="Times,serif" font-size="12.00">1</text>
<polyline fill="none" stroke="black" points="79,-698.5 79,-719.5 "/>
<text text-anchor="middle" x="120.5" y="-705.9" font-family="Times,serif" font-size="12.00">0x100600000</text>
<polyline fill="none" stroke="black" points="56,-698.5 162,-698.5 "/>
<text text-anchor="middle" x="67.5" y="-684.9" font-family="Times,serif" font-size="12.00">1</text>
<polyline fill="none" stroke="black" points="79,-677.5 79,-698.5 "/>
<text text-anchor="middle" x="120.5" y="-684.9" font-family="Times,serif" font-size="12.00">0x100600000</text>
</g>
<!-- node30x100600000 -->
<g id="node10" class="node"><title>node30x100600000</title>
<polygon fill="none" stroke="black" points="200,-657 200,-741 306,-741 306,-657 200,-657"/>
<text text-anchor="middle" x="223.5" y="-727.4" font-family="Times,serif" font-size="12.00">3</text>
<polyline fill="none" stroke="black" points="247,-720 247,-741 "/>
<text text-anchor="middle" x="276.5" y="-727.4" font-family="Times,serif" font-size="12.00">0x0</text>
<polyline fill="none" stroke="black" points="200,-720 306,-720 "/>
<text text-anchor="middle" x="223.5" y="-706.4" font-family="Times,serif" font-size="12.00">3</text>
<polyline fill="none" stroke="black" points="247,-699 247,-720 "/>
<text text-anchor="middle" x="276.5" y="-706.4" font-family="Times,serif" font-size="12.00">0x0</text>
<polyline fill="none" stroke="black" points="200,-699 306,-699 "/>
<text text-anchor="middle" x="211.5" y="-685.4" font-family="Times,serif" font-size="12.00">1</text>
<polyline fill="none" stroke="black" points="223,-678 223,-699 "/>
<text text-anchor="middle" x="264.5" y="-685.4" font-family="Times,serif" font-size="12.00">0x1005078b0</text>
<polyline fill="none" stroke="black" points="200,-678 306,-678 "/>
<text text-anchor="middle" x="253" y="-664.4" font-family="Times,serif" font-size="12.00">0</text>
</g>
<!-- HeadNode3&#45;&gt;node30x100600000 -->
<g id="edge14" class="edge"><title>HeadNode3:f1&#45;&gt;node30x100600000:w1</title>
<path fill="none" stroke="black" d="M163,-688C175.462,-688 180.841,-688 189.872,-688"/>
<polygon fill="black" stroke="black" points="190,-691.5 200,-688 190,-684.5 190,-691.5"/>
</g>
<!-- HeadNode3&#45;&gt;node30x100600000 -->
<g id="edge15" class="edge"><title>HeadNode3:f2&#45;&gt;node30x100600000:w2</title>
<path fill="none" stroke="black" d="M163,-709C175.466,-709 180.84,-709.574 189.87,-709.852"/>
<polygon fill="black" stroke="black" points="189.95,-713.354 200,-710 190.052,-706.355 189.95,-713.354"/>
</g>
<!-- HeadNode3&#45;&gt;node30x100600000 -->
<g id="edge16" class="edge"><title>HeadNode3:f3&#45;&gt;node30x100600000:w3</title>
<path fill="none" stroke="black" d="M163,-730C175.466,-730 180.84,-730.574 189.87,-730.852"/>
<polygon fill="black" stroke="black" points="189.95,-734.354 200,-731 190.052,-727.355 189.95,-734.354"/>
</g>
<!-- node30x1005078b0 -->
<g id="node11" class="node"><title>node30x1005078b0</title>
<polygon fill="none" stroke="black" points="342,-657 342,-699 448,-699 448,-657 342,-657"/>
<text text-anchor="middle" x="353.5" y="-685.4" font-family="Times,serif" font-size="12.00">1</text>
<polyline fill="none" stroke="black" points="365,-678 365,-699 "/>
<text text-anchor="middle" x="406.5" y="-685.4" font-family="Times,serif" font-size="12.00">0x100507920</text>
<polyline fill="none" stroke="black" points="342,-678 448,-678 "/>
<text text-anchor="middle" x="395" y="-664.4" font-family="Times,serif" font-size="12.00">1</text>
</g>
<!-- node30x100600000&#45;&gt;node30x1005078b0 -->
<g id="edge17" class="edge"><title>node30x100600000:f1&#45;&gt;node30x1005078b0:w1</title>
<path fill="none" stroke="black" d="M306,-688C318.005,-688 323.249,-688.562 331.873,-688.844"/>
<polygon fill="black" stroke="black" points="331.947,-692.345 342,-689 332.055,-685.346 331.947,-692.345"/>
</g>
<!-- node30x0 -->
<g id="node12" class="node"><title>node30x0</title>
<polygon fill="none" stroke="black" points="628,-678.5 628,-741.5 682,-741.5 682,-678.5 628,-678.5"/>
<text text-anchor="middle" x="655" y="-727.9" font-family="Times,serif" font-size="12.00">NULL</text>
<polyline fill="none" stroke="black" points="628,-720.5 682,-720.5 "/>
<text text-anchor="middle" x="655" y="-706.9" font-family="Times,serif" font-size="12.00">NULL</text>
<polyline fill="none" stroke="black" points="628,-699.5 682,-699.5 "/>
<text text-anchor="middle" x="655" y="-685.9" font-family="Times,serif" font-size="12.00">NULL</text>
</g>
<!-- node30x100600000&#45;&gt;node30x0 -->
<g id="edge18" class="edge"><title>node30x100600000:f2&#45;&gt;node30x0:w2</title>
<path fill="none" stroke="black" d="M306,-710C445.184,-710 482.528,-710 616.739,-710"/>
<polygon fill="black" stroke="black" points="617,-713.5 627,-710 617,-706.5 617,-713.5"/>
</g>
<!-- node30x100600000&#45;&gt;node30x0 -->
<g id="edge19" class="edge"><title>node30x100600000:f3&#45;&gt;node30x0:w3</title>
<path fill="none" stroke="black" d="M306,-731C445.184,-731 482.528,-731 616.739,-731"/>
<polygon fill="black" stroke="black" points="617,-734.5 627,-731 617,-727.5 617,-734.5"/>
</g>
<!-- node30x100507920 -->
<g id="node13" class="node"><title>node30x100507920</title>
<polygon fill="none" stroke="black" points="508,-657 508,-699 566,-699 566,-657 508,-657"/>
<text text-anchor="middle" x="519.5" y="-685.4" font-family="Times,serif" font-size="12.00">1</text>
<polyline fill="none" stroke="black" points="531,-678 531,-699 "/>
<text text-anchor="middle" x="548.5" y="-685.4" font-family="Times,serif" font-size="12.00">0x0</text>
<polyline fill="none" stroke="black" points="508,-678 566,-678 "/>
<text text-anchor="middle" x="537" y="-664.4" font-family="Times,serif" font-size="12.00">2</text>
</g>
<!-- node30x1005078b0&#45;&gt;node30x100507920 -->
<g id="edge20" class="edge"><title>node30x1005078b0:f1&#45;&gt;node30x100507920:w1</title>
<path fill="none" stroke="black" d="M448,-689C470.535,-689 478.545,-689 496.995,-689"/>
<polygon fill="black" stroke="black" points="497,-692.5 507,-689 497,-685.5 497,-692.5"/>
</g>
<!-- node30x100507920&#45;&gt;node30x0 -->
<g id="edge21" class="edge"><title>node30x100507920:f1&#45;&gt;node30x0:w1</title>
<path fill="none" stroke="black" d="M567,-689C589.917,-689 598.063,-689 616.825,-689"/>
<polygon fill="black" stroke="black" points="617,-692.5 627,-689 617,-685.5 617,-692.5"/>
</g>
<!-- HeadNode4 -->
<g id="node14" class="node"><title>HeadNode4</title>
<polygon fill="none" stroke="black" points="56,-545.5 56,-608.5 162,-608.5 162,-545.5 56,-545.5"/>
<text text-anchor="middle" x="67.5" y="-594.9" font-family="Times,serif" font-size="12.00">1</text>
<polyline fill="none" stroke="black" points="79,-587.5 79,-608.5 "/>
<text text-anchor="middle" x="120.5" y="-594.9" font-family="Times,serif" font-size="12.00">0x100600000</text>
<polyline fill="none" stroke="black" points="56,-587.5 162,-587.5 "/>
<text text-anchor="middle" x="67.5" y="-573.9" font-family="Times,serif" font-size="12.00">1</text>
<polyline fill="none" stroke="black" points="79,-566.5 79,-587.5 "/>
<text text-anchor="middle" x="120.5" y="-573.9" font-family="Times,serif" font-size="12.00">0x100600000</text>
<polyline fill="none" stroke="black" points="56,-566.5 162,-566.5 "/>
<text text-anchor="middle" x="67.5" y="-552.9" font-family="Times,serif" font-size="12.00">1</text>
<polyline fill="none" stroke="black" points="79,-545.5 79,-566.5 "/>
<text text-anchor="middle" x="120.5" y="-552.9" font-family="Times,serif" font-size="12.00">0x100600000</text>
</g>
<!-- node40x100600000 -->
<g id="node15" class="node"><title>node40x100600000</title>
<polygon fill="none" stroke="black" points="200,-524 200,-608 306,-608 306,-524 200,-524"/>
<text text-anchor="middle" x="211.5" y="-594.4" font-family="Times,serif" font-size="12.00">3</text>
<polyline fill="none" stroke="black" points="223,-587 223,-608 "/>
<text text-anchor="middle" x="264.5" y="-594.4" font-family="Times,serif" font-size="12.00">0x1005079b0</text>
<polyline fill="none" stroke="black" points="200,-587 306,-587 "/>
<text text-anchor="middle" x="211.5" y="-573.4" font-family="Times,serif" font-size="12.00">3</text>
<polyline fill="none" stroke="black" points="223,-566 223,-587 "/>
<text text-anchor="middle" x="264.5" y="-573.4" font-family="Times,serif" font-size="12.00">0x1005079b0</text>
<polyline fill="none" stroke="black" points="200,-566 306,-566 "/>
<text text-anchor="middle" x="211.5" y="-552.4" font-family="Times,serif" font-size="12.00">1</text>
<polyline fill="none" stroke="black" points="223,-545 223,-566 "/>
<text text-anchor="middle" x="264.5" y="-552.4" font-family="Times,serif" font-size="12.00">0x1005078b0</text>
<polyline fill="none" stroke="black" points="200,-545 306,-545 "/>
<text text-anchor="middle" x="253" y="-531.4" font-family="Times,serif" font-size="12.00">0</text>
</g>
<!-- HeadNode4&#45;&gt;node40x100600000 -->
<g id="edge22" class="edge"><title>HeadNode4:f1&#45;&gt;node40x100600000:w1</title>
<path fill="none" stroke="black" d="M163,-556C175.466,-556 180.84,-555.426 189.87,-555.148"/>
<polygon fill="black" stroke="black" points="190.052,-558.645 200,-555 189.95,-551.646 190.052,-558.645"/>
</g>
<!-- HeadNode4&#45;&gt;node40x100600000 -->
<g id="edge23" class="edge"><title>HeadNode4:f2&#45;&gt;node40x100600000:w2</title>
<path fill="none" stroke="black" d="M163,-577C175.462,-577 180.841,-577 189.872,-577"/>
<polygon fill="black" stroke="black" points="190,-580.5 200,-577 190,-573.5 190,-580.5"/>
</g>
<!-- HeadNode4&#45;&gt;node40x100600000 -->
<g id="edge24" class="edge"><title>HeadNode4:f3&#45;&gt;node40x100600000:w3</title>
<path fill="none" stroke="black" d="M163,-598C175.462,-598 180.841,-598 189.872,-598"/>
<polygon fill="black" stroke="black" points="190,-601.5 200,-598 190,-594.5 190,-601.5"/>
</g>
<!-- node40x1005078b0 -->
<g id="node16" class="node"><title>node40x1005078b0</title>
<polygon fill="none" stroke="black" points="342,-524 342,-566 448,-566 448,-524 342,-524"/>
<text text-anchor="middle" x="353.5" y="-552.4" font-family="Times,serif" font-size="12.00">1</text>
<polyline fill="none" stroke="black" points="365,-545 365,-566 "/>
<text text-anchor="middle" x="406.5" y="-552.4" font-family="Times,serif" font-size="12.00">0x100507920</text>
<polyline fill="none" stroke="black" points="342,-545 448,-545 "/>
<text text-anchor="middle" x="395" y="-531.4" font-family="Times,serif" font-size="12.00">1</text>
</g>
<!-- node40x100600000&#45;&gt;node40x1005078b0 -->
<g id="edge25" class="edge"><title>node40x100600000:f1&#45;&gt;node40x1005078b0:w1</title>
<path fill="none" stroke="black" d="M306,-555C318.005,-555 323.249,-555.562 331.873,-555.844"/>
<polygon fill="black" stroke="black" points="331.947,-559.345 342,-556 332.055,-552.346 331.947,-559.345"/>
</g>
<!-- node40x1005079b0 -->
<g id="node17" class="node"><title>node40x1005079b0</title>
<polygon fill="none" stroke="black" points="626,-524 626,-608 684,-608 684,-524 626,-524"/>
<text text-anchor="middle" x="637.5" y="-594.4" font-family="Times,serif" font-size="12.00">1</text>
<polyline fill="none" stroke="black" points="649,-587 649,-608 "/>
<text text-anchor="middle" x="666.5" y="-594.4" font-family="Times,serif" font-size="12.00">0x0</text>
<polyline fill="none" stroke="black" points="626,-587 684,-587 "/>
<text text-anchor="middle" x="637.5" y="-573.4" font-family="Times,serif" font-size="12.00">1</text>
<polyline fill="none" stroke="black" points="649,-566 649,-587 "/>
<text text-anchor="middle" x="666.5" y="-573.4" font-family="Times,serif" font-size="12.00">0x0</text>
<polyline fill="none" stroke="black" points="626,-566 684,-566 "/>
<text text-anchor="middle" x="637.5" y="-552.4" font-family="Times,serif" font-size="12.00">1</text>
<polyline fill="none" stroke="black" points="649,-545 649,-566 "/>
<text text-anchor="middle" x="666.5" y="-552.4" font-family="Times,serif" font-size="12.00">0x0</text>
<polyline fill="none" stroke="black" points="626,-545 684,-545 "/>
<text text-anchor="middle" x="655" y="-531.4" font-family="Times,serif" font-size="12.00">3</text>
</g>
<!-- node40x100600000&#45;&gt;node40x1005079b0 -->
<g id="edge26" class="edge"><title>node40x100600000:f2&#45;&gt;node40x1005079b0:w2</title>
<path fill="none" stroke="black" d="M306,-577C444.75,-577 481.978,-577 615.771,-577"/>
<polygon fill="black" stroke="black" points="616,-580.5 626,-577 616,-573.5 616,-580.5"/>
</g>
<!-- node40x100600000&#45;&gt;node40x1005079b0 -->
<g id="edge27" class="edge"><title>node40x100600000:f3&#45;&gt;node40x1005079b0:w3</title>
<path fill="none" stroke="black" d="M306,-598C444.75,-598 481.978,-598 615.771,-598"/>
<polygon fill="black" stroke="black" points="616,-601.5 626,-598 616,-594.5 616,-601.5"/>
</g>
<!-- node40x100507920 -->
<g id="node18" class="node"><title>node40x100507920</title>
<polygon fill="none" stroke="black" points="484,-524 484,-566 590,-566 590,-524 484,-524"/>
<text text-anchor="middle" x="495.5" y="-552.4" font-family="Times,serif" font-size="12.00">1</text>
<polyline fill="none" stroke="black" points="507,-545 507,-566 "/>
<text text-anchor="middle" x="548.5" y="-552.4" font-family="Times,serif" font-size="12.00">0x1005079b0</text>
<polyline fill="none" stroke="black" points="484,-545 590,-545 "/>
<text text-anchor="middle" x="537" y="-531.4" font-family="Times,serif" font-size="12.00">2</text>
</g>
<!-- node40x1005078b0&#45;&gt;node40x100507920 -->
<g id="edge28" class="edge"><title>node40x1005078b0:f1&#45;&gt;node40x100507920:w1</title>
<path fill="none" stroke="black" d="M448,-556C460,-556 465.25,-556 473.875,-556"/>
<polygon fill="black" stroke="black" points="474,-559.5 484,-556 474,-552.5 474,-559.5"/>
</g>
<!-- node40x0 -->
<g id="node19" class="node"><title>node40x0</title>
<polygon fill="none" stroke="black" points="720,-545.5 720,-608.5 774,-608.5 774,-545.5 720,-545.5"/>
<text text-anchor="middle" x="747" y="-594.9" font-family="Times,serif" font-size="12.00">NULL</text>
<polyline fill="none" stroke="black" points="720,-587.5 774,-587.5 "/>
<text text-anchor="middle" x="747" y="-573.9" font-family="Times,serif" font-size="12.00">NULL</text>
<polyline fill="none" stroke="black" points="720,-566.5 774,-566.5 "/>
<text text-anchor="middle" x="747" y="-552.9" font-family="Times,serif" font-size="12.00">NULL</text>
</g>
<!-- node40x1005079b0&#45;&gt;node40x0 -->
<g id="edge30" class="edge"><title>node40x1005079b0:f1&#45;&gt;node40x0:w1</title>
<path fill="none" stroke="black" d="M685,-555C696.55,-555 701.663,-555.551 709.893,-555.835"/>
<polygon fill="black" stroke="black" points="709.944,-559.336 720,-556 710.059,-552.337 709.944,-559.336"/>
</g>
<!-- node40x1005079b0&#45;&gt;node40x0 -->
<g id="edge31" class="edge"><title>node40x1005079b0:f2&#45;&gt;node40x0:w2</title>
<path fill="none" stroke="black" d="M685,-577C696.545,-577 701.664,-577 709.895,-577"/>
<polygon fill="black" stroke="black" points="710,-580.5 720,-577 710,-573.5 710,-580.5"/>
</g>
<!-- node40x1005079b0&#45;&gt;node40x0 -->
<g id="edge32" class="edge"><title>node40x1005079b0:f3&#45;&gt;node40x0:w3</title>
<path fill="none" stroke="black" d="M685,-598C696.545,-598 701.664,-598 709.895,-598"/>
<polygon fill="black" stroke="black" points="710,-601.5 720,-598 710,-594.5 710,-601.5"/>
</g>
<!-- node40x100507920&#45;&gt;node40x1005079b0 -->
<g id="edge29" class="edge"><title>node40x100507920:f1&#45;&gt;node40x1005079b0:w1</title>
<path fill="none" stroke="black" d="M590,-556C602.005,-556 607.249,-555.438 615.873,-555.156"/>
<polygon fill="black" stroke="black" points="616.055,-558.654 626,-555 615.947,-551.655 616.055,-558.654"/>
</g>
<!-- HeadNode5 -->
<g id="node20" class="node"><title>HeadNode5</title>
<polygon fill="none" stroke="black" points="56,-412.5 56,-475.5 162,-475.5 162,-412.5 56,-412.5"/>
<text text-anchor="middle" x="67.5" y="-461.9" font-family="Times,serif" font-size="12.00">3</text>
<polyline fill="none" stroke="black" points="79,-454.5 79,-475.5 "/>
<text text-anchor="middle" x="120.5" y="-461.9" font-family="Times,serif" font-size="12.00">0x1005079b0</text>
<polyline fill="none" stroke="black" points="56,-454.5 162,-454.5 "/>
<text text-anchor="middle" x="67.5" y="-440.9" font-family="Times,serif" font-size="12.00">3</text>
<polyline fill="none" stroke="black" points="79,-433.5 79,-454.5 "/>
<text text-anchor="middle" x="120.5" y="-440.9" font-family="Times,serif" font-size="12.00">0x1005079b0</text>
<polyline fill="none" stroke="black" points="56,-433.5 162,-433.5 "/>
<text text-anchor="middle" x="67.5" y="-419.9" font-family="Times,serif" font-size="12.00">1</text>
<polyline fill="none" stroke="black" points="79,-412.5 79,-433.5 "/>
<text text-anchor="middle" x="120.5" y="-419.9" font-family="Times,serif" font-size="12.00">0x1005078b0</text>
</g>
<!-- node50x1005078b0 -->
<g id="node21" class="node"><title>node50x1005078b0</title>
<polygon fill="none" stroke="black" points="200,-391 200,-433 306,-433 306,-391 200,-391"/>
<text text-anchor="middle" x="211.5" y="-419.4" font-family="Times,serif" font-size="12.00">1</text>
<polyline fill="none" stroke="black" points="223,-412 223,-433 "/>
<text text-anchor="middle" x="264.5" y="-419.4" font-family="Times,serif" font-size="12.00">0x100507920</text>
<polyline fill="none" stroke="black" points="200,-412 306,-412 "/>
<text text-anchor="middle" x="253" y="-398.4" font-family="Times,serif" font-size="12.00">1</text>
</g>
<!-- HeadNode5&#45;&gt;node50x1005078b0 -->
<g id="edge33" class="edge"><title>HeadNode5:f1&#45;&gt;node50x1005078b0:w1</title>
<path fill="none" stroke="black" d="M163,-423C175.462,-423 180.841,-423 189.872,-423"/>
<polygon fill="black" stroke="black" points="190,-426.5 200,-423 190,-419.5 190,-426.5"/>
</g>
<!-- node50x1005079b0 -->
<g id="node22" class="node"><title>node50x1005079b0</title>
<polygon fill="none" stroke="black" points="508,-391 508,-475 566,-475 566,-391 508,-391"/>
<text text-anchor="middle" x="519.5" y="-461.4" font-family="Times,serif" font-size="12.00">1</text>
<polyline fill="none" stroke="black" points="531,-454 531,-475 "/>
<text text-anchor="middle" x="548.5" y="-461.4" font-family="Times,serif" font-size="12.00">0x0</text>
<polyline fill="none" stroke="black" points="508,-454 566,-454 "/>
<text text-anchor="middle" x="519.5" y="-440.4" font-family="Times,serif" font-size="12.00">1</text>
<polyline fill="none" stroke="black" points="531,-433 531,-454 "/>
<text text-anchor="middle" x="548.5" y="-440.4" font-family="Times,serif" font-size="12.00">0x0</text>
<polyline fill="none" stroke="black" points="508,-433 566,-433 "/>
<text text-anchor="middle" x="519.5" y="-419.4" font-family="Times,serif" font-size="12.00">1</text>
<polyline fill="none" stroke="black" points="531,-412 531,-433 "/>
<text text-anchor="middle" x="548.5" y="-419.4" font-family="Times,serif" font-size="12.00">0x0</text>
<polyline fill="none" stroke="black" points="508,-412 566,-412 "/>
<text text-anchor="middle" x="537" y="-398.4" font-family="Times,serif" font-size="12.00">3</text>
</g>
<!-- HeadNode5&#45;&gt;node50x1005079b0 -->
<g id="edge34" class="edge"><title>HeadNode5:f2&#45;&gt;node50x1005079b0:w2</title>
<path fill="none" stroke="black" d="M163,-444C312.455,-444 352.336,-444 496.869,-444"/>
<polygon fill="black" stroke="black" points="497,-447.5 507,-444 497,-440.5 497,-447.5"/>
</g>
<!-- HeadNode5&#45;&gt;node50x1005079b0 -->
<g id="edge35" class="edge"><title>HeadNode5:f3&#45;&gt;node50x1005079b0:w3</title>
<path fill="none" stroke="black" d="M163,-465C312.455,-465 352.336,-465 496.869,-465"/>
<polygon fill="black" stroke="black" points="497,-468.5 507,-465 497,-461.5 497,-468.5"/>
</g>
<!-- node50x100507920 -->
<g id="node23" class="node"><title>node50x100507920</title>
<polygon fill="none" stroke="black" points="342,-391 342,-433 448,-433 448,-391 342,-391"/>
<text text-anchor="middle" x="353.5" y="-419.4" font-family="Times,serif" font-size="12.00">1</text>
<polyline fill="none" stroke="black" points="365,-412 365,-433 "/>
<text text-anchor="middle" x="406.5" y="-419.4" font-family="Times,serif" font-size="12.00">0x1005079b0</text>
<polyline fill="none" stroke="black" points="342,-412 448,-412 "/>
<text text-anchor="middle" x="395" y="-398.4" font-family="Times,serif" font-size="12.00">2</text>
</g>
<!-- node50x1005078b0&#45;&gt;node50x100507920 -->
<g id="edge36" class="edge"><title>node50x1005078b0:f1&#45;&gt;node50x100507920:w1</title>
<path fill="none" stroke="black" d="M306,-423C318,-423 323.25,-423 331.875,-423"/>
<polygon fill="black" stroke="black" points="332,-426.5 342,-423 332,-419.5 332,-426.5"/>
</g>
<!-- node50x0 -->
<g id="node24" class="node"><title>node50x0</title>
<polygon fill="none" stroke="black" points="628,-412.5 628,-475.5 682,-475.5 682,-412.5 628,-412.5"/>
<text text-anchor="middle" x="655" y="-461.9" font-family="Times,serif" font-size="12.00">NULL</text>
<polyline fill="none" stroke="black" points="628,-454.5 682,-454.5 "/>
<text text-anchor="middle" x="655" y="-440.9" font-family="Times,serif" font-size="12.00">NULL</text>
<polyline fill="none" stroke="black" points="628,-433.5 682,-433.5 "/>
<text text-anchor="middle" x="655" y="-419.9" font-family="Times,serif" font-size="12.00">NULL</text>
</g>
<!-- node50x1005079b0&#45;&gt;node50x0 -->
<g id="edge38" class="edge"><title>node50x1005079b0:f1&#45;&gt;node50x0:w1</title>
<path fill="none" stroke="black" d="M567,-422C589.92,-422 598.061,-422.739 616.824,-422.946"/>
<polygon fill="black" stroke="black" points="616.982,-426.447 627,-423 617.019,-419.447 616.982,-426.447"/>
</g>
<!-- node50x1005079b0&#45;&gt;node50x0 -->
<g id="edge39" class="edge"><title>node50x1005079b0:f2&#45;&gt;node50x0:w2</title>
<path fill="none" stroke="black" d="M567,-444C589.917,-444 598.063,-444 616.825,-444"/>
<polygon fill="black" stroke="black" points="617,-447.5 627,-444 617,-440.5 617,-447.5"/>
</g>
<!-- node50x1005079b0&#45;&gt;node50x0 -->
<g id="edge40" class="edge"><title>node50x1005079b0:f3&#45;&gt;node50x0:w3</title>
<path fill="none" stroke="black" d="M567,-465C589.917,-465 598.063,-465 616.825,-465"/>
<polygon fill="black" stroke="black" points="617,-468.5 627,-465 617,-461.5 617,-468.5"/>
</g>
<!-- node50x100507920&#45;&gt;node50x1005079b0 -->
<g id="edge37" class="edge"><title>node50x100507920:f1&#45;&gt;node50x1005079b0:w1</title>
<path fill="none" stroke="black" d="M448,-423C470.538,-423 478.543,-422.261 496.994,-422.054"/>
<polygon fill="black" stroke="black" points="497.019,-425.554 507,-422 496.981,-418.554 497.019,-425.554"/>
</g>
<!-- HeadNode6 -->
<g id="node25" class="node"><title>HeadNode6</title>
<polygon fill="none" stroke="black" points="56,-279.5 56,-342.5 162,-342.5 162,-279.5 56,-279.5"/>
<text text-anchor="middle" x="67.5" y="-328.9" font-family="Times,serif" font-size="12.00">2</text>
<polyline fill="none" stroke="black" points="79,-321.5 79,-342.5 "/>
<text text-anchor="middle" x="120.5" y="-328.9" font-family="Times,serif" font-size="12.00">0x1005079b0</text>
<polyline fill="none" stroke="black" points="56,-321.5 162,-321.5 "/>
<text text-anchor="middle" x="67.5" y="-307.9" font-family="Times,serif" font-size="12.00">2</text>
<polyline fill="none" stroke="black" points="79,-300.5 79,-321.5 "/>
<text text-anchor="middle" x="120.5" y="-307.9" font-family="Times,serif" font-size="12.00">0x1005079b0</text>
<polyline fill="none" stroke="black" points="56,-300.5 162,-300.5 "/>
<text text-anchor="middle" x="67.5" y="-286.9" font-family="Times,serif" font-size="12.00">1</text>
<polyline fill="none" stroke="black" points="79,-279.5 79,-300.5 "/>
<text text-anchor="middle" x="120.5" y="-286.9" font-family="Times,serif" font-size="12.00">0x100507920</text>
</g>
<!-- node60x100507920 -->
<g id="node26" class="node"><title>node60x100507920</title>
<polygon fill="none" stroke="black" points="200,-258 200,-300 306,-300 306,-258 200,-258"/>
<text text-anchor="middle" x="211.5" y="-286.4" font-family="Times,serif" font-size="12.00">1</text>
<polyline fill="none" stroke="black" points="223,-279 223,-300 "/>
<text text-anchor="middle" x="264.5" y="-286.4" font-family="Times,serif" font-size="12.00">0x1005079b0</text>
<polyline fill="none" stroke="black" points="200,-279 306,-279 "/>
<text text-anchor="middle" x="253" y="-265.4" font-family="Times,serif" font-size="12.00">2</text>
</g>
<!-- HeadNode6&#45;&gt;node60x100507920 -->
<g id="edge41" class="edge"><title>HeadNode6:f1&#45;&gt;node60x100507920:w1</title>
<path fill="none" stroke="black" d="M163,-290C175.462,-290 180.841,-290 189.872,-290"/>
<polygon fill="black" stroke="black" points="190,-293.5 200,-290 190,-286.5 190,-293.5"/>
</g>
<!-- node60x1005079b0 -->
<g id="node27" class="node"><title>node60x1005079b0</title>
<polygon fill="none" stroke="black" points="366,-258 366,-342 424,-342 424,-258 366,-258"/>
<text text-anchor="middle" x="377.5" y="-328.4" font-family="Times,serif" font-size="12.00">1</text>
<polyline fill="none" stroke="black" points="389,-321 389,-342 "/>
<text text-anchor="middle" x="406.5" y="-328.4" font-family="Times,serif" font-size="12.00">0x0</text>
<polyline fill="none" stroke="black" points="366,-321 424,-321 "/>
<text text-anchor="middle" x="377.5" y="-307.4" font-family="Times,serif" font-size="12.00">1</text>
<polyline fill="none" stroke="black" points="389,-300 389,-321 "/>
<text text-anchor="middle" x="406.5" y="-307.4" font-family="Times,serif" font-size="12.00">0x0</text>
<polyline fill="none" stroke="black" points="366,-300 424,-300 "/>
<text text-anchor="middle" x="377.5" y="-286.4" font-family="Times,serif" font-size="12.00">1</text>
<polyline fill="none" stroke="black" points="389,-279 389,-300 "/>
<text text-anchor="middle" x="406.5" y="-286.4" font-family="Times,serif" font-size="12.00">0x0</text>
<polyline fill="none" stroke="black" points="366,-279 424,-279 "/>
<text text-anchor="middle" x="395" y="-265.4" font-family="Times,serif" font-size="12.00">3</text>
</g>
<!-- HeadNode6&#45;&gt;node60x1005079b0 -->
<g id="edge42" class="edge"><title>HeadNode6:f2&#45;&gt;node60x1005079b0:w2</title>
<path fill="none" stroke="black" d="M163,-311C249.271,-311 273.366,-311 354.779,-311"/>
<polygon fill="black" stroke="black" points="355,-314.5 365,-311 355,-307.5 355,-314.5"/>
</g>
<!-- HeadNode6&#45;&gt;node60x1005079b0 -->
<g id="edge43" class="edge"><title>HeadNode6:f3&#45;&gt;node60x1005079b0:w3</title>
<path fill="none" stroke="black" d="M163,-332C249.271,-332 273.366,-332 354.779,-332"/>
<polygon fill="black" stroke="black" points="355,-335.5 365,-332 355,-328.5 355,-335.5"/>
</g>
<!-- node60x100507920&#45;&gt;node60x1005079b0 -->
<g id="edge44" class="edge"><title>node60x100507920:f1&#45;&gt;node60x1005079b0:w1</title>
<path fill="none" stroke="black" d="M306,-290C328.538,-290 336.543,-289.261 354.994,-289.054"/>
<polygon fill="black" stroke="black" points="355.019,-292.554 365,-289 354.981,-285.554 355.019,-292.554"/>
</g>
<!-- node60x0 -->
<g id="node28" class="node"><title>node60x0</title>
<polygon fill="none" stroke="black" points="510,-279.5 510,-342.5 564,-342.5 564,-279.5 510,-279.5"/>
<text text-anchor="middle" x="537" y="-328.9" font-family="Times,serif" font-size="12.00">NULL</text>
<polyline fill="none" stroke="black" points="510,-321.5 564,-321.5 "/>
<text text-anchor="middle" x="537" y="-307.9" font-family="Times,serif" font-size="12.00">NULL</text>
<polyline fill="none" stroke="black" points="510,-300.5 564,-300.5 "/>
<text text-anchor="middle" x="537" y="-286.9" font-family="Times,serif" font-size="12.00">NULL</text>
</g>
<!-- node60x1005079b0&#45;&gt;node60x0 -->
<g id="edge45" class="edge"><title>node60x1005079b0:f1&#45;&gt;node60x0:w1</title>
<path fill="none" stroke="black" d="M425,-289C458.69,-289 469.575,-289.814 498.811,-289.973"/>
<polygon fill="black" stroke="black" points="498.991,-293.474 509,-290 499.009,-286.474 498.991,-293.474"/>
</g>
<!-- node60x1005079b0&#45;&gt;node60x0 -->
<g id="edge46" class="edge"><title>node60x1005079b0:f2&#45;&gt;node60x0:w2</title>
<path fill="none" stroke="black" d="M425,-311C458.688,-311 469.577,-311 498.811,-311"/>
<polygon fill="black" stroke="black" points="499,-314.5 509,-311 499,-307.5 499,-314.5"/>
</g>
<!-- node60x1005079b0&#45;&gt;node60x0 -->
<g id="edge47" class="edge"><title>node60x1005079b0:f3&#45;&gt;node60x0:w3</title>
<path fill="none" stroke="black" d="M425,-332C458.688,-332 469.577,-332 498.811,-332"/>
<polygon fill="black" stroke="black" points="499,-335.5 509,-332 499,-328.5 499,-335.5"/>
</g>
<!-- HeadNode7 -->
<g id="node29" class="node"><title>HeadNode7</title>
<polygon fill="none" stroke="black" points="56,-146.5 56,-209.5 162,-209.5 162,-146.5 56,-146.5"/>
<text text-anchor="middle" x="67.5" y="-195.9" font-family="Times,serif" font-size="12.00">1</text>
<polyline fill="none" stroke="black" points="79,-188.5 79,-209.5 "/>
<text text-anchor="middle" x="120.5" y="-195.9" font-family="Times,serif" font-size="12.00">0x1005079b0</text>
<polyline fill="none" stroke="black" points="56,-188.5 162,-188.5 "/>
<text text-anchor="middle" x="67.5" y="-174.9" font-family="Times,serif" font-size="12.00">1</text>
<polyline fill="none" stroke="black" points="79,-167.5 79,-188.5 "/>
<text text-anchor="middle" x="120.5" y="-174.9" font-family="Times,serif" font-size="12.00">0x1005079b0</text>
<polyline fill="none" stroke="black" points="56,-167.5 162,-167.5 "/>
<text text-anchor="middle" x="67.5" y="-153.9" font-family="Times,serif" font-size="12.00">1</text>
<polyline fill="none" stroke="black" points="79,-146.5 79,-167.5 "/>
<text text-anchor="middle" x="120.5" y="-153.9" font-family="Times,serif" font-size="12.00">0x1005079b0</text>
</g>
<!-- node70x1005079b0 -->
<g id="node30" class="node"><title>node70x1005079b0</title>
<polygon fill="none" stroke="black" points="224,-125 224,-209 282,-209 282,-125 224,-125"/>
<text text-anchor="middle" x="235.5" y="-195.4" font-family="Times,serif" font-size="12.00">1</text>
<polyline fill="none" stroke="black" points="247,-188 247,-209 "/>
<text text-anchor="middle" x="264.5" y="-195.4" font-family="Times,serif" font-size="12.00">0x0</text>
<polyline fill="none" stroke="black" points="224,-188 282,-188 "/>
<text text-anchor="middle" x="235.5" y="-174.4" font-family="Times,serif" font-size="12.00">1</text>
<polyline fill="none" stroke="black" points="247,-167 247,-188 "/>
<text text-anchor="middle" x="264.5" y="-174.4" font-family="Times,serif" font-size="12.00">0x0</text>
<polyline fill="none" stroke="black" points="224,-167 282,-167 "/>
<text text-anchor="middle" x="235.5" y="-153.4" font-family="Times,serif" font-size="12.00">1</text>
<polyline fill="none" stroke="black" points="247,-146 247,-167 "/>
<text text-anchor="middle" x="264.5" y="-153.4" font-family="Times,serif" font-size="12.00">0x0</text>
<polyline fill="none" stroke="black" points="224,-146 282,-146 "/>
<text text-anchor="middle" x="253" y="-132.4" font-family="Times,serif" font-size="12.00">3</text>
</g>
<!-- HeadNode7&#45;&gt;node70x1005079b0 -->
<g id="edge48" class="edge"><title>HeadNode7:f1&#45;&gt;node70x1005079b0:w1</title>
<path fill="none" stroke="black" d="M163,-157C185.92,-157 194.061,-156.261 212.824,-156.054"/>
<polygon fill="black" stroke="black" points="213.019,-159.553 223,-156 212.982,-152.553 213.019,-159.553"/>
</g>
<!-- HeadNode7&#45;&gt;node70x1005079b0 -->
<g id="edge49" class="edge"><title>HeadNode7:f2&#45;&gt;node70x1005079b0:w2</title>
<path fill="none" stroke="black" d="M163,-178C185.917,-178 194.063,-178 212.825,-178"/>
<polygon fill="black" stroke="black" points="213,-181.5 223,-178 213,-174.5 213,-181.5"/>
</g>
<!-- HeadNode7&#45;&gt;node70x1005079b0 -->
<g id="edge50" class="edge"><title>HeadNode7:f3&#45;&gt;node70x1005079b0:w3</title>
<path fill="none" stroke="black" d="M163,-199C185.917,-199 194.063,-199 212.825,-199"/>
<polygon fill="black" stroke="black" points="213,-202.5 223,-199 213,-195.5 213,-202.5"/>
</g>
<!-- node70x0 -->
<g id="node31" class="node"><title>node70x0</title>
<polygon fill="none" stroke="black" points="368,-146.5 368,-209.5 422,-209.5 422,-146.5 368,-146.5"/>
<text text-anchor="middle" x="395" y="-195.9" font-family="Times,serif" font-size="12.00">NULL</text>
<polyline fill="none" stroke="black" points="368,-188.5 422,-188.5 "/>
<text text-anchor="middle" x="395" y="-174.9" font-family="Times,serif" font-size="12.00">NULL</text>
<polyline fill="none" stroke="black" points="368,-167.5 422,-167.5 "/>
<text text-anchor="middle" x="395" y="-153.9" font-family="Times,serif" font-size="12.00">NULL</text>
</g>
<!-- node70x1005079b0&#45;&gt;node70x0 -->
<g id="edge51" class="edge"><title>node70x1005079b0:f1&#45;&gt;node70x0:w1</title>
<path fill="none" stroke="black" d="M283,-156C316.69,-156 327.575,-156.814 356.811,-156.973"/>
<polygon fill="black" stroke="black" points="356.991,-160.474 367,-157 357.009,-153.474 356.991,-160.474"/>
</g>
<!-- node70x1005079b0&#45;&gt;node70x0 -->
<g id="edge52" class="edge"><title>node70x1005079b0:f2&#45;&gt;node70x0:w2</title>
<path fill="none" stroke="black" d="M283,-178C316.688,-178 327.577,-178 356.811,-178"/>
<polygon fill="black" stroke="black" points="357,-181.5 367,-178 357,-174.5 357,-181.5"/>
</g>
<!-- node70x1005079b0&#45;&gt;node70x0 -->
<g id="edge53" class="edge"><title>node70x1005079b0:f3&#45;&gt;node70x0:w3</title>
<path fill="none" stroke="black" d="M283,-199C316.688,-199 327.577,-199 356.811,-199"/>
<polygon fill="black" stroke="black" points="357,-202.5 367,-199 357,-195.5 357,-202.5"/>
</g>
<!-- HeadNode8 -->
<g id="node32" class="node"><title>HeadNode8</title>
<polygon fill="none" stroke="black" points="57.5,-40 57.5,-76 160.5,-76 160.5,-40 57.5,-40"/>
<text text-anchor="middle" x="109" y="-54.9" font-family="Times,serif" font-size="12.00">Empty HeadNode</text>
</g>
<!-- node0 -->
<!-- node0&#45;&gt;HeadNode0 -->
<!-- node0&#45;&gt;HeadNode1 -->
<!-- node0&#45;&gt;HeadNode2 -->
<!-- node0&#45;&gt;HeadNode3 -->
<!-- node0&#45;&gt;HeadNode4 -->
<!-- node0&#45;&gt;HeadNode5 -->
<!-- node0&#45;&gt;HeadNode6 -->
<!-- node0&#45;&gt;HeadNode7 -->
<!-- node0&#45;&gt;HeadNode8 -->
</g>
</svg>
