<?xml version="1.0" encoding="UTF-8" standalone="no"?>
<!DOCTYPE svg PUBLIC "-//W3C//DTD SVG 1.1//EN"
 "http://www.w3.org/Graphics/SVG/1.1/DTD/svg11.dtd">
<!-- Generated by graphviz version 12.2.0 (20241103.1931)
 -->
<!-- Title: SkipList Pages: 1 -->
<svg width="690pt" height="749pt"
 viewBox="0.00 0.00 690.00 748.50" xmlns="http://www.w3.org/2000/svg" xmlns:xlink="http://www.w3.org/1999/xlink">
<g id="graph0" class="graph" transform="scale(1 1) rotate(0) translate(4 744.5)">
<title>SkipList</title>
<polygon fill="white" stroke="none" points="-4,4 -4,-744.5 686,-744.5 686,4 -4,4"/>
<text text-anchor="middle" x="341" y="-7.2" font-family="Times,serif" font-size="14.00">SkipList.</text>
<g id="clust1" class="cluster">
<title>cluster0</title>
<polygon fill="none" stroke="black" stroke-dasharray="5,2" points="53.75,-654.5 53.75,-732.5 174,-732.5 174,-654.5 53.75,-654.5"/>
<text text-anchor="middle" x="113.88" y="-715.2" font-family="Times,serif" font-size="14.00">Skip list iteration 0</text>
</g>
<g id="clust2" class="cluster">
<title>cluster1</title>
<polygon fill="none" stroke="black" stroke-dasharray="5,2" points="45.88,-560.5 45.88,-646.5 459.5,-646.5 459.5,-560.5 45.88,-560.5"/>
<text text-anchor="middle" x="252.69" y="-629.2" font-family="Times,serif" font-size="14.00">Skip list iteration 1</text>
</g>
<g id="clust3" class="cluster">
<title>cluster2</title>
<polygon fill="none" stroke="black" stroke-dasharray="5,2" points="45.88,-444.5 45.88,-552.5 583,-552.5 583,-444.5 45.88,-444.5"/>
<text text-anchor="middle" x="314.44" y="-535.2" font-family="Times,serif" font-size="14.00">Skip list iteration 2</text>
</g>
<g id="clust4" class="cluster">
<title>cluster3</title>
<polygon fill="none" stroke="black" stroke-dasharray="5,2" points="45.88,-328.5 45.88,-436.5 674,-436.5 674,-328.5 45.88,-328.5"/>
<text text-anchor="middle" x="359.94" y="-419.2" font-family="Times,serif" font-size="14.00">Skip list iteration 3</text>
</g>
<g id="clust5" class="cluster">
<title>cluster4</title>
<polygon fill="none" stroke="black" stroke-dasharray="5,2" points="45.88,-212.5 45.88,-320.5 583,-320.5 583,-212.5 45.88,-212.5"/>
<text text-anchor="middle" x="314.44" y="-303.2" font-family="Times,serif" font-size="14.00">Skip list iteration 4</text>
</g>
<g id="clust6" class="cluster">
<title>cluster5</title>
<polygon fill="none" stroke="black" stroke-dasharray="5,2" points="45.88,-118.5 45.88,-204.5 459.5,-204.5 459.5,-118.5 45.88,-118.5"/>
<text text-anchor="middle" x="252.69" y="-187.2" font-family="Times,serif" font-size="14.00">Skip list iteration 5</text>
</g>
<g id="clust7" class="cluster">
<title>cluster6</title>
<polygon fill="none" stroke="black" stroke-dasharray="5,2" points="53.75,-32.5 53.75,-110.5 174,-110.5 174,-32.5 53.75,-32.5"/>
<text text-anchor="middle" x="113.88" y="-93.2" font-family="Times,serif" font-size="14.00">Skip list iteration 6</text>
</g>
<!-- HeadNode0 -->
<g id="node1" class="node">
<title>HeadNode0</title>
<polygon fill="none" stroke="black" points="62.25,-663.5 62.25,-699.5 164.5,-699.5 164.5,-663.5 62.25,-663.5"/>
<text text-anchor="middle" x="113.38" y="-677.6" font-family="Times,serif" font-size="12.00">Empty HeadNode</text>
</g>
<!-- HeadNode1 -->
<g id="node2" class="node">
<title>HeadNode1</title>
<polygon fill="none" stroke="black" points="53.88,-573.5 53.88,-609.5 172.88,-609.5 172.88,-573.5 53.88,-573.5"/>
<text text-anchor="middle" x="64.88" y="-587.6" font-family="Times,serif" font-size="12.00">1</text>
<polyline fill="none" stroke="black" points="75.88,-574.25 75.88,-609.5"/>
<text text-anchor="middle" x="124.38" y="-587.6" font-family="Times,serif" font-size="12.00">0x600002f4c000</text>
</g>
<!-- node10x600002f4c000 -->
<g id="node3" class="node">
<title>node10x600002f4c000</title>
<polygon fill="none" stroke="black" points="241.5,-569.25 241.5,-613.75 297.5,-613.75 297.5,-569.25 241.5,-569.25"/>
<text text-anchor="middle" x="252.5" y="-598.35" font-family="Times,serif" font-size="12.00">1</text>
<polyline fill="none" stroke="black" points="263.5,-591.5 263.5,-613.75"/>
<text text-anchor="middle" x="280.5" y="-598.35" font-family="Times,serif" font-size="12.00">0x0</text>
<polyline fill="none" stroke="black" points="241.5,-591.5 297.5,-591.5"/>
<text text-anchor="middle" x="269.5" y="-576.1" font-family="Times,serif" font-size="12.00">25</text>
</g>
<!-- HeadNode1&#45;&gt;node10x600002f4c000 -->
<g id="edge1" class="edge">
<title>HeadNode1:f1&#45;&gt;node10x600002f4c000:w1</title>
<path fill="none" stroke="black" d="M173.88,-591.88C199.65,-591.88 208.18,-599.81 229.1,-602.05"/>
<polygon fill="black" stroke="black" points="228.82,-605.54 238.99,-602.55 229.18,-598.55 228.82,-605.54"/>
</g>
<!-- node10x0 -->
<g id="node4" class="node">
<title>node10x0</title>
<polygon fill="none" stroke="black" points="397.5,-577.5 397.5,-613.5 451.5,-613.5 451.5,-577.5 397.5,-577.5"/>
<text text-anchor="middle" x="424.5" y="-591.6" font-family="Times,serif" font-size="12.00">NULL</text>
</g>
<!-- node10x600002f4c000&#45;&gt;node10x0 -->
<g id="edge2" class="edge">
<title>node10x600002f4c000:f1&#45;&gt;node10x0:w1</title>
<path fill="none" stroke="black" d="M298.5,-602.62C328,-602.62 361.33,-600.76 386.3,-598.99"/>
<polygon fill="black" stroke="black" points="386.26,-602.5 395.98,-598.27 385.75,-595.52 386.26,-602.5"/>
</g>
<!-- HeadNode2 -->
<g id="node5" class="node">
<title>HeadNode2</title>
<polygon fill="none" stroke="black" points="53.88,-475.25 53.88,-519.75 172.88,-519.75 172.88,-475.25 53.88,-475.25"/>
<text text-anchor="middle" x="64.88" y="-504.35" font-family="Times,serif" font-size="12.00">2</text>
<polyline fill="none" stroke="black" points="75.88,-497.5 75.88,-519.75"/>
<text text-anchor="middle" x="124.38" y="-504.35" font-family="Times,serif" font-size="12.00">0x600002f4c030</text>
<polyline fill="none" stroke="black" points="53.88,-497.5 172.88,-497.5"/>
<text text-anchor="middle" x="64.88" y="-482.1" font-family="Times,serif" font-size="12.00">1</text>
<polyline fill="none" stroke="black" points="75.88,-475.25 75.88,-497.5"/>
<text text-anchor="middle" x="124.38" y="-482.1" font-family="Times,serif" font-size="12.00">0x600002f4c000</text>
</g>
<!-- node20x600002f4c000 -->
<g id="node6" class="node">
<title>node20x600002f4c000</title>
<polygon fill="none" stroke="black" points="210,-453.25 210,-497.75 329,-497.75 329,-453.25 210,-453.25"/>
<text text-anchor="middle" x="221" y="-482.35" font-family="Times,serif" font-size="12.00">1</text>
<polyline fill="none" stroke="black" points="232,-475.5 232,-497.75"/>
<text text-anchor="middle" x="280.5" y="-482.35" font-family="Times,serif" font-size="12.00">0x600002f4c030</text>
<polyline fill="none" stroke="black" points="210,-475.5 329,-475.5"/>
<text text-anchor="middle" x="269.5" y="-460.1" font-family="Times,serif" font-size="12.00">25</text>
</g>
<!-- HeadNode2&#45;&gt;node20x600002f4c000 -->
<g id="edge3" class="edge">
<title>HeadNode2:f1&#45;&gt;node20x600002f4c000:w1</title>
<path fill="none" stroke="black" d="M173.88,-486.38C185.29,-486.38 190.62,-486.5 198.51,-486.57"/>
<polygon fill="black" stroke="black" points="198.47,-490.07 208.49,-486.62 198.5,-483.07 198.47,-490.07"/>
</g>
<!-- node20x600002f4c030 -->
<g id="node7" class="node">
<title>node20x600002f4c030</title>
<polygon fill="none" stroke="black" points="396.5,-453.12 396.5,-519.88 452.5,-519.88 452.5,-453.12 396.5,-453.12"/>
<text text-anchor="middle" x="407.5" y="-504.48" font-family="Times,serif" font-size="12.00">1</text>
<polyline fill="none" stroke="black" points="418.5,-497.62 418.5,-519.88"/>
<text text-anchor="middle" x="435.5" y="-504.48" font-family="Times,serif" font-size="12.00">0x0</text>
<polyline fill="none" stroke="black" points="396.5,-497.62 452.5,-497.62"/>
<text text-anchor="middle" x="407.5" y="-482.23" font-family="Times,serif" font-size="12.00">1</text>
<polyline fill="none" stroke="black" points="418.5,-475.38 418.5,-497.62"/>
<text text-anchor="middle" x="435.5" y="-482.23" font-family="Times,serif" font-size="12.00">0x0</text>
<polyline fill="none" stroke="black" points="396.5,-475.38 452.5,-475.38"/>
<text text-anchor="middle" x="424.5" y="-459.98" font-family="Times,serif" font-size="12.00">25</text>
</g>
<!-- HeadNode2&#45;&gt;node20x600002f4c030 -->
<g id="edge4" class="edge">
<title>HeadNode2:f2&#45;&gt;node20x600002f4c030:w2</title>
<path fill="none" stroke="black" d="M173.88,-508.62C268.43,-508.62 294.91,-508.74 384.01,-508.75"/>
<polygon fill="black" stroke="black" points="383.99,-512.25 393.99,-508.75 383.99,-505.25 383.99,-512.25"/>
</g>
<!-- node20x600002f4c000&#45;&gt;node20x600002f4c030 -->
<g id="edge5" class="edge">
<title>node20x600002f4c000:f1&#45;&gt;node20x600002f4c030:w1</title>
<path fill="none" stroke="black" d="M329,-486.62C354.4,-486.62 363.43,-486.53 384.22,-486.51"/>
<polygon fill="black" stroke="black" points="383.99,-490.01 393.99,-486.5 383.98,-483.01 383.99,-490.01"/>
</g>
<!-- node20x0 -->
<g id="node8" class="node">
<title>node20x0</title>
<polygon fill="none" stroke="black" points="521,-475.25 521,-519.75 575,-519.75 575,-475.25 521,-475.25"/>
<text text-anchor="middle" x="548" y="-504.35" font-family="Times,serif" font-size="12.00">NULL</text>
<polyline fill="none" stroke="black" points="521,-497.5 575,-497.5"/>
<text text-anchor="middle" x="548" y="-482.1" font-family="Times,serif" font-size="12.00">NULL</text>
</g>
<!-- node20x600002f4c030&#45;&gt;node20x0 -->
<g id="edge6" class="edge">
<title>node20x600002f4c030:f1&#45;&gt;node20x0:w1</title>
<path fill="none" stroke="black" d="M453.5,-486.5C478.9,-486.5 487.93,-486.41 508.72,-486.38"/>
<polygon fill="black" stroke="black" points="508.49,-489.88 518.49,-486.38 508.48,-482.88 508.49,-489.88"/>
</g>
<!-- node20x600002f4c030&#45;&gt;node20x0 -->
<g id="edge7" class="edge">
<title>node20x600002f4c030:f2&#45;&gt;node20x0:w2</title>
<path fill="none" stroke="black" d="M453.5,-508.75C478.9,-508.75 487.93,-508.66 508.72,-508.63"/>
<polygon fill="black" stroke="black" points="508.49,-512.13 518.49,-508.63 508.48,-505.13 508.49,-512.13"/>
</g>
<!-- HeadNode3 -->
<g id="node9" class="node">
<title>HeadNode3</title>
<polygon fill="none" stroke="black" points="53.88,-359.25 53.88,-403.75 172.88,-403.75 172.88,-359.25 53.88,-359.25"/>
<text text-anchor="middle" x="64.88" y="-388.35" font-family="Times,serif" font-size="12.00">2</text>
<polyline fill="none" stroke="black" points="75.88,-381.5 75.88,-403.75"/>
<text text-anchor="middle" x="124.38" y="-388.35" font-family="Times,serif" font-size="12.00">0x600002f4c030</text>
<polyline fill="none" stroke="black" points="53.88,-381.5 172.88,-381.5"/>
<text text-anchor="middle" x="64.88" y="-366.1" font-family="Times,serif" font-size="12.00">1</text>
<polyline fill="none" stroke="black" points="75.88,-359.25 75.88,-381.5"/>
<text text-anchor="middle" x="124.38" y="-366.1" font-family="Times,serif" font-size="12.00">0x600002f4c000</text>
</g>
<!-- node30x600002f4c000 -->
<g id="node10" class="node">
<title>node30x600002f4c000</title>
<polygon fill="none" stroke="black" points="210,-337.25 210,-381.75 329,-381.75 329,-337.25 210,-337.25"/>
<text text-anchor="middle" x="221" y="-366.35" font-family="Times,serif" font-size="12.00">1</text>
<polyline fill="none" stroke="black" points="232,-359.5 232,-381.75"/>
<text text-anchor="middle" x="280.5" y="-366.35" font-family="Times,serif" font-size="12.00">0x600002f4c030</text>
<polyline fill="none" stroke="black" points="210,-359.5 329,-359.5"/>
<text text-anchor="middle" x="269.5" y="-344.1" font-family="Times,serif" font-size="12.00">25</text>
</g>
<!-- HeadNode3&#45;&gt;node30x600002f4c000 -->
<g id="edge8" class="edge">
<title>HeadNode3:f1&#45;&gt;node30x600002f4c000:w1</title>
<path fill="none" stroke="black" d="M173.88,-370.38C185.29,-370.38 190.62,-370.5 198.51,-370.57"/>
<polygon fill="black" stroke="black" points="198.47,-374.07 208.49,-370.62 198.5,-367.07 198.47,-374.07"/>
</g>
<!-- node30x600002f4c030 -->
<g id="node11" class="node">
<title>node30x600002f4c030</title>
<polygon fill="none" stroke="black" points="365,-337.12 365,-403.88 484,-403.88 484,-337.12 365,-337.12"/>
<text text-anchor="middle" x="391.5" y="-388.48" font-family="Times,serif" font-size="12.00">2</text>
<polyline fill="none" stroke="black" points="418,-381.62 418,-403.88"/>
<text text-anchor="middle" x="451" y="-388.48" font-family="Times,serif" font-size="12.00">0x0</text>
<polyline fill="none" stroke="black" points="365,-381.62 484,-381.62"/>
<text text-anchor="middle" x="376" y="-366.23" font-family="Times,serif" font-size="12.00">1</text>
<polyline fill="none" stroke="black" points="387,-359.38 387,-381.62"/>
<text text-anchor="middle" x="435.5" y="-366.23" font-family="Times,serif" font-size="12.00">0x600002f4c060</text>
<polyline fill="none" stroke="black" points="365,-359.38 484,-359.38"/>
<text text-anchor="middle" x="424.5" y="-343.98" font-family="Times,serif" font-size="12.00">25</text>
</g>
<!-- HeadNode3&#45;&gt;node30x600002f4c030 -->
<g id="edge9" class="edge">
<title>HeadNode3:f2&#45;&gt;node30x600002f4c030:w2</title>
<path fill="none" stroke="black" d="M173.88,-392.62C255,-392.62 278.02,-392.74 353.93,-392.75"/>
<polygon fill="black" stroke="black" points="353.49,-396.25 363.49,-392.75 353.49,-389.25 353.49,-396.25"/>
</g>
<!-- node30x600002f4c000&#45;&gt;node30x600002f4c030 -->
<g id="edge10" class="edge">
<title>node30x600002f4c000:f1&#45;&gt;node30x600002f4c030:w1</title>
<path fill="none" stroke="black" d="M329,-370.62C340.38,-370.62 345.68,-370.56 353.55,-370.53"/>
<polygon fill="black" stroke="black" points="353.49,-374.03 363.49,-370.5 353.48,-367.03 353.49,-374.03"/>
</g>
<!-- node30x600002f4c060 -->
<g id="node12" class="node">
<title>node30x600002f4c060</title>
<polygon fill="none" stroke="black" points="520,-337.25 520,-381.75 576,-381.75 576,-337.25 520,-337.25"/>
<text text-anchor="middle" x="531" y="-366.35" font-family="Times,serif" font-size="12.00">1</text>
<polyline fill="none" stroke="black" points="542,-359.5 542,-381.75"/>
<text text-anchor="middle" x="559" y="-366.35" font-family="Times,serif" font-size="12.00">0x0</text>
<polyline fill="none" stroke="black" points="520,-359.5 576,-359.5"/>
<text text-anchor="middle" x="548" y="-344.1" font-family="Times,serif" font-size="12.00">25</text>
</g>
<!-- node30x600002f4c030&#45;&gt;node30x600002f4c060 -->
<g id="edge11" class="edge">
<title>node30x600002f4c030:f1&#45;&gt;node30x600002f4c060:w1</title>
<path fill="none" stroke="black" d="M484,-370.5C495.38,-370.5 500.68,-370.56 508.55,-370.6"/>
<polygon fill="black" stroke="black" points="508.48,-374.1 518.49,-370.62 508.49,-367.1 508.48,-374.1"/>
</g>
<!-- node30x0 -->
<g id="node13" class="node">
<title>node30x0</title>
<polygon fill="none" stroke="black" points="612,-359.25 612,-403.75 666,-403.75 666,-359.25 612,-359.25"/>
<text text-anchor="middle" x="639" y="-388.35" font-family="Times,serif" font-size="12.00">NULL</text>
<polyline fill="none" stroke="black" points="612,-381.5 666,-381.5"/>
<text text-anchor="middle" x="639" y="-366.1" font-family="Times,serif" font-size="12.00">NULL</text>
</g>
<!-- node30x600002f4c030&#45;&gt;node30x0 -->
<g id="edge12" class="edge">
<title>node30x600002f4c030:f2&#45;&gt;node30x0:w2</title>
<path fill="none" stroke="black" d="M484,-392.75C536.89,-392.75 552.9,-392.64 600.6,-392.63"/>
<polygon fill="black" stroke="black" points="600.49,-396.13 610.49,-392.63 600.49,-389.13 600.49,-396.13"/>
</g>
<!-- node30x600002f4c060&#45;&gt;node30x0 -->
<g id="edge13" class="edge">
<title>node30x600002f4c060:f1&#45;&gt;node30x0:w1</title>
<path fill="none" stroke="black" d="M577,-370.62C587.94,-370.62 593.11,-370.5 600.62,-370.43"/>
<polygon fill="black" stroke="black" points="600.5,-373.93 610.49,-370.38 600.47,-366.93 600.5,-373.93"/>
</g>
<!-- HeadNode4 -->
<g id="node14" class="node">
<title>HeadNode4</title>
<polygon fill="none" stroke="black" points="53.88,-243.25 53.88,-287.75 172.88,-287.75 172.88,-243.25 53.88,-243.25"/>
<text text-anchor="middle" x="64.88" y="-272.35" font-family="Times,serif" font-size="12.00">2</text>
<polyline fill="none" stroke="black" points="75.88,-265.5 75.88,-287.75"/>
<text text-anchor="middle" x="124.38" y="-272.35" font-family="Times,serif" font-size="12.00">0x600002f4c030</text>
<polyline fill="none" stroke="black" points="53.88,-265.5 172.88,-265.5"/>
<text text-anchor="middle" x="64.88" y="-250.1" font-family="Times,serif" font-size="12.00">1</text>
<polyline fill="none" stroke="black" points="75.88,-243.25 75.88,-265.5"/>
<text text-anchor="middle" x="124.38" y="-250.1" font-family="Times,serif" font-size="12.00">0x600002f4c000</text>
</g>
<!-- node40x600002f4c000 -->
<g id="node15" class="node">
<title>node40x600002f4c000</title>
<polygon fill="none" stroke="black" points="210,-221.25 210,-265.75 329,-265.75 329,-221.25 210,-221.25"/>
<text text-anchor="middle" x="221" y="-250.35" font-family="Times,serif" font-size="12.00">1</text>
<polyline fill="none" stroke="black" points="232,-243.5 232,-265.75"/>
<text text-anchor="middle" x="280.5" y="-250.35" font-family="Times,serif" font-size="12.00">0x600002f4c030</text>
<polyline fill="none" stroke="black" points="210,-243.5 329,-243.5"/>
<text text-anchor="middle" x="269.5" y="-228.1" font-family="Times,serif" font-size="12.00">25</text>
</g>
<!-- HeadNode4&#45;&gt;node40x600002f4c000 -->
<g id="edge14" class="edge">
<title>HeadNode4:f1&#45;&gt;node40x600002f4c000:w1</title>
<path fill="none" stroke="black" d="M173.88,-254.38C185.29,-254.38 190.62,-254.5 198.51,-254.57"/>
<polygon fill="black" stroke="black" points="198.47,-258.07 208.49,-254.62 198.5,-251.07 198.47,-258.07"/>
</g>
<!-- node40x600002f4c030 -->
<g id="node16" class="node">
<title>node40x600002f4c030</title>
<polygon fill="none" stroke="black" points="396.5,-221.12 396.5,-287.88 452.5,-287.88 452.5,-221.12 396.5,-221.12"/>
<text text-anchor="middle" x="407.5" y="-272.48" font-family="Times,serif" font-size="12.00">1</text>
<polyline fill="none" stroke="black" points="418.5,-265.62 418.5,-287.88"/>
<text text-anchor="middle" x="435.5" y="-272.48" font-family="Times,serif" font-size="12.00">0x0</text>
<polyline fill="none" stroke="black" points="396.5,-265.62 452.5,-265.62"/>
<text text-anchor="middle" x="407.5" y="-250.22" font-family="Times,serif" font-size="12.00">1</text>
<polyline fill="none" stroke="black" points="418.5,-243.38 418.5,-265.62"/>
<text text-anchor="middle" x="435.5" y="-250.22" font-family="Times,serif" font-size="12.00">0x0</text>
<polyline fill="none" stroke="black" points="396.5,-243.38 452.5,-243.38"/>
<text text-anchor="middle" x="424.5" y="-227.97" font-family="Times,serif" font-size="12.00">25</text>
</g>
<!-- HeadNode4&#45;&gt;node40x600002f4c030 -->
<g id="edge15" class="edge">
<title>HeadNode4:f2&#45;&gt;node40x600002f4c030:w2</title>
<path fill="none" stroke="black" d="M173.88,-276.62C268.43,-276.62 294.91,-276.74 384.01,-276.75"/>
<polygon fill="black" stroke="black" points="383.99,-280.25 393.99,-276.75 383.99,-273.25 383.99,-280.25"/>
</g>
<!-- node40x600002f4c000&#45;&gt;node40x600002f4c030 -->
<g id="edge16" class="edge">
<title>node40x600002f4c000:f1&#45;&gt;node40x600002f4c030:w1</title>
<path fill="none" stroke="black" d="M329,-254.62C354.4,-254.62 363.43,-254.53 384.22,-254.51"/>
<polygon fill="black" stroke="black" points="383.99,-258.01 393.99,-254.5 383.98,-251.01 383.99,-258.01"/>
</g>
<!-- node40x0 -->
<g id="node17" class="node">
<title>node40x0</title>
<polygon fill="none" stroke="black" points="521,-243.25 521,-287.75 575,-287.75 575,-243.25 521,-243.25"/>
<text text-anchor="middle" x="548" y="-272.35" font-family="Times,serif" font-size="12.00">NULL</text>
<polyline fill="none" stroke="black" points="521,-265.5 575,-265.5"/>
<text text-anchor="middle" x="548" y="-250.1" font-family="Times,serif" font-size="12.00">NULL</text>
</g>
<!-- node40x600002f4c030&#45;&gt;node40x0 -->
<g id="edge17" class="edge">
<title>node40x600002f4c030:f1&#45;&gt;node40x0:w1</title>
<path fill="none" stroke="black" d="M453.5,-254.5C478.9,-254.5 487.93,-254.41 508.72,-254.38"/>
<polygon fill="black" stroke="black" points="508.49,-257.88 518.49,-254.38 508.48,-250.88 508.49,-257.88"/>
</g>
<!-- node40x600002f4c030&#45;&gt;node40x0 -->
<g id="edge18" class="edge">
<title>node40x600002f4c030:f2&#45;&gt;node40x0:w2</title>
<path fill="none" stroke="black" d="M453.5,-276.75C478.9,-276.75 487.93,-276.66 508.72,-276.63"/>
<polygon fill="black" stroke="black" points="508.49,-280.13 518.49,-276.63 508.48,-273.13 508.49,-280.13"/>
</g>
<!-- HeadNode5 -->
<g id="node18" class="node">
<title>HeadNode5</title>
<polygon fill="none" stroke="black" points="53.88,-135.5 53.88,-171.5 172.88,-171.5 172.88,-135.5 53.88,-135.5"/>
<text text-anchor="middle" x="64.88" y="-149.6" font-family="Times,serif" font-size="12.00">1</text>
<polyline fill="none" stroke="black" points="75.88,-136.25 75.88,-171.5"/>
<text text-anchor="middle" x="124.38" y="-149.6" font-family="Times,serif" font-size="12.00">0x600002f4c000</text>
</g>
<!-- node50x600002f4c000 -->
<g id="node19" class="node">
<title>node50x600002f4c000</title>
<polygon fill="none" stroke="black" points="241.5,-127.25 241.5,-171.75 297.5,-171.75 297.5,-127.25 241.5,-127.25"/>
<text text-anchor="middle" x="252.5" y="-156.35" font-family="Times,serif" font-size="12.00">1</text>
<polyline fill="none" stroke="black" points="263.5,-149.5 263.5,-171.75"/>
<text text-anchor="middle" x="280.5" y="-156.35" font-family="Times,serif" font-size="12.00">0x0</text>
<polyline fill="none" stroke="black" points="241.5,-149.5 297.5,-149.5"/>
<text text-anchor="middle" x="269.5" y="-134.1" font-family="Times,serif" font-size="12.00">25</text>
</g>
<!-- HeadNode5&#45;&gt;node50x600002f4c000 -->
<g id="edge19" class="edge">
<title>HeadNode5:f1&#45;&gt;node50x600002f4c000:w1</title>
<path fill="none" stroke="black" d="M173.88,-153.88C199.45,-153.88 208.29,-158.86 229.16,-160.26"/>
<polygon fill="black" stroke="black" points="228.88,-163.75 238.99,-160.58 229.1,-156.76 228.88,-163.75"/>
</g>
<!-- node50x0 -->
<g id="node20" class="node">
<title>node50x0</title>
<polygon fill="none" stroke="black" points="397.5,-135.5 397.5,-171.5 451.5,-171.5 451.5,-135.5 397.5,-135.5"/>
<text text-anchor="middle" x="424.5" y="-149.6" font-family="Times,serif" font-size="12.00">NULL</text>
</g>
<!-- node50x600002f4c000&#45;&gt;node50x0 -->
<g id="edge20" class="edge">
<title>node50x600002f4c000:f1&#45;&gt;node50x0:w1</title>
<path fill="none" stroke="black" d="M298.5,-160.62C328,-160.62 361.33,-158.76 386.3,-156.99"/>
<polygon fill="black" stroke="black" points="386.26,-160.5 395.98,-156.27 385.75,-153.52 386.26,-160.5"/>
</g>
<!-- HeadNode6 -->
<g id="node21" class="node">
<title>HeadNode6</title>
<polygon fill="none" stroke="black" points="62.25,-41.5 62.25,-77.5 164.5,-77.5 164.5,-41.5 62.25,-41.5"/>
<text text-anchor="middle" x="113.38" y="-55.6" font-family="Times,serif" font-size="12.00">Empty HeadNode</text>
</g>
<!-- node0 -->
<!-- node0&#45;&gt;HeadNode0 -->
<!-- node0&#45;&gt;HeadNode1 -->
<!-- node0&#45;&gt;HeadNode2 -->
<!-- node0&#45;&gt;HeadNode3 -->
<!-- node0&#45;&gt;HeadNode4 -->
<!-- node0&#45;&gt;HeadNode5 -->
<!-- node0&#45;&gt;HeadNode6 -->
</g>
</svg>
