<?xml version="1.0" encoding="UTF-8" standalone="no"?>
<!DOCTYPE svg PUBLIC "-//W3C//DTD SVG 1.1//EN"
 "http://www.w3.org/Graphics/SVG/1.1/DTD/svg11.dtd">
<!-- Generated by graphviz version 2.44.1 (20200629.0846)
 -->
<!-- Title: SkipList Pages: 1 -->
<svg width="695pt" height="150pt"
 viewBox="0.00 0.00 695.00 150.00" xmlns="http://www.w3.org/2000/svg" xmlns:xlink="http://www.w3.org/1999/xlink">
<g id="graph0" class="graph" transform="scale(1 1) rotate(0) translate(4 146)">
<title>SkipList</title>
<polygon fill="white" stroke="transparent" points="-4,4 -4,-146 691,-146 691,4 -4,4"/>
<text text-anchor="middle" x="343.5" y="-7.8" font-family="Times,serif" font-size="14.00">SkipList.</text>
<g id="clust1" class="cluster">
<title>cluster0</title>
<polygon fill="none" stroke="black" stroke-dasharray="5,2" points="48,-31 48,-134 679,-134 679,-31 48,-31"/>
<text text-anchor="middle" x="363.5" y="-118.8" font-family="Times,serif" font-size="14.00">Skip list iteration 0</text>
</g>
<!-- HeadNode0 -->
<g id="node1" class="node">
<title>HeadNode0</title>
<polygon fill="none" stroke="black" points="56,-60 56,-102 177,-102 177,-60 56,-60"/>
<text text-anchor="middle" x="67.5" y="-88.4" font-family="Times,serif" font-size="12.00">1</text>
<polyline fill="none" stroke="black" points="79,-81 79,-102 "/>
<text text-anchor="middle" x="128" y="-88.4" font-family="Times,serif" font-size="12.00">0x7f8a68d86280</text>
<polyline fill="none" stroke="black" points="56,-81 177,-81 "/>
<text text-anchor="middle" x="67.5" y="-67.4" font-family="Times,serif" font-size="12.00">1</text>
<polyline fill="none" stroke="black" points="79,-60 79,-81 "/>
<text text-anchor="middle" x="128" y="-67.4" font-family="Times,serif" font-size="12.00">0x7f8a68d86280</text>
</g>
<!-- node00x7f8a68d86280 -->
<g id="node2" class="node">
<title>node00x7f8a68d86280</title>
<polygon fill="none" stroke="black" points="213,-39.5 213,-102.5 332,-102.5 332,-39.5 213,-39.5"/>
<text text-anchor="middle" x="224.5" y="-88.9" font-family="Times,serif" font-size="12.00">2</text>
<polyline fill="none" stroke="black" points="236,-81.5 236,-102.5 "/>
<text text-anchor="middle" x="284" y="-88.9" font-family="Times,serif" font-size="12.00">0x7f8a68d9dcc0</text>
<polyline fill="none" stroke="black" points="213,-81.5 332,-81.5 "/>
<text text-anchor="middle" x="224.5" y="-67.9" font-family="Times,serif" font-size="12.00">1</text>
<polyline fill="none" stroke="black" points="236,-60.5 236,-81.5 "/>
<text text-anchor="middle" x="284" y="-67.9" font-family="Times,serif" font-size="12.00">0x7f8a68d44ec0</text>
<polyline fill="none" stroke="black" points="213,-60.5 332,-60.5 "/>
<text text-anchor="middle" x="272.5" y="-46.9" font-family="Times,serif" font-size="12.00">21</text>
</g>
<!-- HeadNode0&#45;&gt;node00x7f8a68d86280 -->
<g id="edge1" class="edge">
<title>HeadNode0:f1&#45;&gt;node00x7f8a68d86280:w1</title>
<path fill="none" stroke="black" d="M177,-70C189,-70 194.25,-70.56 202.87,-70.84"/>
<polygon fill="black" stroke="black" points="202.95,-74.35 213,-71 203.06,-67.35 202.95,-74.35"/>
</g>
<!-- HeadNode0&#45;&gt;node00x7f8a68d86280 -->
<g id="edge2" class="edge">
<title>HeadNode0:f2&#45;&gt;node00x7f8a68d86280:w2</title>
<path fill="none" stroke="black" d="M177,-92C189,-92 194.25,-92 202.88,-92"/>
<polygon fill="black" stroke="black" points="203,-95.5 213,-92 203,-88.5 203,-95.5"/>
</g>
<!-- node00x7f8a68d44ec0 -->
<g id="node3" class="node">
<title>node00x7f8a68d44ec0</title>
<polygon fill="none" stroke="black" points="368,-40 368,-82 487,-82 487,-40 368,-40"/>
<text text-anchor="middle" x="379.5" y="-68.4" font-family="Times,serif" font-size="12.00">1</text>
<polyline fill="none" stroke="black" points="391,-61 391,-82 "/>
<text text-anchor="middle" x="439" y="-68.4" font-family="Times,serif" font-size="12.00">0x7f8a68d9dcc0</text>
<polyline fill="none" stroke="black" points="368,-61 487,-61 "/>
<text text-anchor="middle" x="427.5" y="-47.4" font-family="Times,serif" font-size="12.00">42</text>
</g>
<!-- node00x7f8a68d86280&#45;&gt;node00x7f8a68d44ec0 -->
<g id="edge3" class="edge">
<title>node00x7f8a68d86280:f1&#45;&gt;node00x7f8a68d44ec0:w1</title>
<path fill="none" stroke="black" d="M332,-71C344,-71 349.25,-71.56 357.87,-71.84"/>
<polygon fill="black" stroke="black" points="357.95,-75.35 368,-72 358.06,-68.35 357.95,-75.35"/>
</g>
<!-- node00x7f8a68d9dcc0 -->
<g id="node4" class="node">
<title>node00x7f8a68d9dcc0</title>
<polygon fill="none" stroke="black" points="523,-39.5 523,-102.5 581,-102.5 581,-39.5 523,-39.5"/>
<text text-anchor="middle" x="534.5" y="-88.9" font-family="Times,serif" font-size="12.00">1</text>
<polyline fill="none" stroke="black" points="546,-81.5 546,-102.5 "/>
<text text-anchor="middle" x="563.5" y="-88.9" font-family="Times,serif" font-size="12.00">0x0</text>
<polyline fill="none" stroke="black" points="523,-81.5 581,-81.5 "/>
<text text-anchor="middle" x="534.5" y="-67.9" font-family="Times,serif" font-size="12.00">1</text>
<polyline fill="none" stroke="black" points="546,-60.5 546,-81.5 "/>
<text text-anchor="middle" x="563.5" y="-67.9" font-family="Times,serif" font-size="12.00">0x0</text>
<polyline fill="none" stroke="black" points="523,-60.5 581,-60.5 "/>
<text text-anchor="middle" x="552" y="-46.9" font-family="Times,serif" font-size="12.00">84</text>
</g>
<!-- node00x7f8a68d86280&#45;&gt;node00x7f8a68d9dcc0 -->
<g id="edge4" class="edge">
<title>node00x7f8a68d86280:f2&#45;&gt;node00x7f8a68d9dcc0:w2</title>
<path fill="none" stroke="black" d="M332,-92C413.41,-92 436.26,-92 512.87,-92"/>
<polygon fill="black" stroke="black" points="513,-95.5 523,-92 513,-88.5 513,-95.5"/>
</g>
<!-- node00x7f8a68d44ec0&#45;&gt;node00x7f8a68d9dcc0 -->
<g id="edge5" class="edge">
<title>node00x7f8a68d44ec0:f1&#45;&gt;node00x7f8a68d9dcc0:w1</title>
<path fill="none" stroke="black" d="M487,-72C499,-72 504.25,-71.44 512.87,-71.16"/>
<polygon fill="black" stroke="black" points="513.06,-74.65 523,-71 512.95,-67.65 513.06,-74.65"/>
</g>
<!-- node00x0 -->
<g id="node5" class="node">
<title>node00x0</title>
<polygon fill="none" stroke="black" points="617,-60 617,-102 671,-102 671,-60 617,-60"/>
<text text-anchor="middle" x="644" y="-88.4" font-family="Times,serif" font-size="12.00">NULL</text>
<polyline fill="none" stroke="black" points="617,-81 671,-81 "/>
<text text-anchor="middle" x="644" y="-67.4" font-family="Times,serif" font-size="12.00">NULL</text>
</g>
<!-- node00x7f8a68d9dcc0&#45;&gt;node00x0 -->
<g id="edge6" class="edge">
<title>node00x7f8a68d9dcc0:f1&#45;&gt;node00x0:w1</title>
<path fill="none" stroke="black" d="M581,-71C593,-71 598.25,-70.44 606.87,-70.16"/>
<polygon fill="black" stroke="black" points="607.06,-73.65 617,-70 606.95,-66.65 607.06,-73.65"/>
</g>
<!-- node00x7f8a68d9dcc0&#45;&gt;node00x0 -->
<g id="edge7" class="edge">
<title>node00x7f8a68d9dcc0:f2&#45;&gt;node00x0:w2</title>
<path fill="none" stroke="black" d="M581,-92C593,-92 598.25,-92 606.88,-92"/>
<polygon fill="black" stroke="black" points="607,-95.5 617,-92 607,-88.5 607,-95.5"/>
</g>
<!-- node0 -->
<!-- node0&#45;&gt;HeadNode0 -->
</g>
</svg>
