<?xml version="1.0" encoding="UTF-8" standalone="no"?>
<!DOCTYPE svg PUBLIC "-//W3C//DTD SVG 1.1//EN"
 "http://www.w3.org/Graphics/SVG/1.1/DTD/svg11.dtd">
<!-- Generated by graphviz version 7.0.2 (20221119.0110)
 -->
<!-- Title: SkipList Pages: 1 -->
<svg width="796pt" height="1140pt"
 viewBox="0.00 0.00 796.00 1140.00" xmlns="http://www.w3.org/2000/svg" xmlns:xlink="http://www.w3.org/1999/xlink">
<g id="graph0" class="graph" transform="scale(1 1) rotate(0) translate(4 1136)">
<title>SkipList</title>
<polygon fill="white" stroke="none" points="-4,4 -4,-1136 792,-1136 792,4 -4,4"/>
<text text-anchor="middle" x="394" y="-7.8" font-family="Times,serif" font-size="14.00">SkipList.</text>
<g id="clust1" class="cluster">
<title>cluster0</title>
<polygon fill="none" stroke="black" stroke-dasharray="5,2" points="47.5,-1047 47.5,-1124 168.5,-1124 168.5,-1047 47.5,-1047"/>
<text text-anchor="middle" x="108" y="-1108.8" font-family="Times,serif" font-size="14.00">Skip list iteration 0</text>
</g>
<g id="clust2" class="cluster">
<title>cluster1</title>
<polygon fill="none" stroke="black" stroke-dasharray="5,2" points="47,-914 47,-1039 428,-1039 428,-914 47,-914"/>
<text text-anchor="middle" x="237.5" y="-1023.8" font-family="Times,serif" font-size="14.00">Skip list iteration 1</text>
</g>
<g id="clust3" class="cluster">
<title>cluster2</title>
<polygon fill="none" stroke="black" stroke-dasharray="5,2" points="47,-781 47,-906 570,-906 570,-781 47,-781"/>
<text text-anchor="middle" x="308.5" y="-890.8" font-family="Times,serif" font-size="14.00">Skip list iteration 2</text>
</g>
<g id="clust4" class="cluster">
<title>cluster3</title>
<polygon fill="none" stroke="black" stroke-dasharray="5,2" points="47,-648 47,-773 688,-773 688,-648 47,-648"/>
<text text-anchor="middle" x="367.5" y="-757.8" font-family="Times,serif" font-size="14.00">Skip list iteration 3</text>
</g>
<g id="clust5" class="cluster">
<title>cluster4</title>
<polygon fill="none" stroke="black" stroke-dasharray="5,2" points="47,-515 47,-640 780,-640 780,-515 47,-515"/>
<text text-anchor="middle" x="413.5" y="-624.8" font-family="Times,serif" font-size="14.00">Skip list iteration 4</text>
</g>
<g id="clust6" class="cluster">
<title>cluster5</title>
<polygon fill="none" stroke="black" stroke-dasharray="5,2" points="47,-382 47,-507 688,-507 688,-382 47,-382"/>
<text text-anchor="middle" x="367.5" y="-491.8" font-family="Times,serif" font-size="14.00">Skip list iteration 5</text>
</g>
<g id="clust7" class="cluster">
<title>cluster6</title>
<polygon fill="none" stroke="black" stroke-dasharray="5,2" points="47,-249 47,-374 570,-374 570,-249 47,-249"/>
<text text-anchor="middle" x="308.5" y="-358.8" font-family="Times,serif" font-size="14.00">Skip list iteration 6</text>
</g>
<g id="clust8" class="cluster">
<title>cluster7</title>
<polygon fill="none" stroke="black" stroke-dasharray="5,2" points="47,-116 47,-241 428,-241 428,-116 47,-116"/>
<text text-anchor="middle" x="237.5" y="-225.8" font-family="Times,serif" font-size="14.00">Skip list iteration 7</text>
</g>
<g id="clust9" class="cluster">
<title>cluster8</title>
<polygon fill="none" stroke="black" stroke-dasharray="5,2" points="47.5,-31 47.5,-108 168.5,-108 168.5,-31 47.5,-31"/>
<text text-anchor="middle" x="108" y="-92.8" font-family="Times,serif" font-size="14.00">Skip list iteration 8</text>
</g>
<!-- HeadNode0 -->
<g id="node1" class="node">
<title>HeadNode0</title>
<polygon fill="none" stroke="black" points="56.5,-1056 56.5,-1092 159.5,-1092 159.5,-1056 56.5,-1056"/>
<text text-anchor="middle" x="108" y="-1070.9" font-family="Times,serif" font-size="12.00">Empty HeadNode</text>
</g>
<!-- HeadNode1 -->
<g id="node2" class="node">
<title>HeadNode1</title>
<polygon fill="none" stroke="black" points="55,-943.5 55,-1006.5 161,-1006.5 161,-943.5 55,-943.5"/>
<text text-anchor="middle" x="66.5" y="-992.9" font-family="Times,serif" font-size="12.00">1</text>
<polyline fill="none" stroke="black" points="78,-985.5 78,-1006.5"/>
<text text-anchor="middle" x="119.5" y="-992.9" font-family="Times,serif" font-size="12.00">0x100600000</text>
<polyline fill="none" stroke="black" points="55,-985.5 161,-985.5"/>
<text text-anchor="middle" x="66.5" y="-971.9" font-family="Times,serif" font-size="12.00">1</text>
<polyline fill="none" stroke="black" points="78,-964.5 78,-985.5"/>
<text text-anchor="middle" x="119.5" y="-971.9" font-family="Times,serif" font-size="12.00">0x100600000</text>
<polyline fill="none" stroke="black" points="55,-964.5 161,-964.5"/>
<text text-anchor="middle" x="66.5" y="-950.9" font-family="Times,serif" font-size="12.00">1</text>
<polyline fill="none" stroke="black" points="78,-943.5 78,-964.5"/>
<text text-anchor="middle" x="119.5" y="-950.9" font-family="Times,serif" font-size="12.00">0x100600000</text>
</g>
<!-- node10x100600000 -->
<g id="node3" class="node">
<title>node10x100600000</title>
<polygon fill="none" stroke="black" points="222,-923 222,-1007 280,-1007 280,-923 222,-923"/>
<text text-anchor="middle" x="233.5" y="-993.4" font-family="Times,serif" font-size="12.00">1</text>
<polyline fill="none" stroke="black" points="245,-986 245,-1007"/>
<text text-anchor="middle" x="262.5" y="-993.4" font-family="Times,serif" font-size="12.00">0x0</text>
<polyline fill="none" stroke="black" points="222,-986 280,-986"/>
<text text-anchor="middle" x="233.5" y="-972.4" font-family="Times,serif" font-size="12.00">1</text>
<polyline fill="none" stroke="black" points="245,-965 245,-986"/>
<text text-anchor="middle" x="262.5" y="-972.4" font-family="Times,serif" font-size="12.00">0x0</text>
<polyline fill="none" stroke="black" points="222,-965 280,-965"/>
<text text-anchor="middle" x="233.5" y="-951.4" font-family="Times,serif" font-size="12.00">1</text>
<polyline fill="none" stroke="black" points="245,-944 245,-965"/>
<text text-anchor="middle" x="262.5" y="-951.4" font-family="Times,serif" font-size="12.00">0x0</text>
<polyline fill="none" stroke="black" points="222,-944 280,-944"/>
<text text-anchor="middle" x="251" y="-930.4" font-family="Times,serif" font-size="12.00">0</text>
</g>
<!-- HeadNode1&#45;&gt;node10x100600000 -->
<g id="edge1" class="edge">
<title>HeadNode1:f1&#45;&gt;node10x100600000:w1</title>
<path fill="none" stroke="black" d="M162,-954C183.92,-954 192.1,-954 209.51,-954"/>
<polygon fill="black" stroke="black" points="209.49,-957.5 219.49,-954 209.49,-950.5 209.49,-957.5"/>
</g>
<!-- HeadNode1&#45;&gt;node10x100600000 -->
<g id="edge2" class="edge">
<title>HeadNode1:f2&#45;&gt;node10x100600000:w2</title>
<path fill="none" stroke="black" d="M162,-975C183.92,-975 192.1,-975.7 209.51,-975.93"/>
<polygon fill="black" stroke="black" points="209.46,-979.43 219.49,-975.99 209.51,-972.43 209.46,-979.43"/>
</g>
<!-- HeadNode1&#45;&gt;node10x100600000 -->
<g id="edge3" class="edge">
<title>HeadNode1:f3&#45;&gt;node10x100600000:w3</title>
<path fill="none" stroke="black" d="M162,-996C183.92,-996 192.1,-996.7 209.51,-996.93"/>
<polygon fill="black" stroke="black" points="209.46,-1000.43 219.49,-996.99 209.51,-993.43 209.46,-1000.43"/>
</g>
<!-- node10x0 -->
<g id="node4" class="node">
<title>node10x0</title>
<polygon fill="none" stroke="black" points="366,-944.5 366,-1007.5 420,-1007.5 420,-944.5 366,-944.5"/>
<text text-anchor="middle" x="393" y="-993.9" font-family="Times,serif" font-size="12.00">NULL</text>
<polyline fill="none" stroke="black" points="366,-986.5 420,-986.5"/>
<text text-anchor="middle" x="393" y="-972.9" font-family="Times,serif" font-size="12.00">NULL</text>
<polyline fill="none" stroke="black" points="366,-965.5 420,-965.5"/>
<text text-anchor="middle" x="393" y="-951.9" font-family="Times,serif" font-size="12.00">NULL</text>
</g>
<!-- node10x100600000&#45;&gt;node10x0 -->
<g id="edge4" class="edge">
<title>node10x100600000:f1&#45;&gt;node10x0:w1</title>
<path fill="none" stroke="black" d="M281,-954C314.25,-954 325.29,-954.79 353.68,-954.97"/>
<polygon fill="black" stroke="black" points="353.48,-958.47 363.49,-955 353.5,-951.47 353.48,-958.47"/>
</g>
<!-- node10x100600000&#45;&gt;node10x0 -->
<g id="edge5" class="edge">
<title>node10x100600000:f2&#45;&gt;node10x0:w2</title>
<path fill="none" stroke="black" d="M281,-976C314.25,-976 325.29,-976 353.68,-976"/>
<polygon fill="black" stroke="black" points="353.49,-979.5 363.49,-976 353.49,-972.5 353.49,-979.5"/>
</g>
<!-- node10x100600000&#45;&gt;node10x0 -->
<g id="edge6" class="edge">
<title>node10x100600000:f3&#45;&gt;node10x0:w3</title>
<path fill="none" stroke="black" d="M281,-997C314.25,-997 325.29,-997 353.68,-997"/>
<polygon fill="black" stroke="black" points="353.49,-1000.5 363.49,-997 353.49,-993.5 353.49,-1000.5"/>
</g>
<!-- HeadNode2 -->
<g id="node5" class="node">
<title>HeadNode2</title>
<polygon fill="none" stroke="black" points="55,-810.5 55,-873.5 161,-873.5 161,-810.5 55,-810.5"/>
<text text-anchor="middle" x="66.5" y="-859.9" font-family="Times,serif" font-size="12.00">1</text>
<polyline fill="none" stroke="black" points="78,-852.5 78,-873.5"/>
<text text-anchor="middle" x="119.5" y="-859.9" font-family="Times,serif" font-size="12.00">0x100600000</text>
<polyline fill="none" stroke="black" points="55,-852.5 161,-852.5"/>
<text text-anchor="middle" x="66.5" y="-838.9" font-family="Times,serif" font-size="12.00">1</text>
<polyline fill="none" stroke="black" points="78,-831.5 78,-852.5"/>
<text text-anchor="middle" x="119.5" y="-838.9" font-family="Times,serif" font-size="12.00">0x100600000</text>
<polyline fill="none" stroke="black" points="55,-831.5 161,-831.5"/>
<text text-anchor="middle" x="66.5" y="-817.9" font-family="Times,serif" font-size="12.00">1</text>
<polyline fill="none" stroke="black" points="78,-810.5 78,-831.5"/>
<text text-anchor="middle" x="119.5" y="-817.9" font-family="Times,serif" font-size="12.00">0x100600000</text>
</g>
<!-- node20x100600000 -->
<g id="node6" class="node">
<title>node20x100600000</title>
<polygon fill="none" stroke="black" points="198,-790 198,-874 304,-874 304,-790 198,-790"/>
<text text-anchor="middle" x="221.5" y="-860.4" font-family="Times,serif" font-size="12.00">2</text>
<polyline fill="none" stroke="black" points="245,-853 245,-874"/>
<text text-anchor="middle" x="274.5" y="-860.4" font-family="Times,serif" font-size="12.00">0x0</text>
<polyline fill="none" stroke="black" points="198,-853 304,-853"/>
<text text-anchor="middle" x="221.5" y="-839.4" font-family="Times,serif" font-size="12.00">2</text>
<polyline fill="none" stroke="black" points="245,-832 245,-853"/>
<text text-anchor="middle" x="274.5" y="-839.4" font-family="Times,serif" font-size="12.00">0x0</text>
<polyline fill="none" stroke="black" points="198,-832 304,-832"/>
<text text-anchor="middle" x="209.5" y="-818.4" font-family="Times,serif" font-size="12.00">1</text>
<polyline fill="none" stroke="black" points="221,-811 221,-832"/>
<text text-anchor="middle" x="262.5" y="-818.4" font-family="Times,serif" font-size="12.00">0x1005078b0</text>
<polyline fill="none" stroke="black" points="198,-811 304,-811"/>
<text text-anchor="middle" x="251" y="-797.4" font-family="Times,serif" font-size="12.00">0</text>
</g>
<!-- HeadNode2&#45;&gt;node20x100600000 -->
<g id="edge7" class="edge">
<title>HeadNode2:f1&#45;&gt;node20x100600000:w1</title>
<path fill="none" stroke="black" d="M162,-821C173.38,-821 178.68,-821 186.55,-821"/>
<polygon fill="black" stroke="black" points="186.49,-824.5 196.49,-821 186.49,-817.5 186.49,-824.5"/>
</g>
<!-- HeadNode2&#45;&gt;node20x100600000 -->
<g id="edge8" class="edge">
<title>HeadNode2:f2&#45;&gt;node20x100600000:w2</title>
<path fill="none" stroke="black" d="M162,-842C173.38,-842 178.68,-842.51 186.55,-842.8"/>
<polygon fill="black" stroke="black" points="186.43,-846.3 196.49,-842.97 186.55,-839.3 186.43,-846.3"/>
</g>
<!-- HeadNode2&#45;&gt;node20x100600000 -->
<g id="edge9" class="edge">
<title>HeadNode2:f3&#45;&gt;node20x100600000:w3</title>
<path fill="none" stroke="black" d="M162,-863C173.38,-863 178.68,-863.51 186.55,-863.8"/>
<polygon fill="black" stroke="black" points="186.43,-867.3 196.49,-863.97 186.55,-860.3 186.43,-867.3"/>
</g>
<!-- node20x1005078b0 -->
<g id="node7" class="node">
<title>node20x1005078b0</title>
<polygon fill="none" stroke="black" points="364,-790 364,-832 422,-832 422,-790 364,-790"/>
<text text-anchor="middle" x="375.5" y="-818.4" font-family="Times,serif" font-size="12.00">1</text>
<polyline fill="none" stroke="black" points="387,-811 387,-832"/>
<text text-anchor="middle" x="404.5" y="-818.4" font-family="Times,serif" font-size="12.00">0x0</text>
<polyline fill="none" stroke="black" points="364,-811 422,-811"/>
<text text-anchor="middle" x="393" y="-797.4" font-family="Times,serif" font-size="12.00">1</text>
</g>
<!-- node20x100600000&#45;&gt;node20x1005078b0 -->
<g id="edge10" class="edge">
<title>node20x100600000:f1&#45;&gt;node20x1005078b0:w1</title>
<path fill="none" stroke="black" d="M304,-821C325.92,-821 334.1,-821.7 351.51,-821.93"/>
<polygon fill="black" stroke="black" points="351.46,-825.43 361.49,-821.99 351.51,-818.43 351.46,-825.43"/>
</g>
<!-- node20x0 -->
<g id="node8" class="node">
<title>node20x0</title>
<polygon fill="none" stroke="black" points="508,-811.5 508,-874.5 562,-874.5 562,-811.5 508,-811.5"/>
<text text-anchor="middle" x="535" y="-860.9" font-family="Times,serif" font-size="12.00">NULL</text>
<polyline fill="none" stroke="black" points="508,-853.5 562,-853.5"/>
<text text-anchor="middle" x="535" y="-839.9" font-family="Times,serif" font-size="12.00">NULL</text>
<polyline fill="none" stroke="black" points="508,-832.5 562,-832.5"/>
<text text-anchor="middle" x="535" y="-818.9" font-family="Times,serif" font-size="12.00">NULL</text>
</g>
<!-- node20x100600000&#45;&gt;node20x0 -->
<g id="edge11" class="edge">
<title>node20x100600000:f2&#45;&gt;node20x0:w2</title>
<path fill="none" stroke="black" d="M304,-843C390.35,-843 414.71,-843 495.73,-843"/>
<polygon fill="black" stroke="black" points="495.49,-846.5 505.49,-843 495.49,-839.5 495.49,-846.5"/>
</g>
<!-- node20x100600000&#45;&gt;node20x0 -->
<g id="edge12" class="edge">
<title>node20x100600000:f3&#45;&gt;node20x0:w3</title>
<path fill="none" stroke="black" d="M304,-864C390.35,-864 414.71,-864 495.73,-864"/>
<polygon fill="black" stroke="black" points="495.49,-867.5 505.49,-864 495.49,-860.5 495.49,-867.5"/>
</g>
<!-- node20x1005078b0&#45;&gt;node20x0 -->
<g id="edge13" class="edge">
<title>node20x1005078b0:f1&#45;&gt;node20x0:w1</title>
<path fill="none" stroke="black" d="M423,-822C456.25,-822 467.29,-822 495.68,-822"/>
<polygon fill="black" stroke="black" points="495.49,-825.5 505.49,-822 495.49,-818.5 495.49,-825.5"/>
</g>
<!-- HeadNode3 -->
<g id="node9" class="node">
<title>HeadNode3</title>
<polygon fill="none" stroke="black" points="55,-677.5 55,-740.5 161,-740.5 161,-677.5 55,-677.5"/>
<text text-anchor="middle" x="66.5" y="-726.9" font-family="Times,serif" font-size="12.00">1</text>
<polyline fill="none" stroke="black" points="78,-719.5 78,-740.5"/>
<text text-anchor="middle" x="119.5" y="-726.9" font-family="Times,serif" font-size="12.00">0x100600000</text>
<polyline fill="none" stroke="black" points="55,-719.5 161,-719.5"/>
<text text-anchor="middle" x="66.5" y="-705.9" font-family="Times,serif" font-size="12.00">1</text>
<polyline fill="none" stroke="black" points="78,-698.5 78,-719.5"/>
<text text-anchor="middle" x="119.5" y="-705.9" font-family="Times,serif" font-size="12.00">0x100600000</text>
<polyline fill="none" stroke="black" points="55,-698.5 161,-698.5"/>
<text text-anchor="middle" x="66.5" y="-684.9" font-family="Times,serif" font-size="12.00">1</text>
<polyline fill="none" stroke="black" points="78,-677.5 78,-698.5"/>
<text text-anchor="middle" x="119.5" y="-684.9" font-family="Times,serif" font-size="12.00">0x100600000</text>
</g>
<!-- node30x100600000 -->
<g id="node10" class="node">
<title>node30x100600000</title>
<polygon fill="none" stroke="black" points="198,-657 198,-741 304,-741 304,-657 198,-657"/>
<text text-anchor="middle" x="221.5" y="-727.4" font-family="Times,serif" font-size="12.00">3</text>
<polyline fill="none" stroke="black" points="245,-720 245,-741"/>
<text text-anchor="middle" x="274.5" y="-727.4" font-family="Times,serif" font-size="12.00">0x0</text>
<polyline fill="none" stroke="black" points="198,-720 304,-720"/>
<text text-anchor="middle" x="221.5" y="-706.4" font-family="Times,serif" font-size="12.00">3</text>
<polyline fill="none" stroke="black" points="245,-699 245,-720"/>
<text text-anchor="middle" x="274.5" y="-706.4" font-family="Times,serif" font-size="12.00">0x0</text>
<polyline fill="none" stroke="black" points="198,-699 304,-699"/>
<text text-anchor="middle" x="209.5" y="-685.4" font-family="Times,serif" font-size="12.00">1</text>
<polyline fill="none" stroke="black" points="221,-678 221,-699"/>
<text text-anchor="middle" x="262.5" y="-685.4" font-family="Times,serif" font-size="12.00">0x1005078b0</text>
<polyline fill="none" stroke="black" points="198,-678 304,-678"/>
<text text-anchor="middle" x="251" y="-664.4" font-family="Times,serif" font-size="12.00">0</text>
</g>
<!-- HeadNode3&#45;&gt;node30x100600000 -->
<g id="edge14" class="edge">
<title>HeadNode3:f1&#45;&gt;node30x100600000:w1</title>
<path fill="none" stroke="black" d="M162,-688C173.38,-688 178.68,-688 186.55,-688"/>
<polygon fill="black" stroke="black" points="186.49,-691.5 196.49,-688 186.49,-684.5 186.49,-691.5"/>
</g>
<!-- HeadNode3&#45;&gt;node30x100600000 -->
<g id="edge15" class="edge">
<title>HeadNode3:f2&#45;&gt;node30x100600000:w2</title>
<path fill="none" stroke="black" d="M162,-709C173.38,-709 178.68,-709.51 186.55,-709.8"/>
<polygon fill="black" stroke="black" points="186.43,-713.3 196.49,-709.97 186.55,-706.3 186.43,-713.3"/>
</g>
<!-- HeadNode3&#45;&gt;node30x100600000 -->
<g id="edge16" class="edge">
<title>HeadNode3:f3&#45;&gt;node30x100600000:w3</title>
<path fill="none" stroke="black" d="M162,-730C173.38,-730 178.68,-730.51 186.55,-730.8"/>
<polygon fill="black" stroke="black" points="186.43,-734.3 196.49,-730.97 186.55,-727.3 186.43,-734.3"/>
</g>
<!-- node30x1005078b0 -->
<g id="node11" class="node">
<title>node30x1005078b0</title>
<polygon fill="none" stroke="black" points="340,-657 340,-699 446,-699 446,-657 340,-657"/>
<text text-anchor="middle" x="351.5" y="-685.4" font-family="Times,serif" font-size="12.00">1</text>
<polyline fill="none" stroke="black" points="363,-678 363,-699"/>
<text text-anchor="middle" x="404.5" y="-685.4" font-family="Times,serif" font-size="12.00">0x100507920</text>
<polyline fill="none" stroke="black" points="340,-678 446,-678"/>
<text text-anchor="middle" x="393" y="-664.4" font-family="Times,serif" font-size="12.00">1</text>
</g>
<!-- node30x100600000&#45;&gt;node30x1005078b0 -->
<g id="edge17" class="edge">
<title>node30x100600000:f1&#45;&gt;node30x1005078b0:w1</title>
<path fill="none" stroke="black" d="M304,-688C315.38,-688 320.68,-688.51 328.55,-688.8"/>
<polygon fill="black" stroke="black" points="328.43,-692.3 338.49,-688.97 328.55,-685.3 328.43,-692.3"/>
</g>
<!-- node30x0 -->
<g id="node12" class="node">
<title>node30x0</title>
<polygon fill="none" stroke="black" points="626,-678.5 626,-741.5 680,-741.5 680,-678.5 626,-678.5"/>
<text text-anchor="middle" x="653" y="-727.9" font-family="Times,serif" font-size="12.00">NULL</text>
<polyline fill="none" stroke="black" points="626,-720.5 680,-720.5"/>
<text text-anchor="middle" x="653" y="-706.9" font-family="Times,serif" font-size="12.00">NULL</text>
<polyline fill="none" stroke="black" points="626,-699.5 680,-699.5"/>
<text text-anchor="middle" x="653" y="-685.9" font-family="Times,serif" font-size="12.00">NULL</text>
</g>
<!-- node30x100600000&#45;&gt;node30x0 -->
<g id="edge18" class="edge">
<title>node30x100600000:f2&#45;&gt;node30x0:w2</title>
<path fill="none" stroke="black" d="M304,-710C442.77,-710 480.3,-710 613.53,-710"/>
<polygon fill="black" stroke="black" points="613.49,-713.5 623.49,-710 613.49,-706.5 613.49,-713.5"/>
</g>
<!-- node30x100600000&#45;&gt;node30x0 -->
<g id="edge19" class="edge">
<title>node30x100600000:f3&#45;&gt;node30x0:w3</title>
<path fill="none" stroke="black" d="M304,-731C442.77,-731 480.3,-731 613.53,-731"/>
<polygon fill="black" stroke="black" points="613.49,-734.5 623.49,-731 613.49,-727.5 613.49,-734.5"/>
</g>
<!-- node30x100507920 -->
<g id="node13" class="node">
<title>node30x100507920</title>
<polygon fill="none" stroke="black" points="506,-657 506,-699 564,-699 564,-657 506,-657"/>
<text text-anchor="middle" x="517.5" y="-685.4" font-family="Times,serif" font-size="12.00">1</text>
<polyline fill="none" stroke="black" points="529,-678 529,-699"/>
<text text-anchor="middle" x="546.5" y="-685.4" font-family="Times,serif" font-size="12.00">0x0</text>
<polyline fill="none" stroke="black" points="506,-678 564,-678"/>
<text text-anchor="middle" x="535" y="-664.4" font-family="Times,serif" font-size="12.00">2</text>
</g>
<!-- node30x1005078b0&#45;&gt;node30x100507920 -->
<g id="edge20" class="edge">
<title>node30x1005078b0:f1&#45;&gt;node30x100507920:w1</title>
<path fill="none" stroke="black" d="M446,-689C467.92,-689 476.1,-689 493.51,-689"/>
<polygon fill="black" stroke="black" points="493.49,-692.5 503.49,-689 493.49,-685.5 493.49,-692.5"/>
</g>
<!-- node30x100507920&#45;&gt;node30x0 -->
<g id="edge21" class="edge">
<title>node30x100507920:f1&#45;&gt;node30x0:w1</title>
<path fill="none" stroke="black" d="M565,-689C587.5,-689 595.76,-689 613.81,-689"/>
<polygon fill="black" stroke="black" points="613.49,-692.5 623.49,-689 613.49,-685.5 613.49,-692.5"/>
</g>
<!-- HeadNode4 -->
<g id="node14" class="node">
<title>HeadNode4</title>
<polygon fill="none" stroke="black" points="55,-545.5 55,-608.5 161,-608.5 161,-545.5 55,-545.5"/>
<text text-anchor="middle" x="66.5" y="-594.9" font-family="Times,serif" font-size="12.00">1</text>
<polyline fill="none" stroke="black" points="78,-587.5 78,-608.5"/>
<text text-anchor="middle" x="119.5" y="-594.9" font-family="Times,serif" font-size="12.00">0x100600000</text>
<polyline fill="none" stroke="black" points="55,-587.5 161,-587.5"/>
<text text-anchor="middle" x="66.5" y="-573.9" font-family="Times,serif" font-size="12.00">1</text>
<polyline fill="none" stroke="black" points="78,-566.5 78,-587.5"/>
<text text-anchor="middle" x="119.5" y="-573.9" font-family="Times,serif" font-size="12.00">0x100600000</text>
<polyline fill="none" stroke="black" points="55,-566.5 161,-566.5"/>
<text text-anchor="middle" x="66.5" y="-552.9" font-family="Times,serif" font-size="12.00">1</text>
<polyline fill="none" stroke="black" points="78,-545.5 78,-566.5"/>
<text text-anchor="middle" x="119.5" y="-552.9" font-family="Times,serif" font-size="12.00">0x100600000</text>
</g>
<!-- node40x100600000 -->
<g id="node15" class="node">
<title>node40x100600000</title>
<polygon fill="none" stroke="black" points="198,-524 198,-608 304,-608 304,-524 198,-524"/>
<text text-anchor="middle" x="209.5" y="-594.4" font-family="Times,serif" font-size="12.00">3</text>
<polyline fill="none" stroke="black" points="221,-587 221,-608"/>
<text text-anchor="middle" x="262.5" y="-594.4" font-family="Times,serif" font-size="12.00">0x1005079b0</text>
<polyline fill="none" stroke="black" points="198,-587 304,-587"/>
<text text-anchor="middle" x="209.5" y="-573.4" font-family="Times,serif" font-size="12.00">3</text>
<polyline fill="none" stroke="black" points="221,-566 221,-587"/>
<text text-anchor="middle" x="262.5" y="-573.4" font-family="Times,serif" font-size="12.00">0x1005079b0</text>
<polyline fill="none" stroke="black" points="198,-566 304,-566"/>
<text text-anchor="middle" x="209.5" y="-552.4" font-family="Times,serif" font-size="12.00">1</text>
<polyline fill="none" stroke="black" points="221,-545 221,-566"/>
<text text-anchor="middle" x="262.5" y="-552.4" font-family="Times,serif" font-size="12.00">0x1005078b0</text>
<polyline fill="none" stroke="black" points="198,-545 304,-545"/>
<text text-anchor="middle" x="251" y="-531.4" font-family="Times,serif" font-size="12.00">0</text>
</g>
<!-- HeadNode4&#45;&gt;node40x100600000 -->
<g id="edge22" class="edge">
<title>HeadNode4:f1&#45;&gt;node40x100600000:w1</title>
<path fill="none" stroke="black" d="M162,-556C173.38,-556 178.68,-555.49 186.55,-555.2"/>
<polygon fill="black" stroke="black" points="186.55,-558.7 196.49,-555.03 186.43,-551.7 186.55,-558.7"/>
</g>
<!-- HeadNode4&#45;&gt;node40x100600000 -->
<g id="edge23" class="edge">
<title>HeadNode4:f2&#45;&gt;node40x100600000:w2</title>
<path fill="none" stroke="black" d="M162,-577C173.38,-577 178.68,-577 186.55,-577"/>
<polygon fill="black" stroke="black" points="186.49,-580.5 196.49,-577 186.49,-573.5 186.49,-580.5"/>
</g>
<!-- HeadNode4&#45;&gt;node40x100600000 -->
<g id="edge24" class="edge">
<title>HeadNode4:f3&#45;&gt;node40x100600000:w3</title>
<path fill="none" stroke="black" d="M162,-598C173.38,-598 178.68,-598 186.55,-598"/>
<polygon fill="black" stroke="black" points="186.49,-601.5 196.49,-598 186.49,-594.5 186.49,-601.5"/>
</g>
<!-- node40x1005078b0 -->
<g id="node16" class="node">
<title>node40x1005078b0</title>
<polygon fill="none" stroke="black" points="340,-524 340,-566 446,-566 446,-524 340,-524"/>
<text text-anchor="middle" x="351.5" y="-552.4" font-family="Times,serif" font-size="12.00">1</text>
<polyline fill="none" stroke="black" points="363,-545 363,-566"/>
<text text-anchor="middle" x="404.5" y="-552.4" font-family="Times,serif" font-size="12.00">0x100507920</text>
<polyline fill="none" stroke="black" points="340,-545 446,-545"/>
<text text-anchor="middle" x="393" y="-531.4" font-family="Times,serif" font-size="12.00">1</text>
</g>
<!-- node40x100600000&#45;&gt;node40x1005078b0 -->
<g id="edge25" class="edge">
<title>node40x100600000:f1&#45;&gt;node40x1005078b0:w1</title>
<path fill="none" stroke="black" d="M304,-555C315.38,-555 320.68,-555.51 328.55,-555.8"/>
<polygon fill="black" stroke="black" points="328.43,-559.3 338.49,-555.97 328.55,-552.3 328.43,-559.3"/>
</g>
<!-- node40x1005079b0 -->
<g id="node17" class="node">
<title>node40x1005079b0</title>
<polygon fill="none" stroke="black" points="624,-524 624,-608 682,-608 682,-524 624,-524"/>
<text text-anchor="middle" x="635.5" y="-594.4" font-family="Times,serif" font-size="12.00">1</text>
<polyline fill="none" stroke="black" points="647,-587 647,-608"/>
<text text-anchor="middle" x="664.5" y="-594.4" font-family="Times,serif" font-size="12.00">0x0</text>
<polyline fill="none" stroke="black" points="624,-587 682,-587"/>
<text text-anchor="middle" x="635.5" y="-573.4" font-family="Times,serif" font-size="12.00">1</text>
<polyline fill="none" stroke="black" points="647,-566 647,-587"/>
<text text-anchor="middle" x="664.5" y="-573.4" font-family="Times,serif" font-size="12.00">0x0</text>
<polyline fill="none" stroke="black" points="624,-566 682,-566"/>
<text text-anchor="middle" x="635.5" y="-552.4" font-family="Times,serif" font-size="12.00">1</text>
<polyline fill="none" stroke="black" points="647,-545 647,-566"/>
<text text-anchor="middle" x="664.5" y="-552.4" font-family="Times,serif" font-size="12.00">0x0</text>
<polyline fill="none" stroke="black" points="624,-545 682,-545"/>
<text text-anchor="middle" x="653" y="-531.4" font-family="Times,serif" font-size="12.00">3</text>
</g>
<!-- node40x100600000&#45;&gt;node40x1005079b0 -->
<g id="edge26" class="edge">
<title>node40x100600000:f2&#45;&gt;node40x1005079b0:w2</title>
<path fill="none" stroke="black" d="M304,-577C442.33,-577 479.75,-577 612.57,-577"/>
<polygon fill="black" stroke="black" points="612.49,-580.5 622.49,-577 612.49,-573.5 612.49,-580.5"/>
</g>
<!-- node40x100600000&#45;&gt;node40x1005079b0 -->
<g id="edge27" class="edge">
<title>node40x100600000:f3&#45;&gt;node40x1005079b0:w3</title>
<path fill="none" stroke="black" d="M304,-598C442.33,-598 479.75,-598 612.57,-598"/>
<polygon fill="black" stroke="black" points="612.49,-601.5 622.49,-598 612.49,-594.5 612.49,-601.5"/>
</g>
<!-- node40x100507920 -->
<g id="node18" class="node">
<title>node40x100507920</title>
<polygon fill="none" stroke="black" points="482,-524 482,-566 588,-566 588,-524 482,-524"/>
<text text-anchor="middle" x="493.5" y="-552.4" font-family="Times,serif" font-size="12.00">1</text>
<polyline fill="none" stroke="black" points="505,-545 505,-566"/>
<text text-anchor="middle" x="546.5" y="-552.4" font-family="Times,serif" font-size="12.00">0x1005079b0</text>
<polyline fill="none" stroke="black" points="482,-545 588,-545"/>
<text text-anchor="middle" x="535" y="-531.4" font-family="Times,serif" font-size="12.00">2</text>
</g>
<!-- node40x1005078b0&#45;&gt;node40x100507920 -->
<g id="edge28" class="edge">
<title>node40x1005078b0:f1&#45;&gt;node40x100507920:w1</title>
<path fill="none" stroke="black" d="M446,-556C457.38,-556 462.68,-556 470.55,-556"/>
<polygon fill="black" stroke="black" points="470.49,-559.5 480.49,-556 470.49,-552.5 470.49,-559.5"/>
</g>
<!-- node40x0 -->
<g id="node19" class="node">
<title>node40x0</title>
<polygon fill="none" stroke="black" points="718,-545.5 718,-608.5 772,-608.5 772,-545.5 718,-545.5"/>
<text text-anchor="middle" x="745" y="-594.9" font-family="Times,serif" font-size="12.00">NULL</text>
<polyline fill="none" stroke="black" points="718,-587.5 772,-587.5"/>
<text text-anchor="middle" x="745" y="-573.9" font-family="Times,serif" font-size="12.00">NULL</text>
<polyline fill="none" stroke="black" points="718,-566.5 772,-566.5"/>
<text text-anchor="middle" x="745" y="-552.9" font-family="Times,serif" font-size="12.00">NULL</text>
</g>
<!-- node40x1005079b0&#45;&gt;node40x0 -->
<g id="edge30" class="edge">
<title>node40x1005079b0:f1&#45;&gt;node40x0:w1</title>
<path fill="none" stroke="black" d="M683,-555C693.94,-555 699.11,-555.49 706.62,-555.79"/>
<polygon fill="black" stroke="black" points="706.42,-559.28 716.49,-555.97 706.55,-552.29 706.42,-559.28"/>
</g>
<!-- node40x1005079b0&#45;&gt;node40x0 -->
<g id="edge31" class="edge">
<title>node40x1005079b0:f2&#45;&gt;node40x0:w2</title>
<path fill="none" stroke="black" d="M683,-577C693.94,-577 699.11,-577 706.62,-577"/>
<polygon fill="black" stroke="black" points="706.49,-580.5 716.49,-577 706.49,-573.5 706.49,-580.5"/>
</g>
<!-- node40x1005079b0&#45;&gt;node40x0 -->
<g id="edge32" class="edge">
<title>node40x1005079b0:f3&#45;&gt;node40x0:w3</title>
<path fill="none" stroke="black" d="M683,-598C693.94,-598 699.11,-598 706.62,-598"/>
<polygon fill="black" stroke="black" points="706.49,-601.5 716.49,-598 706.49,-594.5 706.49,-601.5"/>
</g>
<!-- node40x100507920&#45;&gt;node40x1005079b0 -->
<g id="edge29" class="edge">
<title>node40x100507920:f1&#45;&gt;node40x1005079b0:w1</title>
<path fill="none" stroke="black" d="M588,-556C599.38,-556 604.68,-555.49 612.55,-555.2"/>
<polygon fill="black" stroke="black" points="612.55,-558.7 622.49,-555.03 612.43,-551.7 612.55,-558.7"/>
</g>
<!-- HeadNode5 -->
<g id="node20" class="node">
<title>HeadNode5</title>
<polygon fill="none" stroke="black" points="55,-412.5 55,-475.5 161,-475.5 161,-412.5 55,-412.5"/>
<text text-anchor="middle" x="66.5" y="-461.9" font-family="Times,serif" font-size="12.00">3</text>
<polyline fill="none" stroke="black" points="78,-454.5 78,-475.5"/>
<text text-anchor="middle" x="119.5" y="-461.9" font-family="Times,serif" font-size="12.00">0x1005079b0</text>
<polyline fill="none" stroke="black" points="55,-454.5 161,-454.5"/>
<text text-anchor="middle" x="66.5" y="-440.9" font-family="Times,serif" font-size="12.00">3</text>
<polyline fill="none" stroke="black" points="78,-433.5 78,-454.5"/>
<text text-anchor="middle" x="119.5" y="-440.9" font-family="Times,serif" font-size="12.00">0x1005079b0</text>
<polyline fill="none" stroke="black" points="55,-433.5 161,-433.5"/>
<text text-anchor="middle" x="66.5" y="-419.9" font-family="Times,serif" font-size="12.00">1</text>
<polyline fill="none" stroke="black" points="78,-412.5 78,-433.5"/>
<text text-anchor="middle" x="119.5" y="-419.9" font-family="Times,serif" font-size="12.00">0x1005078b0</text>
</g>
<!-- node50x1005078b0 -->
<g id="node21" class="node">
<title>node50x1005078b0</title>
<polygon fill="none" stroke="black" points="198,-391 198,-433 304,-433 304,-391 198,-391"/>
<text text-anchor="middle" x="209.5" y="-419.4" font-family="Times,serif" font-size="12.00">1</text>
<polyline fill="none" stroke="black" points="221,-412 221,-433"/>
<text text-anchor="middle" x="262.5" y="-419.4" font-family="Times,serif" font-size="12.00">0x100507920</text>
<polyline fill="none" stroke="black" points="198,-412 304,-412"/>
<text text-anchor="middle" x="251" y="-398.4" font-family="Times,serif" font-size="12.00">1</text>
</g>
<!-- HeadNode5&#45;&gt;node50x1005078b0 -->
<g id="edge33" class="edge">
<title>HeadNode5:f1&#45;&gt;node50x1005078b0:w1</title>
<path fill="none" stroke="black" d="M162,-423C173.38,-423 178.68,-423 186.55,-423"/>
<polygon fill="black" stroke="black" points="186.49,-426.5 196.49,-423 186.49,-419.5 186.49,-426.5"/>
</g>
<!-- node50x1005079b0 -->
<g id="node22" class="node">
<title>node50x1005079b0</title>
<polygon fill="none" stroke="black" points="506,-391 506,-475 564,-475 564,-391 506,-391"/>
<text text-anchor="middle" x="517.5" y="-461.4" font-family="Times,serif" font-size="12.00">1</text>
<polyline fill="none" stroke="black" points="529,-454 529,-475"/>
<text text-anchor="middle" x="546.5" y="-461.4" font-family="Times,serif" font-size="12.00">0x0</text>
<polyline fill="none" stroke="black" points="506,-454 564,-454"/>
<text text-anchor="middle" x="517.5" y="-440.4" font-family="Times,serif" font-size="12.00">1</text>
<polyline fill="none" stroke="black" points="529,-433 529,-454"/>
<text text-anchor="middle" x="546.5" y="-440.4" font-family="Times,serif" font-size="12.00">0x0</text>
<polyline fill="none" stroke="black" points="506,-433 564,-433"/>
<text text-anchor="middle" x="517.5" y="-419.4" font-family="Times,serif" font-size="12.00">1</text>
<polyline fill="none" stroke="black" points="529,-412 529,-433"/>
<text text-anchor="middle" x="546.5" y="-419.4" font-family="Times,serif" font-size="12.00">0x0</text>
<polyline fill="none" stroke="black" points="506,-412 564,-412"/>
<text text-anchor="middle" x="535" y="-398.4" font-family="Times,serif" font-size="12.00">3</text>
</g>
<!-- HeadNode5&#45;&gt;node50x1005079b0 -->
<g id="edge34" class="edge">
<title>HeadNode5:f2&#45;&gt;node50x1005079b0:w2</title>
<path fill="none" stroke="black" d="M162,-444C310.57,-444 350.55,-444 493.61,-444"/>
<polygon fill="black" stroke="black" points="493.49,-447.5 503.49,-444 493.49,-440.5 493.49,-447.5"/>
</g>
<!-- HeadNode5&#45;&gt;node50x1005079b0 -->
<g id="edge35" class="edge">
<title>HeadNode5:f3&#45;&gt;node50x1005079b0:w3</title>
<path fill="none" stroke="black" d="M162,-465C310.57,-465 350.55,-465 493.61,-465"/>
<polygon fill="black" stroke="black" points="493.49,-468.5 503.49,-465 493.49,-461.5 493.49,-468.5"/>
</g>
<!-- node50x100507920 -->
<g id="node23" class="node">
<title>node50x100507920</title>
<polygon fill="none" stroke="black" points="340,-391 340,-433 446,-433 446,-391 340,-391"/>
<text text-anchor="middle" x="351.5" y="-419.4" font-family="Times,serif" font-size="12.00">1</text>
<polyline fill="none" stroke="black" points="363,-412 363,-433"/>
<text text-anchor="middle" x="404.5" y="-419.4" font-family="Times,serif" font-size="12.00">0x1005079b0</text>
<polyline fill="none" stroke="black" points="340,-412 446,-412"/>
<text text-anchor="middle" x="393" y="-398.4" font-family="Times,serif" font-size="12.00">2</text>
</g>
<!-- node50x1005078b0&#45;&gt;node50x100507920 -->
<g id="edge36" class="edge">
<title>node50x1005078b0:f1&#45;&gt;node50x100507920:w1</title>
<path fill="none" stroke="black" d="M304,-423C315.38,-423 320.68,-423 328.55,-423"/>
<polygon fill="black" stroke="black" points="328.49,-426.5 338.49,-423 328.49,-419.5 328.49,-426.5"/>
</g>
<!-- node50x0 -->
<g id="node24" class="node">
<title>node50x0</title>
<polygon fill="none" stroke="black" points="626,-412.5 626,-475.5 680,-475.5 680,-412.5 626,-412.5"/>
<text text-anchor="middle" x="653" y="-461.9" font-family="Times,serif" font-size="12.00">NULL</text>
<polyline fill="none" stroke="black" points="626,-454.5 680,-454.5"/>
<text text-anchor="middle" x="653" y="-440.9" font-family="Times,serif" font-size="12.00">NULL</text>
<polyline fill="none" stroke="black" points="626,-433.5 680,-433.5"/>
<text text-anchor="middle" x="653" y="-419.9" font-family="Times,serif" font-size="12.00">NULL</text>
</g>
<!-- node50x1005079b0&#45;&gt;node50x0 -->
<g id="edge38" class="edge">
<title>node50x1005079b0:f1&#45;&gt;node50x0:w1</title>
<path fill="none" stroke="black" d="M565,-422C587.5,-422 595.76,-422.71 613.81,-422.93"/>
<polygon fill="black" stroke="black" points="613.47,-426.43 623.49,-422.99 613.51,-419.43 613.47,-426.43"/>
</g>
<!-- node50x1005079b0&#45;&gt;node50x0 -->
<g id="edge39" class="edge">
<title>node50x1005079b0:f2&#45;&gt;node50x0:w2</title>
<path fill="none" stroke="black" d="M565,-444C587.5,-444 595.76,-444 613.81,-444"/>
<polygon fill="black" stroke="black" points="613.49,-447.5 623.49,-444 613.49,-440.5 613.49,-447.5"/>
</g>
<!-- node50x1005079b0&#45;&gt;node50x0 -->
<g id="edge40" class="edge">
<title>node50x1005079b0:f3&#45;&gt;node50x0:w3</title>
<path fill="none" stroke="black" d="M565,-465C587.5,-465 595.76,-465 613.81,-465"/>
<polygon fill="black" stroke="black" points="613.49,-468.5 623.49,-465 613.49,-461.5 613.49,-468.5"/>
</g>
<!-- node50x100507920&#45;&gt;node50x1005079b0 -->
<g id="edge37" class="edge">
<title>node50x100507920:f1&#45;&gt;node50x1005079b0:w1</title>
<path fill="none" stroke="black" d="M446,-423C467.92,-423 476.1,-422.3 493.51,-422.07"/>
<polygon fill="black" stroke="black" points="493.51,-425.57 503.49,-422.01 493.46,-418.57 493.51,-425.57"/>
</g>
<!-- HeadNode6 -->
<g id="node25" class="node">
<title>HeadNode6</title>
<polygon fill="none" stroke="black" points="55,-279.5 55,-342.5 161,-342.5 161,-279.5 55,-279.5"/>
<text text-anchor="middle" x="66.5" y="-328.9" font-family="Times,serif" font-size="12.00">2</text>
<polyline fill="none" stroke="black" points="78,-321.5 78,-342.5"/>
<text text-anchor="middle" x="119.5" y="-328.9" font-family="Times,serif" font-size="12.00">0x1005079b0</text>
<polyline fill="none" stroke="black" points="55,-321.5 161,-321.5"/>
<text text-anchor="middle" x="66.5" y="-307.9" font-family="Times,serif" font-size="12.00">2</text>
<polyline fill="none" stroke="black" points="78,-300.5 78,-321.5"/>
<text text-anchor="middle" x="119.5" y="-307.9" font-family="Times,serif" font-size="12.00">0x1005079b0</text>
<polyline fill="none" stroke="black" points="55,-300.5 161,-300.5"/>
<text text-anchor="middle" x="66.5" y="-286.9" font-family="Times,serif" font-size="12.00">1</text>
<polyline fill="none" stroke="black" points="78,-279.5 78,-300.5"/>
<text text-anchor="middle" x="119.5" y="-286.9" font-family="Times,serif" font-size="12.00">0x100507920</text>
</g>
<!-- node60x100507920 -->
<g id="node26" class="node">
<title>node60x100507920</title>
<polygon fill="none" stroke="black" points="198,-258 198,-300 304,-300 304,-258 198,-258"/>
<text text-anchor="middle" x="209.5" y="-286.4" font-family="Times,serif" font-size="12.00">1</text>
<polyline fill="none" stroke="black" points="221,-279 221,-300"/>
<text text-anchor="middle" x="262.5" y="-286.4" font-family="Times,serif" font-size="12.00">0x1005079b0</text>
<polyline fill="none" stroke="black" points="198,-279 304,-279"/>
<text text-anchor="middle" x="251" y="-265.4" font-family="Times,serif" font-size="12.00">2</text>
</g>
<!-- HeadNode6&#45;&gt;node60x100507920 -->
<g id="edge41" class="edge">
<title>HeadNode6:f1&#45;&gt;node60x100507920:w1</title>
<path fill="none" stroke="black" d="M162,-290C173.38,-290 178.68,-290 186.55,-290"/>
<polygon fill="black" stroke="black" points="186.49,-293.5 196.49,-290 186.49,-286.5 186.49,-293.5"/>
</g>
<!-- node60x1005079b0 -->
<g id="node27" class="node">
<title>node60x1005079b0</title>
<polygon fill="none" stroke="black" points="364,-258 364,-342 422,-342 422,-258 364,-258"/>
<text text-anchor="middle" x="375.5" y="-328.4" font-family="Times,serif" font-size="12.00">1</text>
<polyline fill="none" stroke="black" points="387,-321 387,-342"/>
<text text-anchor="middle" x="404.5" y="-328.4" font-family="Times,serif" font-size="12.00">0x0</text>
<polyline fill="none" stroke="black" points="364,-321 422,-321"/>
<text text-anchor="middle" x="375.5" y="-307.4" font-family="Times,serif" font-size="12.00">1</text>
<polyline fill="none" stroke="black" points="387,-300 387,-321"/>
<text text-anchor="middle" x="404.5" y="-307.4" font-family="Times,serif" font-size="12.00">0x0</text>
<polyline fill="none" stroke="black" points="364,-300 422,-300"/>
<text text-anchor="middle" x="375.5" y="-286.4" font-family="Times,serif" font-size="12.00">1</text>
<polyline fill="none" stroke="black" points="387,-279 387,-300"/>
<text text-anchor="middle" x="404.5" y="-286.4" font-family="Times,serif" font-size="12.00">0x0</text>
<polyline fill="none" stroke="black" points="364,-279 422,-279"/>
<text text-anchor="middle" x="393" y="-265.4" font-family="Times,serif" font-size="12.00">3</text>
</g>
<!-- HeadNode6&#45;&gt;node60x1005079b0 -->
<g id="edge42" class="edge">
<title>HeadNode6:f2&#45;&gt;node60x1005079b0:w2</title>
<path fill="none" stroke="black" d="M162,-311C247.49,-311 271.62,-311 351.84,-311"/>
<polygon fill="black" stroke="black" points="351.49,-314.5 361.49,-311 351.49,-307.5 351.49,-314.5"/>
</g>
<!-- HeadNode6&#45;&gt;node60x1005079b0 -->
<g id="edge43" class="edge">
<title>HeadNode6:f3&#45;&gt;node60x1005079b0:w3</title>
<path fill="none" stroke="black" d="M162,-332C247.49,-332 271.62,-332 351.84,-332"/>
<polygon fill="black" stroke="black" points="351.49,-335.5 361.49,-332 351.49,-328.5 351.49,-335.5"/>
</g>
<!-- node60x100507920&#45;&gt;node60x1005079b0 -->
<g id="edge44" class="edge">
<title>node60x100507920:f1&#45;&gt;node60x1005079b0:w1</title>
<path fill="none" stroke="black" d="M304,-290C325.92,-290 334.1,-289.3 351.51,-289.07"/>
<polygon fill="black" stroke="black" points="351.51,-292.57 361.49,-289.01 351.46,-285.57 351.51,-292.57"/>
</g>
<!-- node60x0 -->
<g id="node28" class="node">
<title>node60x0</title>
<polygon fill="none" stroke="black" points="508,-279.5 508,-342.5 562,-342.5 562,-279.5 508,-279.5"/>
<text text-anchor="middle" x="535" y="-328.9" font-family="Times,serif" font-size="12.00">NULL</text>
<polyline fill="none" stroke="black" points="508,-321.5 562,-321.5"/>
<text text-anchor="middle" x="535" y="-307.9" font-family="Times,serif" font-size="12.00">NULL</text>
<polyline fill="none" stroke="black" points="508,-300.5 562,-300.5"/>
<text text-anchor="middle" x="535" y="-286.9" font-family="Times,serif" font-size="12.00">NULL</text>
</g>
<!-- node60x1005079b0&#45;&gt;node60x0 -->
<g id="edge45" class="edge">
<title>node60x1005079b0:f1&#45;&gt;node60x0:w1</title>
<path fill="none" stroke="black" d="M423,-289C456.25,-289 467.29,-289.79 495.68,-289.97"/>
<polygon fill="black" stroke="black" points="495.48,-293.47 505.49,-290 495.5,-286.47 495.48,-293.47"/>
</g>
<!-- node60x1005079b0&#45;&gt;node60x0 -->
<g id="edge46" class="edge">
<title>node60x1005079b0:f2&#45;&gt;node60x0:w2</title>
<path fill="none" stroke="black" d="M423,-311C456.25,-311 467.29,-311 495.68,-311"/>
<polygon fill="black" stroke="black" points="495.49,-314.5 505.49,-311 495.49,-307.5 495.49,-314.5"/>
</g>
<!-- node60x1005079b0&#45;&gt;node60x0 -->
<g id="edge47" class="edge">
<title>node60x1005079b0:f3&#45;&gt;node60x0:w3</title>
<path fill="none" stroke="black" d="M423,-332C456.25,-332 467.29,-332 495.68,-332"/>
<polygon fill="black" stroke="black" points="495.49,-335.5 505.49,-332 495.49,-328.5 495.49,-335.5"/>
</g>
<!-- HeadNode7 -->
<g id="node29" class="node">
<title>HeadNode7</title>
<polygon fill="none" stroke="black" points="55,-146.5 55,-209.5 161,-209.5 161,-146.5 55,-146.5"/>
<text text-anchor="middle" x="66.5" y="-195.9" font-family="Times,serif" font-size="12.00">1</text>
<polyline fill="none" stroke="black" points="78,-188.5 78,-209.5"/>
<text text-anchor="middle" x="119.5" y="-195.9" font-family="Times,serif" font-size="12.00">0x1005079b0</text>
<polyline fill="none" stroke="black" points="55,-188.5 161,-188.5"/>
<text text-anchor="middle" x="66.5" y="-174.9" font-family="Times,serif" font-size="12.00">1</text>
<polyline fill="none" stroke="black" points="78,-167.5 78,-188.5"/>
<text text-anchor="middle" x="119.5" y="-174.9" font-family="Times,serif" font-size="12.00">0x1005079b0</text>
<polyline fill="none" stroke="black" points="55,-167.5 161,-167.5"/>
<text text-anchor="middle" x="66.5" y="-153.9" font-family="Times,serif" font-size="12.00">1</text>
<polyline fill="none" stroke="black" points="78,-146.5 78,-167.5"/>
<text text-anchor="middle" x="119.5" y="-153.9" font-family="Times,serif" font-size="12.00">0x1005079b0</text>
</g>
<!-- node70x1005079b0 -->
<g id="node30" class="node">
<title>node70x1005079b0</title>
<polygon fill="none" stroke="black" points="222,-125 222,-209 280,-209 280,-125 222,-125"/>
<text text-anchor="middle" x="233.5" y="-195.4" font-family="Times,serif" font-size="12.00">1</text>
<polyline fill="none" stroke="black" points="245,-188 245,-209"/>
<text text-anchor="middle" x="262.5" y="-195.4" font-family="Times,serif" font-size="12.00">0x0</text>
<polyline fill="none" stroke="black" points="222,-188 280,-188"/>
<text text-anchor="middle" x="233.5" y="-174.4" font-family="Times,serif" font-size="12.00">1</text>
<polyline fill="none" stroke="black" points="245,-167 245,-188"/>
<text text-anchor="middle" x="262.5" y="-174.4" font-family="Times,serif" font-size="12.00">0x0</text>
<polyline fill="none" stroke="black" points="222,-167 280,-167"/>
<text text-anchor="middle" x="233.5" y="-153.4" font-family="Times,serif" font-size="12.00">1</text>
<polyline fill="none" stroke="black" points="245,-146 245,-167"/>
<text text-anchor="middle" x="262.5" y="-153.4" font-family="Times,serif" font-size="12.00">0x0</text>
<polyline fill="none" stroke="black" points="222,-146 280,-146"/>
<text text-anchor="middle" x="251" y="-132.4" font-family="Times,serif" font-size="12.00">3</text>
</g>
<!-- HeadNode7&#45;&gt;node70x1005079b0 -->
<g id="edge48" class="edge">
<title>HeadNode7:f1&#45;&gt;node70x1005079b0:w1</title>
<path fill="none" stroke="black" d="M162,-157C183.92,-157 192.1,-156.3 209.51,-156.07"/>
<polygon fill="black" stroke="black" points="209.51,-159.57 219.49,-156.01 209.46,-152.57 209.51,-159.57"/>
</g>
<!-- HeadNode7&#45;&gt;node70x1005079b0 -->
<g id="edge49" class="edge">
<title>HeadNode7:f2&#45;&gt;node70x1005079b0:w2</title>
<path fill="none" stroke="black" d="M162,-178C183.92,-178 192.1,-178 209.51,-178"/>
<polygon fill="black" stroke="black" points="209.49,-181.5 219.49,-178 209.49,-174.5 209.49,-181.5"/>
</g>
<!-- HeadNode7&#45;&gt;node70x1005079b0 -->
<g id="edge50" class="edge">
<title>HeadNode7:f3&#45;&gt;node70x1005079b0:w3</title>
<path fill="none" stroke="black" d="M162,-199C183.92,-199 192.1,-199 209.51,-199"/>
<polygon fill="black" stroke="black" points="209.49,-202.5 219.49,-199 209.49,-195.5 209.49,-202.5"/>
</g>
<!-- node70x0 -->
<g id="node31" class="node">
<title>node70x0</title>
<polygon fill="none" stroke="black" points="366,-146.5 366,-209.5 420,-209.5 420,-146.5 366,-146.5"/>
<text text-anchor="middle" x="393" y="-195.9" font-family="Times,serif" font-size="12.00">NULL</text>
<polyline fill="none" stroke="black" points="366,-188.5 420,-188.5"/>
<text text-anchor="middle" x="393" y="-174.9" font-family="Times,serif" font-size="12.00">NULL</text>
<polyline fill="none" stroke="black" points="366,-167.5 420,-167.5"/>
<text text-anchor="middle" x="393" y="-153.9" font-family="Times,serif" font-size="12.00">NULL</text>
</g>
<!-- node70x1005079b0&#45;&gt;node70x0 -->
<g id="edge51" class="edge">
<title>node70x1005079b0:f1&#45;&gt;node70x0:w1</title>
<path fill="none" stroke="black" d="M281,-156C314.25,-156 325.29,-156.79 353.68,-156.97"/>
<polygon fill="black" stroke="black" points="353.48,-160.47 363.49,-157 353.5,-153.47 353.48,-160.47"/>
</g>
<!-- node70x1005079b0&#45;&gt;node70x0 -->
<g id="edge52" class="edge">
<title>node70x1005079b0:f2&#45;&gt;node70x0:w2</title>
<path fill="none" stroke="black" d="M281,-178C314.25,-178 325.29,-178 353.68,-178"/>
<polygon fill="black" stroke="black" points="353.49,-181.5 363.49,-178 353.49,-174.5 353.49,-181.5"/>
</g>
<!-- node70x1005079b0&#45;&gt;node70x0 -->
<g id="edge53" class="edge">
<title>node70x1005079b0:f3&#45;&gt;node70x0:w3</title>
<path fill="none" stroke="black" d="M281,-199C314.25,-199 325.29,-199 353.68,-199"/>
<polygon fill="black" stroke="black" points="353.49,-202.5 363.49,-199 353.49,-195.5 353.49,-202.5"/>
</g>
<!-- HeadNode8 -->
<g id="node32" class="node">
<title>HeadNode8</title>
<polygon fill="none" stroke="black" points="56.5,-40 56.5,-76 159.5,-76 159.5,-40 56.5,-40"/>
<text text-anchor="middle" x="108" y="-54.9" font-family="Times,serif" font-size="12.00">Empty HeadNode</text>
</g>
<!-- node0 -->
<!-- node0&#45;&gt;HeadNode0 -->
<!-- node0&#45;&gt;HeadNode1 -->
<!-- node0&#45;&gt;HeadNode2 -->
<!-- node0&#45;&gt;HeadNode3 -->
<!-- node0&#45;&gt;HeadNode4 -->
<!-- node0&#45;&gt;HeadNode5 -->
<!-- node0&#45;&gt;HeadNode6 -->
<!-- node0&#45;&gt;HeadNode7 -->
<!-- node0&#45;&gt;HeadNode8 -->
</g>
</svg>
