<?xml version="1.0" encoding="UTF-8" standalone="no"?>
<!DOCTYPE svg PUBLIC "-//W3C//DTD SVG 1.1//EN"
 "http://www.w3.org/Graphics/SVG/1.1/DTD/svg11.dtd">
<!-- Generated by graphviz version 7.0.2 (20221119.0110)
 -->
<!-- Title: SkipList Pages: 1 -->
<svg width="796pt" height="926pt"
 viewBox="0.00 0.00 796.00 926.00" xmlns="http://www.w3.org/2000/svg" xmlns:xlink="http://www.w3.org/1999/xlink">
<g id="graph0" class="graph" transform="scale(1 1) rotate(0) translate(4 922)">
<title>SkipList</title>
<polygon fill="white" stroke="none" points="-4,4 -4,-922 792,-922 792,4 -4,4"/>
<text text-anchor="middle" x="394" y="-7.8" font-family="Times,serif" font-size="14.00">SkipList.</text>
<g id="clust4" class="cluster">
<title>cluster3</title>
<polygon fill="none" stroke="black" stroke-dasharray="5,2" points="47,-500 47,-603 688,-603 688,-500 47,-500"/>
<text text-anchor="middle" x="367.5" y="-587.8" font-family="Times,serif" font-size="14.00">Skip list iteration 3</text>
</g>
<g id="clust5" class="cluster">
<title>cluster4</title>
<polygon fill="none" stroke="black" stroke-dasharray="5,2" points="47,-389 47,-492 780,-492 780,-389 47,-389"/>
<text text-anchor="middle" x="413.5" y="-476.8" font-family="Times,serif" font-size="14.00">Skip list iteration 4</text>
</g>
<g id="clust1" class="cluster">
<title>cluster0</title>
<polygon fill="none" stroke="black" stroke-dasharray="5,2" points="47.5,-833 47.5,-910 168.5,-910 168.5,-833 47.5,-833"/>
<text text-anchor="middle" x="108" y="-894.8" font-family="Times,serif" font-size="14.00">Skip list iteration 0</text>
</g>
<g id="clust2" class="cluster">
<title>cluster1</title>
<polygon fill="none" stroke="black" stroke-dasharray="5,2" points="47,-722 47,-825 428,-825 428,-722 47,-722"/>
<text text-anchor="middle" x="237.5" y="-809.8" font-family="Times,serif" font-size="14.00">Skip list iteration 1</text>
</g>
<g id="clust3" class="cluster">
<title>cluster2</title>
<polygon fill="none" stroke="black" stroke-dasharray="5,2" points="47,-611 47,-714 570,-714 570,-611 47,-611"/>
<text text-anchor="middle" x="308.5" y="-698.8" font-family="Times,serif" font-size="14.00">Skip list iteration 2</text>
</g>
<g id="clust8" class="cluster">
<title>cluster7</title>
<polygon fill="none" stroke="black" stroke-dasharray="5,2" points="47,-116 47,-199 428,-199 428,-116 47,-116"/>
<text text-anchor="middle" x="237.5" y="-183.8" font-family="Times,serif" font-size="14.00">Skip list iteration 7</text>
</g>
<g id="clust9" class="cluster">
<title>cluster8</title>
<polygon fill="none" stroke="black" stroke-dasharray="5,2" points="47.5,-31 47.5,-108 168.5,-108 168.5,-31 47.5,-31"/>
<text text-anchor="middle" x="108" y="-92.8" font-family="Times,serif" font-size="14.00">Skip list iteration 8</text>
</g>
<g id="clust6" class="cluster">
<title>cluster5</title>
<polygon fill="none" stroke="black" stroke-dasharray="5,2" points="47,-298 47,-381 688,-381 688,-298 47,-298"/>
<text text-anchor="middle" x="367.5" y="-365.8" font-family="Times,serif" font-size="14.00">Skip list iteration 5</text>
</g>
<g id="clust7" class="cluster">
<title>cluster6</title>
<polygon fill="none" stroke="black" stroke-dasharray="5,2" points="47,-207 47,-290 570,-290 570,-207 47,-207"/>
<text text-anchor="middle" x="308.5" y="-274.8" font-family="Times,serif" font-size="14.00">Skip list iteration 6</text>
</g>
<!-- HeadNode0 -->
<g id="node1" class="node">
<title>HeadNode0</title>
<polygon fill="none" stroke="black" points="56.5,-842 56.5,-878 159.5,-878 159.5,-842 56.5,-842"/>
<text text-anchor="middle" x="108" y="-856.9" font-family="Times,serif" font-size="12.00">Empty HeadNode</text>
</g>
<!-- HeadNode1 -->
<g id="node2" class="node">
<title>HeadNode1</title>
<polygon fill="none" stroke="black" points="55,-751 55,-793 161,-793 161,-751 55,-751"/>
<text text-anchor="middle" x="66.5" y="-779.4" font-family="Times,serif" font-size="12.00">1</text>
<polyline fill="none" stroke="black" points="78,-772 78,-793"/>
<text text-anchor="middle" x="119.5" y="-779.4" font-family="Times,serif" font-size="12.00">0x100700000</text>
<polyline fill="none" stroke="black" points="55,-772 161,-772"/>
<text text-anchor="middle" x="66.5" y="-758.4" font-family="Times,serif" font-size="12.00">1</text>
<polyline fill="none" stroke="black" points="78,-751 78,-772"/>
<text text-anchor="middle" x="119.5" y="-758.4" font-family="Times,serif" font-size="12.00">0x100700000</text>
</g>
<!-- node10x100700000 -->
<g id="node3" class="node">
<title>node10x100700000</title>
<polygon fill="none" stroke="black" points="222,-730.5 222,-793.5 280,-793.5 280,-730.5 222,-730.5"/>
<text text-anchor="middle" x="233.5" y="-779.9" font-family="Times,serif" font-size="12.00">1</text>
<polyline fill="none" stroke="black" points="245,-772.5 245,-793.5"/>
<text text-anchor="middle" x="262.5" y="-779.9" font-family="Times,serif" font-size="12.00">0x0</text>
<polyline fill="none" stroke="black" points="222,-772.5 280,-772.5"/>
<text text-anchor="middle" x="233.5" y="-758.9" font-family="Times,serif" font-size="12.00">1</text>
<polyline fill="none" stroke="black" points="245,-751.5 245,-772.5"/>
<text text-anchor="middle" x="262.5" y="-758.9" font-family="Times,serif" font-size="12.00">0x0</text>
<polyline fill="none" stroke="black" points="222,-751.5 280,-751.5"/>
<text text-anchor="middle" x="251" y="-737.9" font-family="Times,serif" font-size="12.00">0</text>
</g>
<!-- HeadNode1&#45;&gt;node10x100700000 -->
<g id="edge1" class="edge">
<title>HeadNode1:f1&#45;&gt;node10x100700000:w1</title>
<path fill="none" stroke="black" d="M162,-761C183.92,-761 192.1,-761.7 209.51,-761.93"/>
<polygon fill="black" stroke="black" points="209.46,-765.43 219.49,-761.99 209.51,-758.43 209.46,-765.43"/>
</g>
<!-- HeadNode1&#45;&gt;node10x100700000 -->
<g id="edge2" class="edge">
<title>HeadNode1:f2&#45;&gt;node10x100700000:w2</title>
<path fill="none" stroke="black" d="M162,-783C183.92,-783 192.1,-783 209.51,-783"/>
<polygon fill="black" stroke="black" points="209.49,-786.5 219.49,-783 209.49,-779.5 209.49,-786.5"/>
</g>
<!-- node10x0 -->
<g id="node4" class="node">
<title>node10x0</title>
<polygon fill="none" stroke="black" points="366,-751 366,-793 420,-793 420,-751 366,-751"/>
<text text-anchor="middle" x="393" y="-779.4" font-family="Times,serif" font-size="12.00">NULL</text>
<polyline fill="none" stroke="black" points="366,-772 420,-772"/>
<text text-anchor="middle" x="393" y="-758.4" font-family="Times,serif" font-size="12.00">NULL</text>
</g>
<!-- node10x100700000&#45;&gt;node10x0 -->
<g id="edge3" class="edge">
<title>node10x100700000:f1&#45;&gt;node10x0:w1</title>
<path fill="none" stroke="black" d="M281,-762C314.25,-762 325.29,-761.21 353.68,-761.03"/>
<polygon fill="black" stroke="black" points="353.5,-764.53 363.49,-761 353.48,-757.53 353.5,-764.53"/>
</g>
<!-- node10x100700000&#45;&gt;node10x0 -->
<g id="edge4" class="edge">
<title>node10x100700000:f2&#45;&gt;node10x0:w2</title>
<path fill="none" stroke="black" d="M281,-783C314.25,-783 325.29,-783 353.68,-783"/>
<polygon fill="black" stroke="black" points="353.49,-786.5 363.49,-783 353.49,-779.5 353.49,-786.5"/>
</g>
<!-- HeadNode2 -->
<g id="node5" class="node">
<title>HeadNode2</title>
<polygon fill="none" stroke="black" points="55,-640 55,-682 161,-682 161,-640 55,-640"/>
<text text-anchor="middle" x="66.5" y="-668.4" font-family="Times,serif" font-size="12.00">1</text>
<polyline fill="none" stroke="black" points="78,-661 78,-682"/>
<text text-anchor="middle" x="119.5" y="-668.4" font-family="Times,serif" font-size="12.00">0x100700000</text>
<polyline fill="none" stroke="black" points="55,-661 161,-661"/>
<text text-anchor="middle" x="66.5" y="-647.4" font-family="Times,serif" font-size="12.00">1</text>
<polyline fill="none" stroke="black" points="78,-640 78,-661"/>
<text text-anchor="middle" x="119.5" y="-647.4" font-family="Times,serif" font-size="12.00">0x100700000</text>
</g>
<!-- node20x100700000 -->
<g id="node6" class="node">
<title>node20x100700000</title>
<polygon fill="none" stroke="black" points="198,-619.5 198,-682.5 304,-682.5 304,-619.5 198,-619.5"/>
<text text-anchor="middle" x="221.5" y="-668.9" font-family="Times,serif" font-size="12.00">2</text>
<polyline fill="none" stroke="black" points="245,-661.5 245,-682.5"/>
<text text-anchor="middle" x="274.5" y="-668.9" font-family="Times,serif" font-size="12.00">0x0</text>
<polyline fill="none" stroke="black" points="198,-661.5 304,-661.5"/>
<text text-anchor="middle" x="209.5" y="-647.9" font-family="Times,serif" font-size="12.00">1</text>
<polyline fill="none" stroke="black" points="221,-640.5 221,-661.5"/>
<text text-anchor="middle" x="262.5" y="-647.9" font-family="Times,serif" font-size="12.00">0x100700080</text>
<polyline fill="none" stroke="black" points="198,-640.5 304,-640.5"/>
<text text-anchor="middle" x="251" y="-626.9" font-family="Times,serif" font-size="12.00">0</text>
</g>
<!-- HeadNode2&#45;&gt;node20x100700000 -->
<g id="edge5" class="edge">
<title>HeadNode2:f1&#45;&gt;node20x100700000:w1</title>
<path fill="none" stroke="black" d="M162,-650C173.38,-650 178.68,-650.51 186.55,-650.8"/>
<polygon fill="black" stroke="black" points="186.43,-654.3 196.49,-650.97 186.55,-647.3 186.43,-654.3"/>
</g>
<!-- HeadNode2&#45;&gt;node20x100700000 -->
<g id="edge6" class="edge">
<title>HeadNode2:f2&#45;&gt;node20x100700000:w2</title>
<path fill="none" stroke="black" d="M162,-672C173.38,-672 178.68,-672 186.55,-672"/>
<polygon fill="black" stroke="black" points="186.49,-675.5 196.49,-672 186.49,-668.5 186.49,-675.5"/>
</g>
<!-- node20x100700080 -->
<g id="node7" class="node">
<title>node20x100700080</title>
<polygon fill="none" stroke="black" points="364,-620 364,-662 422,-662 422,-620 364,-620"/>
<text text-anchor="middle" x="375.5" y="-648.4" font-family="Times,serif" font-size="12.00">1</text>
<polyline fill="none" stroke="black" points="387,-641 387,-662"/>
<text text-anchor="middle" x="404.5" y="-648.4" font-family="Times,serif" font-size="12.00">0x0</text>
<polyline fill="none" stroke="black" points="364,-641 422,-641"/>
<text text-anchor="middle" x="393" y="-627.4" font-family="Times,serif" font-size="12.00">1</text>
</g>
<!-- node20x100700000&#45;&gt;node20x100700080 -->
<g id="edge7" class="edge">
<title>node20x100700000:f1&#45;&gt;node20x100700080:w1</title>
<path fill="none" stroke="black" d="M304,-651C325.92,-651 334.1,-651.7 351.51,-651.93"/>
<polygon fill="black" stroke="black" points="351.46,-655.43 361.49,-651.99 351.51,-648.43 351.46,-655.43"/>
</g>
<!-- node20x0 -->
<g id="node8" class="node">
<title>node20x0</title>
<polygon fill="none" stroke="black" points="508,-640 508,-682 562,-682 562,-640 508,-640"/>
<text text-anchor="middle" x="535" y="-668.4" font-family="Times,serif" font-size="12.00">NULL</text>
<polyline fill="none" stroke="black" points="508,-661 562,-661"/>
<text text-anchor="middle" x="535" y="-647.4" font-family="Times,serif" font-size="12.00">NULL</text>
</g>
<!-- node20x100700000&#45;&gt;node20x0 -->
<g id="edge8" class="edge">
<title>node20x100700000:f2&#45;&gt;node20x0:w2</title>
<path fill="none" stroke="black" d="M304,-672C390.35,-672 414.71,-672 495.73,-672"/>
<polygon fill="black" stroke="black" points="495.49,-675.5 505.49,-672 495.49,-668.5 495.49,-675.5"/>
</g>
<!-- node20x100700080&#45;&gt;node20x0 -->
<g id="edge9" class="edge">
<title>node20x100700080:f1&#45;&gt;node20x0:w1</title>
<path fill="none" stroke="black" d="M423,-652C456.26,-652 467.28,-650.41 495.68,-650.07"/>
<polygon fill="black" stroke="black" points="495.51,-653.57 505.49,-650.01 495.47,-646.57 495.51,-653.57"/>
</g>
<!-- HeadNode3 -->
<g id="node9" class="node">
<title>HeadNode3</title>
<polygon fill="none" stroke="black" points="55,-529 55,-571 161,-571 161,-529 55,-529"/>
<text text-anchor="middle" x="66.5" y="-557.4" font-family="Times,serif" font-size="12.00">1</text>
<polyline fill="none" stroke="black" points="78,-550 78,-571"/>
<text text-anchor="middle" x="119.5" y="-557.4" font-family="Times,serif" font-size="12.00">0x100700000</text>
<polyline fill="none" stroke="black" points="55,-550 161,-550"/>
<text text-anchor="middle" x="66.5" y="-536.4" font-family="Times,serif" font-size="12.00">1</text>
<polyline fill="none" stroke="black" points="78,-529 78,-550"/>
<text text-anchor="middle" x="119.5" y="-536.4" font-family="Times,serif" font-size="12.00">0x100700000</text>
</g>
<!-- node30x100700000 -->
<g id="node10" class="node">
<title>node30x100700000</title>
<polygon fill="none" stroke="black" points="198,-508.5 198,-571.5 304,-571.5 304,-508.5 198,-508.5"/>
<text text-anchor="middle" x="221.5" y="-557.9" font-family="Times,serif" font-size="12.00">3</text>
<polyline fill="none" stroke="black" points="245,-550.5 245,-571.5"/>
<text text-anchor="middle" x="274.5" y="-557.9" font-family="Times,serif" font-size="12.00">0x0</text>
<polyline fill="none" stroke="black" points="198,-550.5 304,-550.5"/>
<text text-anchor="middle" x="209.5" y="-536.9" font-family="Times,serif" font-size="12.00">1</text>
<polyline fill="none" stroke="black" points="221,-529.5 221,-550.5"/>
<text text-anchor="middle" x="262.5" y="-536.9" font-family="Times,serif" font-size="12.00">0x100700080</text>
<polyline fill="none" stroke="black" points="198,-529.5 304,-529.5"/>
<text text-anchor="middle" x="251" y="-515.9" font-family="Times,serif" font-size="12.00">0</text>
</g>
<!-- HeadNode3&#45;&gt;node30x100700000 -->
<g id="edge10" class="edge">
<title>HeadNode3:f1&#45;&gt;node30x100700000:w1</title>
<path fill="none" stroke="black" d="M162,-539C173.38,-539 178.68,-539.51 186.55,-539.8"/>
<polygon fill="black" stroke="black" points="186.43,-543.3 196.49,-539.97 186.55,-536.3 186.43,-543.3"/>
</g>
<!-- HeadNode3&#45;&gt;node30x100700000 -->
<g id="edge11" class="edge">
<title>HeadNode3:f2&#45;&gt;node30x100700000:w2</title>
<path fill="none" stroke="black" d="M162,-561C173.38,-561 178.68,-561 186.55,-561"/>
<polygon fill="black" stroke="black" points="186.49,-564.5 196.49,-561 186.49,-557.5 186.49,-564.5"/>
</g>
<!-- node30x100700080 -->
<g id="node11" class="node">
<title>node30x100700080</title>
<polygon fill="none" stroke="black" points="340,-509 340,-551 446,-551 446,-509 340,-509"/>
<text text-anchor="middle" x="351.5" y="-537.4" font-family="Times,serif" font-size="12.00">1</text>
<polyline fill="none" stroke="black" points="363,-530 363,-551"/>
<text text-anchor="middle" x="404.5" y="-537.4" font-family="Times,serif" font-size="12.00">0x1007000b0</text>
<polyline fill="none" stroke="black" points="340,-530 446,-530"/>
<text text-anchor="middle" x="393" y="-516.4" font-family="Times,serif" font-size="12.00">1</text>
</g>
<!-- node30x100700000&#45;&gt;node30x100700080 -->
<g id="edge12" class="edge">
<title>node30x100700000:f1&#45;&gt;node30x100700080:w1</title>
<path fill="none" stroke="black" d="M304,-540C315.38,-540 320.68,-540.51 328.55,-540.8"/>
<polygon fill="black" stroke="black" points="328.43,-544.3 338.49,-540.97 328.55,-537.3 328.43,-544.3"/>
</g>
<!-- node30x0 -->
<g id="node12" class="node">
<title>node30x0</title>
<polygon fill="none" stroke="black" points="626,-529 626,-571 680,-571 680,-529 626,-529"/>
<text text-anchor="middle" x="653" y="-557.4" font-family="Times,serif" font-size="12.00">NULL</text>
<polyline fill="none" stroke="black" points="626,-550 680,-550"/>
<text text-anchor="middle" x="653" y="-536.4" font-family="Times,serif" font-size="12.00">NULL</text>
</g>
<!-- node30x100700000&#45;&gt;node30x0 -->
<g id="edge13" class="edge">
<title>node30x100700000:f2&#45;&gt;node30x0:w2</title>
<path fill="none" stroke="black" d="M304,-561C442.77,-561 480.3,-561 613.53,-561"/>
<polygon fill="black" stroke="black" points="613.49,-564.5 623.49,-561 613.49,-557.5 613.49,-564.5"/>
</g>
<!-- node30x1007000b0 -->
<g id="node13" class="node">
<title>node30x1007000b0</title>
<polygon fill="none" stroke="black" points="506,-509 506,-551 564,-551 564,-509 506,-509"/>
<text text-anchor="middle" x="517.5" y="-537.4" font-family="Times,serif" font-size="12.00">1</text>
<polyline fill="none" stroke="black" points="529,-530 529,-551"/>
<text text-anchor="middle" x="546.5" y="-537.4" font-family="Times,serif" font-size="12.00">0x0</text>
<polyline fill="none" stroke="black" points="506,-530 564,-530"/>
<text text-anchor="middle" x="535" y="-516.4" font-family="Times,serif" font-size="12.00">2</text>
</g>
<!-- node30x100700080&#45;&gt;node30x1007000b0 -->
<g id="edge14" class="edge">
<title>node30x100700080:f1&#45;&gt;node30x1007000b0:w1</title>
<path fill="none" stroke="black" d="M446,-541C467.92,-541 476.1,-541 493.51,-541"/>
<polygon fill="black" stroke="black" points="493.49,-544.5 503.49,-541 493.49,-537.5 493.49,-544.5"/>
</g>
<!-- node30x1007000b0&#45;&gt;node30x0 -->
<g id="edge15" class="edge">
<title>node30x1007000b0:f1&#45;&gt;node30x0:w1</title>
<path fill="none" stroke="black" d="M565,-541C587.51,-541 595.76,-539.58 613.81,-539.13"/>
<polygon fill="black" stroke="black" points="613.53,-542.63 623.49,-539.02 613.45,-535.64 613.53,-542.63"/>
</g>
<!-- HeadNode4 -->
<g id="node14" class="node">
<title>HeadNode4</title>
<polygon fill="none" stroke="black" points="55,-418 55,-460 161,-460 161,-418 55,-418"/>
<text text-anchor="middle" x="66.5" y="-446.4" font-family="Times,serif" font-size="12.00">1</text>
<polyline fill="none" stroke="black" points="78,-439 78,-460"/>
<text text-anchor="middle" x="119.5" y="-446.4" font-family="Times,serif" font-size="12.00">0x100700000</text>
<polyline fill="none" stroke="black" points="55,-439 161,-439"/>
<text text-anchor="middle" x="66.5" y="-425.4" font-family="Times,serif" font-size="12.00">1</text>
<polyline fill="none" stroke="black" points="78,-418 78,-439"/>
<text text-anchor="middle" x="119.5" y="-425.4" font-family="Times,serif" font-size="12.00">0x100700000</text>
</g>
<!-- node40x100700000 -->
<g id="node15" class="node">
<title>node40x100700000</title>
<polygon fill="none" stroke="black" points="198,-397.5 198,-460.5 304,-460.5 304,-397.5 198,-397.5"/>
<text text-anchor="middle" x="221.5" y="-446.9" font-family="Times,serif" font-size="12.00">4</text>
<polyline fill="none" stroke="black" points="245,-439.5 245,-460.5"/>
<text text-anchor="middle" x="274.5" y="-446.9" font-family="Times,serif" font-size="12.00">0x0</text>
<polyline fill="none" stroke="black" points="198,-439.5 304,-439.5"/>
<text text-anchor="middle" x="209.5" y="-425.9" font-family="Times,serif" font-size="12.00">1</text>
<polyline fill="none" stroke="black" points="221,-418.5 221,-439.5"/>
<text text-anchor="middle" x="262.5" y="-425.9" font-family="Times,serif" font-size="12.00">0x100700080</text>
<polyline fill="none" stroke="black" points="198,-418.5 304,-418.5"/>
<text text-anchor="middle" x="251" y="-404.9" font-family="Times,serif" font-size="12.00">0</text>
</g>
<!-- HeadNode4&#45;&gt;node40x100700000 -->
<g id="edge16" class="edge">
<title>HeadNode4:f1&#45;&gt;node40x100700000:w1</title>
<path fill="none" stroke="black" d="M162,-428C173.38,-428 178.68,-428.51 186.55,-428.8"/>
<polygon fill="black" stroke="black" points="186.43,-432.3 196.49,-428.97 186.55,-425.3 186.43,-432.3"/>
</g>
<!-- HeadNode4&#45;&gt;node40x100700000 -->
<g id="edge17" class="edge">
<title>HeadNode4:f2&#45;&gt;node40x100700000:w2</title>
<path fill="none" stroke="black" d="M162,-450C173.38,-450 178.68,-450 186.55,-450"/>
<polygon fill="black" stroke="black" points="186.49,-453.5 196.49,-450 186.49,-446.5 186.49,-453.5"/>
</g>
<!-- node40x100700080 -->
<g id="node16" class="node">
<title>node40x100700080</title>
<polygon fill="none" stroke="black" points="340,-398 340,-440 446,-440 446,-398 340,-398"/>
<text text-anchor="middle" x="351.5" y="-426.4" font-family="Times,serif" font-size="12.00">1</text>
<polyline fill="none" stroke="black" points="363,-419 363,-440"/>
<text text-anchor="middle" x="404.5" y="-426.4" font-family="Times,serif" font-size="12.00">0x1007000b0</text>
<polyline fill="none" stroke="black" points="340,-419 446,-419"/>
<text text-anchor="middle" x="393" y="-405.4" font-family="Times,serif" font-size="12.00">1</text>
</g>
<!-- node40x100700000&#45;&gt;node40x100700080 -->
<g id="edge18" class="edge">
<title>node40x100700000:f1&#45;&gt;node40x100700080:w1</title>
<path fill="none" stroke="black" d="M304,-429C315.38,-429 320.68,-429.51 328.55,-429.8"/>
<polygon fill="black" stroke="black" points="328.43,-433.3 338.49,-429.97 328.55,-426.3 328.43,-433.3"/>
</g>
<!-- node40x0 -->
<g id="node17" class="node">
<title>node40x0</title>
<polygon fill="none" stroke="black" points="718,-418 718,-460 772,-460 772,-418 718,-418"/>
<text text-anchor="middle" x="745" y="-446.4" font-family="Times,serif" font-size="12.00">NULL</text>
<polyline fill="none" stroke="black" points="718,-439 772,-439"/>
<text text-anchor="middle" x="745" y="-425.4" font-family="Times,serif" font-size="12.00">NULL</text>
</g>
<!-- node40x100700000&#45;&gt;node40x0 -->
<g id="edge19" class="edge">
<title>node40x100700000:f2&#45;&gt;node40x0:w2</title>
<path fill="none" stroke="black" d="M304,-450C484.14,-450 532.01,-450 706.59,-450"/>
<polygon fill="black" stroke="black" points="706.49,-453.5 716.49,-450 706.49,-446.5 706.49,-453.5"/>
</g>
<!-- node40x1007000b0 -->
<g id="node18" class="node">
<title>node40x1007000b0</title>
<polygon fill="none" stroke="black" points="482,-398 482,-440 588,-440 588,-398 482,-398"/>
<text text-anchor="middle" x="493.5" y="-426.4" font-family="Times,serif" font-size="12.00">1</text>
<polyline fill="none" stroke="black" points="505,-419 505,-440"/>
<text text-anchor="middle" x="546.5" y="-426.4" font-family="Times,serif" font-size="12.00">0x100700120</text>
<polyline fill="none" stroke="black" points="482,-419 588,-419"/>
<text text-anchor="middle" x="535" y="-405.4" font-family="Times,serif" font-size="12.00">2</text>
</g>
<!-- node40x100700080&#45;&gt;node40x1007000b0 -->
<g id="edge20" class="edge">
<title>node40x100700080:f1&#45;&gt;node40x1007000b0:w1</title>
<path fill="none" stroke="black" d="M446,-430C457.38,-430 462.68,-430 470.55,-430"/>
<polygon fill="black" stroke="black" points="470.49,-433.5 480.49,-430 470.49,-426.5 470.49,-433.5"/>
</g>
<!-- node40x100700120 -->
<g id="node19" class="node">
<title>node40x100700120</title>
<polygon fill="none" stroke="black" points="624,-398 624,-440 682,-440 682,-398 624,-398"/>
<text text-anchor="middle" x="635.5" y="-426.4" font-family="Times,serif" font-size="12.00">1</text>
<polyline fill="none" stroke="black" points="647,-419 647,-440"/>
<text text-anchor="middle" x="664.5" y="-426.4" font-family="Times,serif" font-size="12.00">0x0</text>
<polyline fill="none" stroke="black" points="624,-419 682,-419"/>
<text text-anchor="middle" x="653" y="-405.4" font-family="Times,serif" font-size="12.00">3</text>
</g>
<!-- node40x1007000b0&#45;&gt;node40x100700120 -->
<g id="edge21" class="edge">
<title>node40x1007000b0:f1&#45;&gt;node40x100700120:w1</title>
<path fill="none" stroke="black" d="M588,-430C599.38,-430 604.68,-430 612.55,-430"/>
<polygon fill="black" stroke="black" points="612.49,-433.5 622.49,-430 612.49,-426.5 612.49,-433.5"/>
</g>
<!-- node40x100700120&#45;&gt;node40x0 -->
<g id="edge22" class="edge">
<title>node40x100700120:f1&#45;&gt;node40x0:w1</title>
<path fill="none" stroke="black" d="M683,-430C693.96,-430 699.11,-429.01 706.61,-428.42"/>
<polygon fill="black" stroke="black" points="706.62,-431.93 716.49,-428.06 706.36,-424.93 706.62,-431.93"/>
</g>
<!-- HeadNode5 -->
<g id="node20" class="node">
<title>HeadNode5</title>
<polygon fill="none" stroke="black" points="55,-313 55,-349 161,-349 161,-313 55,-313"/>
<text text-anchor="middle" x="66.5" y="-327.9" font-family="Times,serif" font-size="12.00">1</text>
<polyline fill="none" stroke="black" points="78,-313 78,-349"/>
<text text-anchor="middle" x="119.5" y="-327.9" font-family="Times,serif" font-size="12.00">0x100700080</text>
</g>
<!-- node50x100700080 -->
<g id="node21" class="node">
<title>node50x100700080</title>
<polygon fill="none" stroke="black" points="198,-307 198,-349 304,-349 304,-307 198,-307"/>
<text text-anchor="middle" x="209.5" y="-335.4" font-family="Times,serif" font-size="12.00">1</text>
<polyline fill="none" stroke="black" points="221,-328 221,-349"/>
<text text-anchor="middle" x="262.5" y="-335.4" font-family="Times,serif" font-size="12.00">0x1007000b0</text>
<polyline fill="none" stroke="black" points="198,-328 304,-328"/>
<text text-anchor="middle" x="251" y="-314.4" font-family="Times,serif" font-size="12.00">1</text>
</g>
<!-- HeadNode5&#45;&gt;node50x100700080 -->
<g id="edge23" class="edge">
<title>HeadNode5:f1&#45;&gt;node50x100700080:w1</title>
<path fill="none" stroke="black" d="M162,-331C173.78,-331 178.76,-335.13 186.71,-337.46"/>
<polygon fill="black" stroke="black" points="186.12,-340.91 196.5,-338.8 187.07,-333.97 186.12,-340.91"/>
</g>
<!-- node50x1007000b0 -->
<g id="node22" class="node">
<title>node50x1007000b0</title>
<polygon fill="none" stroke="black" points="340,-307 340,-349 446,-349 446,-307 340,-307"/>
<text text-anchor="middle" x="351.5" y="-335.4" font-family="Times,serif" font-size="12.00">1</text>
<polyline fill="none" stroke="black" points="363,-328 363,-349"/>
<text text-anchor="middle" x="404.5" y="-335.4" font-family="Times,serif" font-size="12.00">0x100700120</text>
<polyline fill="none" stroke="black" points="340,-328 446,-328"/>
<text text-anchor="middle" x="393" y="-314.4" font-family="Times,serif" font-size="12.00">2</text>
</g>
<!-- node50x100700080&#45;&gt;node50x1007000b0 -->
<g id="edge24" class="edge">
<title>node50x100700080:f1&#45;&gt;node50x1007000b0:w1</title>
<path fill="none" stroke="black" d="M304,-339C315.38,-339 320.68,-339 328.55,-339"/>
<polygon fill="black" stroke="black" points="328.49,-342.5 338.49,-339 328.49,-335.5 328.49,-342.5"/>
</g>
<!-- node50x100700120 -->
<g id="node23" class="node">
<title>node50x100700120</title>
<polygon fill="none" stroke="black" points="506,-307 506,-349 564,-349 564,-307 506,-307"/>
<text text-anchor="middle" x="517.5" y="-335.4" font-family="Times,serif" font-size="12.00">1</text>
<polyline fill="none" stroke="black" points="529,-328 529,-349"/>
<text text-anchor="middle" x="546.5" y="-335.4" font-family="Times,serif" font-size="12.00">0x0</text>
<polyline fill="none" stroke="black" points="506,-328 564,-328"/>
<text text-anchor="middle" x="535" y="-314.4" font-family="Times,serif" font-size="12.00">3</text>
</g>
<!-- node50x1007000b0&#45;&gt;node50x100700120 -->
<g id="edge25" class="edge">
<title>node50x1007000b0:f1&#45;&gt;node50x100700120:w1</title>
<path fill="none" stroke="black" d="M446,-339C467.92,-339 476.1,-339 493.51,-339"/>
<polygon fill="black" stroke="black" points="493.49,-342.5 503.49,-339 493.49,-335.5 493.49,-342.5"/>
</g>
<!-- node50x0 -->
<g id="node24" class="node">
<title>node50x0</title>
<polygon fill="none" stroke="black" points="626,-313 626,-349 680,-349 680,-313 626,-313"/>
<text text-anchor="middle" x="653" y="-327.9" font-family="Times,serif" font-size="12.00">NULL</text>
</g>
<!-- node50x100700120&#45;&gt;node50x0 -->
<g id="edge26" class="edge">
<title>node50x100700120:f1&#45;&gt;node50x0:w1</title>
<path fill="none" stroke="black" d="M565,-339C581.38,-339 599.41,-337.61 614.86,-335.99"/>
<polygon fill="black" stroke="black" points="615.05,-339.49 624.59,-334.89 614.26,-332.53 615.05,-339.49"/>
</g>
<!-- HeadNode6 -->
<g id="node25" class="node">
<title>HeadNode6</title>
<polygon fill="none" stroke="black" points="55,-222 55,-258 161,-258 161,-222 55,-222"/>
<text text-anchor="middle" x="66.5" y="-236.9" font-family="Times,serif" font-size="12.00">1</text>
<polyline fill="none" stroke="black" points="78,-222 78,-258"/>
<text text-anchor="middle" x="119.5" y="-236.9" font-family="Times,serif" font-size="12.00">0x1007000b0</text>
</g>
<!-- node60x1007000b0 -->
<g id="node26" class="node">
<title>node60x1007000b0</title>
<polygon fill="none" stroke="black" points="198,-216 198,-258 304,-258 304,-216 198,-216"/>
<text text-anchor="middle" x="209.5" y="-244.4" font-family="Times,serif" font-size="12.00">1</text>
<polyline fill="none" stroke="black" points="221,-237 221,-258"/>
<text text-anchor="middle" x="262.5" y="-244.4" font-family="Times,serif" font-size="12.00">0x100700120</text>
<polyline fill="none" stroke="black" points="198,-237 304,-237"/>
<text text-anchor="middle" x="251" y="-223.4" font-family="Times,serif" font-size="12.00">2</text>
</g>
<!-- HeadNode6&#45;&gt;node60x1007000b0 -->
<g id="edge27" class="edge">
<title>HeadNode6:f1&#45;&gt;node60x1007000b0:w1</title>
<path fill="none" stroke="black" d="M162,-240C173.78,-240 178.76,-244.13 186.71,-246.46"/>
<polygon fill="black" stroke="black" points="186.12,-249.91 196.5,-247.8 187.07,-242.97 186.12,-249.91"/>
</g>
<!-- node60x100700120 -->
<g id="node27" class="node">
<title>node60x100700120</title>
<polygon fill="none" stroke="black" points="364,-216 364,-258 422,-258 422,-216 364,-216"/>
<text text-anchor="middle" x="375.5" y="-244.4" font-family="Times,serif" font-size="12.00">1</text>
<polyline fill="none" stroke="black" points="387,-237 387,-258"/>
<text text-anchor="middle" x="404.5" y="-244.4" font-family="Times,serif" font-size="12.00">0x0</text>
<polyline fill="none" stroke="black" points="364,-237 422,-237"/>
<text text-anchor="middle" x="393" y="-223.4" font-family="Times,serif" font-size="12.00">3</text>
</g>
<!-- node60x1007000b0&#45;&gt;node60x100700120 -->
<g id="edge28" class="edge">
<title>node60x1007000b0:f1&#45;&gt;node60x100700120:w1</title>
<path fill="none" stroke="black" d="M304,-248C325.92,-248 334.1,-248 351.51,-248"/>
<polygon fill="black" stroke="black" points="351.49,-251.5 361.49,-248 351.49,-244.5 351.49,-251.5"/>
</g>
<!-- node60x0 -->
<g id="node28" class="node">
<title>node60x0</title>
<polygon fill="none" stroke="black" points="508,-222 508,-258 562,-258 562,-222 508,-222"/>
<text text-anchor="middle" x="535" y="-236.9" font-family="Times,serif" font-size="12.00">NULL</text>
</g>
<!-- node60x100700120&#45;&gt;node60x0 -->
<g id="edge29" class="edge">
<title>node60x100700120:f1&#45;&gt;node60x0:w1</title>
<path fill="none" stroke="black" d="M423,-248C447.67,-248 475.32,-246.04 496.98,-244.07"/>
<polygon fill="black" stroke="black" points="497.21,-247.56 506.83,-243.12 496.54,-240.59 497.21,-247.56"/>
</g>
<!-- HeadNode7 -->
<g id="node29" class="node">
<title>HeadNode7</title>
<polygon fill="none" stroke="black" points="55,-131 55,-167 161,-167 161,-131 55,-131"/>
<text text-anchor="middle" x="66.5" y="-145.9" font-family="Times,serif" font-size="12.00">1</text>
<polyline fill="none" stroke="black" points="78,-131 78,-167"/>
<text text-anchor="middle" x="119.5" y="-145.9" font-family="Times,serif" font-size="12.00">0x100700120</text>
</g>
<!-- node70x100700120 -->
<g id="node30" class="node">
<title>node70x100700120</title>
<polygon fill="none" stroke="black" points="222,-125 222,-167 280,-167 280,-125 222,-125"/>
<text text-anchor="middle" x="233.5" y="-153.4" font-family="Times,serif" font-size="12.00">1</text>
<polyline fill="none" stroke="black" points="245,-146 245,-167"/>
<text text-anchor="middle" x="262.5" y="-153.4" font-family="Times,serif" font-size="12.00">0x0</text>
<polyline fill="none" stroke="black" points="222,-146 280,-146"/>
<text text-anchor="middle" x="251" y="-132.4" font-family="Times,serif" font-size="12.00">3</text>
</g>
<!-- HeadNode7&#45;&gt;node70x100700120 -->
<g id="edge30" class="edge">
<title>HeadNode7:f1&#45;&gt;node70x100700120:w1</title>
<path fill="none" stroke="black" d="M162,-149C184.33,-149 192.14,-154.7 209.93,-156.48"/>
<polygon fill="black" stroke="black" points="209.33,-159.95 219.49,-156.93 209.67,-152.96 209.33,-159.95"/>
</g>
<!-- node70x0 -->
<g id="node31" class="node">
<title>node70x0</title>
<polygon fill="none" stroke="black" points="366,-131 366,-167 420,-167 420,-131 366,-131"/>
<text text-anchor="middle" x="393" y="-145.9" font-family="Times,serif" font-size="12.00">NULL</text>
</g>
<!-- node70x100700120&#45;&gt;node70x0 -->
<g id="edge31" class="edge">
<title>node70x100700120:f1&#45;&gt;node70x0:w1</title>
<path fill="none" stroke="black" d="M281,-157C305.67,-157 333.32,-155.04 354.98,-153.07"/>
<polygon fill="black" stroke="black" points="355.21,-156.56 364.83,-152.12 354.54,-149.59 355.21,-156.56"/>
</g>
<!-- HeadNode8 -->
<g id="node32" class="node">
<title>HeadNode8</title>
<polygon fill="none" stroke="black" points="56.5,-40 56.5,-76 159.5,-76 159.5,-40 56.5,-40"/>
<text text-anchor="middle" x="108" y="-54.9" font-family="Times,serif" font-size="12.00">Empty HeadNode</text>
</g>
<!-- node0 -->
<!-- node0&#45;&gt;HeadNode0 -->
<!-- node0&#45;&gt;HeadNode1 -->
<!-- node0&#45;&gt;HeadNode2 -->
<!-- node0&#45;&gt;HeadNode3 -->
<!-- node0&#45;&gt;HeadNode4 -->
<!-- node0&#45;&gt;HeadNode5 -->
<!-- node0&#45;&gt;HeadNode6 -->
<!-- node0&#45;&gt;HeadNode7 -->
<!-- node0&#45;&gt;HeadNode8 -->
</g>
</svg>
