<?xml version="1.0" encoding="UTF-8" standalone="no"?>
<!DOCTYPE svg PUBLIC "-//W3C//DTD SVG 1.1//EN"
 "http://www.w3.org/Graphics/SVG/1.1/DTD/svg11.dtd">
<!-- Generated by graphviz version 8.1.0 (20230707.0739)
 -->
<!-- Title: SkipList Pages: 1 -->
<svg width="687pt" height="157pt"
 viewBox="0.00 0.00 687.00 156.50" xmlns="http://www.w3.org/2000/svg" xmlns:xlink="http://www.w3.org/1999/xlink">
<g id="graph0" class="graph" transform="scale(1 1) rotate(0) translate(4 152.5)">
<title>SkipList</title>
<polygon fill="white" stroke="none" points="-4,4 -4,-152.5 683,-152.5 683,4 -4,4"/>
<text text-anchor="middle" x="339.5" y="-7.2" font-family="Times,serif" font-size="14.00">SkipList.</text>
<g id="clust1" class="cluster">
<title>cluster0</title>
<polygon fill="none" stroke="black" stroke-dasharray="5,2" points="47,-32.5 47,-140.5 671,-140.5 671,-32.5 47,-32.5"/>
<text text-anchor="middle" x="359" y="-123.2" font-family="Times,serif" font-size="14.00">Skip list iteration 0</text>
</g>
<!-- HeadNode0 -->
<g id="node1" class="node">
<title>HeadNode0</title>
<polygon fill="none" stroke="black" points="55,-63.25 55,-107.75 174,-107.75 174,-63.25 55,-63.25"/>
<text text-anchor="middle" x="66" y="-92.35" font-family="Times,serif" font-size="12.00">1</text>
<polyline fill="none" stroke="black" points="77,-85.5 77,-107.75"/>
<text text-anchor="middle" x="125.5" y="-92.35" font-family="Times,serif" font-size="12.00">0x7f8a68d86280</text>
<polyline fill="none" stroke="black" points="55,-85.5 174,-85.5"/>
<text text-anchor="middle" x="66" y="-70.1" font-family="Times,serif" font-size="12.00">1</text>
<polyline fill="none" stroke="black" points="77,-63.25 77,-85.5"/>
<text text-anchor="middle" x="125.5" y="-70.1" font-family="Times,serif" font-size="12.00">0x7f8a68d86280</text>
</g>
<!-- node00x7f8a68d86280 -->
<g id="node2" class="node">
<title>node00x7f8a68d86280</title>
<polygon fill="none" stroke="black" points="210,-41.12 210,-107.88 327.5,-107.88 327.5,-41.12 210,-41.12"/>
<text text-anchor="middle" x="221" y="-92.47" font-family="Times,serif" font-size="12.00">2</text>
<polyline fill="none" stroke="black" points="232,-85.62 232,-107.88"/>
<text text-anchor="middle" x="279.75" y="-92.47" font-family="Times,serif" font-size="12.00">0x7f8a68d9dcc0</text>
<polyline fill="none" stroke="black" points="210,-85.62 327.5,-85.62"/>
<text text-anchor="middle" x="221" y="-70.22" font-family="Times,serif" font-size="12.00">1</text>
<polyline fill="none" stroke="black" points="232,-63.38 232,-85.62"/>
<text text-anchor="middle" x="279.75" y="-70.22" font-family="Times,serif" font-size="12.00">0x7f8a68d44ec0</text>
<polyline fill="none" stroke="black" points="210,-63.38 327.5,-63.38"/>
<text text-anchor="middle" x="268.75" y="-47.98" font-family="Times,serif" font-size="12.00">21</text>
</g>
<!-- HeadNode0&#45;&gt;node00x7f8a68d86280 -->
<g id="edge1" class="edge">
<title>HeadNode0:f1&#45;&gt;node00x7f8a68d86280:w1</title>
<path fill="none" stroke="black" d="M174,-74.5C185.62,-74.5 190.92,-74.5 199.08,-74.5"/>
<polygon fill="black" stroke="black" points="199,-78 209,-74.5 199,-71 199,-78"/>
</g>
<!-- HeadNode0&#45;&gt;node00x7f8a68d86280 -->
<g id="edge2" class="edge">
<title>HeadNode0:f2&#45;&gt;node00x7f8a68d86280:w2</title>
<path fill="none" stroke="black" d="M174,-96.5C185.62,-96.5 190.92,-96.5 199.08,-96.5"/>
<polygon fill="black" stroke="black" points="199,-100 209,-96.5 199,-93 199,-100"/>
</g>
<!-- node00x7f8a68d44ec0 -->
<g id="node3" class="node">
<title>node00x7f8a68d44ec0</title>
<polygon fill="none" stroke="black" points="363.5,-41.25 363.5,-85.75 481,-85.75 481,-41.25 363.5,-41.25"/>
<text text-anchor="middle" x="374.5" y="-70.35" font-family="Times,serif" font-size="12.00">1</text>
<polyline fill="none" stroke="black" points="385.5,-63.5 385.5,-85.75"/>
<text text-anchor="middle" x="433.25" y="-70.35" font-family="Times,serif" font-size="12.00">0x7f8a68d9dcc0</text>
<polyline fill="none" stroke="black" points="363.5,-63.5 481,-63.5"/>
<text text-anchor="middle" x="422.25" y="-48.1" font-family="Times,serif" font-size="12.00">42</text>
</g>
<!-- node00x7f8a68d86280&#45;&gt;node00x7f8a68d44ec0 -->
<g id="edge3" class="edge">
<title>node00x7f8a68d86280:f1&#45;&gt;node00x7f8a68d44ec0:w1</title>
<path fill="none" stroke="black" d="M327.5,-74.5C339.12,-74.5 344.42,-74.5 352.58,-74.5"/>
<polygon fill="black" stroke="black" points="352.5,-78 362.5,-74.5 352.5,-71 352.5,-78"/>
</g>
<!-- node00x7f8a68d9dcc0 -->
<g id="node4" class="node">
<title>node00x7f8a68d9dcc0</title>
<polygon fill="none" stroke="black" points="517,-41.12 517,-107.88 573,-107.88 573,-41.12 517,-41.12"/>
<text text-anchor="middle" x="528" y="-92.47" font-family="Times,serif" font-size="12.00">1</text>
<polyline fill="none" stroke="black" points="539,-85.62 539,-107.88"/>
<text text-anchor="middle" x="556" y="-92.47" font-family="Times,serif" font-size="12.00">0x0</text>
<polyline fill="none" stroke="black" points="517,-85.62 573,-85.62"/>
<text text-anchor="middle" x="528" y="-70.22" font-family="Times,serif" font-size="12.00">1</text>
<polyline fill="none" stroke="black" points="539,-63.38 539,-85.62"/>
<text text-anchor="middle" x="556" y="-70.22" font-family="Times,serif" font-size="12.00">0x0</text>
<polyline fill="none" stroke="black" points="517,-63.38 573,-63.38"/>
<text text-anchor="middle" x="545" y="-47.98" font-family="Times,serif" font-size="12.00">84</text>
</g>
<!-- node00x7f8a68d86280&#45;&gt;node00x7f8a68d9dcc0 -->
<g id="edge4" class="edge">
<title>node00x7f8a68d86280:f2&#45;&gt;node00x7f8a68d9dcc0:w2</title>
<path fill="none" stroke="black" d="M327.5,-96.5C407.94,-96.5 430.76,-96.5 506.02,-96.5"/>
<polygon fill="black" stroke="black" points="506,-100 516,-96.5 506,-93 506,-100"/>
</g>
<!-- node00x7f8a68d44ec0&#45;&gt;node00x7f8a68d9dcc0 -->
<g id="edge5" class="edge">
<title>node00x7f8a68d44ec0:f1&#45;&gt;node00x7f8a68d9dcc0:w1</title>
<path fill="none" stroke="black" d="M481,-74.5C492.62,-74.5 497.92,-74.5 506.08,-74.5"/>
<polygon fill="black" stroke="black" points="506,-78 516,-74.5 506,-71 506,-78"/>
</g>
<!-- node00x0 -->
<g id="node5" class="node">
<title>node00x0</title>
<polygon fill="none" stroke="black" points="609,-63.25 609,-107.75 663,-107.75 663,-63.25 609,-63.25"/>
<text text-anchor="middle" x="636" y="-92.35" font-family="Times,serif" font-size="12.00">NULL</text>
<polyline fill="none" stroke="black" points="609,-85.5 663,-85.5"/>
<text text-anchor="middle" x="636" y="-70.1" font-family="Times,serif" font-size="12.00">NULL</text>
</g>
<!-- node00x7f8a68d9dcc0&#45;&gt;node00x0 -->
<g id="edge6" class="edge">
<title>node00x7f8a68d9dcc0:f1&#45;&gt;node00x0:w1</title>
<path fill="none" stroke="black" d="M573,-74.5C584.62,-74.5 589.92,-74.5 598.08,-74.5"/>
<polygon fill="black" stroke="black" points="598,-78 608,-74.5 598,-71 598,-78"/>
</g>
<!-- node00x7f8a68d9dcc0&#45;&gt;node00x0 -->
<g id="edge7" class="edge">
<title>node00x7f8a68d9dcc0:f2&#45;&gt;node00x0:w2</title>
<path fill="none" stroke="black" d="M573,-96.5C584.62,-96.5 589.92,-96.5 598.08,-96.5"/>
<polygon fill="black" stroke="black" points="598,-100 608,-96.5 598,-93 598,-100"/>
</g>
<!-- node0 -->
<!-- node0&#45;&gt;HeadNode0 -->
</g>
</svg>
