<?xml version="1.0" encoding="UTF-8" standalone="no"?>
<!DOCTYPE svg PUBLIC "-//W3C//DTD SVG 1.1//EN"
 "http://www.w3.org/Graphics/SVG/1.1/DTD/svg11.dtd">
<!-- Generated by graphviz version 2.36.0 (20140111.2315)
 -->
<!-- Title: SkipList Pages: 1 -->
<svg width="798pt" height="926pt"
 viewBox="0.00 0.00 798.00 926.00" xmlns="http://www.w3.org/2000/svg" xmlns:xlink="http://www.w3.org/1999/xlink">
<g id="graph0" class="graph" transform="scale(1 1) rotate(0) translate(4 922)">
<title>SkipList</title>
<polygon fill="white" stroke="none" points="-4,4 -4,-922 794,-922 794,4 -4,4"/>
<text text-anchor="middle" x="395" y="-7.8" font-family="Times,serif" font-size="14.00">SkipList.</text>
<g id="clust1" class="cluster"><title>cluster0</title>
<polygon fill="none" stroke="black" stroke-dasharray="5,2" points="48,-833 48,-910 171,-910 171,-833 48,-833"/>
<text text-anchor="middle" x="109.5" y="-894.8" font-family="Times,serif" font-size="14.00">Skip list iteration 0</text>
</g>
<g id="clust2" class="cluster"><title>cluster1</title>
<polygon fill="none" stroke="black" stroke-dasharray="5,2" points="48,-722 48,-825 430,-825 430,-722 48,-722"/>
<text text-anchor="middle" x="239" y="-809.8" font-family="Times,serif" font-size="14.00">Skip list iteration 1</text>
</g>
<g id="clust3" class="cluster"><title>cluster2</title>
<polygon fill="none" stroke="black" stroke-dasharray="5,2" points="48,-611 48,-714 572,-714 572,-611 48,-611"/>
<text text-anchor="middle" x="310" y="-698.8" font-family="Times,serif" font-size="14.00">Skip list iteration 2</text>
</g>
<g id="clust4" class="cluster"><title>cluster3</title>
<polygon fill="none" stroke="black" stroke-dasharray="5,2" points="48,-500 48,-603 690,-603 690,-500 48,-500"/>
<text text-anchor="middle" x="369" y="-587.8" font-family="Times,serif" font-size="14.00">Skip list iteration 3</text>
</g>
<g id="clust5" class="cluster"><title>cluster4</title>
<polygon fill="none" stroke="black" stroke-dasharray="5,2" points="48,-389 48,-492 782,-492 782,-389 48,-389"/>
<text text-anchor="middle" x="415" y="-476.8" font-family="Times,serif" font-size="14.00">Skip list iteration 4</text>
</g>
<g id="clust6" class="cluster"><title>cluster5</title>
<polygon fill="none" stroke="black" stroke-dasharray="5,2" points="48,-298 48,-381 690,-381 690,-298 48,-298"/>
<text text-anchor="middle" x="369" y="-365.8" font-family="Times,serif" font-size="14.00">Skip list iteration 5</text>
</g>
<g id="clust7" class="cluster"><title>cluster6</title>
<polygon fill="none" stroke="black" stroke-dasharray="5,2" points="48,-207 48,-290 572,-290 572,-207 48,-207"/>
<text text-anchor="middle" x="310" y="-274.8" font-family="Times,serif" font-size="14.00">Skip list iteration 6</text>
</g>
<g id="clust8" class="cluster"><title>cluster7</title>
<polygon fill="none" stroke="black" stroke-dasharray="5,2" points="48,-116 48,-199 430,-199 430,-116 48,-116"/>
<text text-anchor="middle" x="239" y="-183.8" font-family="Times,serif" font-size="14.00">Skip list iteration 7</text>
</g>
<g id="clust9" class="cluster"><title>cluster8</title>
<polygon fill="none" stroke="black" stroke-dasharray="5,2" points="48,-31 48,-108 171,-108 171,-31 48,-31"/>
<text text-anchor="middle" x="109.5" y="-92.8" font-family="Times,serif" font-size="14.00">Skip list iteration 8</text>
</g>
<!-- HeadNode0 -->
<g id="node1" class="node"><title>HeadNode0</title>
<polygon fill="none" stroke="black" points="57.5,-842 57.5,-878 160.5,-878 160.5,-842 57.5,-842"/>
<text text-anchor="middle" x="109" y="-856.9" font-family="Times,serif" font-size="12.00">Empty HeadNode</text>
</g>
<!-- HeadNode1 -->
<g id="node2" class="node"><title>HeadNode1</title>
<polygon fill="none" stroke="black" points="56,-731 56,-773 162,-773 162,-731 56,-731"/>
<text text-anchor="middle" x="67.5" y="-759.4" font-family="Times,serif" font-size="12.00">1</text>
<polyline fill="none" stroke="black" points="79,-752 79,-773 "/>
<text text-anchor="middle" x="120.5" y="-759.4" font-family="Times,serif" font-size="12.00">0x104700000</text>
<polyline fill="none" stroke="black" points="56,-752 162,-752 "/>
<text text-anchor="middle" x="67.5" y="-738.4" font-family="Times,serif" font-size="12.00">1</text>
<polyline fill="none" stroke="black" points="79,-731 79,-752 "/>
<text text-anchor="middle" x="120.5" y="-738.4" font-family="Times,serif" font-size="12.00">0x104700000</text>
</g>
<!-- node10x104700000 -->
<g id="node4" class="node"><title>node10x104700000</title>
<polygon fill="none" stroke="black" points="224,-730.5 224,-793.5 282,-793.5 282,-730.5 224,-730.5"/>
<text text-anchor="middle" x="253" y="-779.9" font-family="Times,serif" font-size="12.00">0</text>
<polyline fill="none" stroke="black" points="224,-772.5 282,-772.5 "/>
<text text-anchor="middle" x="235.5" y="-758.9" font-family="Times,serif" font-size="12.00">1</text>
<polyline fill="none" stroke="black" points="247,-751.5 247,-772.5 "/>
<text text-anchor="middle" x="264.5" y="-758.9" font-family="Times,serif" font-size="12.00">0x0</text>
<polyline fill="none" stroke="black" points="224,-751.5 282,-751.5 "/>
<text text-anchor="middle" x="235.5" y="-737.9" font-family="Times,serif" font-size="12.00">1</text>
<polyline fill="none" stroke="black" points="247,-730.5 247,-751.5 "/>
<text text-anchor="middle" x="264.5" y="-737.9" font-family="Times,serif" font-size="12.00">0x0</text>
</g>
<!-- HeadNode1&#45;&gt;node10x104700000 -->
<g id="edge1" class="edge"><title>HeadNode1:f0&#45;&gt;node10x104700000:w1</title>
<path fill="none" stroke="black" d="M163,-763C185.92,-763 194.061,-762.261 212.824,-762.054"/>
<polygon fill="black" stroke="black" points="213.019,-765.553 223,-762 212.982,-758.553 213.019,-765.553"/>
</g>
<!-- HeadNode1&#45;&gt;node10x104700000 -->
<g id="edge2" class="edge"><title>HeadNode1:f1&#45;&gt;node10x104700000:w2</title>
<path fill="none" stroke="black" d="M163,-741C185.917,-741 194.063,-741 212.825,-741"/>
<polygon fill="black" stroke="black" points="213,-744.5 223,-741 213,-737.5 213,-744.5"/>
</g>
<!-- node10x0 -->
<g id="node3" class="node"><title>node10x0</title>
<polygon fill="none" stroke="black" points="368,-731 368,-773 422,-773 422,-731 368,-731"/>
<text text-anchor="middle" x="395" y="-759.4" font-family="Times,serif" font-size="12.00">NULL</text>
<polyline fill="none" stroke="black" points="368,-752 422,-752 "/>
<text text-anchor="middle" x="395" y="-738.4" font-family="Times,serif" font-size="12.00">NULL</text>
</g>
<!-- node10x104700000&#45;&gt;node10x0 -->
<g id="edge3" class="edge"><title>node10x104700000:f1&#45;&gt;node10x0:w1</title>
<path fill="none" stroke="black" d="M283,-762C316.69,-762 327.575,-762.814 356.811,-762.973"/>
<polygon fill="black" stroke="black" points="356.991,-766.474 367,-763 357.009,-759.474 356.991,-766.474"/>
</g>
<!-- node10x104700000&#45;&gt;node10x0 -->
<g id="edge4" class="edge"><title>node10x104700000:f2&#45;&gt;node10x0:w2</title>
<path fill="none" stroke="black" d="M283,-741C316.688,-741 327.577,-741 356.811,-741"/>
<polygon fill="black" stroke="black" points="357,-744.5 367,-741 357,-737.5 357,-744.5"/>
</g>
<!-- HeadNode2 -->
<g id="node5" class="node"><title>HeadNode2</title>
<polygon fill="none" stroke="black" points="56,-620 56,-662 162,-662 162,-620 56,-620"/>
<text text-anchor="middle" x="67.5" y="-648.4" font-family="Times,serif" font-size="12.00">1</text>
<polyline fill="none" stroke="black" points="79,-641 79,-662 "/>
<text text-anchor="middle" x="120.5" y="-648.4" font-family="Times,serif" font-size="12.00">0x104700000</text>
<polyline fill="none" stroke="black" points="56,-641 162,-641 "/>
<text text-anchor="middle" x="67.5" y="-627.4" font-family="Times,serif" font-size="12.00">1</text>
<polyline fill="none" stroke="black" points="79,-620 79,-641 "/>
<text text-anchor="middle" x="120.5" y="-627.4" font-family="Times,serif" font-size="12.00">0x104700000</text>
</g>
<!-- node20x104700000 -->
<g id="node7" class="node"><title>node20x104700000</title>
<polygon fill="none" stroke="black" points="200,-619.5 200,-682.5 306,-682.5 306,-619.5 200,-619.5"/>
<text text-anchor="middle" x="253" y="-668.9" font-family="Times,serif" font-size="12.00">0</text>
<polyline fill="none" stroke="black" points="200,-661.5 306,-661.5 "/>
<text text-anchor="middle" x="211.5" y="-647.9" font-family="Times,serif" font-size="12.00">1</text>
<polyline fill="none" stroke="black" points="223,-640.5 223,-661.5 "/>
<text text-anchor="middle" x="264.5" y="-647.9" font-family="Times,serif" font-size="12.00">0x104700080</text>
<polyline fill="none" stroke="black" points="200,-640.5 306,-640.5 "/>
<text text-anchor="middle" x="223.5" y="-626.9" font-family="Times,serif" font-size="12.00">2</text>
<polyline fill="none" stroke="black" points="247,-619.5 247,-640.5 "/>
<text text-anchor="middle" x="276.5" y="-626.9" font-family="Times,serif" font-size="12.00">0x0</text>
</g>
<!-- HeadNode2&#45;&gt;node20x104700000 -->
<g id="edge5" class="edge"><title>HeadNode2:f0&#45;&gt;node20x104700000:w1</title>
<path fill="none" stroke="black" d="M163,-652C175.466,-652 180.84,-651.426 189.87,-651.148"/>
<polygon fill="black" stroke="black" points="190.052,-654.645 200,-651 189.95,-647.646 190.052,-654.645"/>
</g>
<!-- HeadNode2&#45;&gt;node20x104700000 -->
<g id="edge6" class="edge"><title>HeadNode2:f1&#45;&gt;node20x104700000:w2</title>
<path fill="none" stroke="black" d="M163,-630C175.462,-630 180.841,-630 189.872,-630"/>
<polygon fill="black" stroke="black" points="190,-633.5 200,-630 190,-626.5 190,-633.5"/>
</g>
<!-- node20x0 -->
<g id="node6" class="node"><title>node20x0</title>
<polygon fill="none" stroke="black" points="510,-620 510,-662 564,-662 564,-620 510,-620"/>
<text text-anchor="middle" x="537" y="-648.4" font-family="Times,serif" font-size="12.00">NULL</text>
<polyline fill="none" stroke="black" points="510,-641 564,-641 "/>
<text text-anchor="middle" x="537" y="-627.4" font-family="Times,serif" font-size="12.00">NULL</text>
</g>
<!-- node20x104700000&#45;&gt;node20x0 -->
<g id="edge8" class="edge"><title>node20x104700000:f2&#45;&gt;node20x0:w2</title>
<path fill="none" stroke="black" d="M306,-630C392.786,-630 416.962,-630 498.978,-630"/>
<polygon fill="black" stroke="black" points="499,-633.5 509,-630 499,-626.5 499,-633.5"/>
</g>
<!-- node20x104700080 -->
<g id="node8" class="node"><title>node20x104700080</title>
<polygon fill="none" stroke="black" points="366,-640 366,-682 424,-682 424,-640 366,-640"/>
<text text-anchor="middle" x="395" y="-668.4" font-family="Times,serif" font-size="12.00">1</text>
<polyline fill="none" stroke="black" points="366,-661 424,-661 "/>
<text text-anchor="middle" x="377.5" y="-647.4" font-family="Times,serif" font-size="12.00">1</text>
<polyline fill="none" stroke="black" points="389,-640 389,-661 "/>
<text text-anchor="middle" x="406.5" y="-647.4" font-family="Times,serif" font-size="12.00">0x0</text>
</g>
<!-- node20x104700000&#45;&gt;node20x104700080 -->
<g id="edge7" class="edge"><title>node20x104700000:f1&#45;&gt;node20x104700080:w1</title>
<path fill="none" stroke="black" d="M306,-651C328.538,-651 336.543,-650.261 354.994,-650.054"/>
<polygon fill="black" stroke="black" points="355.019,-653.554 365,-650 354.981,-646.554 355.019,-653.554"/>
</g>
<!-- node20x104700080&#45;&gt;node20x0 -->
<g id="edge9" class="edge"><title>node20x104700080:f1&#45;&gt;node20x0:w1</title>
<path fill="none" stroke="black" d="M425,-650C458.697,-650 469.57,-651.628 498.809,-651.947"/>
<polygon fill="black" stroke="black" points="498.982,-655.447 509,-652 499.019,-648.447 498.982,-655.447"/>
</g>
<!-- HeadNode3 -->
<g id="node9" class="node"><title>HeadNode3</title>
<polygon fill="none" stroke="black" points="56,-509 56,-551 162,-551 162,-509 56,-509"/>
<text text-anchor="middle" x="67.5" y="-537.4" font-family="Times,serif" font-size="12.00">1</text>
<polyline fill="none" stroke="black" points="79,-530 79,-551 "/>
<text text-anchor="middle" x="120.5" y="-537.4" font-family="Times,serif" font-size="12.00">0x104700000</text>
<polyline fill="none" stroke="black" points="56,-530 162,-530 "/>
<text text-anchor="middle" x="67.5" y="-516.4" font-family="Times,serif" font-size="12.00">1</text>
<polyline fill="none" stroke="black" points="79,-509 79,-530 "/>
<text text-anchor="middle" x="120.5" y="-516.4" font-family="Times,serif" font-size="12.00">0x104700000</text>
</g>
<!-- node30x104700000 -->
<g id="node11" class="node"><title>node30x104700000</title>
<polygon fill="none" stroke="black" points="200,-508.5 200,-571.5 306,-571.5 306,-508.5 200,-508.5"/>
<text text-anchor="middle" x="253" y="-557.9" font-family="Times,serif" font-size="12.00">0</text>
<polyline fill="none" stroke="black" points="200,-550.5 306,-550.5 "/>
<text text-anchor="middle" x="211.5" y="-536.9" font-family="Times,serif" font-size="12.00">1</text>
<polyline fill="none" stroke="black" points="223,-529.5 223,-550.5 "/>
<text text-anchor="middle" x="264.5" y="-536.9" font-family="Times,serif" font-size="12.00">0x104700080</text>
<polyline fill="none" stroke="black" points="200,-529.5 306,-529.5 "/>
<text text-anchor="middle" x="223.5" y="-515.9" font-family="Times,serif" font-size="12.00">3</text>
<polyline fill="none" stroke="black" points="247,-508.5 247,-529.5 "/>
<text text-anchor="middle" x="276.5" y="-515.9" font-family="Times,serif" font-size="12.00">0x0</text>
</g>
<!-- HeadNode3&#45;&gt;node30x104700000 -->
<g id="edge10" class="edge"><title>HeadNode3:f0&#45;&gt;node30x104700000:w1</title>
<path fill="none" stroke="black" d="M163,-541C175.466,-541 180.84,-540.426 189.87,-540.148"/>
<polygon fill="black" stroke="black" points="190.052,-543.645 200,-540 189.95,-536.646 190.052,-543.645"/>
</g>
<!-- HeadNode3&#45;&gt;node30x104700000 -->
<g id="edge11" class="edge"><title>HeadNode3:f1&#45;&gt;node30x104700000:w2</title>
<path fill="none" stroke="black" d="M163,-519C175.462,-519 180.841,-519 189.872,-519"/>
<polygon fill="black" stroke="black" points="190,-522.5 200,-519 190,-515.5 190,-522.5"/>
</g>
<!-- node30x0 -->
<g id="node10" class="node"><title>node30x0</title>
<polygon fill="none" stroke="black" points="628,-509 628,-551 682,-551 682,-509 628,-509"/>
<text text-anchor="middle" x="655" y="-537.4" font-family="Times,serif" font-size="12.00">NULL</text>
<polyline fill="none" stroke="black" points="628,-530 682,-530 "/>
<text text-anchor="middle" x="655" y="-516.4" font-family="Times,serif" font-size="12.00">NULL</text>
</g>
<!-- node30x104700000&#45;&gt;node30x0 -->
<g id="edge13" class="edge"><title>node30x104700000:f2&#45;&gt;node30x0:w2</title>
<path fill="none" stroke="black" d="M306,-519C445.184,-519 482.528,-519 616.739,-519"/>
<polygon fill="black" stroke="black" points="617,-522.5 627,-519 617,-515.5 617,-522.5"/>
</g>
<!-- node30x104700080 -->
<g id="node12" class="node"><title>node30x104700080</title>
<polygon fill="none" stroke="black" points="342,-529 342,-571 448,-571 448,-529 342,-529"/>
<text text-anchor="middle" x="395" y="-557.4" font-family="Times,serif" font-size="12.00">1</text>
<polyline fill="none" stroke="black" points="342,-550 448,-550 "/>
<text text-anchor="middle" x="353.5" y="-536.4" font-family="Times,serif" font-size="12.00">1</text>
<polyline fill="none" stroke="black" points="365,-529 365,-550 "/>
<text text-anchor="middle" x="406.5" y="-536.4" font-family="Times,serif" font-size="12.00">0x1047000b0</text>
</g>
<!-- node30x104700000&#45;&gt;node30x104700080 -->
<g id="edge12" class="edge"><title>node30x104700000:f1&#45;&gt;node30x104700080:w1</title>
<path fill="none" stroke="black" d="M306,-540C318.005,-540 323.249,-539.438 331.873,-539.156"/>
<polygon fill="black" stroke="black" points="332.055,-542.654 342,-539 331.947,-535.655 332.055,-542.654"/>
</g>
<!-- node30x1047000b0 -->
<g id="node13" class="node"><title>node30x1047000b0</title>
<polygon fill="none" stroke="black" points="508,-529 508,-571 566,-571 566,-529 508,-529"/>
<text text-anchor="middle" x="537" y="-557.4" font-family="Times,serif" font-size="12.00">2</text>
<polyline fill="none" stroke="black" points="508,-550 566,-550 "/>
<text text-anchor="middle" x="519.5" y="-536.4" font-family="Times,serif" font-size="12.00">1</text>
<polyline fill="none" stroke="black" points="531,-529 531,-550 "/>
<text text-anchor="middle" x="548.5" y="-536.4" font-family="Times,serif" font-size="12.00">0x0</text>
</g>
<!-- node30x104700080&#45;&gt;node30x1047000b0 -->
<g id="edge14" class="edge"><title>node30x104700080:f1&#45;&gt;node30x1047000b0:w1</title>
<path fill="none" stroke="black" d="M448,-539C470.535,-539 478.545,-539 496.995,-539"/>
<polygon fill="black" stroke="black" points="497,-542.5 507,-539 497,-535.5 497,-542.5"/>
</g>
<!-- node30x1047000b0&#45;&gt;node30x0 -->
<g id="edge15" class="edge"><title>node30x1047000b0:f1&#45;&gt;node30x0:w1</title>
<path fill="none" stroke="black" d="M567,-539C589.929,-539 598.055,-540.477 616.821,-540.892"/>
<polygon fill="black" stroke="black" points="616.964,-544.394 627,-541 617.038,-537.394 616.964,-544.394"/>
</g>
<!-- HeadNode4 -->
<g id="node14" class="node"><title>HeadNode4</title>
<polygon fill="none" stroke="black" points="56,-398 56,-440 162,-440 162,-398 56,-398"/>
<text text-anchor="middle" x="67.5" y="-426.4" font-family="Times,serif" font-size="12.00">1</text>
<polyline fill="none" stroke="black" points="79,-419 79,-440 "/>
<text text-anchor="middle" x="120.5" y="-426.4" font-family="Times,serif" font-size="12.00">0x104700000</text>
<polyline fill="none" stroke="black" points="56,-419 162,-419 "/>
<text text-anchor="middle" x="67.5" y="-405.4" font-family="Times,serif" font-size="12.00">1</text>
<polyline fill="none" stroke="black" points="79,-398 79,-419 "/>
<text text-anchor="middle" x="120.5" y="-405.4" font-family="Times,serif" font-size="12.00">0x104700000</text>
</g>
<!-- node40x104700000 -->
<g id="node16" class="node"><title>node40x104700000</title>
<polygon fill="none" stroke="black" points="200,-397.5 200,-460.5 306,-460.5 306,-397.5 200,-397.5"/>
<text text-anchor="middle" x="253" y="-446.9" font-family="Times,serif" font-size="12.00">0</text>
<polyline fill="none" stroke="black" points="200,-439.5 306,-439.5 "/>
<text text-anchor="middle" x="211.5" y="-425.9" font-family="Times,serif" font-size="12.00">1</text>
<polyline fill="none" stroke="black" points="223,-418.5 223,-439.5 "/>
<text text-anchor="middle" x="264.5" y="-425.9" font-family="Times,serif" font-size="12.00">0x104700080</text>
<polyline fill="none" stroke="black" points="200,-418.5 306,-418.5 "/>
<text text-anchor="middle" x="223.5" y="-404.9" font-family="Times,serif" font-size="12.00">4</text>
<polyline fill="none" stroke="black" points="247,-397.5 247,-418.5 "/>
<text text-anchor="middle" x="276.5" y="-404.9" font-family="Times,serif" font-size="12.00">0x0</text>
</g>
<!-- HeadNode4&#45;&gt;node40x104700000 -->
<g id="edge16" class="edge"><title>HeadNode4:f0&#45;&gt;node40x104700000:w1</title>
<path fill="none" stroke="black" d="M163,-430C175.466,-430 180.84,-429.426 189.87,-429.148"/>
<polygon fill="black" stroke="black" points="190.052,-432.645 200,-429 189.95,-425.646 190.052,-432.645"/>
</g>
<!-- HeadNode4&#45;&gt;node40x104700000 -->
<g id="edge17" class="edge"><title>HeadNode4:f1&#45;&gt;node40x104700000:w2</title>
<path fill="none" stroke="black" d="M163,-408C175.462,-408 180.841,-408 189.872,-408"/>
<polygon fill="black" stroke="black" points="190,-411.5 200,-408 190,-404.5 190,-411.5"/>
</g>
<!-- node40x0 -->
<g id="node15" class="node"><title>node40x0</title>
<polygon fill="none" stroke="black" points="720,-398 720,-440 774,-440 774,-398 720,-398"/>
<text text-anchor="middle" x="747" y="-426.4" font-family="Times,serif" font-size="12.00">NULL</text>
<polyline fill="none" stroke="black" points="720,-419 774,-419 "/>
<text text-anchor="middle" x="747" y="-405.4" font-family="Times,serif" font-size="12.00">NULL</text>
</g>
<!-- node40x104700000&#45;&gt;node40x0 -->
<g id="edge19" class="edge"><title>node40x104700000:f2&#45;&gt;node40x0:w2</title>
<path fill="none" stroke="black" d="M306,-408C486.586,-408 534.245,-408 709.899,-408"/>
<polygon fill="black" stroke="black" points="710,-411.5 720,-408 710,-404.5 710,-411.5"/>
</g>
<!-- node40x104700080 -->
<g id="node17" class="node"><title>node40x104700080</title>
<polygon fill="none" stroke="black" points="342,-418 342,-460 448,-460 448,-418 342,-418"/>
<text text-anchor="middle" x="395" y="-446.4" font-family="Times,serif" font-size="12.00">1</text>
<polyline fill="none" stroke="black" points="342,-439 448,-439 "/>
<text text-anchor="middle" x="353.5" y="-425.4" font-family="Times,serif" font-size="12.00">1</text>
<polyline fill="none" stroke="black" points="365,-418 365,-439 "/>
<text text-anchor="middle" x="406.5" y="-425.4" font-family="Times,serif" font-size="12.00">0x1047000b0</text>
</g>
<!-- node40x104700000&#45;&gt;node40x104700080 -->
<g id="edge18" class="edge"><title>node40x104700000:f1&#45;&gt;node40x104700080:w1</title>
<path fill="none" stroke="black" d="M306,-429C318.005,-429 323.249,-428.438 331.873,-428.156"/>
<polygon fill="black" stroke="black" points="332.055,-431.654 342,-428 331.947,-424.655 332.055,-431.654"/>
</g>
<!-- node40x1047000b0 -->
<g id="node18" class="node"><title>node40x1047000b0</title>
<polygon fill="none" stroke="black" points="484,-418 484,-460 590,-460 590,-418 484,-418"/>
<text text-anchor="middle" x="537" y="-446.4" font-family="Times,serif" font-size="12.00">2</text>
<polyline fill="none" stroke="black" points="484,-439 590,-439 "/>
<text text-anchor="middle" x="495.5" y="-425.4" font-family="Times,serif" font-size="12.00">1</text>
<polyline fill="none" stroke="black" points="507,-418 507,-439 "/>
<text text-anchor="middle" x="548.5" y="-425.4" font-family="Times,serif" font-size="12.00">0x104700120</text>
</g>
<!-- node40x104700080&#45;&gt;node40x1047000b0 -->
<g id="edge20" class="edge"><title>node40x104700080:f1&#45;&gt;node40x1047000b0:w1</title>
<path fill="none" stroke="black" d="M448,-428C460,-428 465.25,-428 473.875,-428"/>
<polygon fill="black" stroke="black" points="474,-431.5 484,-428 474,-424.5 474,-431.5"/>
</g>
<!-- node40x104700120 -->
<g id="node19" class="node"><title>node40x104700120</title>
<polygon fill="none" stroke="black" points="626,-418 626,-460 684,-460 684,-418 626,-418"/>
<text text-anchor="middle" x="655" y="-446.4" font-family="Times,serif" font-size="12.00">3</text>
<polyline fill="none" stroke="black" points="626,-439 684,-439 "/>
<text text-anchor="middle" x="637.5" y="-425.4" font-family="Times,serif" font-size="12.00">1</text>
<polyline fill="none" stroke="black" points="649,-418 649,-439 "/>
<text text-anchor="middle" x="666.5" y="-425.4" font-family="Times,serif" font-size="12.00">0x0</text>
</g>
<!-- node40x1047000b0&#45;&gt;node40x104700120 -->
<g id="edge21" class="edge"><title>node40x1047000b0:f1&#45;&gt;node40x104700120:w1</title>
<path fill="none" stroke="black" d="M590,-428C602,-428 607.25,-428 615.875,-428"/>
<polygon fill="black" stroke="black" points="616,-431.5 626,-428 616,-424.5 616,-431.5"/>
</g>
<!-- node40x104700120&#45;&gt;node40x0 -->
<g id="edge22" class="edge"><title>node40x104700120:f1&#45;&gt;node40x0:w1</title>
<path fill="none" stroke="black" d="M685,-428C696.564,-428 701.66,-429.102 709.888,-429.67"/>
<polygon fill="black" stroke="black" points="709.891,-433.172 720,-430 710.12,-426.175 709.891,-433.172"/>
</g>
<!-- HeadNode5 -->
<g id="node20" class="node"><title>HeadNode5</title>
<polygon fill="none" stroke="black" points="56,-310 56,-346 162,-346 162,-310 56,-310"/>
<text text-anchor="middle" x="67.5" y="-324.9" font-family="Times,serif" font-size="12.00">1</text>
<polyline fill="none" stroke="black" points="79,-310 79,-346 "/>
<text text-anchor="middle" x="120.5" y="-324.9" font-family="Times,serif" font-size="12.00">0x104700080</text>
</g>
<!-- node50x104700080 -->
<g id="node22" class="node"><title>node50x104700080</title>
<polygon fill="none" stroke="black" points="200,-307 200,-349 306,-349 306,-307 200,-307"/>
<text text-anchor="middle" x="253" y="-335.4" font-family="Times,serif" font-size="12.00">1</text>
<polyline fill="none" stroke="black" points="200,-328 306,-328 "/>
<text text-anchor="middle" x="211.5" y="-314.4" font-family="Times,serif" font-size="12.00">1</text>
<polyline fill="none" stroke="black" points="223,-307 223,-328 "/>
<text text-anchor="middle" x="264.5" y="-314.4" font-family="Times,serif" font-size="12.00">0x1047000b0</text>
</g>
<!-- HeadNode5&#45;&gt;node50x104700080 -->
<g id="edge23" class="edge"><title>HeadNode5:f0&#45;&gt;node50x104700080:w1</title>
<path fill="none" stroke="black" d="M163,-328C176.135,-328 180.789,-321.552 189.949,-318.53"/>
<polygon fill="black" stroke="black" points="190.64,-321.965 200,-317 189.587,-315.044 190.64,-321.965"/>
</g>
<!-- node50x0 -->
<g id="node21" class="node"><title>node50x0</title>
<polygon fill="none" stroke="black" points="628,-307 628,-343 682,-343 682,-307 628,-307"/>
<text text-anchor="middle" x="655" y="-321.9" font-family="Times,serif" font-size="12.00">NULL</text>
</g>
<!-- node50x1047000b0 -->
<g id="node23" class="node"><title>node50x1047000b0</title>
<polygon fill="none" stroke="black" points="342,-307 342,-349 448,-349 448,-307 342,-307"/>
<text text-anchor="middle" x="395" y="-335.4" font-family="Times,serif" font-size="12.00">2</text>
<polyline fill="none" stroke="black" points="342,-328 448,-328 "/>
<text text-anchor="middle" x="353.5" y="-314.4" font-family="Times,serif" font-size="12.00">1</text>
<polyline fill="none" stroke="black" points="365,-307 365,-328 "/>
<text text-anchor="middle" x="406.5" y="-314.4" font-family="Times,serif" font-size="12.00">0x104700120</text>
</g>
<!-- node50x104700080&#45;&gt;node50x1047000b0 -->
<g id="edge24" class="edge"><title>node50x104700080:f1&#45;&gt;node50x1047000b0:w1</title>
<path fill="none" stroke="black" d="M306,-317C318,-317 323.25,-317 331.875,-317"/>
<polygon fill="black" stroke="black" points="332,-320.5 342,-317 332,-313.5 332,-320.5"/>
</g>
<!-- node50x104700120 -->
<g id="node24" class="node"><title>node50x104700120</title>
<polygon fill="none" stroke="black" points="508,-307 508,-349 566,-349 566,-307 508,-307"/>
<text text-anchor="middle" x="537" y="-335.4" font-family="Times,serif" font-size="12.00">3</text>
<polyline fill="none" stroke="black" points="508,-328 566,-328 "/>
<text text-anchor="middle" x="519.5" y="-314.4" font-family="Times,serif" font-size="12.00">1</text>
<polyline fill="none" stroke="black" points="531,-307 531,-328 "/>
<text text-anchor="middle" x="548.5" y="-314.4" font-family="Times,serif" font-size="12.00">0x0</text>
</g>
<!-- node50x1047000b0&#45;&gt;node50x104700120 -->
<g id="edge25" class="edge"><title>node50x1047000b0:f1&#45;&gt;node50x104700120:w1</title>
<path fill="none" stroke="black" d="M448,-317C470.535,-317 478.545,-317 496.995,-317"/>
<polygon fill="black" stroke="black" points="497,-320.5 507,-317 497,-313.5 497,-320.5"/>
</g>
<!-- node50x104700120&#45;&gt;node50x0 -->
<g id="edge26" class="edge"><title>node50x104700120:f1&#45;&gt;node50x0:w1</title>
<path fill="none" stroke="black" d="M567,-317C583.578,-317 601.84,-318.425 617.411,-320.073"/>
<polygon fill="black" stroke="black" points="617.378,-323.591 627.707,-321.234 618.162,-316.635 617.378,-323.591"/>
</g>
<!-- HeadNode6 -->
<g id="node25" class="node"><title>HeadNode6</title>
<polygon fill="none" stroke="black" points="56,-219 56,-255 162,-255 162,-219 56,-219"/>
<text text-anchor="middle" x="67.5" y="-233.9" font-family="Times,serif" font-size="12.00">1</text>
<polyline fill="none" stroke="black" points="79,-219 79,-255 "/>
<text text-anchor="middle" x="120.5" y="-233.9" font-family="Times,serif" font-size="12.00">0x1047000b0</text>
</g>
<!-- node60x1047000b0 -->
<g id="node27" class="node"><title>node60x1047000b0</title>
<polygon fill="none" stroke="black" points="200,-216 200,-258 306,-258 306,-216 200,-216"/>
<text text-anchor="middle" x="253" y="-244.4" font-family="Times,serif" font-size="12.00">2</text>
<polyline fill="none" stroke="black" points="200,-237 306,-237 "/>
<text text-anchor="middle" x="211.5" y="-223.4" font-family="Times,serif" font-size="12.00">1</text>
<polyline fill="none" stroke="black" points="223,-216 223,-237 "/>
<text text-anchor="middle" x="264.5" y="-223.4" font-family="Times,serif" font-size="12.00">0x104700120</text>
</g>
<!-- HeadNode6&#45;&gt;node60x1047000b0 -->
<g id="edge27" class="edge"><title>HeadNode6:f0&#45;&gt;node60x1047000b0:w1</title>
<path fill="none" stroke="black" d="M163,-237C176.135,-237 180.789,-230.552 189.949,-227.53"/>
<polygon fill="black" stroke="black" points="190.64,-230.965 200,-226 189.587,-224.044 190.64,-230.965"/>
</g>
<!-- node60x0 -->
<g id="node26" class="node"><title>node60x0</title>
<polygon fill="none" stroke="black" points="510,-216 510,-252 564,-252 564,-216 510,-216"/>
<text text-anchor="middle" x="537" y="-230.9" font-family="Times,serif" font-size="12.00">NULL</text>
</g>
<!-- node60x104700120 -->
<g id="node28" class="node"><title>node60x104700120</title>
<polygon fill="none" stroke="black" points="366,-216 366,-258 424,-258 424,-216 366,-216"/>
<text text-anchor="middle" x="395" y="-244.4" font-family="Times,serif" font-size="12.00">3</text>
<polyline fill="none" stroke="black" points="366,-237 424,-237 "/>
<text text-anchor="middle" x="377.5" y="-223.4" font-family="Times,serif" font-size="12.00">1</text>
<polyline fill="none" stroke="black" points="389,-216 389,-237 "/>
<text text-anchor="middle" x="406.5" y="-223.4" font-family="Times,serif" font-size="12.00">0x0</text>
</g>
<!-- node60x1047000b0&#45;&gt;node60x104700120 -->
<g id="edge28" class="edge"><title>node60x1047000b0:f1&#45;&gt;node60x104700120:w1</title>
<path fill="none" stroke="black" d="M306,-226C328.535,-226 336.545,-226 354.995,-226"/>
<polygon fill="black" stroke="black" points="355,-229.5 365,-226 355,-222.5 355,-229.5"/>
</g>
<!-- node60x104700120&#45;&gt;node60x0 -->
<g id="edge29" class="edge"><title>node60x104700120:f1&#45;&gt;node60x0:w1</title>
<path fill="none" stroke="black" d="M425,-226C449.961,-226 477.973,-228.001 499.738,-230.002"/>
<polygon fill="black" stroke="black" points="499.592,-233.504 509.88,-230.976 500.261,-226.536 499.592,-233.504"/>
</g>
<!-- HeadNode7 -->
<g id="node29" class="node"><title>HeadNode7</title>
<polygon fill="none" stroke="black" points="56,-128 56,-164 162,-164 162,-128 56,-128"/>
<text text-anchor="middle" x="67.5" y="-142.9" font-family="Times,serif" font-size="12.00">1</text>
<polyline fill="none" stroke="black" points="79,-128 79,-164 "/>
<text text-anchor="middle" x="120.5" y="-142.9" font-family="Times,serif" font-size="12.00">0x104700120</text>
</g>
<!-- node70x104700120 -->
<g id="node31" class="node"><title>node70x104700120</title>
<polygon fill="none" stroke="black" points="224,-125 224,-167 282,-167 282,-125 224,-125"/>
<text text-anchor="middle" x="253" y="-153.4" font-family="Times,serif" font-size="12.00">3</text>
<polyline fill="none" stroke="black" points="224,-146 282,-146 "/>
<text text-anchor="middle" x="235.5" y="-132.4" font-family="Times,serif" font-size="12.00">1</text>
<polyline fill="none" stroke="black" points="247,-125 247,-146 "/>
<text text-anchor="middle" x="264.5" y="-132.4" font-family="Times,serif" font-size="12.00">0x0</text>
</g>
<!-- HeadNode7&#45;&gt;node70x104700120 -->
<g id="edge30" class="edge"><title>HeadNode7:f0&#45;&gt;node70x104700120:w1</title>
<path fill="none" stroke="black" d="M163,-146C186.405,-146 193.91,-137.802 212.967,-135.561"/>
<polygon fill="black" stroke="black" points="213.211,-139.053 223,-135 212.82,-132.063 213.211,-139.053"/>
</g>
<!-- node70x0 -->
<g id="node30" class="node"><title>node70x0</title>
<polygon fill="none" stroke="black" points="368,-125 368,-161 422,-161 422,-125 368,-125"/>
<text text-anchor="middle" x="395" y="-139.9" font-family="Times,serif" font-size="12.00">NULL</text>
</g>
<!-- node70x104700120&#45;&gt;node70x0 -->
<g id="edge31" class="edge"><title>node70x104700120:f1&#45;&gt;node70x0:w1</title>
<path fill="none" stroke="black" d="M283,-135C307.961,-135 335.973,-137.001 357.738,-139.002"/>
<polygon fill="black" stroke="black" points="357.592,-142.504 367.88,-139.976 358.261,-135.536 357.592,-142.504"/>
</g>
<!-- HeadNode8 -->
<g id="node32" class="node"><title>HeadNode8</title>
<polygon fill="none" stroke="black" points="57.5,-40 57.5,-76 160.5,-76 160.5,-40 57.5,-40"/>
<text text-anchor="middle" x="109" y="-54.9" font-family="Times,serif" font-size="12.00">Empty HeadNode</text>
</g>
<!-- node0 -->
<!-- node0&#45;&gt;HeadNode0 -->
<!-- node0&#45;&gt;HeadNode1 -->
<!-- node0&#45;&gt;HeadNode2 -->
<!-- node0&#45;&gt;HeadNode3 -->
<!-- node0&#45;&gt;HeadNode4 -->
<!-- node0&#45;&gt;HeadNode5 -->
<!-- node0&#45;&gt;HeadNode6 -->
<!-- node0&#45;&gt;HeadNode7 -->
<!-- node0&#45;&gt;HeadNode8 -->
</g>
</svg>
