<?xml version="1.0" encoding="UTF-8" standalone="no"?>
<!DOCTYPE svg PUBLIC "-//W3C//DTD SVG 1.1//EN"
 "http://www.w3.org/Graphics/SVG/1.1/DTD/svg11.dtd">
<!-- Generated by graphviz version 2.36.0 (20140111.2315)
 -->
<!-- Title: SkipList Pages: 1 -->
<svg width="798pt" height="926pt"
 viewBox="0.00 0.00 798.00 926.00" xmlns="http://www.w3.org/2000/svg" xmlns:xlink="http://www.w3.org/1999/xlink">
<g id="graph0" class="graph" transform="scale(1 1) rotate(0) translate(4 922)">
<title>SkipList</title>
<polygon fill="white" stroke="none" points="-4,4 -4,-922 794,-922 794,4 -4,4"/>
<text text-anchor="middle" x="395" y="-7.8" font-family="Times,serif" font-size="14.00">SkipList.</text>
<g id="clust1" class="cluster"><title>cluster0</title>
<polygon fill="none" stroke="black" stroke-dasharray="5,2" points="48,-833 48,-910 171,-910 171,-833 48,-833"/>
<text text-anchor="middle" x="109.5" y="-894.8" font-family="Times,serif" font-size="14.00">Skip list iteration 0</text>
</g>
<g id="clust2" class="cluster"><title>cluster1</title>
<polygon fill="none" stroke="black" stroke-dasharray="5,2" points="48,-722 48,-825 430,-825 430,-722 48,-722"/>
<text text-anchor="middle" x="239" y="-809.8" font-family="Times,serif" font-size="14.00">Skip list iteration 1</text>
</g>
<g id="clust3" class="cluster"><title>cluster2</title>
<polygon fill="none" stroke="black" stroke-dasharray="5,2" points="48,-611 48,-714 572,-714 572,-611 48,-611"/>
<text text-anchor="middle" x="310" y="-698.8" font-family="Times,serif" font-size="14.00">Skip list iteration 2</text>
</g>
<g id="clust4" class="cluster"><title>cluster3</title>
<polygon fill="none" stroke="black" stroke-dasharray="5,2" points="48,-500 48,-603 690,-603 690,-500 48,-500"/>
<text text-anchor="middle" x="369" y="-587.8" font-family="Times,serif" font-size="14.00">Skip list iteration 3</text>
</g>
<g id="clust5" class="cluster"><title>cluster4</title>
<polygon fill="none" stroke="black" stroke-dasharray="5,2" points="48,-389 48,-492 782,-492 782,-389 48,-389"/>
<text text-anchor="middle" x="415" y="-476.8" font-family="Times,serif" font-size="14.00">Skip list iteration 4</text>
</g>
<g id="clust6" class="cluster"><title>cluster5</title>
<polygon fill="none" stroke="black" stroke-dasharray="5,2" points="48,-298 48,-381 690,-381 690,-298 48,-298"/>
<text text-anchor="middle" x="369" y="-365.8" font-family="Times,serif" font-size="14.00">Skip list iteration 5</text>
</g>
<g id="clust7" class="cluster"><title>cluster6</title>
<polygon fill="none" stroke="black" stroke-dasharray="5,2" points="48,-207 48,-290 572,-290 572,-207 48,-207"/>
<text text-anchor="middle" x="310" y="-274.8" font-family="Times,serif" font-size="14.00">Skip list iteration 6</text>
</g>
<g id="clust8" class="cluster"><title>cluster7</title>
<polygon fill="none" stroke="black" stroke-dasharray="5,2" points="48,-116 48,-199 430,-199 430,-116 48,-116"/>
<text text-anchor="middle" x="239" y="-183.8" font-family="Times,serif" font-size="14.00">Skip list iteration 7</text>
</g>
<g id="clust9" class="cluster"><title>cluster8</title>
<polygon fill="none" stroke="black" stroke-dasharray="5,2" points="48,-31 48,-108 171,-108 171,-31 48,-31"/>
<text text-anchor="middle" x="109.5" y="-92.8" font-family="Times,serif" font-size="14.00">Skip list iteration 8</text>
</g>
<!-- HeadNode0 -->
<g id="node1" class="node"><title>HeadNode0</title>
<polygon fill="none" stroke="black" points="57.5,-842 57.5,-878 160.5,-878 160.5,-842 57.5,-842"/>
<text text-anchor="middle" x="109" y="-856.9" font-family="Times,serif" font-size="12.00">Empty HeadNode</text>
</g>
<!-- HeadNode1 -->
<g id="node2" class="node"><title>HeadNode1</title>
<polygon fill="none" stroke="black" points="56,-751 56,-793 162,-793 162,-751 56,-751"/>
<text text-anchor="middle" x="67.5" y="-779.4" font-family="Times,serif" font-size="12.00">1</text>
<polyline fill="none" stroke="black" points="79,-772 79,-793 "/>
<text text-anchor="middle" x="120.5" y="-779.4" font-family="Times,serif" font-size="12.00">0x100700000</text>
<polyline fill="none" stroke="black" points="56,-772 162,-772 "/>
<text text-anchor="middle" x="67.5" y="-758.4" font-family="Times,serif" font-size="12.00">1</text>
<polyline fill="none" stroke="black" points="79,-751 79,-772 "/>
<text text-anchor="middle" x="120.5" y="-758.4" font-family="Times,serif" font-size="12.00">0x100700000</text>
</g>
<!-- node10x100700000 -->
<g id="node3" class="node"><title>node10x100700000</title>
<polygon fill="none" stroke="black" points="224,-730.5 224,-793.5 282,-793.5 282,-730.5 224,-730.5"/>
<text text-anchor="middle" x="235.5" y="-779.9" font-family="Times,serif" font-size="12.00">1</text>
<polyline fill="none" stroke="black" points="247,-772.5 247,-793.5 "/>
<text text-anchor="middle" x="264.5" y="-779.9" font-family="Times,serif" font-size="12.00">0x0</text>
<polyline fill="none" stroke="black" points="224,-772.5 282,-772.5 "/>
<text text-anchor="middle" x="235.5" y="-758.9" font-family="Times,serif" font-size="12.00">1</text>
<polyline fill="none" stroke="black" points="247,-751.5 247,-772.5 "/>
<text text-anchor="middle" x="264.5" y="-758.9" font-family="Times,serif" font-size="12.00">0x0</text>
<polyline fill="none" stroke="black" points="224,-751.5 282,-751.5 "/>
<text text-anchor="middle" x="253" y="-737.9" font-family="Times,serif" font-size="12.00">0</text>
</g>
<!-- HeadNode1&#45;&gt;node10x100700000 -->
<g id="edge1" class="edge"><title>HeadNode1:f1&#45;&gt;node10x100700000:w1</title>
<path fill="none" stroke="black" d="M163,-761C185.92,-761 194.061,-761.739 212.824,-761.946"/>
<polygon fill="black" stroke="black" points="212.982,-765.447 223,-762 213.019,-758.447 212.982,-765.447"/>
</g>
<!-- HeadNode1&#45;&gt;node10x100700000 -->
<g id="edge2" class="edge"><title>HeadNode1:f2&#45;&gt;node10x100700000:w2</title>
<path fill="none" stroke="black" d="M163,-783C185.917,-783 194.063,-783 212.825,-783"/>
<polygon fill="black" stroke="black" points="213,-786.5 223,-783 213,-779.5 213,-786.5"/>
</g>
<!-- node10x0 -->
<g id="node4" class="node"><title>node10x0</title>
<polygon fill="none" stroke="black" points="368,-751 368,-793 422,-793 422,-751 368,-751"/>
<text text-anchor="middle" x="395" y="-779.4" font-family="Times,serif" font-size="12.00">NULL</text>
<polyline fill="none" stroke="black" points="368,-772 422,-772 "/>
<text text-anchor="middle" x="395" y="-758.4" font-family="Times,serif" font-size="12.00">NULL</text>
</g>
<!-- node10x100700000&#45;&gt;node10x0 -->
<g id="edge3" class="edge"><title>node10x100700000:f1&#45;&gt;node10x0:w1</title>
<path fill="none" stroke="black" d="M283,-762C316.69,-762 327.575,-761.186 356.811,-761.027"/>
<polygon fill="black" stroke="black" points="357.009,-764.526 367,-761 356.991,-757.526 357.009,-764.526"/>
</g>
<!-- node10x100700000&#45;&gt;node10x0 -->
<g id="edge4" class="edge"><title>node10x100700000:f2&#45;&gt;node10x0:w2</title>
<path fill="none" stroke="black" d="M283,-783C316.688,-783 327.577,-783 356.811,-783"/>
<polygon fill="black" stroke="black" points="357,-786.5 367,-783 357,-779.5 357,-786.5"/>
</g>
<!-- HeadNode2 -->
<g id="node5" class="node"><title>HeadNode2</title>
<polygon fill="none" stroke="black" points="56,-640 56,-682 162,-682 162,-640 56,-640"/>
<text text-anchor="middle" x="67.5" y="-668.4" font-family="Times,serif" font-size="12.00">1</text>
<polyline fill="none" stroke="black" points="79,-661 79,-682 "/>
<text text-anchor="middle" x="120.5" y="-668.4" font-family="Times,serif" font-size="12.00">0x100700000</text>
<polyline fill="none" stroke="black" points="56,-661 162,-661 "/>
<text text-anchor="middle" x="67.5" y="-647.4" font-family="Times,serif" font-size="12.00">1</text>
<polyline fill="none" stroke="black" points="79,-640 79,-661 "/>
<text text-anchor="middle" x="120.5" y="-647.4" font-family="Times,serif" font-size="12.00">0x100700000</text>
</g>
<!-- node20x100700000 -->
<g id="node6" class="node"><title>node20x100700000</title>
<polygon fill="none" stroke="black" points="200,-619.5 200,-682.5 306,-682.5 306,-619.5 200,-619.5"/>
<text text-anchor="middle" x="223.5" y="-668.9" font-family="Times,serif" font-size="12.00">2</text>
<polyline fill="none" stroke="black" points="247,-661.5 247,-682.5 "/>
<text text-anchor="middle" x="276.5" y="-668.9" font-family="Times,serif" font-size="12.00">0x0</text>
<polyline fill="none" stroke="black" points="200,-661.5 306,-661.5 "/>
<text text-anchor="middle" x="211.5" y="-647.9" font-family="Times,serif" font-size="12.00">1</text>
<polyline fill="none" stroke="black" points="223,-640.5 223,-661.5 "/>
<text text-anchor="middle" x="264.5" y="-647.9" font-family="Times,serif" font-size="12.00">0x100700080</text>
<polyline fill="none" stroke="black" points="200,-640.5 306,-640.5 "/>
<text text-anchor="middle" x="253" y="-626.9" font-family="Times,serif" font-size="12.00">0</text>
</g>
<!-- HeadNode2&#45;&gt;node20x100700000 -->
<g id="edge5" class="edge"><title>HeadNode2:f1&#45;&gt;node20x100700000:w1</title>
<path fill="none" stroke="black" d="M163,-650C175.466,-650 180.84,-650.574 189.87,-650.852"/>
<polygon fill="black" stroke="black" points="189.95,-654.354 200,-651 190.052,-647.355 189.95,-654.354"/>
</g>
<!-- HeadNode2&#45;&gt;node20x100700000 -->
<g id="edge6" class="edge"><title>HeadNode2:f2&#45;&gt;node20x100700000:w2</title>
<path fill="none" stroke="black" d="M163,-672C175.462,-672 180.841,-672 189.872,-672"/>
<polygon fill="black" stroke="black" points="190,-675.5 200,-672 190,-668.5 190,-675.5"/>
</g>
<!-- node20x100700080 -->
<g id="node7" class="node"><title>node20x100700080</title>
<polygon fill="none" stroke="black" points="366,-620 366,-662 424,-662 424,-620 366,-620"/>
<text text-anchor="middle" x="377.5" y="-648.4" font-family="Times,serif" font-size="12.00">1</text>
<polyline fill="none" stroke="black" points="389,-641 389,-662 "/>
<text text-anchor="middle" x="406.5" y="-648.4" font-family="Times,serif" font-size="12.00">0x0</text>
<polyline fill="none" stroke="black" points="366,-641 424,-641 "/>
<text text-anchor="middle" x="395" y="-627.4" font-family="Times,serif" font-size="12.00">1</text>
</g>
<!-- node20x100700000&#45;&gt;node20x100700080 -->
<g id="edge7" class="edge"><title>node20x100700000:f1&#45;&gt;node20x100700080:w1</title>
<path fill="none" stroke="black" d="M306,-651C328.538,-651 336.543,-651.739 354.994,-651.946"/>
<polygon fill="black" stroke="black" points="354.981,-655.446 365,-652 355.019,-648.446 354.981,-655.446"/>
</g>
<!-- node20x0 -->
<g id="node8" class="node"><title>node20x0</title>
<polygon fill="none" stroke="black" points="510,-640 510,-682 564,-682 564,-640 510,-640"/>
<text text-anchor="middle" x="537" y="-668.4" font-family="Times,serif" font-size="12.00">NULL</text>
<polyline fill="none" stroke="black" points="510,-661 564,-661 "/>
<text text-anchor="middle" x="537" y="-647.4" font-family="Times,serif" font-size="12.00">NULL</text>
</g>
<!-- node20x100700000&#45;&gt;node20x0 -->
<g id="edge8" class="edge"><title>node20x100700000:f2&#45;&gt;node20x0:w2</title>
<path fill="none" stroke="black" d="M306,-672C392.786,-672 416.962,-672 498.978,-672"/>
<polygon fill="black" stroke="black" points="499,-675.5 509,-672 499,-668.5 499,-675.5"/>
</g>
<!-- node20x100700080&#45;&gt;node20x0 -->
<g id="edge9" class="edge"><title>node20x100700080:f1&#45;&gt;node20x0:w1</title>
<path fill="none" stroke="black" d="M425,-652C458.697,-652 469.57,-650.372 498.809,-650.053"/>
<polygon fill="black" stroke="black" points="499.019,-653.553 509,-650 498.982,-646.553 499.019,-653.553"/>
</g>
<!-- HeadNode3 -->
<g id="node9" class="node"><title>HeadNode3</title>
<polygon fill="none" stroke="black" points="56,-529 56,-571 162,-571 162,-529 56,-529"/>
<text text-anchor="middle" x="67.5" y="-557.4" font-family="Times,serif" font-size="12.00">1</text>
<polyline fill="none" stroke="black" points="79,-550 79,-571 "/>
<text text-anchor="middle" x="120.5" y="-557.4" font-family="Times,serif" font-size="12.00">0x100700000</text>
<polyline fill="none" stroke="black" points="56,-550 162,-550 "/>
<text text-anchor="middle" x="67.5" y="-536.4" font-family="Times,serif" font-size="12.00">1</text>
<polyline fill="none" stroke="black" points="79,-529 79,-550 "/>
<text text-anchor="middle" x="120.5" y="-536.4" font-family="Times,serif" font-size="12.00">0x100700000</text>
</g>
<!-- node30x100700000 -->
<g id="node10" class="node"><title>node30x100700000</title>
<polygon fill="none" stroke="black" points="200,-508.5 200,-571.5 306,-571.5 306,-508.5 200,-508.5"/>
<text text-anchor="middle" x="223.5" y="-557.9" font-family="Times,serif" font-size="12.00">3</text>
<polyline fill="none" stroke="black" points="247,-550.5 247,-571.5 "/>
<text text-anchor="middle" x="276.5" y="-557.9" font-family="Times,serif" font-size="12.00">0x0</text>
<polyline fill="none" stroke="black" points="200,-550.5 306,-550.5 "/>
<text text-anchor="middle" x="211.5" y="-536.9" font-family="Times,serif" font-size="12.00">1</text>
<polyline fill="none" stroke="black" points="223,-529.5 223,-550.5 "/>
<text text-anchor="middle" x="264.5" y="-536.9" font-family="Times,serif" font-size="12.00">0x100700080</text>
<polyline fill="none" stroke="black" points="200,-529.5 306,-529.5 "/>
<text text-anchor="middle" x="253" y="-515.9" font-family="Times,serif" font-size="12.00">0</text>
</g>
<!-- HeadNode3&#45;&gt;node30x100700000 -->
<g id="edge10" class="edge"><title>HeadNode3:f1&#45;&gt;node30x100700000:w1</title>
<path fill="none" stroke="black" d="M163,-539C175.466,-539 180.84,-539.574 189.87,-539.852"/>
<polygon fill="black" stroke="black" points="189.95,-543.354 200,-540 190.052,-536.355 189.95,-543.354"/>
</g>
<!-- HeadNode3&#45;&gt;node30x100700000 -->
<g id="edge11" class="edge"><title>HeadNode3:f2&#45;&gt;node30x100700000:w2</title>
<path fill="none" stroke="black" d="M163,-561C175.462,-561 180.841,-561 189.872,-561"/>
<polygon fill="black" stroke="black" points="190,-564.5 200,-561 190,-557.5 190,-564.5"/>
</g>
<!-- node30x100700080 -->
<g id="node11" class="node"><title>node30x100700080</title>
<polygon fill="none" stroke="black" points="342,-509 342,-551 448,-551 448,-509 342,-509"/>
<text text-anchor="middle" x="353.5" y="-537.4" font-family="Times,serif" font-size="12.00">1</text>
<polyline fill="none" stroke="black" points="365,-530 365,-551 "/>
<text text-anchor="middle" x="406.5" y="-537.4" font-family="Times,serif" font-size="12.00">0x1007000b0</text>
<polyline fill="none" stroke="black" points="342,-530 448,-530 "/>
<text text-anchor="middle" x="395" y="-516.4" font-family="Times,serif" font-size="12.00">1</text>
</g>
<!-- node30x100700000&#45;&gt;node30x100700080 -->
<g id="edge12" class="edge"><title>node30x100700000:f1&#45;&gt;node30x100700080:w1</title>
<path fill="none" stroke="black" d="M306,-540C318.005,-540 323.249,-540.562 331.873,-540.844"/>
<polygon fill="black" stroke="black" points="331.947,-544.345 342,-541 332.055,-537.346 331.947,-544.345"/>
</g>
<!-- node30x0 -->
<g id="node12" class="node"><title>node30x0</title>
<polygon fill="none" stroke="black" points="628,-529 628,-571 682,-571 682,-529 628,-529"/>
<text text-anchor="middle" x="655" y="-557.4" font-family="Times,serif" font-size="12.00">NULL</text>
<polyline fill="none" stroke="black" points="628,-550 682,-550 "/>
<text text-anchor="middle" x="655" y="-536.4" font-family="Times,serif" font-size="12.00">NULL</text>
</g>
<!-- node30x100700000&#45;&gt;node30x0 -->
<g id="edge13" class="edge"><title>node30x100700000:f2&#45;&gt;node30x0:w2</title>
<path fill="none" stroke="black" d="M306,-561C445.184,-561 482.528,-561 616.739,-561"/>
<polygon fill="black" stroke="black" points="617,-564.5 627,-561 617,-557.5 617,-564.5"/>
</g>
<!-- node30x1007000b0 -->
<g id="node13" class="node"><title>node30x1007000b0</title>
<polygon fill="none" stroke="black" points="508,-509 508,-551 566,-551 566,-509 508,-509"/>
<text text-anchor="middle" x="519.5" y="-537.4" font-family="Times,serif" font-size="12.00">1</text>
<polyline fill="none" stroke="black" points="531,-530 531,-551 "/>
<text text-anchor="middle" x="548.5" y="-537.4" font-family="Times,serif" font-size="12.00">0x0</text>
<polyline fill="none" stroke="black" points="508,-530 566,-530 "/>
<text text-anchor="middle" x="537" y="-516.4" font-family="Times,serif" font-size="12.00">2</text>
</g>
<!-- node30x100700080&#45;&gt;node30x1007000b0 -->
<g id="edge14" class="edge"><title>node30x100700080:f1&#45;&gt;node30x1007000b0:w1</title>
<path fill="none" stroke="black" d="M448,-541C470.535,-541 478.545,-541 496.995,-541"/>
<polygon fill="black" stroke="black" points="497,-544.5 507,-541 497,-537.5 497,-544.5"/>
</g>
<!-- node30x1007000b0&#45;&gt;node30x0 -->
<g id="edge15" class="edge"><title>node30x1007000b0:f1&#45;&gt;node30x0:w1</title>
<path fill="none" stroke="black" d="M567,-541C589.929,-541 598.055,-539.523 616.821,-539.108"/>
<polygon fill="black" stroke="black" points="617.038,-542.606 627,-539 616.964,-535.606 617.038,-542.606"/>
</g>
<!-- HeadNode4 -->
<g id="node14" class="node"><title>HeadNode4</title>
<polygon fill="none" stroke="black" points="56,-418 56,-460 162,-460 162,-418 56,-418"/>
<text text-anchor="middle" x="67.5" y="-446.4" font-family="Times,serif" font-size="12.00">1</text>
<polyline fill="none" stroke="black" points="79,-439 79,-460 "/>
<text text-anchor="middle" x="120.5" y="-446.4" font-family="Times,serif" font-size="12.00">0x100700000</text>
<polyline fill="none" stroke="black" points="56,-439 162,-439 "/>
<text text-anchor="middle" x="67.5" y="-425.4" font-family="Times,serif" font-size="12.00">1</text>
<polyline fill="none" stroke="black" points="79,-418 79,-439 "/>
<text text-anchor="middle" x="120.5" y="-425.4" font-family="Times,serif" font-size="12.00">0x100700000</text>
</g>
<!-- node40x100700000 -->
<g id="node15" class="node"><title>node40x100700000</title>
<polygon fill="none" stroke="black" points="200,-397.5 200,-460.5 306,-460.5 306,-397.5 200,-397.5"/>
<text text-anchor="middle" x="223.5" y="-446.9" font-family="Times,serif" font-size="12.00">4</text>
<polyline fill="none" stroke="black" points="247,-439.5 247,-460.5 "/>
<text text-anchor="middle" x="276.5" y="-446.9" font-family="Times,serif" font-size="12.00">0x0</text>
<polyline fill="none" stroke="black" points="200,-439.5 306,-439.5 "/>
<text text-anchor="middle" x="211.5" y="-425.9" font-family="Times,serif" font-size="12.00">1</text>
<polyline fill="none" stroke="black" points="223,-418.5 223,-439.5 "/>
<text text-anchor="middle" x="264.5" y="-425.9" font-family="Times,serif" font-size="12.00">0x100700080</text>
<polyline fill="none" stroke="black" points="200,-418.5 306,-418.5 "/>
<text text-anchor="middle" x="253" y="-404.9" font-family="Times,serif" font-size="12.00">0</text>
</g>
<!-- HeadNode4&#45;&gt;node40x100700000 -->
<g id="edge16" class="edge"><title>HeadNode4:f1&#45;&gt;node40x100700000:w1</title>
<path fill="none" stroke="black" d="M163,-428C175.466,-428 180.84,-428.574 189.87,-428.852"/>
<polygon fill="black" stroke="black" points="189.95,-432.354 200,-429 190.052,-425.355 189.95,-432.354"/>
</g>
<!-- HeadNode4&#45;&gt;node40x100700000 -->
<g id="edge17" class="edge"><title>HeadNode4:f2&#45;&gt;node40x100700000:w2</title>
<path fill="none" stroke="black" d="M163,-450C175.462,-450 180.841,-450 189.872,-450"/>
<polygon fill="black" stroke="black" points="190,-453.5 200,-450 190,-446.5 190,-453.5"/>
</g>
<!-- node40x100700080 -->
<g id="node16" class="node"><title>node40x100700080</title>
<polygon fill="none" stroke="black" points="342,-398 342,-440 448,-440 448,-398 342,-398"/>
<text text-anchor="middle" x="353.5" y="-426.4" font-family="Times,serif" font-size="12.00">1</text>
<polyline fill="none" stroke="black" points="365,-419 365,-440 "/>
<text text-anchor="middle" x="406.5" y="-426.4" font-family="Times,serif" font-size="12.00">0x1007000b0</text>
<polyline fill="none" stroke="black" points="342,-419 448,-419 "/>
<text text-anchor="middle" x="395" y="-405.4" font-family="Times,serif" font-size="12.00">1</text>
</g>
<!-- node40x100700000&#45;&gt;node40x100700080 -->
<g id="edge18" class="edge"><title>node40x100700000:f1&#45;&gt;node40x100700080:w1</title>
<path fill="none" stroke="black" d="M306,-429C318.005,-429 323.249,-429.562 331.873,-429.844"/>
<polygon fill="black" stroke="black" points="331.947,-433.345 342,-430 332.055,-426.346 331.947,-433.345"/>
</g>
<!-- node40x0 -->
<g id="node17" class="node"><title>node40x0</title>
<polygon fill="none" stroke="black" points="720,-418 720,-460 774,-460 774,-418 720,-418"/>
<text text-anchor="middle" x="747" y="-446.4" font-family="Times,serif" font-size="12.00">NULL</text>
<polyline fill="none" stroke="black" points="720,-439 774,-439 "/>
<text text-anchor="middle" x="747" y="-425.4" font-family="Times,serif" font-size="12.00">NULL</text>
</g>
<!-- node40x100700000&#45;&gt;node40x0 -->
<g id="edge19" class="edge"><title>node40x100700000:f2&#45;&gt;node40x0:w2</title>
<path fill="none" stroke="black" d="M306,-450C486.586,-450 534.245,-450 709.899,-450"/>
<polygon fill="black" stroke="black" points="710,-453.5 720,-450 710,-446.5 710,-453.5"/>
</g>
<!-- node40x1007000b0 -->
<g id="node18" class="node"><title>node40x1007000b0</title>
<polygon fill="none" stroke="black" points="484,-398 484,-440 590,-440 590,-398 484,-398"/>
<text text-anchor="middle" x="495.5" y="-426.4" font-family="Times,serif" font-size="12.00">1</text>
<polyline fill="none" stroke="black" points="507,-419 507,-440 "/>
<text text-anchor="middle" x="548.5" y="-426.4" font-family="Times,serif" font-size="12.00">0x100700120</text>
<polyline fill="none" stroke="black" points="484,-419 590,-419 "/>
<text text-anchor="middle" x="537" y="-405.4" font-family="Times,serif" font-size="12.00">2</text>
</g>
<!-- node40x100700080&#45;&gt;node40x1007000b0 -->
<g id="edge20" class="edge"><title>node40x100700080:f1&#45;&gt;node40x1007000b0:w1</title>
<path fill="none" stroke="black" d="M448,-430C460,-430 465.25,-430 473.875,-430"/>
<polygon fill="black" stroke="black" points="474,-433.5 484,-430 474,-426.5 474,-433.5"/>
</g>
<!-- node40x100700120 -->
<g id="node19" class="node"><title>node40x100700120</title>
<polygon fill="none" stroke="black" points="626,-398 626,-440 684,-440 684,-398 626,-398"/>
<text text-anchor="middle" x="637.5" y="-426.4" font-family="Times,serif" font-size="12.00">1</text>
<polyline fill="none" stroke="black" points="649,-419 649,-440 "/>
<text text-anchor="middle" x="666.5" y="-426.4" font-family="Times,serif" font-size="12.00">0x0</text>
<polyline fill="none" stroke="black" points="626,-419 684,-419 "/>
<text text-anchor="middle" x="655" y="-405.4" font-family="Times,serif" font-size="12.00">3</text>
</g>
<!-- node40x1007000b0&#45;&gt;node40x100700120 -->
<g id="edge21" class="edge"><title>node40x1007000b0:f1&#45;&gt;node40x100700120:w1</title>
<path fill="none" stroke="black" d="M590,-430C602,-430 607.25,-430 615.875,-430"/>
<polygon fill="black" stroke="black" points="616,-433.5 626,-430 616,-426.5 616,-433.5"/>
</g>
<!-- node40x100700120&#45;&gt;node40x0 -->
<g id="edge22" class="edge"><title>node40x100700120:f1&#45;&gt;node40x0:w1</title>
<path fill="none" stroke="black" d="M685,-430C696.564,-430 701.66,-428.898 709.888,-428.33"/>
<polygon fill="black" stroke="black" points="710.12,-431.825 720,-428 709.891,-424.828 710.12,-431.825"/>
</g>
<!-- HeadNode5 -->
<g id="node20" class="node"><title>HeadNode5</title>
<polygon fill="none" stroke="black" points="56,-313 56,-349 162,-349 162,-313 56,-313"/>
<text text-anchor="middle" x="67.5" y="-327.9" font-family="Times,serif" font-size="12.00">1</text>
<polyline fill="none" stroke="black" points="79,-313 79,-349 "/>
<text text-anchor="middle" x="120.5" y="-327.9" font-family="Times,serif" font-size="12.00">0x100700080</text>
</g>
<!-- node50x100700080 -->
<g id="node21" class="node"><title>node50x100700080</title>
<polygon fill="none" stroke="black" points="200,-307 200,-349 306,-349 306,-307 200,-307"/>
<text text-anchor="middle" x="211.5" y="-335.4" font-family="Times,serif" font-size="12.00">1</text>
<polyline fill="none" stroke="black" points="223,-328 223,-349 "/>
<text text-anchor="middle" x="264.5" y="-335.4" font-family="Times,serif" font-size="12.00">0x1007000b0</text>
<polyline fill="none" stroke="black" points="200,-328 306,-328 "/>
<text text-anchor="middle" x="253" y="-314.4" font-family="Times,serif" font-size="12.00">1</text>
</g>
<!-- HeadNode5&#45;&gt;node50x100700080 -->
<g id="edge23" class="edge"><title>HeadNode5:f1&#45;&gt;node50x100700080:w1</title>
<path fill="none" stroke="black" d="M163,-331C175.881,-331 180.865,-335.689 190.044,-337.888"/>
<polygon fill="black" stroke="black" points="189.673,-341.368 200,-339 190.45,-334.411 189.673,-341.368"/>
</g>
<!-- node50x1007000b0 -->
<g id="node22" class="node"><title>node50x1007000b0</title>
<polygon fill="none" stroke="black" points="342,-307 342,-349 448,-349 448,-307 342,-307"/>
<text text-anchor="middle" x="353.5" y="-335.4" font-family="Times,serif" font-size="12.00">1</text>
<polyline fill="none" stroke="black" points="365,-328 365,-349 "/>
<text text-anchor="middle" x="406.5" y="-335.4" font-family="Times,serif" font-size="12.00">0x100700120</text>
<polyline fill="none" stroke="black" points="342,-328 448,-328 "/>
<text text-anchor="middle" x="395" y="-314.4" font-family="Times,serif" font-size="12.00">2</text>
</g>
<!-- node50x100700080&#45;&gt;node50x1007000b0 -->
<g id="edge24" class="edge"><title>node50x100700080:f1&#45;&gt;node50x1007000b0:w1</title>
<path fill="none" stroke="black" d="M306,-339C318,-339 323.25,-339 331.875,-339"/>
<polygon fill="black" stroke="black" points="332,-342.5 342,-339 332,-335.5 332,-342.5"/>
</g>
<!-- node50x100700120 -->
<g id="node23" class="node"><title>node50x100700120</title>
<polygon fill="none" stroke="black" points="508,-307 508,-349 566,-349 566,-307 508,-307"/>
<text text-anchor="middle" x="519.5" y="-335.4" font-family="Times,serif" font-size="12.00">1</text>
<polyline fill="none" stroke="black" points="531,-328 531,-349 "/>
<text text-anchor="middle" x="548.5" y="-335.4" font-family="Times,serif" font-size="12.00">0x0</text>
<polyline fill="none" stroke="black" points="508,-328 566,-328 "/>
<text text-anchor="middle" x="537" y="-314.4" font-family="Times,serif" font-size="12.00">3</text>
</g>
<!-- node50x1007000b0&#45;&gt;node50x100700120 -->
<g id="edge25" class="edge"><title>node50x1007000b0:f1&#45;&gt;node50x100700120:w1</title>
<path fill="none" stroke="black" d="M448,-339C470.535,-339 478.545,-339 496.995,-339"/>
<polygon fill="black" stroke="black" points="497,-342.5 507,-339 497,-335.5 497,-342.5"/>
</g>
<!-- node50x0 -->
<g id="node24" class="node"><title>node50x0</title>
<polygon fill="none" stroke="black" points="628,-313 628,-349 682,-349 682,-313 628,-313"/>
<text text-anchor="middle" x="655" y="-327.9" font-family="Times,serif" font-size="12.00">NULL</text>
</g>
<!-- node50x100700120&#45;&gt;node50x0 -->
<g id="edge26" class="edge"><title>node50x100700120:f1&#45;&gt;node50x0:w1</title>
<path fill="none" stroke="black" d="M567,-339C583.578,-339 601.84,-337.575 617.411,-335.927"/>
<polygon fill="black" stroke="black" points="618.162,-339.365 627.707,-334.766 617.378,-332.409 618.162,-339.365"/>
</g>
<!-- HeadNode6 -->
<g id="node25" class="node"><title>HeadNode6</title>
<polygon fill="none" stroke="black" points="56,-222 56,-258 162,-258 162,-222 56,-222"/>
<text text-anchor="middle" x="67.5" y="-236.9" font-family="Times,serif" font-size="12.00">1</text>
<polyline fill="none" stroke="black" points="79,-222 79,-258 "/>
<text text-anchor="middle" x="120.5" y="-236.9" font-family="Times,serif" font-size="12.00">0x1007000b0</text>
</g>
<!-- node60x1007000b0 -->
<g id="node26" class="node"><title>node60x1007000b0</title>
<polygon fill="none" stroke="black" points="200,-216 200,-258 306,-258 306,-216 200,-216"/>
<text text-anchor="middle" x="211.5" y="-244.4" font-family="Times,serif" font-size="12.00">1</text>
<polyline fill="none" stroke="black" points="223,-237 223,-258 "/>
<text text-anchor="middle" x="264.5" y="-244.4" font-family="Times,serif" font-size="12.00">0x100700120</text>
<polyline fill="none" stroke="black" points="200,-237 306,-237 "/>
<text text-anchor="middle" x="253" y="-223.4" font-family="Times,serif" font-size="12.00">2</text>
</g>
<!-- HeadNode6&#45;&gt;node60x1007000b0 -->
<g id="edge27" class="edge"><title>HeadNode6:f1&#45;&gt;node60x1007000b0:w1</title>
<path fill="none" stroke="black" d="M163,-240C175.881,-240 180.865,-244.689 190.044,-246.888"/>
<polygon fill="black" stroke="black" points="189.673,-250.368 200,-248 190.45,-243.411 189.673,-250.368"/>
</g>
<!-- node60x100700120 -->
<g id="node27" class="node"><title>node60x100700120</title>
<polygon fill="none" stroke="black" points="366,-216 366,-258 424,-258 424,-216 366,-216"/>
<text text-anchor="middle" x="377.5" y="-244.4" font-family="Times,serif" font-size="12.00">1</text>
<polyline fill="none" stroke="black" points="389,-237 389,-258 "/>
<text text-anchor="middle" x="406.5" y="-244.4" font-family="Times,serif" font-size="12.00">0x0</text>
<polyline fill="none" stroke="black" points="366,-237 424,-237 "/>
<text text-anchor="middle" x="395" y="-223.4" font-family="Times,serif" font-size="12.00">3</text>
</g>
<!-- node60x1007000b0&#45;&gt;node60x100700120 -->
<g id="edge28" class="edge"><title>node60x1007000b0:f1&#45;&gt;node60x100700120:w1</title>
<path fill="none" stroke="black" d="M306,-248C328.535,-248 336.545,-248 354.995,-248"/>
<polygon fill="black" stroke="black" points="355,-251.5 365,-248 355,-244.5 355,-251.5"/>
</g>
<!-- node60x0 -->
<g id="node28" class="node"><title>node60x0</title>
<polygon fill="none" stroke="black" points="510,-222 510,-258 564,-258 564,-222 510,-222"/>
<text text-anchor="middle" x="537" y="-236.9" font-family="Times,serif" font-size="12.00">NULL</text>
</g>
<!-- node60x100700120&#45;&gt;node60x0 -->
<g id="edge29" class="edge"><title>node60x100700120:f1&#45;&gt;node60x0:w1</title>
<path fill="none" stroke="black" d="M425,-248C449.961,-248 477.973,-245.999 499.738,-243.998"/>
<polygon fill="black" stroke="black" points="500.261,-247.464 509.88,-243.024 499.592,-240.496 500.261,-247.464"/>
</g>
<!-- HeadNode7 -->
<g id="node29" class="node"><title>HeadNode7</title>
<polygon fill="none" stroke="black" points="56,-131 56,-167 162,-167 162,-131 56,-131"/>
<text text-anchor="middle" x="67.5" y="-145.9" font-family="Times,serif" font-size="12.00">1</text>
<polyline fill="none" stroke="black" points="79,-131 79,-167 "/>
<text text-anchor="middle" x="120.5" y="-145.9" font-family="Times,serif" font-size="12.00">0x100700120</text>
</g>
<!-- node70x100700120 -->
<g id="node30" class="node"><title>node70x100700120</title>
<polygon fill="none" stroke="black" points="224,-125 224,-167 282,-167 282,-125 224,-125"/>
<text text-anchor="middle" x="235.5" y="-153.4" font-family="Times,serif" font-size="12.00">1</text>
<polyline fill="none" stroke="black" points="247,-146 247,-167 "/>
<text text-anchor="middle" x="264.5" y="-153.4" font-family="Times,serif" font-size="12.00">0x0</text>
<polyline fill="none" stroke="black" points="224,-146 282,-146 "/>
<text text-anchor="middle" x="253" y="-132.4" font-family="Times,serif" font-size="12.00">3</text>
</g>
<!-- HeadNode7&#45;&gt;node70x100700120 -->
<g id="edge30" class="edge"><title>HeadNode7:f1&#45;&gt;node70x100700120:w1</title>
<path fill="none" stroke="black" d="M163,-149C186.119,-149 193.946,-154.908 212.764,-156.57"/>
<polygon fill="black" stroke="black" points="212.862,-160.077 223,-157 213.156,-153.083 212.862,-160.077"/>
</g>
<!-- node70x0 -->
<g id="node31" class="node"><title>node70x0</title>
<polygon fill="none" stroke="black" points="368,-131 368,-167 422,-167 422,-131 368,-131"/>
<text text-anchor="middle" x="395" y="-145.9" font-family="Times,serif" font-size="12.00">NULL</text>
</g>
<!-- node70x100700120&#45;&gt;node70x0 -->
<g id="edge31" class="edge"><title>node70x100700120:f1&#45;&gt;node70x0:w1</title>
<path fill="none" stroke="black" d="M283,-157C307.961,-157 335.973,-154.999 357.738,-152.998"/>
<polygon fill="black" stroke="black" points="358.261,-156.464 367.88,-152.024 357.592,-149.496 358.261,-156.464"/>
</g>
<!-- HeadNode8 -->
<g id="node32" class="node"><title>HeadNode8</title>
<polygon fill="none" stroke="black" points="57.5,-40 57.5,-76 160.5,-76 160.5,-40 57.5,-40"/>
<text text-anchor="middle" x="109" y="-54.9" font-family="Times,serif" font-size="12.00">Empty HeadNode</text>
</g>
<!-- node0 -->
<!-- node0&#45;&gt;HeadNode0 -->
<!-- node0&#45;&gt;HeadNode1 -->
<!-- node0&#45;&gt;HeadNode2 -->
<!-- node0&#45;&gt;HeadNode3 -->
<!-- node0&#45;&gt;HeadNode4 -->
<!-- node0&#45;&gt;HeadNode5 -->
<!-- node0&#45;&gt;HeadNode6 -->
<!-- node0&#45;&gt;HeadNode7 -->
<!-- node0&#45;&gt;HeadNode8 -->
</g>
</svg>
