<?xml version="1.0" encoding="UTF-8" standalone="no"?>
<!DOCTYPE svg PUBLIC "-//W3C//DTD SVG 1.1//EN"
 "http://www.w3.org/Graphics/SVG/1.1/DTD/svg11.dtd">
<!-- Generated by graphviz version 2.36.0 (20140111.2315)
 -->
<!-- Title: SkipList Pages: 1 -->
<svg width="724pt" height="981pt"
 viewBox="0.00 0.00 724.00 981.00" xmlns="http://www.w3.org/2000/svg" xmlns:xlink="http://www.w3.org/1999/xlink">
<g id="graph0" class="graph" transform="scale(1 1) rotate(0) translate(4 977)">
<title>SkipList</title>
<polygon fill="white" stroke="none" points="-4,4 -4,-977 720,-977 720,4 -4,4"/>
<text text-anchor="middle" x="358" y="-7.8" font-family="Times,serif" font-size="14.00">SkipList, read bottom upwards.</text>
<!-- HeadNode -->
<g id="node1" class="node"><title>HeadNode</title>
<polygon fill="none" stroke="black" points="1.5,-23 1.5,-59 104.5,-59 104.5,-23 1.5,-23"/>
<text text-anchor="middle" x="53" y="-37.9" font-family="Times,serif" font-size="12.00">Empty HeadNode</text>
</g>
<!-- HeadNode1 -->
<g id="node2" class="node"><title>HeadNode1</title>
<polygon fill="none" stroke="black" points="0,-78.5 0,-141.5 106,-141.5 106,-78.5 0,-78.5"/>
<text text-anchor="middle" x="11.5" y="-127.9" font-family="Times,serif" font-size="12.00">1</text>
<polyline fill="none" stroke="black" points="23,-120.5 23,-141.5 "/>
<text text-anchor="middle" x="64.5" y="-127.9" font-family="Times,serif" font-size="12.00">0x100407960</text>
<polyline fill="none" stroke="black" points="0,-120.5 106,-120.5 "/>
<text text-anchor="middle" x="11.5" y="-106.9" font-family="Times,serif" font-size="12.00">1</text>
<polyline fill="none" stroke="black" points="23,-99.5 23,-120.5 "/>
<text text-anchor="middle" x="64.5" y="-106.9" font-family="Times,serif" font-size="12.00">0x100407960</text>
<polyline fill="none" stroke="black" points="0,-99.5 106,-99.5 "/>
<text text-anchor="middle" x="11.5" y="-85.9" font-family="Times,serif" font-size="12.00">1</text>
<polyline fill="none" stroke="black" points="23,-78.5 23,-99.5 "/>
<text text-anchor="middle" x="64.5" y="-85.9" font-family="Times,serif" font-size="12.00">0x100407960</text>
</g>
<!-- node10x100407960 -->
<g id="node4" class="node"><title>node10x100407960</title>
<polygon fill="none" stroke="black" points="166,-79 166,-163 224,-163 224,-79 166,-79"/>
<text text-anchor="middle" x="195" y="-149.4" font-family="Times,serif" font-size="12.00">0</text>
<polyline fill="none" stroke="black" points="166,-142 224,-142 "/>
<text text-anchor="middle" x="177.5" y="-128.4" font-family="Times,serif" font-size="12.00">1</text>
<polyline fill="none" stroke="black" points="189,-121 189,-142 "/>
<text text-anchor="middle" x="206.5" y="-128.4" font-family="Times,serif" font-size="12.00">0x0</text>
<polyline fill="none" stroke="black" points="166,-121 224,-121 "/>
<text text-anchor="middle" x="177.5" y="-107.4" font-family="Times,serif" font-size="12.00">1</text>
<polyline fill="none" stroke="black" points="189,-100 189,-121 "/>
<text text-anchor="middle" x="206.5" y="-107.4" font-family="Times,serif" font-size="12.00">0x0</text>
<polyline fill="none" stroke="black" points="166,-100 224,-100 "/>
<text text-anchor="middle" x="177.5" y="-86.4" font-family="Times,serif" font-size="12.00">1</text>
<polyline fill="none" stroke="black" points="189,-79 189,-100 "/>
<text text-anchor="middle" x="206.5" y="-86.4" font-family="Times,serif" font-size="12.00">0x0</text>
</g>
<!-- HeadNode1&#45;&gt;node10x100407960 -->
<g id="edge1" class="edge"><title>HeadNode1:f0&#45;&gt;node10x100407960:w1</title>
<path fill="none" stroke="black" d="M106,-131C128.538,-131 136.543,-131.739 154.994,-131.946"/>
<polygon fill="black" stroke="black" points="154.981,-135.446 165,-132 155.019,-128.446 154.981,-135.446"/>
</g>
<!-- HeadNode1&#45;&gt;node10x100407960 -->
<g id="edge2" class="edge"><title>HeadNode1:f1&#45;&gt;node10x100407960:w2</title>
<path fill="none" stroke="black" d="M106,-110C128.535,-110 136.545,-110 154.995,-110"/>
<polygon fill="black" stroke="black" points="155,-113.5 165,-110 155,-106.5 155,-113.5"/>
</g>
<!-- HeadNode1&#45;&gt;node10x100407960 -->
<g id="edge3" class="edge"><title>HeadNode1:f2&#45;&gt;node10x100407960:w3</title>
<path fill="none" stroke="black" d="M106,-89C128.535,-89 136.545,-89 154.995,-89"/>
<polygon fill="black" stroke="black" points="155,-92.5001 165,-89 155,-85.5001 155,-92.5001"/>
</g>
<!-- node10x0 -->
<g id="node3" class="node"><title>node10x0</title>
<polygon fill="none" stroke="black" points="310,-78.5 310,-141.5 364,-141.5 364,-78.5 310,-78.5"/>
<text text-anchor="middle" x="337" y="-127.9" font-family="Times,serif" font-size="12.00">NULL</text>
<polyline fill="none" stroke="black" points="310,-120.5 364,-120.5 "/>
<text text-anchor="middle" x="337" y="-106.9" font-family="Times,serif" font-size="12.00">NULL</text>
<polyline fill="none" stroke="black" points="310,-99.5 364,-99.5 "/>
<text text-anchor="middle" x="337" y="-85.9" font-family="Times,serif" font-size="12.00">NULL</text>
</g>
<!-- node10x100407960&#45;&gt;node10x0 -->
<g id="edge4" class="edge"><title>node10x100407960:f1&#45;&gt;node10x0:w1</title>
<path fill="none" stroke="black" d="M225,-132C258.69,-132 269.575,-131.186 298.811,-131.027"/>
<polygon fill="black" stroke="black" points="299.009,-134.526 309,-131 298.991,-127.526 299.009,-134.526"/>
</g>
<!-- node10x100407960&#45;&gt;node10x0 -->
<g id="edge5" class="edge"><title>node10x100407960:f2&#45;&gt;node10x0:w2</title>
<path fill="none" stroke="black" d="M225,-110C258.688,-110 269.577,-110 298.811,-110"/>
<polygon fill="black" stroke="black" points="299,-113.5 309,-110 299,-106.5 299,-113.5"/>
</g>
<!-- node10x100407960&#45;&gt;node10x0 -->
<g id="edge6" class="edge"><title>node10x100407960:f3&#45;&gt;node10x0:w3</title>
<path fill="none" stroke="black" d="M225,-89C258.688,-89 269.577,-89 298.811,-89"/>
<polygon fill="black" stroke="black" points="299,-92.5001 309,-89 299,-85.5001 299,-92.5001"/>
</g>
<!-- HeadNode2 -->
<g id="node5" class="node"><title>HeadNode2</title>
<polygon fill="none" stroke="black" points="0,-181.5 0,-244.5 106,-244.5 106,-181.5 0,-181.5"/>
<text text-anchor="middle" x="11.5" y="-230.9" font-family="Times,serif" font-size="12.00">1</text>
<polyline fill="none" stroke="black" points="23,-223.5 23,-244.5 "/>
<text text-anchor="middle" x="64.5" y="-230.9" font-family="Times,serif" font-size="12.00">0x100407960</text>
<polyline fill="none" stroke="black" points="0,-223.5 106,-223.5 "/>
<text text-anchor="middle" x="11.5" y="-209.9" font-family="Times,serif" font-size="12.00">1</text>
<polyline fill="none" stroke="black" points="23,-202.5 23,-223.5 "/>
<text text-anchor="middle" x="64.5" y="-209.9" font-family="Times,serif" font-size="12.00">0x100407960</text>
<polyline fill="none" stroke="black" points="0,-202.5 106,-202.5 "/>
<text text-anchor="middle" x="11.5" y="-188.9" font-family="Times,serif" font-size="12.00">1</text>
<polyline fill="none" stroke="black" points="23,-181.5 23,-202.5 "/>
<text text-anchor="middle" x="64.5" y="-188.9" font-family="Times,serif" font-size="12.00">0x100407960</text>
</g>
<!-- node20x100407960 -->
<g id="node7" class="node"><title>node20x100407960</title>
<polygon fill="none" stroke="black" points="142.5,-182 142.5,-266 247.5,-266 247.5,-182 142.5,-182"/>
<text text-anchor="middle" x="195" y="-252.4" font-family="Times,serif" font-size="12.00">0</text>
<polyline fill="none" stroke="black" points="142.5,-245 247.5,-245 "/>
<text text-anchor="middle" x="154" y="-231.4" font-family="Times,serif" font-size="12.00">1</text>
<polyline fill="none" stroke="black" points="165.5,-224 165.5,-245 "/>
<text text-anchor="middle" x="206.5" y="-231.4" font-family="Times,serif" font-size="12.00">0x100407a40</text>
<polyline fill="none" stroke="black" points="142.5,-224 247.5,-224 "/>
<text text-anchor="middle" x="165.5" y="-210.4" font-family="Times,serif" font-size="12.00">2</text>
<polyline fill="none" stroke="black" points="188.5,-203 188.5,-224 "/>
<text text-anchor="middle" x="218" y="-210.4" font-family="Times,serif" font-size="12.00">0x0</text>
<polyline fill="none" stroke="black" points="142.5,-203 247.5,-203 "/>
<text text-anchor="middle" x="165.5" y="-189.4" font-family="Times,serif" font-size="12.00">2</text>
<polyline fill="none" stroke="black" points="188.5,-182 188.5,-203 "/>
<text text-anchor="middle" x="218" y="-189.4" font-family="Times,serif" font-size="12.00">0x0</text>
</g>
<!-- HeadNode2&#45;&gt;node20x100407960 -->
<g id="edge7" class="edge"><title>HeadNode2:f0&#45;&gt;node20x100407960:w1</title>
<path fill="none" stroke="black" d="M106,-234C118.005,-234 123.249,-234.562 131.873,-234.844"/>
<polygon fill="black" stroke="black" points="131.947,-238.345 142,-235 132.055,-231.346 131.947,-238.345"/>
</g>
<!-- HeadNode2&#45;&gt;node20x100407960 -->
<g id="edge8" class="edge"><title>HeadNode2:f1&#45;&gt;node20x100407960:w2</title>
<path fill="none" stroke="black" d="M106,-213C118,-213 123.25,-213 131.875,-213"/>
<polygon fill="black" stroke="black" points="132,-216.5 142,-213 132,-209.5 132,-216.5"/>
</g>
<!-- HeadNode2&#45;&gt;node20x100407960 -->
<g id="edge9" class="edge"><title>HeadNode2:f2&#45;&gt;node20x100407960:w3</title>
<path fill="none" stroke="black" d="M106,-192C118,-192 123.25,-192 131.875,-192"/>
<polygon fill="black" stroke="black" points="132,-195.5 142,-192 132,-188.5 132,-195.5"/>
</g>
<!-- node20x0 -->
<g id="node6" class="node"><title>node20x0</title>
<polygon fill="none" stroke="black" points="452,-181.5 452,-244.5 506,-244.5 506,-181.5 452,-181.5"/>
<text text-anchor="middle" x="479" y="-230.9" font-family="Times,serif" font-size="12.00">NULL</text>
<polyline fill="none" stroke="black" points="452,-223.5 506,-223.5 "/>
<text text-anchor="middle" x="479" y="-209.9" font-family="Times,serif" font-size="12.00">NULL</text>
<polyline fill="none" stroke="black" points="452,-202.5 506,-202.5 "/>
<text text-anchor="middle" x="479" y="-188.9" font-family="Times,serif" font-size="12.00">NULL</text>
</g>
<!-- node20x100407960&#45;&gt;node20x0 -->
<g id="edge11" class="edge"><title>node20x100407960:f2&#45;&gt;node20x0:w2</title>
<path fill="none" stroke="black" d="M248,-213C334.786,-213 358.962,-213 440.978,-213"/>
<polygon fill="black" stroke="black" points="441,-216.5 451,-213 441,-209.5 441,-216.5"/>
</g>
<!-- node20x100407960&#45;&gt;node20x0 -->
<g id="edge12" class="edge"><title>node20x100407960:f3&#45;&gt;node20x0:w3</title>
<path fill="none" stroke="black" d="M248,-192C334.786,-192 358.962,-192 440.978,-192"/>
<polygon fill="black" stroke="black" points="441,-195.5 451,-192 441,-188.5 441,-195.5"/>
</g>
<!-- node20x100407a40 -->
<g id="node8" class="node"><title>node20x100407a40</title>
<polygon fill="none" stroke="black" points="308,-242 308,-284 366,-284 366,-242 308,-242"/>
<text text-anchor="middle" x="337" y="-270.4" font-family="Times,serif" font-size="12.00">1</text>
<polyline fill="none" stroke="black" points="308,-263 366,-263 "/>
<text text-anchor="middle" x="319.5" y="-249.4" font-family="Times,serif" font-size="12.00">1</text>
<polyline fill="none" stroke="black" points="331,-242 331,-263 "/>
<text text-anchor="middle" x="348.5" y="-249.4" font-family="Times,serif" font-size="12.00">0x0</text>
</g>
<!-- node20x100407960&#45;&gt;node20x100407a40 -->
<g id="edge10" class="edge"><title>node20x100407960:f1&#45;&gt;node20x100407a40:w1</title>
<path fill="none" stroke="black" d="M248,-235C271.558,-235 278.074,-247.669 296.973,-251.134"/>
<polygon fill="black" stroke="black" points="296.736,-254.626 307,-252 297.338,-247.652 296.736,-254.626"/>
</g>
<!-- node20x100407a40&#45;&gt;node20x0 -->
<g id="edge13" class="edge"><title>node20x100407a40:f1&#45;&gt;node20x0:w1</title>
<path fill="none" stroke="black" d="M367,-252C401.452,-252 411.036,-237.344 440.631,-234.481"/>
<polygon fill="black" stroke="black" points="441.173,-237.96 451,-234 440.848,-230.968 441.173,-237.96"/>
</g>
<!-- HeadNode3 -->
<g id="node9" class="node"><title>HeadNode3</title>
<polygon fill="none" stroke="black" points="0,-319.5 0,-382.5 106,-382.5 106,-319.5 0,-319.5"/>
<text text-anchor="middle" x="11.5" y="-368.9" font-family="Times,serif" font-size="12.00">1</text>
<polyline fill="none" stroke="black" points="23,-361.5 23,-382.5 "/>
<text text-anchor="middle" x="64.5" y="-368.9" font-family="Times,serif" font-size="12.00">0x100407960</text>
<polyline fill="none" stroke="black" points="0,-361.5 106,-361.5 "/>
<text text-anchor="middle" x="11.5" y="-347.9" font-family="Times,serif" font-size="12.00">1</text>
<polyline fill="none" stroke="black" points="23,-340.5 23,-361.5 "/>
<text text-anchor="middle" x="64.5" y="-347.9" font-family="Times,serif" font-size="12.00">0x100407960</text>
<polyline fill="none" stroke="black" points="0,-340.5 106,-340.5 "/>
<text text-anchor="middle" x="11.5" y="-326.9" font-family="Times,serif" font-size="12.00">1</text>
<polyline fill="none" stroke="black" points="23,-319.5 23,-340.5 "/>
<text text-anchor="middle" x="64.5" y="-326.9" font-family="Times,serif" font-size="12.00">0x100407960</text>
</g>
<!-- node30x100407960 -->
<g id="node11" class="node"><title>node30x100407960</title>
<polygon fill="none" stroke="black" points="142.5,-320 142.5,-404 247.5,-404 247.5,-320 142.5,-320"/>
<text text-anchor="middle" x="195" y="-390.4" font-family="Times,serif" font-size="12.00">0</text>
<polyline fill="none" stroke="black" points="142.5,-383 247.5,-383 "/>
<text text-anchor="middle" x="154" y="-369.4" font-family="Times,serif" font-size="12.00">1</text>
<polyline fill="none" stroke="black" points="165.5,-362 165.5,-383 "/>
<text text-anchor="middle" x="206.5" y="-369.4" font-family="Times,serif" font-size="12.00">0x100407a40</text>
<polyline fill="none" stroke="black" points="142.5,-362 247.5,-362 "/>
<text text-anchor="middle" x="165.5" y="-348.4" font-family="Times,serif" font-size="12.00">3</text>
<polyline fill="none" stroke="black" points="188.5,-341 188.5,-362 "/>
<text text-anchor="middle" x="218" y="-348.4" font-family="Times,serif" font-size="12.00">0x0</text>
<polyline fill="none" stroke="black" points="142.5,-341 247.5,-341 "/>
<text text-anchor="middle" x="165.5" y="-327.4" font-family="Times,serif" font-size="12.00">3</text>
<polyline fill="none" stroke="black" points="188.5,-320 188.5,-341 "/>
<text text-anchor="middle" x="218" y="-327.4" font-family="Times,serif" font-size="12.00">0x0</text>
</g>
<!-- HeadNode3&#45;&gt;node30x100407960 -->
<g id="edge14" class="edge"><title>HeadNode3:f0&#45;&gt;node30x100407960:w1</title>
<path fill="none" stroke="black" d="M106,-372C118.005,-372 123.249,-372.562 131.873,-372.844"/>
<polygon fill="black" stroke="black" points="131.947,-376.345 142,-373 132.055,-369.346 131.947,-376.345"/>
</g>
<!-- HeadNode3&#45;&gt;node30x100407960 -->
<g id="edge15" class="edge"><title>HeadNode3:f1&#45;&gt;node30x100407960:w2</title>
<path fill="none" stroke="black" d="M106,-351C118,-351 123.25,-351 131.875,-351"/>
<polygon fill="black" stroke="black" points="132,-354.5 142,-351 132,-347.5 132,-354.5"/>
</g>
<!-- HeadNode3&#45;&gt;node30x100407960 -->
<g id="edge16" class="edge"><title>HeadNode3:f2&#45;&gt;node30x100407960:w3</title>
<path fill="none" stroke="black" d="M106,-330C118,-330 123.25,-330 131.875,-330"/>
<polygon fill="black" stroke="black" points="132,-333.5 142,-330 132,-326.5 132,-333.5"/>
</g>
<!-- node30x0 -->
<g id="node10" class="node"><title>node30x0</title>
<polygon fill="none" stroke="black" points="570,-319.5 570,-382.5 624,-382.5 624,-319.5 570,-319.5"/>
<text text-anchor="middle" x="597" y="-368.9" font-family="Times,serif" font-size="12.00">NULL</text>
<polyline fill="none" stroke="black" points="570,-361.5 624,-361.5 "/>
<text text-anchor="middle" x="597" y="-347.9" font-family="Times,serif" font-size="12.00">NULL</text>
<polyline fill="none" stroke="black" points="570,-340.5 624,-340.5 "/>
<text text-anchor="middle" x="597" y="-326.9" font-family="Times,serif" font-size="12.00">NULL</text>
</g>
<!-- node30x100407960&#45;&gt;node30x0 -->
<g id="edge18" class="edge"><title>node30x100407960:f2&#45;&gt;node30x0:w2</title>
<path fill="none" stroke="black" d="M248,-351C387.184,-351 424.528,-351 558.739,-351"/>
<polygon fill="black" stroke="black" points="559,-354.5 569,-351 559,-347.5 559,-354.5"/>
</g>
<!-- node30x100407960&#45;&gt;node30x0 -->
<g id="edge19" class="edge"><title>node30x100407960:f3&#45;&gt;node30x0:w3</title>
<path fill="none" stroke="black" d="M248,-330C387.184,-330 424.528,-330 558.739,-330"/>
<polygon fill="black" stroke="black" points="559,-333.5 569,-330 559,-326.5 559,-333.5"/>
</g>
<!-- node30x100407a40 -->
<g id="node12" class="node"><title>node30x100407a40</title>
<polygon fill="none" stroke="black" points="284.5,-380 284.5,-422 389.5,-422 389.5,-380 284.5,-380"/>
<text text-anchor="middle" x="337" y="-408.4" font-family="Times,serif" font-size="12.00">1</text>
<polyline fill="none" stroke="black" points="284.5,-401 389.5,-401 "/>
<text text-anchor="middle" x="296" y="-387.4" font-family="Times,serif" font-size="12.00">1</text>
<polyline fill="none" stroke="black" points="307.5,-380 307.5,-401 "/>
<text text-anchor="middle" x="348.5" y="-387.4" font-family="Times,serif" font-size="12.00">0x100407a70</text>
</g>
<!-- node30x100407960&#45;&gt;node30x100407a40 -->
<g id="edge17" class="edge"><title>node30x100407960:f1&#45;&gt;node30x100407a40:w1</title>
<path fill="none" stroke="black" d="M248,-373C261.685,-373 265.152,-383.169 274.207,-387.778"/>
<polygon fill="black" stroke="black" points="273.473,-391.2 284,-390 275.023,-384.374 273.473,-391.2"/>
</g>
<!-- node30x100407a70 -->
<g id="node13" class="node"><title>node30x100407a70</title>
<polygon fill="none" stroke="black" points="450,-380 450,-422 508,-422 508,-380 450,-380"/>
<text text-anchor="middle" x="479" y="-408.4" font-family="Times,serif" font-size="12.00">2</text>
<polyline fill="none" stroke="black" points="450,-401 508,-401 "/>
<text text-anchor="middle" x="461.5" y="-387.4" font-family="Times,serif" font-size="12.00">1</text>
<polyline fill="none" stroke="black" points="473,-380 473,-401 "/>
<text text-anchor="middle" x="490.5" y="-387.4" font-family="Times,serif" font-size="12.00">0x0</text>
</g>
<!-- node30x100407a40&#45;&gt;node30x100407a70 -->
<g id="edge20" class="edge"><title>node30x100407a40:f1&#45;&gt;node30x100407a70:w1</title>
<path fill="none" stroke="black" d="M390,-390C412.535,-390 420.545,-390 438.995,-390"/>
<polygon fill="black" stroke="black" points="439,-393.5 449,-390 439,-386.5 439,-393.5"/>
</g>
<!-- node30x100407a70&#45;&gt;node30x0 -->
<g id="edge21" class="edge"><title>node30x100407a70:f1&#45;&gt;node30x0:w1</title>
<path fill="none" stroke="black" d="M509,-390C533.034,-390 539.539,-376.585 558.78,-372.917"/>
<polygon fill="black" stroke="black" points="559.353,-376.38 569,-372 558.727,-369.408 559.353,-376.38"/>
</g>
<!-- HeadNode4 -->
<g id="node14" class="node"><title>HeadNode4</title>
<polygon fill="none" stroke="black" points="0,-457.5 0,-520.5 106,-520.5 106,-457.5 0,-457.5"/>
<text text-anchor="middle" x="11.5" y="-506.9" font-family="Times,serif" font-size="12.00">1</text>
<polyline fill="none" stroke="black" points="23,-499.5 23,-520.5 "/>
<text text-anchor="middle" x="64.5" y="-506.9" font-family="Times,serif" font-size="12.00">0x100407960</text>
<polyline fill="none" stroke="black" points="0,-499.5 106,-499.5 "/>
<text text-anchor="middle" x="11.5" y="-485.9" font-family="Times,serif" font-size="12.00">1</text>
<polyline fill="none" stroke="black" points="23,-478.5 23,-499.5 "/>
<text text-anchor="middle" x="64.5" y="-485.9" font-family="Times,serif" font-size="12.00">0x100407960</text>
<polyline fill="none" stroke="black" points="0,-478.5 106,-478.5 "/>
<text text-anchor="middle" x="11.5" y="-464.9" font-family="Times,serif" font-size="12.00">1</text>
<polyline fill="none" stroke="black" points="23,-457.5 23,-478.5 "/>
<text text-anchor="middle" x="64.5" y="-464.9" font-family="Times,serif" font-size="12.00">0x100407960</text>
</g>
<!-- node40x100407960 -->
<g id="node16" class="node"><title>node40x100407960</title>
<polygon fill="none" stroke="black" points="142.5,-458 142.5,-542 247.5,-542 247.5,-458 142.5,-458"/>
<text text-anchor="middle" x="195" y="-528.4" font-family="Times,serif" font-size="12.00">0</text>
<polyline fill="none" stroke="black" points="142.5,-521 247.5,-521 "/>
<text text-anchor="middle" x="154" y="-507.4" font-family="Times,serif" font-size="12.00">1</text>
<polyline fill="none" stroke="black" points="165.5,-500 165.5,-521 "/>
<text text-anchor="middle" x="206.5" y="-507.4" font-family="Times,serif" font-size="12.00">0x100407a40</text>
<polyline fill="none" stroke="black" points="142.5,-500 247.5,-500 "/>
<text text-anchor="middle" x="154" y="-486.4" font-family="Times,serif" font-size="12.00">3</text>
<polyline fill="none" stroke="black" points="165.5,-479 165.5,-500 "/>
<text text-anchor="middle" x="206.5" y="-486.4" font-family="Times,serif" font-size="12.00">0x100407ad0</text>
<polyline fill="none" stroke="black" points="142.5,-479 247.5,-479 "/>
<text text-anchor="middle" x="154" y="-465.4" font-family="Times,serif" font-size="12.00">3</text>
<polyline fill="none" stroke="black" points="165.5,-458 165.5,-479 "/>
<text text-anchor="middle" x="206.5" y="-465.4" font-family="Times,serif" font-size="12.00">0x100407ad0</text>
</g>
<!-- HeadNode4&#45;&gt;node40x100407960 -->
<g id="edge22" class="edge"><title>HeadNode4:f0&#45;&gt;node40x100407960:w1</title>
<path fill="none" stroke="black" d="M106,-510C118.005,-510 123.249,-510.562 131.873,-510.844"/>
<polygon fill="black" stroke="black" points="131.947,-514.345 142,-511 132.055,-507.346 131.947,-514.345"/>
</g>
<!-- HeadNode4&#45;&gt;node40x100407960 -->
<g id="edge23" class="edge"><title>HeadNode4:f1&#45;&gt;node40x100407960:w2</title>
<path fill="none" stroke="black" d="M106,-489C118,-489 123.25,-489 131.875,-489"/>
<polygon fill="black" stroke="black" points="132,-492.5 142,-489 132,-485.5 132,-492.5"/>
</g>
<!-- HeadNode4&#45;&gt;node40x100407960 -->
<g id="edge24" class="edge"><title>HeadNode4:f2&#45;&gt;node40x100407960:w3</title>
<path fill="none" stroke="black" d="M106,-468C118,-468 123.25,-468 131.875,-468"/>
<polygon fill="black" stroke="black" points="132,-471.5 142,-468 132,-464.5 132,-471.5"/>
</g>
<!-- node40x0 -->
<g id="node15" class="node"><title>node40x0</title>
<polygon fill="none" stroke="black" points="662,-457.5 662,-520.5 716,-520.5 716,-457.5 662,-457.5"/>
<text text-anchor="middle" x="689" y="-506.9" font-family="Times,serif" font-size="12.00">NULL</text>
<polyline fill="none" stroke="black" points="662,-499.5 716,-499.5 "/>
<text text-anchor="middle" x="689" y="-485.9" font-family="Times,serif" font-size="12.00">NULL</text>
<polyline fill="none" stroke="black" points="662,-478.5 716,-478.5 "/>
<text text-anchor="middle" x="689" y="-464.9" font-family="Times,serif" font-size="12.00">NULL</text>
</g>
<!-- node40x100407a40 -->
<g id="node17" class="node"><title>node40x100407a40</title>
<polygon fill="none" stroke="black" points="284.5,-518 284.5,-560 389.5,-560 389.5,-518 284.5,-518"/>
<text text-anchor="middle" x="337" y="-546.4" font-family="Times,serif" font-size="12.00">1</text>
<polyline fill="none" stroke="black" points="284.5,-539 389.5,-539 "/>
<text text-anchor="middle" x="296" y="-525.4" font-family="Times,serif" font-size="12.00">1</text>
<polyline fill="none" stroke="black" points="307.5,-518 307.5,-539 "/>
<text text-anchor="middle" x="348.5" y="-525.4" font-family="Times,serif" font-size="12.00">0x100407a70</text>
</g>
<!-- node40x100407960&#45;&gt;node40x100407a40 -->
<g id="edge25" class="edge"><title>node40x100407960:f1&#45;&gt;node40x100407a40:w1</title>
<path fill="none" stroke="black" d="M248,-511C261.685,-511 265.152,-521.169 274.207,-525.778"/>
<polygon fill="black" stroke="black" points="273.473,-529.2 284,-528 275.023,-522.374 273.473,-529.2"/>
</g>
<!-- node40x100407ad0 -->
<g id="node18" class="node"><title>node40x100407ad0</title>
<polygon fill="none" stroke="black" points="568,-458 568,-542 626,-542 626,-458 568,-458"/>
<text text-anchor="middle" x="597" y="-528.4" font-family="Times,serif" font-size="12.00">3</text>
<polyline fill="none" stroke="black" points="568,-521 626,-521 "/>
<text text-anchor="middle" x="579.5" y="-507.4" font-family="Times,serif" font-size="12.00">1</text>
<polyline fill="none" stroke="black" points="591,-500 591,-521 "/>
<text text-anchor="middle" x="608.5" y="-507.4" font-family="Times,serif" font-size="12.00">0x0</text>
<polyline fill="none" stroke="black" points="568,-500 626,-500 "/>
<text text-anchor="middle" x="579.5" y="-486.4" font-family="Times,serif" font-size="12.00">1</text>
<polyline fill="none" stroke="black" points="591,-479 591,-500 "/>
<text text-anchor="middle" x="608.5" y="-486.4" font-family="Times,serif" font-size="12.00">0x0</text>
<polyline fill="none" stroke="black" points="568,-479 626,-479 "/>
<text text-anchor="middle" x="579.5" y="-465.4" font-family="Times,serif" font-size="12.00">1</text>
<polyline fill="none" stroke="black" points="591,-458 591,-479 "/>
<text text-anchor="middle" x="608.5" y="-465.4" font-family="Times,serif" font-size="12.00">0x0</text>
</g>
<!-- node40x100407960&#45;&gt;node40x100407ad0 -->
<g id="edge26" class="edge"><title>node40x100407960:f2&#45;&gt;node40x100407ad0:w2</title>
<path fill="none" stroke="black" d="M248,-489C386.75,-489 423.978,-489 557.771,-489"/>
<polygon fill="black" stroke="black" points="558,-492.5 568,-489 558,-485.5 558,-492.5"/>
</g>
<!-- node40x100407960&#45;&gt;node40x100407ad0 -->
<g id="edge27" class="edge"><title>node40x100407960:f3&#45;&gt;node40x100407ad0:w3</title>
<path fill="none" stroke="black" d="M248,-468C386.75,-468 423.978,-468 557.771,-468"/>
<polygon fill="black" stroke="black" points="558,-471.5 568,-468 558,-464.5 558,-471.5"/>
</g>
<!-- node40x100407a70 -->
<g id="node19" class="node"><title>node40x100407a70</title>
<polygon fill="none" stroke="black" points="426.5,-518 426.5,-560 531.5,-560 531.5,-518 426.5,-518"/>
<text text-anchor="middle" x="479" y="-546.4" font-family="Times,serif" font-size="12.00">2</text>
<polyline fill="none" stroke="black" points="426.5,-539 531.5,-539 "/>
<text text-anchor="middle" x="438" y="-525.4" font-family="Times,serif" font-size="12.00">1</text>
<polyline fill="none" stroke="black" points="449.5,-518 449.5,-539 "/>
<text text-anchor="middle" x="490.5" y="-525.4" font-family="Times,serif" font-size="12.00">0x100407ad0</text>
</g>
<!-- node40x100407a40&#45;&gt;node40x100407a70 -->
<g id="edge28" class="edge"><title>node40x100407a40:f1&#45;&gt;node40x100407a70:w1</title>
<path fill="none" stroke="black" d="M390,-528C402,-528 407.25,-528 415.875,-528"/>
<polygon fill="black" stroke="black" points="416,-531.5 426,-528 416,-524.5 416,-531.5"/>
</g>
<!-- node40x100407ad0&#45;&gt;node40x0 -->
<g id="edge30" class="edge"><title>node40x100407ad0:f1&#45;&gt;node40x0:w1</title>
<path fill="none" stroke="black" d="M626,-511C638.005,-511 643.249,-510.438 651.873,-510.156"/>
<polygon fill="black" stroke="black" points="652.055,-513.654 662,-510 651.947,-506.655 652.055,-513.654"/>
</g>
<!-- node40x100407ad0&#45;&gt;node40x0 -->
<g id="edge31" class="edge"><title>node40x100407ad0:f2&#45;&gt;node40x0:w2</title>
<path fill="none" stroke="black" d="M626,-489C638,-489 643.25,-489 651.875,-489"/>
<polygon fill="black" stroke="black" points="652,-492.5 662,-489 652,-485.5 652,-492.5"/>
</g>
<!-- node40x100407ad0&#45;&gt;node40x0 -->
<g id="edge32" class="edge"><title>node40x100407ad0:f3&#45;&gt;node40x0:w3</title>
<path fill="none" stroke="black" d="M626,-468C638,-468 643.25,-468 651.875,-468"/>
<polygon fill="black" stroke="black" points="652,-471.5 662,-468 652,-464.5 652,-471.5"/>
</g>
<!-- node40x100407a70&#45;&gt;node40x100407ad0 -->
<g id="edge29" class="edge"><title>node40x100407a70:f1&#45;&gt;node40x100407ad0:w1</title>
<path fill="none" stroke="black" d="M532,-528C545.685,-528 549.152,-517.831 558.207,-513.222"/>
<polygon fill="black" stroke="black" points="559.023,-516.626 568,-511 557.473,-509.8 559.023,-516.626"/>
</g>
<!-- HeadNode5 -->
<g id="node20" class="node"><title>HeadNode5</title>
<polygon fill="none" stroke="black" points="0.5,-595.5 0.5,-658.5 105.5,-658.5 105.5,-595.5 0.5,-595.5"/>
<text text-anchor="middle" x="12" y="-644.9" font-family="Times,serif" font-size="12.00">1</text>
<polyline fill="none" stroke="black" points="23.5,-637.5 23.5,-658.5 "/>
<text text-anchor="middle" x="64.5" y="-644.9" font-family="Times,serif" font-size="12.00">0x100407a40</text>
<polyline fill="none" stroke="black" points="0.5,-637.5 105.5,-637.5 "/>
<text text-anchor="middle" x="12" y="-623.9" font-family="Times,serif" font-size="12.00">3</text>
<polyline fill="none" stroke="black" points="23.5,-616.5 23.5,-637.5 "/>
<text text-anchor="middle" x="64.5" y="-623.9" font-family="Times,serif" font-size="12.00">0x100407ad0</text>
<polyline fill="none" stroke="black" points="0.5,-616.5 105.5,-616.5 "/>
<text text-anchor="middle" x="12" y="-602.9" font-family="Times,serif" font-size="12.00">3</text>
<polyline fill="none" stroke="black" points="23.5,-595.5 23.5,-616.5 "/>
<text text-anchor="middle" x="64.5" y="-602.9" font-family="Times,serif" font-size="12.00">0x100407ad0</text>
</g>
<!-- node50x100407a40 -->
<g id="node22" class="node"><title>node50x100407a40</title>
<polygon fill="none" stroke="black" points="142.5,-656 142.5,-698 247.5,-698 247.5,-656 142.5,-656"/>
<text text-anchor="middle" x="195" y="-684.4" font-family="Times,serif" font-size="12.00">1</text>
<polyline fill="none" stroke="black" points="142.5,-677 247.5,-677 "/>
<text text-anchor="middle" x="154" y="-663.4" font-family="Times,serif" font-size="12.00">1</text>
<polyline fill="none" stroke="black" points="165.5,-656 165.5,-677 "/>
<text text-anchor="middle" x="206.5" y="-663.4" font-family="Times,serif" font-size="12.00">0x100407a70</text>
</g>
<!-- HeadNode5&#45;&gt;node50x100407a40 -->
<g id="edge33" class="edge"><title>HeadNode5:f0&#45;&gt;node50x100407a40:w1</title>
<path fill="none" stroke="black" d="M106,-648C119.836,-648 123.104,-658.768 132.151,-663.647"/>
<polygon fill="black" stroke="black" points="131.46,-667.08 142,-666 133.087,-660.272 131.46,-667.08"/>
</g>
<!-- node50x100407ad0 -->
<g id="node23" class="node"><title>node50x100407ad0</title>
<polygon fill="none" stroke="black" points="450,-596 450,-680 508,-680 508,-596 450,-596"/>
<text text-anchor="middle" x="479" y="-666.4" font-family="Times,serif" font-size="12.00">3</text>
<polyline fill="none" stroke="black" points="450,-659 508,-659 "/>
<text text-anchor="middle" x="461.5" y="-645.4" font-family="Times,serif" font-size="12.00">1</text>
<polyline fill="none" stroke="black" points="473,-638 473,-659 "/>
<text text-anchor="middle" x="490.5" y="-645.4" font-family="Times,serif" font-size="12.00">0x0</text>
<polyline fill="none" stroke="black" points="450,-638 508,-638 "/>
<text text-anchor="middle" x="461.5" y="-624.4" font-family="Times,serif" font-size="12.00">1</text>
<polyline fill="none" stroke="black" points="473,-617 473,-638 "/>
<text text-anchor="middle" x="490.5" y="-624.4" font-family="Times,serif" font-size="12.00">0x0</text>
<polyline fill="none" stroke="black" points="450,-617 508,-617 "/>
<text text-anchor="middle" x="461.5" y="-603.4" font-family="Times,serif" font-size="12.00">1</text>
<polyline fill="none" stroke="black" points="473,-596 473,-617 "/>
<text text-anchor="middle" x="490.5" y="-603.4" font-family="Times,serif" font-size="12.00">0x0</text>
</g>
<!-- HeadNode5&#45;&gt;node50x100407ad0 -->
<g id="edge34" class="edge"><title>HeadNode5:f1&#45;&gt;node50x100407ad0:w2</title>
<path fill="none" stroke="black" d="M106,-627C255.02,-627 294.786,-627 438.898,-627"/>
<polygon fill="black" stroke="black" points="439,-630.5 449,-627 439,-623.5 439,-630.5"/>
</g>
<!-- HeadNode5&#45;&gt;node50x100407ad0 -->
<g id="edge35" class="edge"><title>HeadNode5:f2&#45;&gt;node50x100407ad0:w3</title>
<path fill="none" stroke="black" d="M106,-606C255.02,-606 294.786,-606 438.898,-606"/>
<polygon fill="black" stroke="black" points="439,-609.5 449,-606 439,-602.5 439,-609.5"/>
</g>
<!-- node50x0 -->
<g id="node21" class="node"><title>node50x0</title>
<polygon fill="none" stroke="black" points="570,-595.5 570,-658.5 624,-658.5 624,-595.5 570,-595.5"/>
<text text-anchor="middle" x="597" y="-644.9" font-family="Times,serif" font-size="12.00">NULL</text>
<polyline fill="none" stroke="black" points="570,-637.5 624,-637.5 "/>
<text text-anchor="middle" x="597" y="-623.9" font-family="Times,serif" font-size="12.00">NULL</text>
<polyline fill="none" stroke="black" points="570,-616.5 624,-616.5 "/>
<text text-anchor="middle" x="597" y="-602.9" font-family="Times,serif" font-size="12.00">NULL</text>
</g>
<!-- node50x100407a70 -->
<g id="node24" class="node"><title>node50x100407a70</title>
<polygon fill="none" stroke="black" points="284.5,-656 284.5,-698 389.5,-698 389.5,-656 284.5,-656"/>
<text text-anchor="middle" x="337" y="-684.4" font-family="Times,serif" font-size="12.00">2</text>
<polyline fill="none" stroke="black" points="284.5,-677 389.5,-677 "/>
<text text-anchor="middle" x="296" y="-663.4" font-family="Times,serif" font-size="12.00">1</text>
<polyline fill="none" stroke="black" points="307.5,-656 307.5,-677 "/>
<text text-anchor="middle" x="348.5" y="-663.4" font-family="Times,serif" font-size="12.00">0x100407ad0</text>
</g>
<!-- node50x100407a40&#45;&gt;node50x100407a70 -->
<g id="edge36" class="edge"><title>node50x100407a40:f1&#45;&gt;node50x100407a70:w1</title>
<path fill="none" stroke="black" d="M248,-666C260,-666 265.25,-666 273.875,-666"/>
<polygon fill="black" stroke="black" points="274,-669.5 284,-666 274,-662.5 274,-669.5"/>
</g>
<!-- node50x100407ad0&#45;&gt;node50x0 -->
<g id="edge38" class="edge"><title>node50x100407ad0:f1&#45;&gt;node50x0:w1</title>
<path fill="none" stroke="black" d="M509,-649C531.92,-649 540.061,-648.261 558.824,-648.054"/>
<polygon fill="black" stroke="black" points="559.019,-651.553 569,-648 558.982,-644.553 559.019,-651.553"/>
</g>
<!-- node50x100407ad0&#45;&gt;node50x0 -->
<g id="edge39" class="edge"><title>node50x100407ad0:f2&#45;&gt;node50x0:w2</title>
<path fill="none" stroke="black" d="M509,-627C531.917,-627 540.063,-627 558.825,-627"/>
<polygon fill="black" stroke="black" points="559,-630.5 569,-627 559,-623.5 559,-630.5"/>
</g>
<!-- node50x100407ad0&#45;&gt;node50x0 -->
<g id="edge40" class="edge"><title>node50x100407ad0:f3&#45;&gt;node50x0:w3</title>
<path fill="none" stroke="black" d="M509,-606C531.917,-606 540.063,-606 558.825,-606"/>
<polygon fill="black" stroke="black" points="559,-609.5 569,-606 559,-602.5 559,-609.5"/>
</g>
<!-- node50x100407a70&#45;&gt;node50x100407ad0 -->
<g id="edge37" class="edge"><title>node50x100407a70:f1&#45;&gt;node50x100407ad0:w1</title>
<path fill="none" stroke="black" d="M390,-666C413.558,-666 420.074,-653.331 438.973,-649.866"/>
<polygon fill="black" stroke="black" points="439.338,-653.348 449,-649 438.736,-646.374 439.338,-653.348"/>
</g>
<!-- HeadNode6 -->
<g id="node25" class="node"><title>HeadNode6</title>
<polygon fill="none" stroke="black" points="0.5,-733.5 0.5,-796.5 105.5,-796.5 105.5,-733.5 0.5,-733.5"/>
<text text-anchor="middle" x="12" y="-782.9" font-family="Times,serif" font-size="12.00">1</text>
<polyline fill="none" stroke="black" points="23.5,-775.5 23.5,-796.5 "/>
<text text-anchor="middle" x="64.5" y="-782.9" font-family="Times,serif" font-size="12.00">0x100407a70</text>
<polyline fill="none" stroke="black" points="0.5,-775.5 105.5,-775.5 "/>
<text text-anchor="middle" x="12" y="-761.9" font-family="Times,serif" font-size="12.00">2</text>
<polyline fill="none" stroke="black" points="23.5,-754.5 23.5,-775.5 "/>
<text text-anchor="middle" x="64.5" y="-761.9" font-family="Times,serif" font-size="12.00">0x100407ad0</text>
<polyline fill="none" stroke="black" points="0.5,-754.5 105.5,-754.5 "/>
<text text-anchor="middle" x="12" y="-740.9" font-family="Times,serif" font-size="12.00">2</text>
<polyline fill="none" stroke="black" points="23.5,-733.5 23.5,-754.5 "/>
<text text-anchor="middle" x="64.5" y="-740.9" font-family="Times,serif" font-size="12.00">0x100407ad0</text>
</g>
<!-- node60x100407a70 -->
<g id="node27" class="node"><title>node60x100407a70</title>
<polygon fill="none" stroke="black" points="142.5,-794 142.5,-836 247.5,-836 247.5,-794 142.5,-794"/>
<text text-anchor="middle" x="195" y="-822.4" font-family="Times,serif" font-size="12.00">2</text>
<polyline fill="none" stroke="black" points="142.5,-815 247.5,-815 "/>
<text text-anchor="middle" x="154" y="-801.4" font-family="Times,serif" font-size="12.00">1</text>
<polyline fill="none" stroke="black" points="165.5,-794 165.5,-815 "/>
<text text-anchor="middle" x="206.5" y="-801.4" font-family="Times,serif" font-size="12.00">0x100407ad0</text>
</g>
<!-- HeadNode6&#45;&gt;node60x100407a70 -->
<g id="edge41" class="edge"><title>HeadNode6:f0&#45;&gt;node60x100407a70:w1</title>
<path fill="none" stroke="black" d="M106,-786C119.836,-786 123.104,-796.768 132.151,-801.647"/>
<polygon fill="black" stroke="black" points="131.46,-805.08 142,-804 133.087,-798.272 131.46,-805.08"/>
</g>
<!-- node60x100407ad0 -->
<g id="node28" class="node"><title>node60x100407ad0</title>
<polygon fill="none" stroke="black" points="308,-734 308,-818 366,-818 366,-734 308,-734"/>
<text text-anchor="middle" x="337" y="-804.4" font-family="Times,serif" font-size="12.00">3</text>
<polyline fill="none" stroke="black" points="308,-797 366,-797 "/>
<text text-anchor="middle" x="319.5" y="-783.4" font-family="Times,serif" font-size="12.00">1</text>
<polyline fill="none" stroke="black" points="331,-776 331,-797 "/>
<text text-anchor="middle" x="348.5" y="-783.4" font-family="Times,serif" font-size="12.00">0x0</text>
<polyline fill="none" stroke="black" points="308,-776 366,-776 "/>
<text text-anchor="middle" x="319.5" y="-762.4" font-family="Times,serif" font-size="12.00">1</text>
<polyline fill="none" stroke="black" points="331,-755 331,-776 "/>
<text text-anchor="middle" x="348.5" y="-762.4" font-family="Times,serif" font-size="12.00">0x0</text>
<polyline fill="none" stroke="black" points="308,-755 366,-755 "/>
<text text-anchor="middle" x="319.5" y="-741.4" font-family="Times,serif" font-size="12.00">1</text>
<polyline fill="none" stroke="black" points="331,-734 331,-755 "/>
<text text-anchor="middle" x="348.5" y="-741.4" font-family="Times,serif" font-size="12.00">0x0</text>
</g>
<!-- HeadNode6&#45;&gt;node60x100407ad0 -->
<g id="edge42" class="edge"><title>HeadNode6:f1&#45;&gt;node60x100407ad0:w2</title>
<path fill="none" stroke="black" d="M106,-765C191.844,-765 215.82,-765 296.83,-765"/>
<polygon fill="black" stroke="black" points="297,-768.5 307,-765 297,-761.5 297,-768.5"/>
</g>
<!-- HeadNode6&#45;&gt;node60x100407ad0 -->
<g id="edge43" class="edge"><title>HeadNode6:f2&#45;&gt;node60x100407ad0:w3</title>
<path fill="none" stroke="black" d="M106,-744C191.844,-744 215.82,-744 296.83,-744"/>
<polygon fill="black" stroke="black" points="297,-747.5 307,-744 297,-740.5 297,-747.5"/>
</g>
<!-- node60x0 -->
<g id="node26" class="node"><title>node60x0</title>
<polygon fill="none" stroke="black" points="452,-733.5 452,-796.5 506,-796.5 506,-733.5 452,-733.5"/>
<text text-anchor="middle" x="479" y="-782.9" font-family="Times,serif" font-size="12.00">NULL</text>
<polyline fill="none" stroke="black" points="452,-775.5 506,-775.5 "/>
<text text-anchor="middle" x="479" y="-761.9" font-family="Times,serif" font-size="12.00">NULL</text>
<polyline fill="none" stroke="black" points="452,-754.5 506,-754.5 "/>
<text text-anchor="middle" x="479" y="-740.9" font-family="Times,serif" font-size="12.00">NULL</text>
</g>
<!-- node60x100407a70&#45;&gt;node60x100407ad0 -->
<g id="edge44" class="edge"><title>node60x100407a70:f1&#45;&gt;node60x100407ad0:w1</title>
<path fill="none" stroke="black" d="M248,-804C271.558,-804 278.074,-791.331 296.973,-787.866"/>
<polygon fill="black" stroke="black" points="297.338,-791.348 307,-787 296.736,-784.374 297.338,-791.348"/>
</g>
<!-- node60x100407ad0&#45;&gt;node60x0 -->
<g id="edge45" class="edge"><title>node60x100407ad0:f1&#45;&gt;node60x0:w1</title>
<path fill="none" stroke="black" d="M367,-787C400.69,-787 411.575,-786.186 440.811,-786.027"/>
<polygon fill="black" stroke="black" points="441.009,-789.526 451,-786 440.991,-782.526 441.009,-789.526"/>
</g>
<!-- node60x100407ad0&#45;&gt;node60x0 -->
<g id="edge46" class="edge"><title>node60x100407ad0:f2&#45;&gt;node60x0:w2</title>
<path fill="none" stroke="black" d="M367,-765C400.688,-765 411.577,-765 440.811,-765"/>
<polygon fill="black" stroke="black" points="441,-768.5 451,-765 441,-761.5 441,-768.5"/>
</g>
<!-- node60x100407ad0&#45;&gt;node60x0 -->
<g id="edge47" class="edge"><title>node60x100407ad0:f3&#45;&gt;node60x0:w3</title>
<path fill="none" stroke="black" d="M367,-744C400.688,-744 411.577,-744 440.811,-744"/>
<polygon fill="black" stroke="black" points="441,-747.5 451,-744 441,-740.5 441,-747.5"/>
</g>
<!-- HeadNode7 -->
<g id="node29" class="node"><title>HeadNode7</title>
<polygon fill="none" stroke="black" points="0.5,-854.5 0.5,-917.5 105.5,-917.5 105.5,-854.5 0.5,-854.5"/>
<text text-anchor="middle" x="12" y="-903.9" font-family="Times,serif" font-size="12.00">1</text>
<polyline fill="none" stroke="black" points="23.5,-896.5 23.5,-917.5 "/>
<text text-anchor="middle" x="64.5" y="-903.9" font-family="Times,serif" font-size="12.00">0x100407ad0</text>
<polyline fill="none" stroke="black" points="0.5,-896.5 105.5,-896.5 "/>
<text text-anchor="middle" x="12" y="-882.9" font-family="Times,serif" font-size="12.00">1</text>
<polyline fill="none" stroke="black" points="23.5,-875.5 23.5,-896.5 "/>
<text text-anchor="middle" x="64.5" y="-882.9" font-family="Times,serif" font-size="12.00">0x100407ad0</text>
<polyline fill="none" stroke="black" points="0.5,-875.5 105.5,-875.5 "/>
<text text-anchor="middle" x="12" y="-861.9" font-family="Times,serif" font-size="12.00">1</text>
<polyline fill="none" stroke="black" points="23.5,-854.5 23.5,-875.5 "/>
<text text-anchor="middle" x="64.5" y="-861.9" font-family="Times,serif" font-size="12.00">0x100407ad0</text>
</g>
<!-- node70x100407ad0 -->
<g id="node31" class="node"><title>node70x100407ad0</title>
<polygon fill="none" stroke="black" points="166,-855 166,-939 224,-939 224,-855 166,-855"/>
<text text-anchor="middle" x="195" y="-925.4" font-family="Times,serif" font-size="12.00">3</text>
<polyline fill="none" stroke="black" points="166,-918 224,-918 "/>
<text text-anchor="middle" x="177.5" y="-904.4" font-family="Times,serif" font-size="12.00">1</text>
<polyline fill="none" stroke="black" points="189,-897 189,-918 "/>
<text text-anchor="middle" x="206.5" y="-904.4" font-family="Times,serif" font-size="12.00">0x0</text>
<polyline fill="none" stroke="black" points="166,-897 224,-897 "/>
<text text-anchor="middle" x="177.5" y="-883.4" font-family="Times,serif" font-size="12.00">1</text>
<polyline fill="none" stroke="black" points="189,-876 189,-897 "/>
<text text-anchor="middle" x="206.5" y="-883.4" font-family="Times,serif" font-size="12.00">0x0</text>
<polyline fill="none" stroke="black" points="166,-876 224,-876 "/>
<text text-anchor="middle" x="177.5" y="-862.4" font-family="Times,serif" font-size="12.00">1</text>
<polyline fill="none" stroke="black" points="189,-855 189,-876 "/>
<text text-anchor="middle" x="206.5" y="-862.4" font-family="Times,serif" font-size="12.00">0x0</text>
</g>
<!-- HeadNode7&#45;&gt;node70x100407ad0 -->
<g id="edge48" class="edge"><title>HeadNode7:f0&#45;&gt;node70x100407ad0:w1</title>
<path fill="none" stroke="black" d="M106,-907C128.538,-907 136.543,-907.739 154.994,-907.946"/>
<polygon fill="black" stroke="black" points="154.981,-911.446 165,-908 155.019,-904.446 154.981,-911.446"/>
</g>
<!-- HeadNode7&#45;&gt;node70x100407ad0 -->
<g id="edge49" class="edge"><title>HeadNode7:f1&#45;&gt;node70x100407ad0:w2</title>
<path fill="none" stroke="black" d="M106,-886C128.535,-886 136.545,-886 154.995,-886"/>
<polygon fill="black" stroke="black" points="155,-889.5 165,-886 155,-882.5 155,-889.5"/>
</g>
<!-- HeadNode7&#45;&gt;node70x100407ad0 -->
<g id="edge50" class="edge"><title>HeadNode7:f2&#45;&gt;node70x100407ad0:w3</title>
<path fill="none" stroke="black" d="M106,-865C128.535,-865 136.545,-865 154.995,-865"/>
<polygon fill="black" stroke="black" points="155,-868.5 165,-865 155,-861.5 155,-868.5"/>
</g>
<!-- node70x0 -->
<g id="node30" class="node"><title>node70x0</title>
<polygon fill="none" stroke="black" points="310,-854.5 310,-917.5 364,-917.5 364,-854.5 310,-854.5"/>
<text text-anchor="middle" x="337" y="-903.9" font-family="Times,serif" font-size="12.00">NULL</text>
<polyline fill="none" stroke="black" points="310,-896.5 364,-896.5 "/>
<text text-anchor="middle" x="337" y="-882.9" font-family="Times,serif" font-size="12.00">NULL</text>
<polyline fill="none" stroke="black" points="310,-875.5 364,-875.5 "/>
<text text-anchor="middle" x="337" y="-861.9" font-family="Times,serif" font-size="12.00">NULL</text>
</g>
<!-- node70x100407ad0&#45;&gt;node70x0 -->
<g id="edge51" class="edge"><title>node70x100407ad0:f1&#45;&gt;node70x0:w1</title>
<path fill="none" stroke="black" d="M225,-908C258.69,-908 269.575,-907.186 298.811,-907.027"/>
<polygon fill="black" stroke="black" points="299.009,-910.526 309,-907 298.991,-903.526 299.009,-910.526"/>
</g>
<!-- node70x100407ad0&#45;&gt;node70x0 -->
<g id="edge52" class="edge"><title>node70x100407ad0:f2&#45;&gt;node70x0:w2</title>
<path fill="none" stroke="black" d="M225,-886C258.688,-886 269.577,-886 298.811,-886"/>
<polygon fill="black" stroke="black" points="299,-889.5 309,-886 299,-882.5 299,-889.5"/>
</g>
<!-- node70x100407ad0&#45;&gt;node70x0 -->
<g id="edge53" class="edge"><title>node70x100407ad0:f3&#45;&gt;node70x0:w3</title>
<path fill="none" stroke="black" d="M225,-865C258.688,-865 269.577,-865 298.811,-865"/>
<polygon fill="black" stroke="black" points="299,-868.5 309,-865 299,-861.5 299,-868.5"/>
</g>
<!-- HeadNode8 -->
<g id="node32" class="node"><title>HeadNode8</title>
<polygon fill="none" stroke="black" points="1.5,-937 1.5,-973 104.5,-973 104.5,-937 1.5,-937"/>
<text text-anchor="middle" x="53" y="-951.9" font-family="Times,serif" font-size="12.00">Empty HeadNode</text>
</g>
</g>
</svg>
