<?xml version="1.0" encoding="UTF-8" standalone="no"?>
<!DOCTYPE svg PUBLIC "-//W3C//DTD SVG 1.1//EN"
 "http://www.w3.org/Graphics/SVG/1.1/DTD/svg11.dtd">
<!-- Generated by graphviz version 2.36.0 (20140111.2315)
 -->
<!-- Title: SkipList Pages: 1 -->
<svg width="798pt" height="1140pt"
 viewBox="0.00 0.00 798.00 1140.00" xmlns="http://www.w3.org/2000/svg" xmlns:xlink="http://www.w3.org/1999/xlink">
<g id="graph0" class="graph" transform="scale(1 1) rotate(0) translate(4 1136)">
<title>SkipList</title>
<polygon fill="white" stroke="none" points="-4,4 -4,-1136 794,-1136 794,4 -4,4"/>
<text text-anchor="middle" x="395" y="-7.8" font-family="Times,serif" font-size="14.00">SkipList.</text>
<g id="clust1" class="cluster"><title>cluster0</title>
<polygon fill="none" stroke="black" stroke-dasharray="5,2" points="48,-1047 48,-1124 171,-1124 171,-1047 48,-1047"/>
<text text-anchor="middle" x="109.5" y="-1108.8" font-family="Times,serif" font-size="14.00">Skip list iteration 0</text>
</g>
<g id="clust2" class="cluster"><title>cluster1</title>
<polygon fill="none" stroke="black" stroke-dasharray="5,2" points="48,-914 48,-1039 430,-1039 430,-914 48,-914"/>
<text text-anchor="middle" x="239" y="-1023.8" font-family="Times,serif" font-size="14.00">Skip list iteration 1</text>
</g>
<g id="clust3" class="cluster"><title>cluster2</title>
<polygon fill="none" stroke="black" stroke-dasharray="5,2" points="48,-781 48,-906 572,-906 572,-781 48,-781"/>
<text text-anchor="middle" x="310" y="-890.8" font-family="Times,serif" font-size="14.00">Skip list iteration 2</text>
</g>
<g id="clust4" class="cluster"><title>cluster3</title>
<polygon fill="none" stroke="black" stroke-dasharray="5,2" points="48,-648 48,-773 690,-773 690,-648 48,-648"/>
<text text-anchor="middle" x="369" y="-757.8" font-family="Times,serif" font-size="14.00">Skip list iteration 3</text>
</g>
<g id="clust5" class="cluster"><title>cluster4</title>
<polygon fill="none" stroke="black" stroke-dasharray="5,2" points="48,-515 48,-640 782,-640 782,-515 48,-515"/>
<text text-anchor="middle" x="415" y="-624.8" font-family="Times,serif" font-size="14.00">Skip list iteration 4</text>
</g>
<g id="clust6" class="cluster"><title>cluster5</title>
<polygon fill="none" stroke="black" stroke-dasharray="5,2" points="48,-382 48,-507 690,-507 690,-382 48,-382"/>
<text text-anchor="middle" x="369" y="-491.8" font-family="Times,serif" font-size="14.00">Skip list iteration 5</text>
</g>
<g id="clust7" class="cluster"><title>cluster6</title>
<polygon fill="none" stroke="black" stroke-dasharray="5,2" points="48,-249 48,-374 572,-374 572,-249 48,-249"/>
<text text-anchor="middle" x="310" y="-358.8" font-family="Times,serif" font-size="14.00">Skip list iteration 6</text>
</g>
<g id="clust8" class="cluster"><title>cluster7</title>
<polygon fill="none" stroke="black" stroke-dasharray="5,2" points="48,-116 48,-241 430,-241 430,-116 48,-116"/>
<text text-anchor="middle" x="239" y="-225.8" font-family="Times,serif" font-size="14.00">Skip list iteration 7</text>
</g>
<g id="clust9" class="cluster"><title>cluster8</title>
<polygon fill="none" stroke="black" stroke-dasharray="5,2" points="48,-31 48,-108 171,-108 171,-31 48,-31"/>
<text text-anchor="middle" x="109.5" y="-92.8" font-family="Times,serif" font-size="14.00">Skip list iteration 8</text>
</g>
<!-- HeadNode0 -->
<g id="node1" class="node"><title>HeadNode0</title>
<polygon fill="none" stroke="black" points="57.5,-1056 57.5,-1092 160.5,-1092 160.5,-1056 57.5,-1056"/>
<text text-anchor="middle" x="109" y="-1070.9" font-family="Times,serif" font-size="12.00">Empty HeadNode</text>
</g>
<!-- HeadNode1 -->
<g id="node2" class="node"><title>HeadNode1</title>
<polygon fill="none" stroke="black" points="56,-922.5 56,-985.5 162,-985.5 162,-922.5 56,-922.5"/>
<text text-anchor="middle" x="67.5" y="-971.9" font-family="Times,serif" font-size="12.00">1</text>
<polyline fill="none" stroke="black" points="79,-964.5 79,-985.5 "/>
<text text-anchor="middle" x="120.5" y="-971.9" font-family="Times,serif" font-size="12.00">0x105b00000</text>
<polyline fill="none" stroke="black" points="56,-964.5 162,-964.5 "/>
<text text-anchor="middle" x="67.5" y="-950.9" font-family="Times,serif" font-size="12.00">1</text>
<polyline fill="none" stroke="black" points="79,-943.5 79,-964.5 "/>
<text text-anchor="middle" x="120.5" y="-950.9" font-family="Times,serif" font-size="12.00">0x105b00000</text>
<polyline fill="none" stroke="black" points="56,-943.5 162,-943.5 "/>
<text text-anchor="middle" x="67.5" y="-929.9" font-family="Times,serif" font-size="12.00">1</text>
<polyline fill="none" stroke="black" points="79,-922.5 79,-943.5 "/>
<text text-anchor="middle" x="120.5" y="-929.9" font-family="Times,serif" font-size="12.00">0x105b00000</text>
</g>
<!-- node10x105b00000 -->
<g id="node4" class="node"><title>node10x105b00000</title>
<polygon fill="none" stroke="black" points="224,-923 224,-1007 282,-1007 282,-923 224,-923"/>
<text text-anchor="middle" x="253" y="-993.4" font-family="Times,serif" font-size="12.00">0</text>
<polyline fill="none" stroke="black" points="224,-986 282,-986 "/>
<text text-anchor="middle" x="235.5" y="-972.4" font-family="Times,serif" font-size="12.00">1</text>
<polyline fill="none" stroke="black" points="247,-965 247,-986 "/>
<text text-anchor="middle" x="264.5" y="-972.4" font-family="Times,serif" font-size="12.00">0x0</text>
<polyline fill="none" stroke="black" points="224,-965 282,-965 "/>
<text text-anchor="middle" x="235.5" y="-951.4" font-family="Times,serif" font-size="12.00">1</text>
<polyline fill="none" stroke="black" points="247,-944 247,-965 "/>
<text text-anchor="middle" x="264.5" y="-951.4" font-family="Times,serif" font-size="12.00">0x0</text>
<polyline fill="none" stroke="black" points="224,-944 282,-944 "/>
<text text-anchor="middle" x="235.5" y="-930.4" font-family="Times,serif" font-size="12.00">1</text>
<polyline fill="none" stroke="black" points="247,-923 247,-944 "/>
<text text-anchor="middle" x="264.5" y="-930.4" font-family="Times,serif" font-size="12.00">0x0</text>
</g>
<!-- HeadNode1&#45;&gt;node10x105b00000 -->
<g id="edge1" class="edge"><title>HeadNode1:f0&#45;&gt;node10x105b00000:w1</title>
<path fill="none" stroke="black" d="M163,-975C185.92,-975 194.061,-975.739 212.824,-975.946"/>
<polygon fill="black" stroke="black" points="212.982,-979.447 223,-976 213.019,-972.447 212.982,-979.447"/>
</g>
<!-- HeadNode1&#45;&gt;node10x105b00000 -->
<g id="edge2" class="edge"><title>HeadNode1:f1&#45;&gt;node10x105b00000:w2</title>
<path fill="none" stroke="black" d="M163,-954C185.917,-954 194.063,-954 212.825,-954"/>
<polygon fill="black" stroke="black" points="213,-957.5 223,-954 213,-950.5 213,-957.5"/>
</g>
<!-- HeadNode1&#45;&gt;node10x105b00000 -->
<g id="edge3" class="edge"><title>HeadNode1:f2&#45;&gt;node10x105b00000:w3</title>
<path fill="none" stroke="black" d="M163,-933C185.917,-933 194.063,-933 212.825,-933"/>
<polygon fill="black" stroke="black" points="213,-936.5 223,-933 213,-929.5 213,-936.5"/>
</g>
<!-- node10x0 -->
<g id="node3" class="node"><title>node10x0</title>
<polygon fill="none" stroke="black" points="368,-922.5 368,-985.5 422,-985.5 422,-922.5 368,-922.5"/>
<text text-anchor="middle" x="395" y="-971.9" font-family="Times,serif" font-size="12.00">NULL</text>
<polyline fill="none" stroke="black" points="368,-964.5 422,-964.5 "/>
<text text-anchor="middle" x="395" y="-950.9" font-family="Times,serif" font-size="12.00">NULL</text>
<polyline fill="none" stroke="black" points="368,-943.5 422,-943.5 "/>
<text text-anchor="middle" x="395" y="-929.9" font-family="Times,serif" font-size="12.00">NULL</text>
</g>
<!-- node10x105b00000&#45;&gt;node10x0 -->
<g id="edge4" class="edge"><title>node10x105b00000:f1&#45;&gt;node10x0:w1</title>
<path fill="none" stroke="black" d="M283,-976C316.69,-976 327.575,-975.186 356.811,-975.027"/>
<polygon fill="black" stroke="black" points="357.009,-978.526 367,-975 356.991,-971.526 357.009,-978.526"/>
</g>
<!-- node10x105b00000&#45;&gt;node10x0 -->
<g id="edge5" class="edge"><title>node10x105b00000:f2&#45;&gt;node10x0:w2</title>
<path fill="none" stroke="black" d="M283,-954C316.688,-954 327.577,-954 356.811,-954"/>
<polygon fill="black" stroke="black" points="357,-957.5 367,-954 357,-950.5 357,-957.5"/>
</g>
<!-- node10x105b00000&#45;&gt;node10x0 -->
<g id="edge6" class="edge"><title>node10x105b00000:f3&#45;&gt;node10x0:w3</title>
<path fill="none" stroke="black" d="M283,-933C316.688,-933 327.577,-933 356.811,-933"/>
<polygon fill="black" stroke="black" points="357,-936.5 367,-933 357,-929.5 357,-936.5"/>
</g>
<!-- HeadNode2 -->
<g id="node5" class="node"><title>HeadNode2</title>
<polygon fill="none" stroke="black" points="56,-789.5 56,-852.5 162,-852.5 162,-789.5 56,-789.5"/>
<text text-anchor="middle" x="67.5" y="-838.9" font-family="Times,serif" font-size="12.00">1</text>
<polyline fill="none" stroke="black" points="79,-831.5 79,-852.5 "/>
<text text-anchor="middle" x="120.5" y="-838.9" font-family="Times,serif" font-size="12.00">0x105b00000</text>
<polyline fill="none" stroke="black" points="56,-831.5 162,-831.5 "/>
<text text-anchor="middle" x="67.5" y="-817.9" font-family="Times,serif" font-size="12.00">1</text>
<polyline fill="none" stroke="black" points="79,-810.5 79,-831.5 "/>
<text text-anchor="middle" x="120.5" y="-817.9" font-family="Times,serif" font-size="12.00">0x105b00000</text>
<polyline fill="none" stroke="black" points="56,-810.5 162,-810.5 "/>
<text text-anchor="middle" x="67.5" y="-796.9" font-family="Times,serif" font-size="12.00">1</text>
<polyline fill="none" stroke="black" points="79,-789.5 79,-810.5 "/>
<text text-anchor="middle" x="120.5" y="-796.9" font-family="Times,serif" font-size="12.00">0x105b00000</text>
</g>
<!-- node20x105b00000 -->
<g id="node7" class="node"><title>node20x105b00000</title>
<polygon fill="none" stroke="black" points="200.5,-790 200.5,-874 305.5,-874 305.5,-790 200.5,-790"/>
<text text-anchor="middle" x="253" y="-860.4" font-family="Times,serif" font-size="12.00">0</text>
<polyline fill="none" stroke="black" points="200.5,-853 305.5,-853 "/>
<text text-anchor="middle" x="212" y="-839.4" font-family="Times,serif" font-size="12.00">1</text>
<polyline fill="none" stroke="black" points="223.5,-832 223.5,-853 "/>
<text text-anchor="middle" x="264.5" y="-839.4" font-family="Times,serif" font-size="12.00">0x105b000e0</text>
<polyline fill="none" stroke="black" points="200.5,-832 305.5,-832 "/>
<text text-anchor="middle" x="223.5" y="-818.4" font-family="Times,serif" font-size="12.00">2</text>
<polyline fill="none" stroke="black" points="246.5,-811 246.5,-832 "/>
<text text-anchor="middle" x="276" y="-818.4" font-family="Times,serif" font-size="12.00">0x0</text>
<polyline fill="none" stroke="black" points="200.5,-811 305.5,-811 "/>
<text text-anchor="middle" x="223.5" y="-797.4" font-family="Times,serif" font-size="12.00">2</text>
<polyline fill="none" stroke="black" points="246.5,-790 246.5,-811 "/>
<text text-anchor="middle" x="276" y="-797.4" font-family="Times,serif" font-size="12.00">0x0</text>
</g>
<!-- HeadNode2&#45;&gt;node20x105b00000 -->
<g id="edge7" class="edge"><title>HeadNode2:f0&#45;&gt;node20x105b00000:w1</title>
<path fill="none" stroke="black" d="M163,-842C175.466,-842 180.84,-842.574 189.87,-842.852"/>
<polygon fill="black" stroke="black" points="189.95,-846.354 200,-843 190.052,-839.355 189.95,-846.354"/>
</g>
<!-- HeadNode2&#45;&gt;node20x105b00000 -->
<g id="edge8" class="edge"><title>HeadNode2:f1&#45;&gt;node20x105b00000:w2</title>
<path fill="none" stroke="black" d="M163,-821C175.462,-821 180.841,-821 189.872,-821"/>
<polygon fill="black" stroke="black" points="190,-824.5 200,-821 190,-817.5 190,-824.5"/>
</g>
<!-- HeadNode2&#45;&gt;node20x105b00000 -->
<g id="edge9" class="edge"><title>HeadNode2:f2&#45;&gt;node20x105b00000:w3</title>
<path fill="none" stroke="black" d="M163,-800C175.462,-800 180.841,-800 189.872,-800"/>
<polygon fill="black" stroke="black" points="190,-803.5 200,-800 190,-796.5 190,-803.5"/>
</g>
<!-- node20x0 -->
<g id="node6" class="node"><title>node20x0</title>
<polygon fill="none" stroke="black" points="510,-789.5 510,-852.5 564,-852.5 564,-789.5 510,-789.5"/>
<text text-anchor="middle" x="537" y="-838.9" font-family="Times,serif" font-size="12.00">NULL</text>
<polyline fill="none" stroke="black" points="510,-831.5 564,-831.5 "/>
<text text-anchor="middle" x="537" y="-817.9" font-family="Times,serif" font-size="12.00">NULL</text>
<polyline fill="none" stroke="black" points="510,-810.5 564,-810.5 "/>
<text text-anchor="middle" x="537" y="-796.9" font-family="Times,serif" font-size="12.00">NULL</text>
</g>
<!-- node20x105b00000&#45;&gt;node20x0 -->
<g id="edge11" class="edge"><title>node20x105b00000:f2&#45;&gt;node20x0:w2</title>
<path fill="none" stroke="black" d="M306,-821C392.786,-821 416.962,-821 498.978,-821"/>
<polygon fill="black" stroke="black" points="499,-824.5 509,-821 499,-817.5 499,-824.5"/>
</g>
<!-- node20x105b00000&#45;&gt;node20x0 -->
<g id="edge12" class="edge"><title>node20x105b00000:f3&#45;&gt;node20x0:w3</title>
<path fill="none" stroke="black" d="M306,-800C392.786,-800 416.962,-800 498.978,-800"/>
<polygon fill="black" stroke="black" points="499,-803.5 509,-800 499,-796.5 499,-803.5"/>
</g>
<!-- node20x105b000e0 -->
<g id="node8" class="node"><title>node20x105b000e0</title>
<polygon fill="none" stroke="black" points="366,-832 366,-874 424,-874 424,-832 366,-832"/>
<text text-anchor="middle" x="395" y="-860.4" font-family="Times,serif" font-size="12.00">1</text>
<polyline fill="none" stroke="black" points="366,-853 424,-853 "/>
<text text-anchor="middle" x="377.5" y="-839.4" font-family="Times,serif" font-size="12.00">1</text>
<polyline fill="none" stroke="black" points="389,-832 389,-853 "/>
<text text-anchor="middle" x="406.5" y="-839.4" font-family="Times,serif" font-size="12.00">0x0</text>
</g>
<!-- node20x105b00000&#45;&gt;node20x105b000e0 -->
<g id="edge10" class="edge"><title>node20x105b00000:f1&#45;&gt;node20x105b000e0:w1</title>
<path fill="none" stroke="black" d="M306,-843C328.538,-843 336.543,-842.261 354.994,-842.054"/>
<polygon fill="black" stroke="black" points="355.019,-845.554 365,-842 354.981,-838.554 355.019,-845.554"/>
</g>
<!-- node20x105b000e0&#45;&gt;node20x0 -->
<g id="edge13" class="edge"><title>node20x105b000e0:f1&#45;&gt;node20x0:w1</title>
<path fill="none" stroke="black" d="M425,-842C458.688,-842 469.577,-842 498.811,-842"/>
<polygon fill="black" stroke="black" points="499,-845.5 509,-842 499,-838.5 499,-845.5"/>
</g>
<!-- HeadNode3 -->
<g id="node9" class="node"><title>HeadNode3</title>
<polygon fill="none" stroke="black" points="56,-656.5 56,-719.5 162,-719.5 162,-656.5 56,-656.5"/>
<text text-anchor="middle" x="67.5" y="-705.9" font-family="Times,serif" font-size="12.00">1</text>
<polyline fill="none" stroke="black" points="79,-698.5 79,-719.5 "/>
<text text-anchor="middle" x="120.5" y="-705.9" font-family="Times,serif" font-size="12.00">0x105b00000</text>
<polyline fill="none" stroke="black" points="56,-698.5 162,-698.5 "/>
<text text-anchor="middle" x="67.5" y="-684.9" font-family="Times,serif" font-size="12.00">1</text>
<polyline fill="none" stroke="black" points="79,-677.5 79,-698.5 "/>
<text text-anchor="middle" x="120.5" y="-684.9" font-family="Times,serif" font-size="12.00">0x105b00000</text>
<polyline fill="none" stroke="black" points="56,-677.5 162,-677.5 "/>
<text text-anchor="middle" x="67.5" y="-663.9" font-family="Times,serif" font-size="12.00">1</text>
<polyline fill="none" stroke="black" points="79,-656.5 79,-677.5 "/>
<text text-anchor="middle" x="120.5" y="-663.9" font-family="Times,serif" font-size="12.00">0x105b00000</text>
</g>
<!-- node30x105b00000 -->
<g id="node11" class="node"><title>node30x105b00000</title>
<polygon fill="none" stroke="black" points="200.5,-657 200.5,-741 305.5,-741 305.5,-657 200.5,-657"/>
<text text-anchor="middle" x="253" y="-727.4" font-family="Times,serif" font-size="12.00">0</text>
<polyline fill="none" stroke="black" points="200.5,-720 305.5,-720 "/>
<text text-anchor="middle" x="212" y="-706.4" font-family="Times,serif" font-size="12.00">1</text>
<polyline fill="none" stroke="black" points="223.5,-699 223.5,-720 "/>
<text text-anchor="middle" x="264.5" y="-706.4" font-family="Times,serif" font-size="12.00">0x105b000e0</text>
<polyline fill="none" stroke="black" points="200.5,-699 305.5,-699 "/>
<text text-anchor="middle" x="223.5" y="-685.4" font-family="Times,serif" font-size="12.00">3</text>
<polyline fill="none" stroke="black" points="246.5,-678 246.5,-699 "/>
<text text-anchor="middle" x="276" y="-685.4" font-family="Times,serif" font-size="12.00">0x0</text>
<polyline fill="none" stroke="black" points="200.5,-678 305.5,-678 "/>
<text text-anchor="middle" x="223.5" y="-664.4" font-family="Times,serif" font-size="12.00">3</text>
<polyline fill="none" stroke="black" points="246.5,-657 246.5,-678 "/>
<text text-anchor="middle" x="276" y="-664.4" font-family="Times,serif" font-size="12.00">0x0</text>
</g>
<!-- HeadNode3&#45;&gt;node30x105b00000 -->
<g id="edge14" class="edge"><title>HeadNode3:f0&#45;&gt;node30x105b00000:w1</title>
<path fill="none" stroke="black" d="M163,-709C175.466,-709 180.84,-709.574 189.87,-709.852"/>
<polygon fill="black" stroke="black" points="189.95,-713.354 200,-710 190.052,-706.355 189.95,-713.354"/>
</g>
<!-- HeadNode3&#45;&gt;node30x105b00000 -->
<g id="edge15" class="edge"><title>HeadNode3:f1&#45;&gt;node30x105b00000:w2</title>
<path fill="none" stroke="black" d="M163,-688C175.462,-688 180.841,-688 189.872,-688"/>
<polygon fill="black" stroke="black" points="190,-691.5 200,-688 190,-684.5 190,-691.5"/>
</g>
<!-- HeadNode3&#45;&gt;node30x105b00000 -->
<g id="edge16" class="edge"><title>HeadNode3:f2&#45;&gt;node30x105b00000:w3</title>
<path fill="none" stroke="black" d="M163,-667C175.462,-667 180.841,-667 189.872,-667"/>
<polygon fill="black" stroke="black" points="190,-670.5 200,-667 190,-663.5 190,-670.5"/>
</g>
<!-- node30x0 -->
<g id="node10" class="node"><title>node30x0</title>
<polygon fill="none" stroke="black" points="628,-656.5 628,-719.5 682,-719.5 682,-656.5 628,-656.5"/>
<text text-anchor="middle" x="655" y="-705.9" font-family="Times,serif" font-size="12.00">NULL</text>
<polyline fill="none" stroke="black" points="628,-698.5 682,-698.5 "/>
<text text-anchor="middle" x="655" y="-684.9" font-family="Times,serif" font-size="12.00">NULL</text>
<polyline fill="none" stroke="black" points="628,-677.5 682,-677.5 "/>
<text text-anchor="middle" x="655" y="-663.9" font-family="Times,serif" font-size="12.00">NULL</text>
</g>
<!-- node30x105b00000&#45;&gt;node30x0 -->
<g id="edge18" class="edge"><title>node30x105b00000:f2&#45;&gt;node30x0:w2</title>
<path fill="none" stroke="black" d="M306,-688C445.184,-688 482.528,-688 616.739,-688"/>
<polygon fill="black" stroke="black" points="617,-691.5 627,-688 617,-684.5 617,-691.5"/>
</g>
<!-- node30x105b00000&#45;&gt;node30x0 -->
<g id="edge19" class="edge"><title>node30x105b00000:f3&#45;&gt;node30x0:w3</title>
<path fill="none" stroke="black" d="M306,-667C445.184,-667 482.528,-667 616.739,-667"/>
<polygon fill="black" stroke="black" points="617,-670.5 627,-667 617,-663.5 617,-670.5"/>
</g>
<!-- node30x105b000e0 -->
<g id="node12" class="node"><title>node30x105b000e0</title>
<polygon fill="none" stroke="black" points="342,-699 342,-741 448,-741 448,-699 342,-699"/>
<text text-anchor="middle" x="395" y="-727.4" font-family="Times,serif" font-size="12.00">1</text>
<polyline fill="none" stroke="black" points="342,-720 448,-720 "/>
<text text-anchor="middle" x="353.5" y="-706.4" font-family="Times,serif" font-size="12.00">1</text>
<polyline fill="none" stroke="black" points="365,-699 365,-720 "/>
<text text-anchor="middle" x="406.5" y="-706.4" font-family="Times,serif" font-size="12.00">0x105b00110</text>
</g>
<!-- node30x105b00000&#45;&gt;node30x105b000e0 -->
<g id="edge17" class="edge"><title>node30x105b00000:f1&#45;&gt;node30x105b000e0:w1</title>
<path fill="none" stroke="black" d="M306,-710C318.005,-710 323.249,-709.438 331.873,-709.156"/>
<polygon fill="black" stroke="black" points="332.055,-712.654 342,-709 331.947,-705.655 332.055,-712.654"/>
</g>
<!-- node30x105b00110 -->
<g id="node13" class="node"><title>node30x105b00110</title>
<polygon fill="none" stroke="black" points="508,-699 508,-741 566,-741 566,-699 508,-699"/>
<text text-anchor="middle" x="537" y="-727.4" font-family="Times,serif" font-size="12.00">2</text>
<polyline fill="none" stroke="black" points="508,-720 566,-720 "/>
<text text-anchor="middle" x="519.5" y="-706.4" font-family="Times,serif" font-size="12.00">1</text>
<polyline fill="none" stroke="black" points="531,-699 531,-720 "/>
<text text-anchor="middle" x="548.5" y="-706.4" font-family="Times,serif" font-size="12.00">0x0</text>
</g>
<!-- node30x105b000e0&#45;&gt;node30x105b00110 -->
<g id="edge20" class="edge"><title>node30x105b000e0:f1&#45;&gt;node30x105b00110:w1</title>
<path fill="none" stroke="black" d="M448,-709C470.535,-709 478.545,-709 496.995,-709"/>
<polygon fill="black" stroke="black" points="497,-712.5 507,-709 497,-705.5 497,-712.5"/>
</g>
<!-- node30x105b00110&#45;&gt;node30x0 -->
<g id="edge21" class="edge"><title>node30x105b00110:f1&#45;&gt;node30x0:w1</title>
<path fill="none" stroke="black" d="M567,-709C589.917,-709 598.063,-709 616.825,-709"/>
<polygon fill="black" stroke="black" points="617,-712.5 627,-709 617,-705.5 617,-712.5"/>
</g>
<!-- HeadNode4 -->
<g id="node14" class="node"><title>HeadNode4</title>
<polygon fill="none" stroke="black" points="56,-523.5 56,-586.5 162,-586.5 162,-523.5 56,-523.5"/>
<text text-anchor="middle" x="67.5" y="-572.9" font-family="Times,serif" font-size="12.00">1</text>
<polyline fill="none" stroke="black" points="79,-565.5 79,-586.5 "/>
<text text-anchor="middle" x="120.5" y="-572.9" font-family="Times,serif" font-size="12.00">0x105b00000</text>
<polyline fill="none" stroke="black" points="56,-565.5 162,-565.5 "/>
<text text-anchor="middle" x="67.5" y="-551.9" font-family="Times,serif" font-size="12.00">1</text>
<polyline fill="none" stroke="black" points="79,-544.5 79,-565.5 "/>
<text text-anchor="middle" x="120.5" y="-551.9" font-family="Times,serif" font-size="12.00">0x105b00000</text>
<polyline fill="none" stroke="black" points="56,-544.5 162,-544.5 "/>
<text text-anchor="middle" x="67.5" y="-530.9" font-family="Times,serif" font-size="12.00">1</text>
<polyline fill="none" stroke="black" points="79,-523.5 79,-544.5 "/>
<text text-anchor="middle" x="120.5" y="-530.9" font-family="Times,serif" font-size="12.00">0x105b00000</text>
</g>
<!-- node40x105b00000 -->
<g id="node16" class="node"><title>node40x105b00000</title>
<polygon fill="none" stroke="black" points="200,-524 200,-608 306,-608 306,-524 200,-524"/>
<text text-anchor="middle" x="253" y="-594.4" font-family="Times,serif" font-size="12.00">0</text>
<polyline fill="none" stroke="black" points="200,-587 306,-587 "/>
<text text-anchor="middle" x="211.5" y="-573.4" font-family="Times,serif" font-size="12.00">1</text>
<polyline fill="none" stroke="black" points="223,-566 223,-587 "/>
<text text-anchor="middle" x="264.5" y="-573.4" font-family="Times,serif" font-size="12.00">0x105b000e0</text>
<polyline fill="none" stroke="black" points="200,-566 306,-566 "/>
<text text-anchor="middle" x="211.5" y="-552.4" font-family="Times,serif" font-size="12.00">3</text>
<polyline fill="none" stroke="black" points="223,-545 223,-566 "/>
<text text-anchor="middle" x="264.5" y="-552.4" font-family="Times,serif" font-size="12.00">0x105b00170</text>
<polyline fill="none" stroke="black" points="200,-545 306,-545 "/>
<text text-anchor="middle" x="211.5" y="-531.4" font-family="Times,serif" font-size="12.00">3</text>
<polyline fill="none" stroke="black" points="223,-524 223,-545 "/>
<text text-anchor="middle" x="264.5" y="-531.4" font-family="Times,serif" font-size="12.00">0x105b00170</text>
</g>
<!-- HeadNode4&#45;&gt;node40x105b00000 -->
<g id="edge22" class="edge"><title>HeadNode4:f0&#45;&gt;node40x105b00000:w1</title>
<path fill="none" stroke="black" d="M163,-576C175.466,-576 180.84,-576.574 189.87,-576.852"/>
<polygon fill="black" stroke="black" points="189.95,-580.354 200,-577 190.052,-573.355 189.95,-580.354"/>
</g>
<!-- HeadNode4&#45;&gt;node40x105b00000 -->
<g id="edge23" class="edge"><title>HeadNode4:f1&#45;&gt;node40x105b00000:w2</title>
<path fill="none" stroke="black" d="M163,-555C175.462,-555 180.841,-555 189.872,-555"/>
<polygon fill="black" stroke="black" points="190,-558.5 200,-555 190,-551.5 190,-558.5"/>
</g>
<!-- HeadNode4&#45;&gt;node40x105b00000 -->
<g id="edge24" class="edge"><title>HeadNode4:f2&#45;&gt;node40x105b00000:w3</title>
<path fill="none" stroke="black" d="M163,-534C175.462,-534 180.841,-534 189.872,-534"/>
<polygon fill="black" stroke="black" points="190,-537.5 200,-534 190,-530.5 190,-537.5"/>
</g>
<!-- node40x0 -->
<g id="node15" class="node"><title>node40x0</title>
<polygon fill="none" stroke="black" points="720,-523.5 720,-586.5 774,-586.5 774,-523.5 720,-523.5"/>
<text text-anchor="middle" x="747" y="-572.9" font-family="Times,serif" font-size="12.00">NULL</text>
<polyline fill="none" stroke="black" points="720,-565.5 774,-565.5 "/>
<text text-anchor="middle" x="747" y="-551.9" font-family="Times,serif" font-size="12.00">NULL</text>
<polyline fill="none" stroke="black" points="720,-544.5 774,-544.5 "/>
<text text-anchor="middle" x="747" y="-530.9" font-family="Times,serif" font-size="12.00">NULL</text>
</g>
<!-- node40x105b000e0 -->
<g id="node17" class="node"><title>node40x105b000e0</title>
<polygon fill="none" stroke="black" points="342,-566 342,-608 448,-608 448,-566 342,-566"/>
<text text-anchor="middle" x="395" y="-594.4" font-family="Times,serif" font-size="12.00">1</text>
<polyline fill="none" stroke="black" points="342,-587 448,-587 "/>
<text text-anchor="middle" x="353.5" y="-573.4" font-family="Times,serif" font-size="12.00">1</text>
<polyline fill="none" stroke="black" points="365,-566 365,-587 "/>
<text text-anchor="middle" x="406.5" y="-573.4" font-family="Times,serif" font-size="12.00">0x105b00110</text>
</g>
<!-- node40x105b00000&#45;&gt;node40x105b000e0 -->
<g id="edge25" class="edge"><title>node40x105b00000:f1&#45;&gt;node40x105b000e0:w1</title>
<path fill="none" stroke="black" d="M306,-577C318.005,-577 323.249,-576.438 331.873,-576.156"/>
<polygon fill="black" stroke="black" points="332.055,-579.654 342,-576 331.947,-572.655 332.055,-579.654"/>
</g>
<!-- node40x105b00170 -->
<g id="node18" class="node"><title>node40x105b00170</title>
<polygon fill="none" stroke="black" points="626,-524 626,-608 684,-608 684,-524 626,-524"/>
<text text-anchor="middle" x="655" y="-594.4" font-family="Times,serif" font-size="12.00">3</text>
<polyline fill="none" stroke="black" points="626,-587 684,-587 "/>
<text text-anchor="middle" x="637.5" y="-573.4" font-family="Times,serif" font-size="12.00">1</text>
<polyline fill="none" stroke="black" points="649,-566 649,-587 "/>
<text text-anchor="middle" x="666.5" y="-573.4" font-family="Times,serif" font-size="12.00">0x0</text>
<polyline fill="none" stroke="black" points="626,-566 684,-566 "/>
<text text-anchor="middle" x="637.5" y="-552.4" font-family="Times,serif" font-size="12.00">1</text>
<polyline fill="none" stroke="black" points="649,-545 649,-566 "/>
<text text-anchor="middle" x="666.5" y="-552.4" font-family="Times,serif" font-size="12.00">0x0</text>
<polyline fill="none" stroke="black" points="626,-545 684,-545 "/>
<text text-anchor="middle" x="637.5" y="-531.4" font-family="Times,serif" font-size="12.00">1</text>
<polyline fill="none" stroke="black" points="649,-524 649,-545 "/>
<text text-anchor="middle" x="666.5" y="-531.4" font-family="Times,serif" font-size="12.00">0x0</text>
</g>
<!-- node40x105b00000&#45;&gt;node40x105b00170 -->
<g id="edge26" class="edge"><title>node40x105b00000:f2&#45;&gt;node40x105b00170:w2</title>
<path fill="none" stroke="black" d="M306,-555C444.75,-555 481.978,-555 615.771,-555"/>
<polygon fill="black" stroke="black" points="616,-558.5 626,-555 616,-551.5 616,-558.5"/>
</g>
<!-- node40x105b00000&#45;&gt;node40x105b00170 -->
<g id="edge27" class="edge"><title>node40x105b00000:f3&#45;&gt;node40x105b00170:w3</title>
<path fill="none" stroke="black" d="M306,-534C444.75,-534 481.978,-534 615.771,-534"/>
<polygon fill="black" stroke="black" points="616,-537.5 626,-534 616,-530.5 616,-537.5"/>
</g>
<!-- node40x105b00110 -->
<g id="node19" class="node"><title>node40x105b00110</title>
<polygon fill="none" stroke="black" points="484,-566 484,-608 590,-608 590,-566 484,-566"/>
<text text-anchor="middle" x="537" y="-594.4" font-family="Times,serif" font-size="12.00">2</text>
<polyline fill="none" stroke="black" points="484,-587 590,-587 "/>
<text text-anchor="middle" x="495.5" y="-573.4" font-family="Times,serif" font-size="12.00">1</text>
<polyline fill="none" stroke="black" points="507,-566 507,-587 "/>
<text text-anchor="middle" x="548.5" y="-573.4" font-family="Times,serif" font-size="12.00">0x105b00170</text>
</g>
<!-- node40x105b000e0&#45;&gt;node40x105b00110 -->
<g id="edge28" class="edge"><title>node40x105b000e0:f1&#45;&gt;node40x105b00110:w1</title>
<path fill="none" stroke="black" d="M448,-576C460,-576 465.25,-576 473.875,-576"/>
<polygon fill="black" stroke="black" points="474,-579.5 484,-576 474,-572.5 474,-579.5"/>
</g>
<!-- node40x105b00170&#45;&gt;node40x0 -->
<g id="edge30" class="edge"><title>node40x105b00170:f1&#45;&gt;node40x0:w1</title>
<path fill="none" stroke="black" d="M685,-577C696.55,-577 701.663,-576.449 709.893,-576.165"/>
<polygon fill="black" stroke="black" points="710.059,-579.663 720,-576 709.944,-572.664 710.059,-579.663"/>
</g>
<!-- node40x105b00170&#45;&gt;node40x0 -->
<g id="edge31" class="edge"><title>node40x105b00170:f2&#45;&gt;node40x0:w2</title>
<path fill="none" stroke="black" d="M685,-555C696.545,-555 701.664,-555 709.895,-555"/>
<polygon fill="black" stroke="black" points="710,-558.5 720,-555 710,-551.5 710,-558.5"/>
</g>
<!-- node40x105b00170&#45;&gt;node40x0 -->
<g id="edge32" class="edge"><title>node40x105b00170:f3&#45;&gt;node40x0:w3</title>
<path fill="none" stroke="black" d="M685,-534C696.545,-534 701.664,-534 709.895,-534"/>
<polygon fill="black" stroke="black" points="710,-537.5 720,-534 710,-530.5 710,-537.5"/>
</g>
<!-- node40x105b00110&#45;&gt;node40x105b00170 -->
<g id="edge29" class="edge"><title>node40x105b00110:f1&#45;&gt;node40x105b00170:w1</title>
<path fill="none" stroke="black" d="M590,-576C602.005,-576 607.249,-576.562 615.873,-576.844"/>
<polygon fill="black" stroke="black" points="615.947,-580.345 626,-577 616.055,-573.346 615.947,-580.345"/>
</g>
<!-- HeadNode5 -->
<g id="node20" class="node"><title>HeadNode5</title>
<polygon fill="none" stroke="black" points="56,-390.5 56,-453.5 162,-453.5 162,-390.5 56,-390.5"/>
<text text-anchor="middle" x="67.5" y="-439.9" font-family="Times,serif" font-size="12.00">1</text>
<polyline fill="none" stroke="black" points="79,-432.5 79,-453.5 "/>
<text text-anchor="middle" x="120.5" y="-439.9" font-family="Times,serif" font-size="12.00">0x105b000e0</text>
<polyline fill="none" stroke="black" points="56,-432.5 162,-432.5 "/>
<text text-anchor="middle" x="67.5" y="-418.9" font-family="Times,serif" font-size="12.00">3</text>
<polyline fill="none" stroke="black" points="79,-411.5 79,-432.5 "/>
<text text-anchor="middle" x="120.5" y="-418.9" font-family="Times,serif" font-size="12.00">0x105b00170</text>
<polyline fill="none" stroke="black" points="56,-411.5 162,-411.5 "/>
<text text-anchor="middle" x="67.5" y="-397.9" font-family="Times,serif" font-size="12.00">3</text>
<polyline fill="none" stroke="black" points="79,-390.5 79,-411.5 "/>
<text text-anchor="middle" x="120.5" y="-397.9" font-family="Times,serif" font-size="12.00">0x105b00170</text>
</g>
<!-- node50x105b000e0 -->
<g id="node22" class="node"><title>node50x105b000e0</title>
<polygon fill="none" stroke="black" points="200,-433 200,-475 306,-475 306,-433 200,-433"/>
<text text-anchor="middle" x="253" y="-461.4" font-family="Times,serif" font-size="12.00">1</text>
<polyline fill="none" stroke="black" points="200,-454 306,-454 "/>
<text text-anchor="middle" x="211.5" y="-440.4" font-family="Times,serif" font-size="12.00">1</text>
<polyline fill="none" stroke="black" points="223,-433 223,-454 "/>
<text text-anchor="middle" x="264.5" y="-440.4" font-family="Times,serif" font-size="12.00">0x105b00110</text>
</g>
<!-- HeadNode5&#45;&gt;node50x105b000e0 -->
<g id="edge33" class="edge"><title>HeadNode5:f0&#45;&gt;node50x105b000e0:w1</title>
<path fill="none" stroke="black" d="M163,-443C175.462,-443 180.841,-443 189.872,-443"/>
<polygon fill="black" stroke="black" points="190,-446.5 200,-443 190,-439.5 190,-446.5"/>
</g>
<!-- node50x105b00170 -->
<g id="node23" class="node"><title>node50x105b00170</title>
<polygon fill="none" stroke="black" points="508,-391 508,-475 566,-475 566,-391 508,-391"/>
<text text-anchor="middle" x="537" y="-461.4" font-family="Times,serif" font-size="12.00">3</text>
<polyline fill="none" stroke="black" points="508,-454 566,-454 "/>
<text text-anchor="middle" x="519.5" y="-440.4" font-family="Times,serif" font-size="12.00">1</text>
<polyline fill="none" stroke="black" points="531,-433 531,-454 "/>
<text text-anchor="middle" x="548.5" y="-440.4" font-family="Times,serif" font-size="12.00">0x0</text>
<polyline fill="none" stroke="black" points="508,-433 566,-433 "/>
<text text-anchor="middle" x="519.5" y="-419.4" font-family="Times,serif" font-size="12.00">1</text>
<polyline fill="none" stroke="black" points="531,-412 531,-433 "/>
<text text-anchor="middle" x="548.5" y="-419.4" font-family="Times,serif" font-size="12.00">0x0</text>
<polyline fill="none" stroke="black" points="508,-412 566,-412 "/>
<text text-anchor="middle" x="519.5" y="-398.4" font-family="Times,serif" font-size="12.00">1</text>
<polyline fill="none" stroke="black" points="531,-391 531,-412 "/>
<text text-anchor="middle" x="548.5" y="-398.4" font-family="Times,serif" font-size="12.00">0x0</text>
</g>
<!-- HeadNode5&#45;&gt;node50x105b00170 -->
<g id="edge34" class="edge"><title>HeadNode5:f1&#45;&gt;node50x105b00170:w2</title>
<path fill="none" stroke="black" d="M163,-422C312.455,-422 352.336,-422 496.869,-422"/>
<polygon fill="black" stroke="black" points="497,-425.5 507,-422 497,-418.5 497,-425.5"/>
</g>
<!-- HeadNode5&#45;&gt;node50x105b00170 -->
<g id="edge35" class="edge"><title>HeadNode5:f2&#45;&gt;node50x105b00170:w3</title>
<path fill="none" stroke="black" d="M163,-401C312.455,-401 352.336,-401 496.869,-401"/>
<polygon fill="black" stroke="black" points="497,-404.5 507,-401 497,-397.5 497,-404.5"/>
</g>
<!-- node50x0 -->
<g id="node21" class="node"><title>node50x0</title>
<polygon fill="none" stroke="black" points="628,-390.5 628,-453.5 682,-453.5 682,-390.5 628,-390.5"/>
<text text-anchor="middle" x="655" y="-439.9" font-family="Times,serif" font-size="12.00">NULL</text>
<polyline fill="none" stroke="black" points="628,-432.5 682,-432.5 "/>
<text text-anchor="middle" x="655" y="-418.9" font-family="Times,serif" font-size="12.00">NULL</text>
<polyline fill="none" stroke="black" points="628,-411.5 682,-411.5 "/>
<text text-anchor="middle" x="655" y="-397.9" font-family="Times,serif" font-size="12.00">NULL</text>
</g>
<!-- node50x105b00110 -->
<g id="node24" class="node"><title>node50x105b00110</title>
<polygon fill="none" stroke="black" points="342,-433 342,-475 448,-475 448,-433 342,-433"/>
<text text-anchor="middle" x="395" y="-461.4" font-family="Times,serif" font-size="12.00">2</text>
<polyline fill="none" stroke="black" points="342,-454 448,-454 "/>
<text text-anchor="middle" x="353.5" y="-440.4" font-family="Times,serif" font-size="12.00">1</text>
<polyline fill="none" stroke="black" points="365,-433 365,-454 "/>
<text text-anchor="middle" x="406.5" y="-440.4" font-family="Times,serif" font-size="12.00">0x105b00170</text>
</g>
<!-- node50x105b000e0&#45;&gt;node50x105b00110 -->
<g id="edge36" class="edge"><title>node50x105b000e0:f1&#45;&gt;node50x105b00110:w1</title>
<path fill="none" stroke="black" d="M306,-443C318,-443 323.25,-443 331.875,-443"/>
<polygon fill="black" stroke="black" points="332,-446.5 342,-443 332,-439.5 332,-446.5"/>
</g>
<!-- node50x105b00170&#45;&gt;node50x0 -->
<g id="edge38" class="edge"><title>node50x105b00170:f1&#45;&gt;node50x0:w1</title>
<path fill="none" stroke="black" d="M567,-444C589.92,-444 598.061,-443.261 616.824,-443.054"/>
<polygon fill="black" stroke="black" points="617.019,-446.553 627,-443 616.982,-439.553 617.019,-446.553"/>
</g>
<!-- node50x105b00170&#45;&gt;node50x0 -->
<g id="edge39" class="edge"><title>node50x105b00170:f2&#45;&gt;node50x0:w2</title>
<path fill="none" stroke="black" d="M567,-422C589.917,-422 598.063,-422 616.825,-422"/>
<polygon fill="black" stroke="black" points="617,-425.5 627,-422 617,-418.5 617,-425.5"/>
</g>
<!-- node50x105b00170&#45;&gt;node50x0 -->
<g id="edge40" class="edge"><title>node50x105b00170:f3&#45;&gt;node50x0:w3</title>
<path fill="none" stroke="black" d="M567,-401C589.917,-401 598.063,-401 616.825,-401"/>
<polygon fill="black" stroke="black" points="617,-404.5 627,-401 617,-397.5 617,-404.5"/>
</g>
<!-- node50x105b00110&#45;&gt;node50x105b00170 -->
<g id="edge37" class="edge"><title>node50x105b00110:f1&#45;&gt;node50x105b00170:w1</title>
<path fill="none" stroke="black" d="M448,-443C470.538,-443 478.543,-443.739 496.994,-443.946"/>
<polygon fill="black" stroke="black" points="496.981,-447.446 507,-444 497.019,-440.446 496.981,-447.446"/>
</g>
<!-- HeadNode6 -->
<g id="node25" class="node"><title>HeadNode6</title>
<polygon fill="none" stroke="black" points="56,-257.5 56,-320.5 162,-320.5 162,-257.5 56,-257.5"/>
<text text-anchor="middle" x="67.5" y="-306.9" font-family="Times,serif" font-size="12.00">1</text>
<polyline fill="none" stroke="black" points="79,-299.5 79,-320.5 "/>
<text text-anchor="middle" x="120.5" y="-306.9" font-family="Times,serif" font-size="12.00">0x105b00110</text>
<polyline fill="none" stroke="black" points="56,-299.5 162,-299.5 "/>
<text text-anchor="middle" x="67.5" y="-285.9" font-family="Times,serif" font-size="12.00">2</text>
<polyline fill="none" stroke="black" points="79,-278.5 79,-299.5 "/>
<text text-anchor="middle" x="120.5" y="-285.9" font-family="Times,serif" font-size="12.00">0x105b00170</text>
<polyline fill="none" stroke="black" points="56,-278.5 162,-278.5 "/>
<text text-anchor="middle" x="67.5" y="-264.9" font-family="Times,serif" font-size="12.00">2</text>
<polyline fill="none" stroke="black" points="79,-257.5 79,-278.5 "/>
<text text-anchor="middle" x="120.5" y="-264.9" font-family="Times,serif" font-size="12.00">0x105b00170</text>
</g>
<!-- node60x105b00110 -->
<g id="node27" class="node"><title>node60x105b00110</title>
<polygon fill="none" stroke="black" points="200,-300 200,-342 306,-342 306,-300 200,-300"/>
<text text-anchor="middle" x="253" y="-328.4" font-family="Times,serif" font-size="12.00">2</text>
<polyline fill="none" stroke="black" points="200,-321 306,-321 "/>
<text text-anchor="middle" x="211.5" y="-307.4" font-family="Times,serif" font-size="12.00">1</text>
<polyline fill="none" stroke="black" points="223,-300 223,-321 "/>
<text text-anchor="middle" x="264.5" y="-307.4" font-family="Times,serif" font-size="12.00">0x105b00170</text>
</g>
<!-- HeadNode6&#45;&gt;node60x105b00110 -->
<g id="edge41" class="edge"><title>HeadNode6:f0&#45;&gt;node60x105b00110:w1</title>
<path fill="none" stroke="black" d="M163,-310C175.462,-310 180.841,-310 189.872,-310"/>
<polygon fill="black" stroke="black" points="190,-313.5 200,-310 190,-306.5 190,-313.5"/>
</g>
<!-- node60x105b00170 -->
<g id="node28" class="node"><title>node60x105b00170</title>
<polygon fill="none" stroke="black" points="366,-258 366,-342 424,-342 424,-258 366,-258"/>
<text text-anchor="middle" x="395" y="-328.4" font-family="Times,serif" font-size="12.00">3</text>
<polyline fill="none" stroke="black" points="366,-321 424,-321 "/>
<text text-anchor="middle" x="377.5" y="-307.4" font-family="Times,serif" font-size="12.00">1</text>
<polyline fill="none" stroke="black" points="389,-300 389,-321 "/>
<text text-anchor="middle" x="406.5" y="-307.4" font-family="Times,serif" font-size="12.00">0x0</text>
<polyline fill="none" stroke="black" points="366,-300 424,-300 "/>
<text text-anchor="middle" x="377.5" y="-286.4" font-family="Times,serif" font-size="12.00">1</text>
<polyline fill="none" stroke="black" points="389,-279 389,-300 "/>
<text text-anchor="middle" x="406.5" y="-286.4" font-family="Times,serif" font-size="12.00">0x0</text>
<polyline fill="none" stroke="black" points="366,-279 424,-279 "/>
<text text-anchor="middle" x="377.5" y="-265.4" font-family="Times,serif" font-size="12.00">1</text>
<polyline fill="none" stroke="black" points="389,-258 389,-279 "/>
<text text-anchor="middle" x="406.5" y="-265.4" font-family="Times,serif" font-size="12.00">0x0</text>
</g>
<!-- HeadNode6&#45;&gt;node60x105b00170 -->
<g id="edge42" class="edge"><title>HeadNode6:f1&#45;&gt;node60x105b00170:w2</title>
<path fill="none" stroke="black" d="M163,-289C249.271,-289 273.366,-289 354.779,-289"/>
<polygon fill="black" stroke="black" points="355,-292.5 365,-289 355,-285.5 355,-292.5"/>
</g>
<!-- HeadNode6&#45;&gt;node60x105b00170 -->
<g id="edge43" class="edge"><title>HeadNode6:f2&#45;&gt;node60x105b00170:w3</title>
<path fill="none" stroke="black" d="M163,-268C249.271,-268 273.366,-268 354.779,-268"/>
<polygon fill="black" stroke="black" points="355,-271.5 365,-268 355,-264.5 355,-271.5"/>
</g>
<!-- node60x0 -->
<g id="node26" class="node"><title>node60x0</title>
<polygon fill="none" stroke="black" points="510,-257.5 510,-320.5 564,-320.5 564,-257.5 510,-257.5"/>
<text text-anchor="middle" x="537" y="-306.9" font-family="Times,serif" font-size="12.00">NULL</text>
<polyline fill="none" stroke="black" points="510,-299.5 564,-299.5 "/>
<text text-anchor="middle" x="537" y="-285.9" font-family="Times,serif" font-size="12.00">NULL</text>
<polyline fill="none" stroke="black" points="510,-278.5 564,-278.5 "/>
<text text-anchor="middle" x="537" y="-264.9" font-family="Times,serif" font-size="12.00">NULL</text>
</g>
<!-- node60x105b00110&#45;&gt;node60x105b00170 -->
<g id="edge44" class="edge"><title>node60x105b00110:f1&#45;&gt;node60x105b00170:w1</title>
<path fill="none" stroke="black" d="M306,-310C328.538,-310 336.543,-310.739 354.994,-310.946"/>
<polygon fill="black" stroke="black" points="354.981,-314.446 365,-311 355.019,-307.446 354.981,-314.446"/>
</g>
<!-- node60x105b00170&#45;&gt;node60x0 -->
<g id="edge45" class="edge"><title>node60x105b00170:f1&#45;&gt;node60x0:w1</title>
<path fill="none" stroke="black" d="M425,-311C458.69,-311 469.575,-310.186 498.811,-310.027"/>
<polygon fill="black" stroke="black" points="499.009,-313.526 509,-310 498.991,-306.526 499.009,-313.526"/>
</g>
<!-- node60x105b00170&#45;&gt;node60x0 -->
<g id="edge46" class="edge"><title>node60x105b00170:f2&#45;&gt;node60x0:w2</title>
<path fill="none" stroke="black" d="M425,-289C458.688,-289 469.577,-289 498.811,-289"/>
<polygon fill="black" stroke="black" points="499,-292.5 509,-289 499,-285.5 499,-292.5"/>
</g>
<!-- node60x105b00170&#45;&gt;node60x0 -->
<g id="edge47" class="edge"><title>node60x105b00170:f3&#45;&gt;node60x0:w3</title>
<path fill="none" stroke="black" d="M425,-268C458.688,-268 469.577,-268 498.811,-268"/>
<polygon fill="black" stroke="black" points="499,-271.5 509,-268 499,-264.5 499,-271.5"/>
</g>
<!-- HeadNode7 -->
<g id="node29" class="node"><title>HeadNode7</title>
<polygon fill="none" stroke="black" points="56,-125.5 56,-188.5 162,-188.5 162,-125.5 56,-125.5"/>
<text text-anchor="middle" x="67.5" y="-174.9" font-family="Times,serif" font-size="12.00">1</text>
<polyline fill="none" stroke="black" points="79,-167.5 79,-188.5 "/>
<text text-anchor="middle" x="120.5" y="-174.9" font-family="Times,serif" font-size="12.00">0x105b00170</text>
<polyline fill="none" stroke="black" points="56,-167.5 162,-167.5 "/>
<text text-anchor="middle" x="67.5" y="-153.9" font-family="Times,serif" font-size="12.00">1</text>
<polyline fill="none" stroke="black" points="79,-146.5 79,-167.5 "/>
<text text-anchor="middle" x="120.5" y="-153.9" font-family="Times,serif" font-size="12.00">0x105b00170</text>
<polyline fill="none" stroke="black" points="56,-146.5 162,-146.5 "/>
<text text-anchor="middle" x="67.5" y="-132.9" font-family="Times,serif" font-size="12.00">1</text>
<polyline fill="none" stroke="black" points="79,-125.5 79,-146.5 "/>
<text text-anchor="middle" x="120.5" y="-132.9" font-family="Times,serif" font-size="12.00">0x105b00170</text>
</g>
<!-- node70x105b00170 -->
<g id="node31" class="node"><title>node70x105b00170</title>
<polygon fill="none" stroke="black" points="224,-125 224,-209 282,-209 282,-125 224,-125"/>
<text text-anchor="middle" x="253" y="-195.4" font-family="Times,serif" font-size="12.00">3</text>
<polyline fill="none" stroke="black" points="224,-188 282,-188 "/>
<text text-anchor="middle" x="235.5" y="-174.4" font-family="Times,serif" font-size="12.00">1</text>
<polyline fill="none" stroke="black" points="247,-167 247,-188 "/>
<text text-anchor="middle" x="264.5" y="-174.4" font-family="Times,serif" font-size="12.00">0x0</text>
<polyline fill="none" stroke="black" points="224,-167 282,-167 "/>
<text text-anchor="middle" x="235.5" y="-153.4" font-family="Times,serif" font-size="12.00">1</text>
<polyline fill="none" stroke="black" points="247,-146 247,-167 "/>
<text text-anchor="middle" x="264.5" y="-153.4" font-family="Times,serif" font-size="12.00">0x0</text>
<polyline fill="none" stroke="black" points="224,-146 282,-146 "/>
<text text-anchor="middle" x="235.5" y="-132.4" font-family="Times,serif" font-size="12.00">1</text>
<polyline fill="none" stroke="black" points="247,-125 247,-146 "/>
<text text-anchor="middle" x="264.5" y="-132.4" font-family="Times,serif" font-size="12.00">0x0</text>
</g>
<!-- HeadNode7&#45;&gt;node70x105b00170 -->
<g id="edge48" class="edge"><title>HeadNode7:f0&#45;&gt;node70x105b00170:w1</title>
<path fill="none" stroke="black" d="M163,-178C185.917,-178 194.063,-178 212.825,-178"/>
<polygon fill="black" stroke="black" points="213,-181.5 223,-178 213,-174.5 213,-181.5"/>
</g>
<!-- HeadNode7&#45;&gt;node70x105b00170 -->
<g id="edge49" class="edge"><title>HeadNode7:f1&#45;&gt;node70x105b00170:w2</title>
<path fill="none" stroke="black" d="M163,-157C185.92,-157 194.061,-156.261 212.824,-156.054"/>
<polygon fill="black" stroke="black" points="213.019,-159.553 223,-156 212.982,-152.553 213.019,-159.553"/>
</g>
<!-- HeadNode7&#45;&gt;node70x105b00170 -->
<g id="edge50" class="edge"><title>HeadNode7:f2&#45;&gt;node70x105b00170:w3</title>
<path fill="none" stroke="black" d="M163,-136C185.92,-136 194.061,-135.261 212.824,-135.054"/>
<polygon fill="black" stroke="black" points="213.019,-138.553 223,-135 212.982,-131.553 213.019,-138.553"/>
</g>
<!-- node70x0 -->
<g id="node30" class="node"><title>node70x0</title>
<polygon fill="none" stroke="black" points="368,-124.5 368,-187.5 422,-187.5 422,-124.5 368,-124.5"/>
<text text-anchor="middle" x="395" y="-173.9" font-family="Times,serif" font-size="12.00">NULL</text>
<polyline fill="none" stroke="black" points="368,-166.5 422,-166.5 "/>
<text text-anchor="middle" x="395" y="-152.9" font-family="Times,serif" font-size="12.00">NULL</text>
<polyline fill="none" stroke="black" points="368,-145.5 422,-145.5 "/>
<text text-anchor="middle" x="395" y="-131.9" font-family="Times,serif" font-size="12.00">NULL</text>
</g>
<!-- node70x105b00170&#45;&gt;node70x0 -->
<g id="edge51" class="edge"><title>node70x105b00170:f1&#45;&gt;node70x0:w1</title>
<path fill="none" stroke="black" d="M283,-178C316.69,-178 327.575,-177.186 356.811,-177.027"/>
<polygon fill="black" stroke="black" points="357.009,-180.526 367,-177 356.991,-173.526 357.009,-180.526"/>
</g>
<!-- node70x105b00170&#45;&gt;node70x0 -->
<g id="edge52" class="edge"><title>node70x105b00170:f2&#45;&gt;node70x0:w2</title>
<path fill="none" stroke="black" d="M283,-156C316.688,-156 327.577,-156 356.811,-156"/>
<polygon fill="black" stroke="black" points="357,-159.5 367,-156 357,-152.5 357,-159.5"/>
</g>
<!-- node70x105b00170&#45;&gt;node70x0 -->
<g id="edge53" class="edge"><title>node70x105b00170:f3&#45;&gt;node70x0:w3</title>
<path fill="none" stroke="black" d="M283,-135C316.688,-135 327.577,-135 356.811,-135"/>
<polygon fill="black" stroke="black" points="357,-138.5 367,-135 357,-131.5 357,-138.5"/>
</g>
<!-- HeadNode8 -->
<g id="node32" class="node"><title>HeadNode8</title>
<polygon fill="none" stroke="black" points="57.5,-40 57.5,-76 160.5,-76 160.5,-40 57.5,-40"/>
<text text-anchor="middle" x="109" y="-54.9" font-family="Times,serif" font-size="12.00">Empty HeadNode</text>
</g>
<!-- node0 -->
<!-- node0&#45;&gt;HeadNode0 -->
<!-- node0&#45;&gt;HeadNode1 -->
<!-- node0&#45;&gt;HeadNode2 -->
<!-- node0&#45;&gt;HeadNode3 -->
<!-- node0&#45;&gt;HeadNode4 -->
<!-- node0&#45;&gt;HeadNode5 -->
<!-- node0&#45;&gt;HeadNode6 -->
<!-- node0&#45;&gt;HeadNode7 -->
<!-- node0&#45;&gt;HeadNode8 -->
</g>
</svg>
