<?xml version="1.0" encoding="UTF-8" standalone="no"?>
<!DOCTYPE svg PUBLIC "-//W3C//DTD SVG 1.1//EN"
 "http://www.w3.org/Graphics/SVG/1.1/DTD/svg11.dtd">
<!-- Generated by graphviz version 2.36.0 (20140111.2315)
 -->
<!-- Title: SkipList Pages: 1 -->
<svg width="724pt" height="986pt"
 viewBox="0.00 0.00 724.00 986.00" xmlns="http://www.w3.org/2000/svg" xmlns:xlink="http://www.w3.org/1999/xlink">
<g id="graph0" class="graph" transform="scale(1 1) rotate(0) translate(4 982)">
<title>SkipList</title>
<polygon fill="white" stroke="none" points="-4,4 -4,-982 720,-982 720,4 -4,4"/>
<text text-anchor="middle" x="358" y="-7.8" font-family="Times,serif" font-size="14.00">SkipList, read bottom upwards.</text>
<!-- HeadNode -->
<g id="node1" class="node"><title>HeadNode</title>
<polygon fill="none" stroke="black" points="1.5,-23 1.5,-59 104.5,-59 104.5,-23 1.5,-23"/>
<text text-anchor="middle" x="53" y="-37.9" font-family="Times,serif" font-size="12.00">Empty HeadNode</text>
</g>
<!-- HeadNode1 -->
<g id="node2" class="node"><title>HeadNode1</title>
<polygon fill="none" stroke="black" points="0,-78 0,-114 106,-114 106,-78 0,-78"/>
<text text-anchor="middle" x="11.5" y="-92.9" font-family="Times,serif" font-size="12.00">1</text>
<polyline fill="none" stroke="black" points="23,-78 23,-114 "/>
<text text-anchor="middle" x="64.5" y="-92.9" font-family="Times,serif" font-size="12.00">0x100407960</text>
</g>
<!-- node10x100407960 -->
<g id="node4" class="node"><title>node10x100407960</title>
<polygon fill="none" stroke="black" points="166,-86 166,-128 224,-128 224,-86 166,-86"/>
<text text-anchor="middle" x="195" y="-114.4" font-family="Times,serif" font-size="12.00">0</text>
<polyline fill="none" stroke="black" points="166,-107 224,-107 "/>
<text text-anchor="middle" x="177.5" y="-93.4" font-family="Times,serif" font-size="12.00">1</text>
<polyline fill="none" stroke="black" points="189,-86 189,-107 "/>
<text text-anchor="middle" x="206.5" y="-93.4" font-family="Times,serif" font-size="12.00">0x0</text>
</g>
<!-- HeadNode1&#45;&gt;node10x100407960 -->
<g id="edge1" class="edge"><title>HeadNode1:f0&#45;&gt;node10x100407960:w1</title>
<path fill="none" stroke="black" d="M106,-96C128.535,-96 136.545,-96 154.995,-96"/>
<polygon fill="black" stroke="black" points="155,-99.5001 165,-96 155,-92.5001 155,-99.5001"/>
</g>
<!-- node10x0 -->
<g id="node3" class="node"><title>node10x0</title>
<polygon fill="none" stroke="black" points="310,-78 310,-114 364,-114 364,-78 310,-78"/>
<text text-anchor="middle" x="337" y="-92.9" font-family="Times,serif" font-size="12.00">NULL</text>
</g>
<!-- node10x100407960&#45;&gt;node10x0 -->
<g id="edge2" class="edge"><title>node10x100407960:f1&#45;&gt;node10x0:w1</title>
<path fill="none" stroke="black" d="M225,-96C249.898,-96 277.909,-96 299.691,-96"/>
<polygon fill="black" stroke="black" points="299.842,-99.5001 309.842,-96 299.842,-92.5001 299.842,-99.5001"/>
</g>
<!-- HeadNode2 -->
<g id="node5" class="node"><title>HeadNode2</title>
<polygon fill="none" stroke="black" points="0,-139 0,-175 106,-175 106,-139 0,-139"/>
<text text-anchor="middle" x="11.5" y="-153.9" font-family="Times,serif" font-size="12.00">1</text>
<polyline fill="none" stroke="black" points="23,-139 23,-175 "/>
<text text-anchor="middle" x="64.5" y="-153.9" font-family="Times,serif" font-size="12.00">0x100407960</text>
</g>
<!-- node20x100407960 -->
<g id="node7" class="node"><title>node20x100407960</title>
<polygon fill="none" stroke="black" points="142,-147 142,-189 248,-189 248,-147 142,-147"/>
<text text-anchor="middle" x="195" y="-175.4" font-family="Times,serif" font-size="12.00">0</text>
<polyline fill="none" stroke="black" points="142,-168 248,-168 "/>
<text text-anchor="middle" x="153.5" y="-154.4" font-family="Times,serif" font-size="12.00">1</text>
<polyline fill="none" stroke="black" points="165,-147 165,-168 "/>
<text text-anchor="middle" x="206.5" y="-154.4" font-family="Times,serif" font-size="12.00">0x1004079b0</text>
</g>
<!-- HeadNode2&#45;&gt;node20x100407960 -->
<g id="edge3" class="edge"><title>HeadNode2:f0&#45;&gt;node20x100407960:w1</title>
<path fill="none" stroke="black" d="M106,-157C118,-157 123.25,-157 131.875,-157"/>
<polygon fill="black" stroke="black" points="132,-160.5 142,-157 132,-153.5 132,-160.5"/>
</g>
<!-- node20x0 -->
<g id="node6" class="node"><title>node20x0</title>
<polygon fill="none" stroke="black" points="452,-139 452,-175 506,-175 506,-139 452,-139"/>
<text text-anchor="middle" x="479" y="-153.9" font-family="Times,serif" font-size="12.00">NULL</text>
</g>
<!-- node20x1004079b0 -->
<g id="node8" class="node"><title>node20x1004079b0</title>
<polygon fill="none" stroke="black" points="308,-147 308,-189 366,-189 366,-147 308,-147"/>
<text text-anchor="middle" x="337" y="-175.4" font-family="Times,serif" font-size="12.00">1</text>
<polyline fill="none" stroke="black" points="308,-168 366,-168 "/>
<text text-anchor="middle" x="319.5" y="-154.4" font-family="Times,serif" font-size="12.00">1</text>
<polyline fill="none" stroke="black" points="331,-147 331,-168 "/>
<text text-anchor="middle" x="348.5" y="-154.4" font-family="Times,serif" font-size="12.00">0x0</text>
</g>
<!-- node20x100407960&#45;&gt;node20x1004079b0 -->
<g id="edge4" class="edge"><title>node20x100407960:f1&#45;&gt;node20x1004079b0:w1</title>
<path fill="none" stroke="black" d="M248,-157C270.535,-157 278.545,-157 296.995,-157"/>
<polygon fill="black" stroke="black" points="297,-160.5 307,-157 297,-153.5 297,-160.5"/>
</g>
<!-- node20x1004079b0&#45;&gt;node20x0 -->
<g id="edge5" class="edge"><title>node20x1004079b0:f1&#45;&gt;node20x0:w1</title>
<path fill="none" stroke="black" d="M367,-157C391.898,-157 419.909,-157 441.691,-157"/>
<polygon fill="black" stroke="black" points="441.842,-160.5 451.842,-157 441.842,-153.5 441.842,-160.5"/>
</g>
<!-- HeadNode3 -->
<g id="node9" class="node"><title>HeadNode3</title>
<polygon fill="none" stroke="black" points="0,-233 0,-317 106,-317 106,-233 0,-233"/>
<text text-anchor="middle" x="11.5" y="-303.4" font-family="Times,serif" font-size="12.00">1</text>
<polyline fill="none" stroke="black" points="23,-296 23,-317 "/>
<text text-anchor="middle" x="64.5" y="-303.4" font-family="Times,serif" font-size="12.00">0x100407960</text>
<polyline fill="none" stroke="black" points="0,-296 106,-296 "/>
<text text-anchor="middle" x="12" y="-282.4" font-family="Times,serif" font-size="12.00">3</text>
<polyline fill="none" stroke="black" points="24,-275 24,-296 "/>
<text text-anchor="middle" x="65" y="-282.4" font-family="Times,serif" font-size="12.00">0x1004079f0</text>
<polyline fill="none" stroke="black" points="0,-275 106,-275 "/>
<text text-anchor="middle" x="12" y="-261.4" font-family="Times,serif" font-size="12.00">3</text>
<polyline fill="none" stroke="black" points="24,-254 24,-275 "/>
<text text-anchor="middle" x="65" y="-261.4" font-family="Times,serif" font-size="12.00">0x1004079f0</text>
<polyline fill="none" stroke="black" points="0,-254 106,-254 "/>
<text text-anchor="middle" x="12" y="-240.4" font-family="Times,serif" font-size="12.00">3</text>
<polyline fill="none" stroke="black" points="24,-233 24,-254 "/>
<text text-anchor="middle" x="65" y="-240.4" font-family="Times,serif" font-size="12.00">0x1004079f0</text>
</g>
<!-- node30x100407960 -->
<g id="node11" class="node"><title>node30x100407960</title>
<polygon fill="none" stroke="black" points="142,-323 142,-365 248,-365 248,-323 142,-323"/>
<text text-anchor="middle" x="195" y="-351.4" font-family="Times,serif" font-size="12.00">0</text>
<polyline fill="none" stroke="black" points="142,-344 248,-344 "/>
<text text-anchor="middle" x="153.5" y="-330.4" font-family="Times,serif" font-size="12.00">1</text>
<polyline fill="none" stroke="black" points="165,-323 165,-344 "/>
<text text-anchor="middle" x="206.5" y="-330.4" font-family="Times,serif" font-size="12.00">0x1004079b0</text>
</g>
<!-- HeadNode3&#45;&gt;node30x100407960 -->
<g id="edge6" class="edge"><title>HeadNode3:f0&#45;&gt;node30x100407960:w1</title>
<path fill="none" stroke="black" d="M106,-307C121.573,-307 122.696,-323.188 132.173,-330.017"/>
<polygon fill="black" stroke="black" points="131.415,-333.445 142,-333 133.447,-326.747 131.415,-333.445"/>
</g>
<!-- node30x1004079f0 -->
<g id="node12" class="node"><title>node30x1004079f0</title>
<polygon fill="none" stroke="black" points="450,-232.5 450,-337.5 508,-337.5 508,-232.5 450,-232.5"/>
<text text-anchor="middle" x="479" y="-323.9" font-family="Times,serif" font-size="12.00">2</text>
<polyline fill="none" stroke="black" points="450,-316.5 508,-316.5 "/>
<text text-anchor="middle" x="461.5" y="-302.9" font-family="Times,serif" font-size="12.00">1</text>
<polyline fill="none" stroke="black" points="473,-295.5 473,-316.5 "/>
<text text-anchor="middle" x="490.5" y="-302.9" font-family="Times,serif" font-size="12.00">0x0</text>
<polyline fill="none" stroke="black" points="450,-295.5 508,-295.5 "/>
<text text-anchor="middle" x="461.5" y="-281.9" font-family="Times,serif" font-size="12.00">1</text>
<polyline fill="none" stroke="black" points="473,-274.5 473,-295.5 "/>
<text text-anchor="middle" x="490.5" y="-281.9" font-family="Times,serif" font-size="12.00">0x0</text>
<polyline fill="none" stroke="black" points="450,-274.5 508,-274.5 "/>
<text text-anchor="middle" x="461.5" y="-260.9" font-family="Times,serif" font-size="12.00">1</text>
<polyline fill="none" stroke="black" points="473,-253.5 473,-274.5 "/>
<text text-anchor="middle" x="490.5" y="-260.9" font-family="Times,serif" font-size="12.00">0x0</text>
<polyline fill="none" stroke="black" points="450,-253.5 508,-253.5 "/>
<text text-anchor="middle" x="461.5" y="-239.9" font-family="Times,serif" font-size="12.00">1</text>
<polyline fill="none" stroke="black" points="473,-232.5 473,-253.5 "/>
<text text-anchor="middle" x="490.5" y="-239.9" font-family="Times,serif" font-size="12.00">0x0</text>
</g>
<!-- HeadNode3&#45;&gt;node30x1004079f0 -->
<g id="edge7" class="edge"><title>HeadNode3:f1&#45;&gt;node30x1004079f0:w2</title>
<path fill="none" stroke="black" d="M106,-286C255.021,-286 294.785,-285.044 438.898,-285.001"/>
<polygon fill="black" stroke="black" points="439.001,-288.502 449,-285 438.999,-281.502 439.001,-288.502"/>
</g>
<!-- HeadNode3&#45;&gt;node30x1004079f0 -->
<g id="edge8" class="edge"><title>HeadNode3:f2&#45;&gt;node30x1004079f0:w3</title>
<path fill="none" stroke="black" d="M106,-264C255.02,-264 294.786,-264 438.898,-264"/>
<polygon fill="black" stroke="black" points="439,-267.5 449,-264 439,-260.5 439,-267.5"/>
</g>
<!-- HeadNode3&#45;&gt;node30x1004079f0 -->
<g id="edge9" class="edge"><title>HeadNode3:f3&#45;&gt;node30x1004079f0:w4</title>
<path fill="none" stroke="black" d="M106,-243C255.02,-243 294.786,-243 438.898,-243"/>
<polygon fill="black" stroke="black" points="439,-246.5 449,-243 439,-239.5 439,-246.5"/>
</g>
<!-- node30x0 -->
<g id="node10" class="node"><title>node30x0</title>
<polygon fill="none" stroke="black" points="570,-232 570,-316 624,-316 624,-232 570,-232"/>
<text text-anchor="middle" x="597" y="-302.4" font-family="Times,serif" font-size="12.00">NULL</text>
<polyline fill="none" stroke="black" points="570,-295 624,-295 "/>
<text text-anchor="middle" x="597" y="-281.4" font-family="Times,serif" font-size="12.00">NULL</text>
<polyline fill="none" stroke="black" points="570,-274 624,-274 "/>
<text text-anchor="middle" x="597" y="-260.4" font-family="Times,serif" font-size="12.00">NULL</text>
<polyline fill="none" stroke="black" points="570,-253 624,-253 "/>
<text text-anchor="middle" x="597" y="-239.4" font-family="Times,serif" font-size="12.00">NULL</text>
</g>
<!-- node30x1004079b0 -->
<g id="node13" class="node"><title>node30x1004079b0</title>
<polygon fill="none" stroke="black" points="285.5,-323 285.5,-365 388.5,-365 388.5,-323 285.5,-323"/>
<text text-anchor="middle" x="337" y="-351.4" font-family="Times,serif" font-size="12.00">1</text>
<polyline fill="none" stroke="black" points="285.5,-344 388.5,-344 "/>
<text text-anchor="middle" x="297" y="-330.4" font-family="Times,serif" font-size="12.00">1</text>
<polyline fill="none" stroke="black" points="308.5,-323 308.5,-344 "/>
<text text-anchor="middle" x="348.5" y="-330.4" font-family="Times,serif" font-size="12.00">0x1004079f0</text>
</g>
<!-- node30x100407960&#45;&gt;node30x1004079b0 -->
<g id="edge10" class="edge"><title>node30x100407960:f1&#45;&gt;node30x1004079b0:w1</title>
<path fill="none" stroke="black" d="M248,-333C260,-333 265.25,-333 273.875,-333"/>
<polygon fill="black" stroke="black" points="274,-336.5 284,-333 274,-329.5 274,-336.5"/>
</g>
<!-- node30x1004079f0&#45;&gt;node30x0 -->
<g id="edge12" class="edge"><title>node30x1004079f0:f1&#45;&gt;node30x0:w1</title>
<path fill="none" stroke="black" d="M509,-306C531.917,-306 540.063,-306 558.825,-306"/>
<polygon fill="black" stroke="black" points="559,-309.5 569,-306 559,-302.5 559,-309.5"/>
</g>
<!-- node30x1004079f0&#45;&gt;node30x0 -->
<g id="edge13" class="edge"><title>node30x1004079f0:f2&#45;&gt;node30x0:w2</title>
<path fill="none" stroke="black" d="M509,-285C531.917,-285 540.063,-285 558.825,-285"/>
<polygon fill="black" stroke="black" points="559,-288.5 569,-285 559,-281.5 559,-288.5"/>
</g>
<!-- node30x1004079f0&#45;&gt;node30x0 -->
<g id="edge14" class="edge"><title>node30x1004079f0:f3&#45;&gt;node30x0:w3</title>
<path fill="none" stroke="black" d="M509,-264C531.92,-264 540.061,-263.261 558.824,-263.054"/>
<polygon fill="black" stroke="black" points="559.019,-266.553 569,-263 558.982,-259.553 559.019,-266.553"/>
</g>
<!-- node30x1004079f0&#45;&gt;node30x0 -->
<g id="edge15" class="edge"><title>node30x1004079f0:f4&#45;&gt;node30x0:w4</title>
<path fill="none" stroke="black" d="M509,-243C531.92,-243 540.061,-242.261 558.824,-242.054"/>
<polygon fill="black" stroke="black" points="559.019,-245.553 569,-242 558.982,-238.553 559.019,-245.553"/>
</g>
<!-- node30x1004079b0&#45;&gt;node30x1004079f0 -->
<g id="edge11" class="edge"><title>node30x1004079b0:f1&#45;&gt;node30x1004079f0:w1</title>
<path fill="none" stroke="black" d="M390,-333C415.008,-333 419.325,-312.696 438.837,-307.302"/>
<polygon fill="black" stroke="black" points="439.526,-310.743 449,-306 438.636,-303.799 439.526,-310.743"/>
</g>
<!-- HeadNode4 -->
<g id="node14" class="node"><title>HeadNode4</title>
<polygon fill="none" stroke="black" points="0,-409 0,-493 106,-493 106,-409 0,-409"/>
<text text-anchor="middle" x="11.5" y="-479.4" font-family="Times,serif" font-size="12.00">1</text>
<polyline fill="none" stroke="black" points="23,-472 23,-493 "/>
<text text-anchor="middle" x="64.5" y="-479.4" font-family="Times,serif" font-size="12.00">0x100407960</text>
<polyline fill="none" stroke="black" points="0,-472 106,-472 "/>
<text text-anchor="middle" x="12" y="-458.4" font-family="Times,serif" font-size="12.00">3</text>
<polyline fill="none" stroke="black" points="24,-451 24,-472 "/>
<text text-anchor="middle" x="65" y="-458.4" font-family="Times,serif" font-size="12.00">0x1004079f0</text>
<polyline fill="none" stroke="black" points="0,-451 106,-451 "/>
<text text-anchor="middle" x="12" y="-437.4" font-family="Times,serif" font-size="12.00">3</text>
<polyline fill="none" stroke="black" points="24,-430 24,-451 "/>
<text text-anchor="middle" x="65" y="-437.4" font-family="Times,serif" font-size="12.00">0x1004079f0</text>
<polyline fill="none" stroke="black" points="0,-430 106,-430 "/>
<text text-anchor="middle" x="12" y="-416.4" font-family="Times,serif" font-size="12.00">3</text>
<polyline fill="none" stroke="black" points="24,-409 24,-430 "/>
<text text-anchor="middle" x="65" y="-416.4" font-family="Times,serif" font-size="12.00">0x1004079f0</text>
</g>
<!-- node40x100407960 -->
<g id="node16" class="node"><title>node40x100407960</title>
<polygon fill="none" stroke="black" points="142,-499 142,-541 248,-541 248,-499 142,-499"/>
<text text-anchor="middle" x="195" y="-527.4" font-family="Times,serif" font-size="12.00">0</text>
<polyline fill="none" stroke="black" points="142,-520 248,-520 "/>
<text text-anchor="middle" x="153.5" y="-506.4" font-family="Times,serif" font-size="12.00">1</text>
<polyline fill="none" stroke="black" points="165,-499 165,-520 "/>
<text text-anchor="middle" x="206.5" y="-506.4" font-family="Times,serif" font-size="12.00">0x1004079b0</text>
</g>
<!-- HeadNode4&#45;&gt;node40x100407960 -->
<g id="edge16" class="edge"><title>HeadNode4:f0&#45;&gt;node40x100407960:w1</title>
<path fill="none" stroke="black" d="M106,-483C121.573,-483 122.696,-499.188 132.173,-506.017"/>
<polygon fill="black" stroke="black" points="131.415,-509.445 142,-509 133.447,-502.747 131.415,-509.445"/>
</g>
<!-- node40x1004079f0 -->
<g id="node17" class="node"><title>node40x1004079f0</title>
<polygon fill="none" stroke="black" points="426,-408.5 426,-513.5 532,-513.5 532,-408.5 426,-408.5"/>
<text text-anchor="middle" x="479" y="-499.9" font-family="Times,serif" font-size="12.00">2</text>
<polyline fill="none" stroke="black" points="426,-492.5 532,-492.5 "/>
<text text-anchor="middle" x="437.5" y="-478.9" font-family="Times,serif" font-size="12.00">1</text>
<polyline fill="none" stroke="black" points="449,-471.5 449,-492.5 "/>
<text text-anchor="middle" x="490.5" y="-478.9" font-family="Times,serif" font-size="12.00">0x100407b00</text>
<polyline fill="none" stroke="black" points="426,-471.5 532,-471.5 "/>
<text text-anchor="middle" x="449.5" y="-457.9" font-family="Times,serif" font-size="12.00">2</text>
<polyline fill="none" stroke="black" points="473,-450.5 473,-471.5 "/>
<text text-anchor="middle" x="502.5" y="-457.9" font-family="Times,serif" font-size="12.00">0x0</text>
<polyline fill="none" stroke="black" points="426,-450.5 532,-450.5 "/>
<text text-anchor="middle" x="449.5" y="-436.9" font-family="Times,serif" font-size="12.00">2</text>
<polyline fill="none" stroke="black" points="473,-429.5 473,-450.5 "/>
<text text-anchor="middle" x="502.5" y="-436.9" font-family="Times,serif" font-size="12.00">0x0</text>
<polyline fill="none" stroke="black" points="426,-429.5 532,-429.5 "/>
<text text-anchor="middle" x="449.5" y="-415.9" font-family="Times,serif" font-size="12.00">2</text>
<polyline fill="none" stroke="black" points="473,-408.5 473,-429.5 "/>
<text text-anchor="middle" x="502.5" y="-415.9" font-family="Times,serif" font-size="12.00">0x0</text>
</g>
<!-- HeadNode4&#45;&gt;node40x1004079f0 -->
<g id="edge17" class="edge"><title>HeadNode4:f1&#45;&gt;node40x1004079f0:w2</title>
<path fill="none" stroke="black" d="M106,-462C244.751,-462 281.977,-461.048 415.771,-461.002"/>
<polygon fill="black" stroke="black" points="416.001,-464.502 426,-461 415.999,-457.502 416.001,-464.502"/>
</g>
<!-- HeadNode4&#45;&gt;node40x1004079f0 -->
<g id="edge18" class="edge"><title>HeadNode4:f2&#45;&gt;node40x1004079f0:w3</title>
<path fill="none" stroke="black" d="M106,-440C244.75,-440 281.978,-440 415.771,-440"/>
<polygon fill="black" stroke="black" points="416,-443.5 426,-440 416,-436.5 416,-443.5"/>
</g>
<!-- HeadNode4&#45;&gt;node40x1004079f0 -->
<g id="edge19" class="edge"><title>HeadNode4:f3&#45;&gt;node40x1004079f0:w4</title>
<path fill="none" stroke="black" d="M106,-419C244.75,-419 281.978,-419 415.771,-419"/>
<polygon fill="black" stroke="black" points="416,-422.5 426,-419 416,-415.5 416,-422.5"/>
</g>
<!-- node40x0 -->
<g id="node15" class="node"><title>node40x0</title>
<polygon fill="none" stroke="black" points="662,-408 662,-492 716,-492 716,-408 662,-408"/>
<text text-anchor="middle" x="689" y="-478.4" font-family="Times,serif" font-size="12.00">NULL</text>
<polyline fill="none" stroke="black" points="662,-471 716,-471 "/>
<text text-anchor="middle" x="689" y="-457.4" font-family="Times,serif" font-size="12.00">NULL</text>
<polyline fill="none" stroke="black" points="662,-450 716,-450 "/>
<text text-anchor="middle" x="689" y="-436.4" font-family="Times,serif" font-size="12.00">NULL</text>
<polyline fill="none" stroke="black" points="662,-429 716,-429 "/>
<text text-anchor="middle" x="689" y="-415.4" font-family="Times,serif" font-size="12.00">NULL</text>
</g>
<!-- node40x1004079b0 -->
<g id="node18" class="node"><title>node40x1004079b0</title>
<polygon fill="none" stroke="black" points="285.5,-499 285.5,-541 388.5,-541 388.5,-499 285.5,-499"/>
<text text-anchor="middle" x="337" y="-527.4" font-family="Times,serif" font-size="12.00">1</text>
<polyline fill="none" stroke="black" points="285.5,-520 388.5,-520 "/>
<text text-anchor="middle" x="297" y="-506.4" font-family="Times,serif" font-size="12.00">1</text>
<polyline fill="none" stroke="black" points="308.5,-499 308.5,-520 "/>
<text text-anchor="middle" x="348.5" y="-506.4" font-family="Times,serif" font-size="12.00">0x1004079f0</text>
</g>
<!-- node40x100407960&#45;&gt;node40x1004079b0 -->
<g id="edge20" class="edge"><title>node40x100407960:f1&#45;&gt;node40x1004079b0:w1</title>
<path fill="none" stroke="black" d="M248,-509C260,-509 265.25,-509 273.875,-509"/>
<polygon fill="black" stroke="black" points="274,-512.5 284,-509 274,-505.5 274,-512.5"/>
</g>
<!-- node40x1004079f0&#45;&gt;node40x0 -->
<g id="edge23" class="edge"><title>node40x1004079f0:f2&#45;&gt;node40x0:w2</title>
<path fill="none" stroke="black" d="M532,-461C586.28,-461 602.314,-461 651.963,-461"/>
<polygon fill="black" stroke="black" points="652,-464.5 662,-461 652,-457.5 652,-464.5"/>
</g>
<!-- node40x1004079f0&#45;&gt;node40x0 -->
<g id="edge24" class="edge"><title>node40x1004079f0:f3&#45;&gt;node40x0:w3</title>
<path fill="none" stroke="black" d="M532,-440C586.281,-440 602.313,-439.117 651.962,-439.011"/>
<polygon fill="black" stroke="black" points="652.004,-442.511 662,-439 651.996,-435.511 652.004,-442.511"/>
</g>
<!-- node40x1004079f0&#45;&gt;node40x0 -->
<g id="edge25" class="edge"><title>node40x1004079f0:f4&#45;&gt;node40x0:w4</title>
<path fill="none" stroke="black" d="M532,-419C586.281,-419 602.313,-418.117 651.962,-418.011"/>
<polygon fill="black" stroke="black" points="652.004,-421.511 662,-418 651.996,-414.511 652.004,-421.511"/>
</g>
<!-- node40x100407b00 -->
<g id="node19" class="node"><title>node40x100407b00</title>
<polygon fill="none" stroke="black" points="568,-498 568,-540 626,-540 626,-498 568,-498"/>
<text text-anchor="middle" x="597" y="-526.4" font-family="Times,serif" font-size="12.00">3</text>
<polyline fill="none" stroke="black" points="568,-519 626,-519 "/>
<text text-anchor="middle" x="579.5" y="-505.4" font-family="Times,serif" font-size="12.00">1</text>
<polyline fill="none" stroke="black" points="591,-498 591,-519 "/>
<text text-anchor="middle" x="608.5" y="-505.4" font-family="Times,serif" font-size="12.00">0x0</text>
</g>
<!-- node40x1004079f0&#45;&gt;node40x100407b00 -->
<g id="edge22" class="edge"><title>node40x1004079f0:f1&#45;&gt;node40x100407b00:w1</title>
<path fill="none" stroke="black" d="M532,-482C547.573,-482 548.696,-498.188 558.173,-505.017"/>
<polygon fill="black" stroke="black" points="557.415,-508.445 568,-508 559.447,-501.747 557.415,-508.445"/>
</g>
<!-- node40x1004079b0&#45;&gt;node40x1004079f0 -->
<g id="edge21" class="edge"><title>node40x1004079b0:f1&#45;&gt;node40x1004079f0:w1</title>
<path fill="none" stroke="black" d="M390,-509C405.938,-509 406.635,-491.855 416.381,-484.889"/>
<polygon fill="black" stroke="black" points="417.43,-488.229 426,-482 415.416,-481.525 417.43,-488.229"/>
</g>
<!-- node40x100407b00&#45;&gt;node40x0 -->
<g id="edge26" class="edge"><title>node40x100407b00:f1&#45;&gt;node40x0:w1</title>
<path fill="none" stroke="black" d="M626,-508C641.573,-508 642.696,-491.812 652.173,-484.983"/>
<polygon fill="black" stroke="black" points="653.447,-488.253 662,-482 651.415,-481.555 653.447,-488.253"/>
</g>
<!-- HeadNode5 -->
<g id="node20" class="node"><title>HeadNode5</title>
<polygon fill="none" stroke="black" points="0,-585 0,-669 106,-669 106,-585 0,-585"/>
<text text-anchor="middle" x="11.5" y="-655.4" font-family="Times,serif" font-size="12.00">1</text>
<polyline fill="none" stroke="black" points="23,-648 23,-669 "/>
<text text-anchor="middle" x="64.5" y="-655.4" font-family="Times,serif" font-size="12.00">0x1004079b0</text>
<polyline fill="none" stroke="black" points="0,-648 106,-648 "/>
<text text-anchor="middle" x="12" y="-634.4" font-family="Times,serif" font-size="12.00">2</text>
<polyline fill="none" stroke="black" points="24,-627 24,-648 "/>
<text text-anchor="middle" x="65" y="-634.4" font-family="Times,serif" font-size="12.00">0x1004079f0</text>
<polyline fill="none" stroke="black" points="0,-627 106,-627 "/>
<text text-anchor="middle" x="12" y="-613.4" font-family="Times,serif" font-size="12.00">2</text>
<polyline fill="none" stroke="black" points="24,-606 24,-627 "/>
<text text-anchor="middle" x="65" y="-613.4" font-family="Times,serif" font-size="12.00">0x1004079f0</text>
<polyline fill="none" stroke="black" points="0,-606 106,-606 "/>
<text text-anchor="middle" x="12" y="-592.4" font-family="Times,serif" font-size="12.00">2</text>
<polyline fill="none" stroke="black" points="24,-585 24,-606 "/>
<text text-anchor="middle" x="65" y="-592.4" font-family="Times,serif" font-size="12.00">0x1004079f0</text>
</g>
<!-- node50x1004079b0 -->
<g id="node22" class="node"><title>node50x1004079b0</title>
<polygon fill="none" stroke="black" points="143.5,-675 143.5,-717 246.5,-717 246.5,-675 143.5,-675"/>
<text text-anchor="middle" x="195" y="-703.4" font-family="Times,serif" font-size="12.00">1</text>
<polyline fill="none" stroke="black" points="143.5,-696 246.5,-696 "/>
<text text-anchor="middle" x="155" y="-682.4" font-family="Times,serif" font-size="12.00">1</text>
<polyline fill="none" stroke="black" points="166.5,-675 166.5,-696 "/>
<text text-anchor="middle" x="206.5" y="-682.4" font-family="Times,serif" font-size="12.00">0x1004079f0</text>
</g>
<!-- HeadNode5&#45;&gt;node50x1004079b0 -->
<g id="edge27" class="edge"><title>HeadNode5:f0&#45;&gt;node50x1004079b0:w1</title>
<path fill="none" stroke="black" d="M106,-659C121.573,-659 122.696,-675.188 132.173,-682.017"/>
<polygon fill="black" stroke="black" points="131.415,-685.445 142,-685 133.447,-678.747 131.415,-685.445"/>
</g>
<!-- node50x1004079f0 -->
<g id="node23" class="node"><title>node50x1004079f0</title>
<polygon fill="none" stroke="black" points="284,-577.5 284,-682.5 390,-682.5 390,-577.5 284,-577.5"/>
<text text-anchor="middle" x="337" y="-668.9" font-family="Times,serif" font-size="12.00">2</text>
<polyline fill="none" stroke="black" points="284,-661.5 390,-661.5 "/>
<text text-anchor="middle" x="295.5" y="-647.9" font-family="Times,serif" font-size="12.00">1</text>
<polyline fill="none" stroke="black" points="307,-640.5 307,-661.5 "/>
<text text-anchor="middle" x="348.5" y="-647.9" font-family="Times,serif" font-size="12.00">0x100407b00</text>
<polyline fill="none" stroke="black" points="284,-640.5 390,-640.5 "/>
<text text-anchor="middle" x="307.5" y="-626.9" font-family="Times,serif" font-size="12.00">2</text>
<polyline fill="none" stroke="black" points="331,-619.5 331,-640.5 "/>
<text text-anchor="middle" x="360.5" y="-626.9" font-family="Times,serif" font-size="12.00">0x0</text>
<polyline fill="none" stroke="black" points="284,-619.5 390,-619.5 "/>
<text text-anchor="middle" x="307.5" y="-605.9" font-family="Times,serif" font-size="12.00">2</text>
<polyline fill="none" stroke="black" points="331,-598.5 331,-619.5 "/>
<text text-anchor="middle" x="360.5" y="-605.9" font-family="Times,serif" font-size="12.00">0x0</text>
<polyline fill="none" stroke="black" points="284,-598.5 390,-598.5 "/>
<text text-anchor="middle" x="307.5" y="-584.9" font-family="Times,serif" font-size="12.00">2</text>
<polyline fill="none" stroke="black" points="331,-577.5 331,-598.5 "/>
<text text-anchor="middle" x="360.5" y="-584.9" font-family="Times,serif" font-size="12.00">0x0</text>
</g>
<!-- HeadNode5&#45;&gt;node50x1004079f0 -->
<g id="edge28" class="edge"><title>HeadNode5:f1&#45;&gt;node50x1004079f0:w2</title>
<path fill="none" stroke="black" d="M106,-638C181.634,-638 202.926,-630.703 273.678,-630.047"/>
<polygon fill="black" stroke="black" points="274.016,-633.546 284,-630 273.984,-626.546 274.016,-633.546"/>
</g>
<!-- HeadNode5&#45;&gt;node50x1004079f0 -->
<g id="edge29" class="edge"><title>HeadNode5:f2&#45;&gt;node50x1004079f0:w3</title>
<path fill="none" stroke="black" d="M106,-616C181.616,-616 202.942,-609.615 273.68,-609.041"/>
<polygon fill="black" stroke="black" points="274.014,-612.54 284,-609 273.986,-605.54 274.014,-612.54"/>
</g>
<!-- HeadNode5&#45;&gt;node50x1004079f0 -->
<g id="edge30" class="edge"><title>HeadNode5:f3&#45;&gt;node50x1004079f0:w4</title>
<path fill="none" stroke="black" d="M106,-595C181.616,-595 202.942,-588.615 273.68,-588.041"/>
<polygon fill="black" stroke="black" points="274.014,-591.54 284,-588 273.986,-584.54 274.014,-591.54"/>
</g>
<!-- node50x0 -->
<g id="node21" class="node"><title>node50x0</title>
<polygon fill="none" stroke="black" points="570,-573 570,-657 624,-657 624,-573 570,-573"/>
<text text-anchor="middle" x="597" y="-643.4" font-family="Times,serif" font-size="12.00">NULL</text>
<polyline fill="none" stroke="black" points="570,-636 624,-636 "/>
<text text-anchor="middle" x="597" y="-622.4" font-family="Times,serif" font-size="12.00">NULL</text>
<polyline fill="none" stroke="black" points="570,-615 624,-615 "/>
<text text-anchor="middle" x="597" y="-601.4" font-family="Times,serif" font-size="12.00">NULL</text>
<polyline fill="none" stroke="black" points="570,-594 624,-594 "/>
<text text-anchor="middle" x="597" y="-580.4" font-family="Times,serif" font-size="12.00">NULL</text>
</g>
<!-- node50x1004079b0&#45;&gt;node50x1004079f0 -->
<g id="edge31" class="edge"><title>node50x1004079b0:f1&#45;&gt;node50x1004079f0:w1</title>
<path fill="none" stroke="black" d="M248,-685C265.881,-685 263.943,-662.555 274.391,-654.138"/>
<polygon fill="black" stroke="black" points="275.58,-657.431 284,-651 273.408,-650.777 275.58,-657.431"/>
</g>
<!-- node50x1004079f0&#45;&gt;node50x0 -->
<g id="edge33" class="edge"><title>node50x1004079f0:f2&#45;&gt;node50x0:w2</title>
<path fill="none" stroke="black" d="M390,-630C466.001,-630 487.521,-626.351 558.627,-626.023"/>
<polygon fill="black" stroke="black" points="559.008,-629.523 569,-626 558.992,-622.523 559.008,-629.523"/>
</g>
<!-- node50x1004079f0&#45;&gt;node50x0 -->
<g id="edge34" class="edge"><title>node50x1004079f0:f3&#45;&gt;node50x0:w3</title>
<path fill="none" stroke="black" d="M390,-609C466.011,-609 487.512,-604.439 558.625,-604.029"/>
<polygon fill="black" stroke="black" points="559.01,-607.528 569,-604 558.99,-600.528 559.01,-607.528"/>
</g>
<!-- node50x1004079f0&#45;&gt;node50x0 -->
<g id="edge35" class="edge"><title>node50x1004079f0:f4&#45;&gt;node50x0:w4</title>
<path fill="none" stroke="black" d="M390,-588C466.011,-588 487.512,-583.439 558.625,-583.029"/>
<polygon fill="black" stroke="black" points="559.01,-586.528 569,-583 558.99,-579.528 559.01,-586.528"/>
</g>
<!-- node50x100407b00 -->
<g id="node24" class="node"><title>node50x100407b00</title>
<polygon fill="none" stroke="black" points="450,-663 450,-705 508,-705 508,-663 450,-663"/>
<text text-anchor="middle" x="479" y="-691.4" font-family="Times,serif" font-size="12.00">3</text>
<polyline fill="none" stroke="black" points="450,-684 508,-684 "/>
<text text-anchor="middle" x="461.5" y="-670.4" font-family="Times,serif" font-size="12.00">1</text>
<polyline fill="none" stroke="black" points="473,-663 473,-684 "/>
<text text-anchor="middle" x="490.5" y="-670.4" font-family="Times,serif" font-size="12.00">0x0</text>
</g>
<!-- node50x1004079f0&#45;&gt;node50x100407b00 -->
<g id="edge32" class="edge"><title>node50x1004079f0:f1&#45;&gt;node50x100407b00:w1</title>
<path fill="none" stroke="black" d="M390,-651C414.269,-651 419.77,-667.544 439.053,-671.939"/>
<polygon fill="black" stroke="black" points="438.685,-675.419 449,-673 439.428,-668.459 438.685,-675.419"/>
</g>
<!-- node50x100407b00&#45;&gt;node50x0 -->
<g id="edge36" class="edge"><title>node50x100407b00:f1&#45;&gt;node50x0:w1</title>
<path fill="none" stroke="black" d="M509,-673C534.316,-673 539.002,-653.271 559,-648.185"/>
<polygon fill="black" stroke="black" points="559.481,-651.652 569,-647 558.658,-644.701 559.481,-651.652"/>
</g>
<!-- HeadNode6 -->
<g id="node25" class="node"><title>HeadNode6</title>
<polygon fill="none" stroke="black" points="1.5,-736 1.5,-820 104.5,-820 104.5,-736 1.5,-736"/>
<text text-anchor="middle" x="13" y="-806.4" font-family="Times,serif" font-size="12.00">1</text>
<polyline fill="none" stroke="black" points="24.5,-799 24.5,-820 "/>
<text text-anchor="middle" x="64.5" y="-806.4" font-family="Times,serif" font-size="12.00">0x1004079f0</text>
<polyline fill="none" stroke="black" points="1.5,-799 104.5,-799 "/>
<text text-anchor="middle" x="13" y="-785.4" font-family="Times,serif" font-size="12.00">1</text>
<polyline fill="none" stroke="black" points="24.5,-778 24.5,-799 "/>
<text text-anchor="middle" x="64.5" y="-785.4" font-family="Times,serif" font-size="12.00">0x1004079f0</text>
<polyline fill="none" stroke="black" points="1.5,-778 104.5,-778 "/>
<text text-anchor="middle" x="13" y="-764.4" font-family="Times,serif" font-size="12.00">1</text>
<polyline fill="none" stroke="black" points="24.5,-757 24.5,-778 "/>
<text text-anchor="middle" x="64.5" y="-764.4" font-family="Times,serif" font-size="12.00">0x1004079f0</text>
<polyline fill="none" stroke="black" points="1.5,-757 104.5,-757 "/>
<text text-anchor="middle" x="13" y="-743.4" font-family="Times,serif" font-size="12.00">1</text>
<polyline fill="none" stroke="black" points="24.5,-736 24.5,-757 "/>
<text text-anchor="middle" x="64.5" y="-743.4" font-family="Times,serif" font-size="12.00">0x1004079f0</text>
</g>
<!-- node60x1004079f0 -->
<g id="node27" class="node"><title>node60x1004079f0</title>
<polygon fill="none" stroke="black" points="142,-736.5 142,-841.5 248,-841.5 248,-736.5 142,-736.5"/>
<text text-anchor="middle" x="195" y="-827.9" font-family="Times,serif" font-size="12.00">2</text>
<polyline fill="none" stroke="black" points="142,-820.5 248,-820.5 "/>
<text text-anchor="middle" x="153.5" y="-806.9" font-family="Times,serif" font-size="12.00">1</text>
<polyline fill="none" stroke="black" points="165,-799.5 165,-820.5 "/>
<text text-anchor="middle" x="206.5" y="-806.9" font-family="Times,serif" font-size="12.00">0x100407b00</text>
<polyline fill="none" stroke="black" points="142,-799.5 248,-799.5 "/>
<text text-anchor="middle" x="165.5" y="-785.9" font-family="Times,serif" font-size="12.00">2</text>
<polyline fill="none" stroke="black" points="189,-778.5 189,-799.5 "/>
<text text-anchor="middle" x="218.5" y="-785.9" font-family="Times,serif" font-size="12.00">0x0</text>
<polyline fill="none" stroke="black" points="142,-778.5 248,-778.5 "/>
<text text-anchor="middle" x="165.5" y="-764.9" font-family="Times,serif" font-size="12.00">2</text>
<polyline fill="none" stroke="black" points="189,-757.5 189,-778.5 "/>
<text text-anchor="middle" x="218.5" y="-764.9" font-family="Times,serif" font-size="12.00">0x0</text>
<polyline fill="none" stroke="black" points="142,-757.5 248,-757.5 "/>
<text text-anchor="middle" x="165.5" y="-743.9" font-family="Times,serif" font-size="12.00">2</text>
<polyline fill="none" stroke="black" points="189,-736.5 189,-757.5 "/>
<text text-anchor="middle" x="218.5" y="-743.9" font-family="Times,serif" font-size="12.00">0x0</text>
</g>
<!-- HeadNode6&#45;&gt;node60x1004079f0 -->
<g id="edge37" class="edge"><title>HeadNode6:f0&#45;&gt;node60x1004079f0:w1</title>
<path fill="none" stroke="black" d="M106,-810C118,-810 123.25,-810 131.875,-810"/>
<polygon fill="black" stroke="black" points="132,-813.5 142,-810 132,-806.5 132,-813.5"/>
</g>
<!-- HeadNode6&#45;&gt;node60x1004079f0 -->
<g id="edge38" class="edge"><title>HeadNode6:f1&#45;&gt;node60x1004079f0:w2</title>
<path fill="none" stroke="black" d="M106,-789C118,-789 123.25,-789 131.875,-789"/>
<polygon fill="black" stroke="black" points="132,-792.5 142,-789 132,-785.5 132,-792.5"/>
</g>
<!-- HeadNode6&#45;&gt;node60x1004079f0 -->
<g id="edge39" class="edge"><title>HeadNode6:f2&#45;&gt;node60x1004079f0:w3</title>
<path fill="none" stroke="black" d="M106,-767C118.005,-767 123.249,-767.562 131.873,-767.844"/>
<polygon fill="black" stroke="black" points="131.947,-771.345 142,-768 132.055,-764.346 131.947,-771.345"/>
</g>
<!-- HeadNode6&#45;&gt;node60x1004079f0 -->
<g id="edge40" class="edge"><title>HeadNode6:f3&#45;&gt;node60x1004079f0:w4</title>
<path fill="none" stroke="black" d="M106,-746C118.005,-746 123.249,-746.562 131.873,-746.844"/>
<polygon fill="black" stroke="black" points="131.947,-750.345 142,-747 132.055,-743.346 131.947,-750.345"/>
</g>
<!-- node60x0 -->
<g id="node26" class="node"><title>node60x0</title>
<polygon fill="none" stroke="black" points="452,-736 452,-820 506,-820 506,-736 452,-736"/>
<text text-anchor="middle" x="479" y="-806.4" font-family="Times,serif" font-size="12.00">NULL</text>
<polyline fill="none" stroke="black" points="452,-799 506,-799 "/>
<text text-anchor="middle" x="479" y="-785.4" font-family="Times,serif" font-size="12.00">NULL</text>
<polyline fill="none" stroke="black" points="452,-778 506,-778 "/>
<text text-anchor="middle" x="479" y="-764.4" font-family="Times,serif" font-size="12.00">NULL</text>
<polyline fill="none" stroke="black" points="452,-757 506,-757 "/>
<text text-anchor="middle" x="479" y="-743.4" font-family="Times,serif" font-size="12.00">NULL</text>
</g>
<!-- node60x1004079f0&#45;&gt;node60x0 -->
<g id="edge42" class="edge"><title>node60x1004079f0:f2&#45;&gt;node60x0:w2</title>
<path fill="none" stroke="black" d="M248,-789C334.786,-789 358.962,-789 440.978,-789"/>
<polygon fill="black" stroke="black" points="441,-792.5 451,-789 441,-785.5 441,-792.5"/>
</g>
<!-- node60x1004079f0&#45;&gt;node60x0 -->
<g id="edge43" class="edge"><title>node60x1004079f0:f3&#45;&gt;node60x0:w3</title>
<path fill="none" stroke="black" d="M248,-768C334.787,-768 358.961,-767.075 440.978,-767.004"/>
<polygon fill="black" stroke="black" points="441.002,-770.504 451,-767 440.998,-763.504 441.002,-770.504"/>
</g>
<!-- node60x1004079f0&#45;&gt;node60x0 -->
<g id="edge44" class="edge"><title>node60x1004079f0:f4&#45;&gt;node60x0:w4</title>
<path fill="none" stroke="black" d="M248,-747C334.787,-747 358.961,-746.075 440.978,-746.004"/>
<polygon fill="black" stroke="black" points="441.002,-749.504 451,-746 440.998,-742.504 441.002,-749.504"/>
</g>
<!-- node60x100407b00 -->
<g id="node28" class="node"><title>node60x100407b00</title>
<polygon fill="none" stroke="black" points="308,-826 308,-868 366,-868 366,-826 308,-826"/>
<text text-anchor="middle" x="337" y="-854.4" font-family="Times,serif" font-size="12.00">3</text>
<polyline fill="none" stroke="black" points="308,-847 366,-847 "/>
<text text-anchor="middle" x="319.5" y="-833.4" font-family="Times,serif" font-size="12.00">1</text>
<polyline fill="none" stroke="black" points="331,-826 331,-847 "/>
<text text-anchor="middle" x="348.5" y="-833.4" font-family="Times,serif" font-size="12.00">0x0</text>
</g>
<!-- node60x1004079f0&#45;&gt;node60x100407b00 -->
<g id="edge41" class="edge"><title>node60x1004079f0:f1&#45;&gt;node60x100407b00:w1</title>
<path fill="none" stroke="black" d="M248,-810C272.85,-810 277.42,-829.552 296.883,-834.746"/>
<polygon fill="black" stroke="black" points="296.645,-838.243 307,-836 297.507,-831.296 296.645,-838.243"/>
</g>
<!-- node60x100407b00&#45;&gt;node60x0 -->
<g id="edge45" class="edge"><title>node60x100407b00:f1&#45;&gt;node60x0:w1</title>
<path fill="none" stroke="black" d="M367,-836C402.417,-836 410.532,-814.646 440.83,-810.643"/>
<polygon fill="black" stroke="black" points="441.241,-814.124 451,-810 440.799,-807.138 441.241,-814.124"/>
</g>
<!-- HeadNode7 -->
<g id="node29" class="node"><title>HeadNode7</title>
<polygon fill="none" stroke="black" points="0,-887 0,-923 106,-923 106,-887 0,-887"/>
<text text-anchor="middle" x="11.5" y="-901.9" font-family="Times,serif" font-size="12.00">1</text>
<polyline fill="none" stroke="black" points="23,-887 23,-923 "/>
<text text-anchor="middle" x="64.5" y="-901.9" font-family="Times,serif" font-size="12.00">0x100407b00</text>
</g>
<!-- node70x100407b00 -->
<g id="node31" class="node"><title>node70x100407b00</title>
<polygon fill="none" stroke="black" points="166,-895 166,-937 224,-937 224,-895 166,-895"/>
<text text-anchor="middle" x="195" y="-923.4" font-family="Times,serif" font-size="12.00">3</text>
<polyline fill="none" stroke="black" points="166,-916 224,-916 "/>
<text text-anchor="middle" x="177.5" y="-902.4" font-family="Times,serif" font-size="12.00">1</text>
<polyline fill="none" stroke="black" points="189,-895 189,-916 "/>
<text text-anchor="middle" x="206.5" y="-902.4" font-family="Times,serif" font-size="12.00">0x0</text>
</g>
<!-- HeadNode7&#45;&gt;node70x100407b00 -->
<g id="edge46" class="edge"><title>HeadNode7:f0&#45;&gt;node70x100407b00:w1</title>
<path fill="none" stroke="black" d="M106,-905C128.535,-905 136.545,-905 154.995,-905"/>
<polygon fill="black" stroke="black" points="155,-908.5 165,-905 155,-901.5 155,-908.5"/>
</g>
<!-- node70x0 -->
<g id="node30" class="node"><title>node70x0</title>
<polygon fill="none" stroke="black" points="310,-887 310,-923 364,-923 364,-887 310,-887"/>
<text text-anchor="middle" x="337" y="-901.9" font-family="Times,serif" font-size="12.00">NULL</text>
</g>
<!-- node70x100407b00&#45;&gt;node70x0 -->
<g id="edge47" class="edge"><title>node70x100407b00:f1&#45;&gt;node70x0:w1</title>
<path fill="none" stroke="black" d="M225,-905C249.898,-905 277.909,-905 299.691,-905"/>
<polygon fill="black" stroke="black" points="299.842,-908.5 309.842,-905 299.842,-901.5 299.842,-908.5"/>
</g>
<!-- HeadNode8 -->
<g id="node32" class="node"><title>HeadNode8</title>
<polygon fill="none" stroke="black" points="1.5,-942 1.5,-978 104.5,-978 104.5,-942 1.5,-942"/>
<text text-anchor="middle" x="53" y="-956.9" font-family="Times,serif" font-size="12.00">Empty HeadNode</text>
</g>
</g>
</svg>
