<?xml version="1.0" encoding="UTF-8" standalone="no"?>
<!DOCTYPE svg PUBLIC "-//W3C//DTD SVG 1.1//EN"
 "http://www.w3.org/Graphics/SVG/1.1/DTD/svg11.dtd">
<!-- Generated by graphviz version 2.36.0 (20140111.2315)
 -->
<!-- Title: SkipList Pages: 1 -->
<svg width="724pt" height="886pt"
 viewBox="0.00 0.00 724.00 886.00" xmlns="http://www.w3.org/2000/svg" xmlns:xlink="http://www.w3.org/1999/xlink">
<g id="graph0" class="graph" transform="scale(1 1) rotate(0) translate(4 882)">
<title>SkipList</title>
<polygon fill="white" stroke="none" points="-4,4 -4,-882 720,-882 720,4 -4,4"/>
<text text-anchor="middle" x="358" y="-7.8" font-family="Times,serif" font-size="14.00">SkipList, read bottom upwards.</text>
<!-- HeadNode -->
<g id="node1" class="node"><title>HeadNode</title>
<polygon fill="none" stroke="black" points="1.5,-23 1.5,-59 104.5,-59 104.5,-23 1.5,-23"/>
<text text-anchor="middle" x="53" y="-37.9" font-family="Times,serif" font-size="12.00">Empty HeadNode</text>
</g>
<!-- HeadNode1 -->
<g id="node2" class="node"><title>HeadNode1</title>
<polygon fill="none" stroke="black" points="0,-78.5 0,-141.5 106,-141.5 106,-78.5 0,-78.5"/>
<text text-anchor="middle" x="11.5" y="-127.9" font-family="Times,serif" font-size="12.00">1</text>
<polyline fill="none" stroke="black" points="23,-120.5 23,-141.5 "/>
<text text-anchor="middle" x="64.5" y="-127.9" font-family="Times,serif" font-size="12.00">0x100507460</text>
<polyline fill="none" stroke="black" points="0,-120.5 106,-120.5 "/>
<text text-anchor="middle" x="11.5" y="-106.9" font-family="Times,serif" font-size="12.00">1</text>
<polyline fill="none" stroke="black" points="23,-99.5 23,-120.5 "/>
<text text-anchor="middle" x="64.5" y="-106.9" font-family="Times,serif" font-size="12.00">0x100507460</text>
<polyline fill="none" stroke="black" points="0,-99.5 106,-99.5 "/>
<text text-anchor="middle" x="11.5" y="-85.9" font-family="Times,serif" font-size="12.00">1</text>
<polyline fill="none" stroke="black" points="23,-78.5 23,-99.5 "/>
<text text-anchor="middle" x="64.5" y="-85.9" font-family="Times,serif" font-size="12.00">0x100507460</text>
</g>
<!-- node10x100507460 -->
<g id="node4" class="node"><title>node10x100507460</title>
<polygon fill="none" stroke="black" points="166,-79 166,-163 224,-163 224,-79 166,-79"/>
<text text-anchor="middle" x="195" y="-149.4" font-family="Times,serif" font-size="12.00">0</text>
<polyline fill="none" stroke="black" points="166,-142 224,-142 "/>
<text text-anchor="middle" x="177.5" y="-128.4" font-family="Times,serif" font-size="12.00">1</text>
<polyline fill="none" stroke="black" points="189,-121 189,-142 "/>
<text text-anchor="middle" x="206.5" y="-128.4" font-family="Times,serif" font-size="12.00">0x0</text>
<polyline fill="none" stroke="black" points="166,-121 224,-121 "/>
<text text-anchor="middle" x="177.5" y="-107.4" font-family="Times,serif" font-size="12.00">1</text>
<polyline fill="none" stroke="black" points="189,-100 189,-121 "/>
<text text-anchor="middle" x="206.5" y="-107.4" font-family="Times,serif" font-size="12.00">0x0</text>
<polyline fill="none" stroke="black" points="166,-100 224,-100 "/>
<text text-anchor="middle" x="177.5" y="-86.4" font-family="Times,serif" font-size="12.00">1</text>
<polyline fill="none" stroke="black" points="189,-79 189,-100 "/>
<text text-anchor="middle" x="206.5" y="-86.4" font-family="Times,serif" font-size="12.00">0x0</text>
</g>
<!-- HeadNode1&#45;&gt;node10x100507460 -->
<g id="edge1" class="edge"><title>HeadNode1:f0&#45;&gt;node10x100507460:w1</title>
<path fill="none" stroke="black" d="M106,-131C128.538,-131 136.543,-131.739 154.994,-131.946"/>
<polygon fill="black" stroke="black" points="154.981,-135.446 165,-132 155.019,-128.446 154.981,-135.446"/>
</g>
<!-- HeadNode1&#45;&gt;node10x100507460 -->
<g id="edge2" class="edge"><title>HeadNode1:f1&#45;&gt;node10x100507460:w2</title>
<path fill="none" stroke="black" d="M106,-110C128.535,-110 136.545,-110 154.995,-110"/>
<polygon fill="black" stroke="black" points="155,-113.5 165,-110 155,-106.5 155,-113.5"/>
</g>
<!-- HeadNode1&#45;&gt;node10x100507460 -->
<g id="edge3" class="edge"><title>HeadNode1:f2&#45;&gt;node10x100507460:w3</title>
<path fill="none" stroke="black" d="M106,-89C128.535,-89 136.545,-89 154.995,-89"/>
<polygon fill="black" stroke="black" points="155,-92.5001 165,-89 155,-85.5001 155,-92.5001"/>
</g>
<!-- node10x0 -->
<g id="node3" class="node"><title>node10x0</title>
<polygon fill="none" stroke="black" points="310,-78.5 310,-141.5 364,-141.5 364,-78.5 310,-78.5"/>
<text text-anchor="middle" x="337" y="-127.9" font-family="Times,serif" font-size="12.00">NULL</text>
<polyline fill="none" stroke="black" points="310,-120.5 364,-120.5 "/>
<text text-anchor="middle" x="337" y="-106.9" font-family="Times,serif" font-size="12.00">NULL</text>
<polyline fill="none" stroke="black" points="310,-99.5 364,-99.5 "/>
<text text-anchor="middle" x="337" y="-85.9" font-family="Times,serif" font-size="12.00">NULL</text>
</g>
<!-- node10x100507460&#45;&gt;node10x0 -->
<g id="edge4" class="edge"><title>node10x100507460:f1&#45;&gt;node10x0:w1</title>
<path fill="none" stroke="black" d="M225,-132C258.69,-132 269.575,-131.186 298.811,-131.027"/>
<polygon fill="black" stroke="black" points="299.009,-134.526 309,-131 298.991,-127.526 299.009,-134.526"/>
</g>
<!-- node10x100507460&#45;&gt;node10x0 -->
<g id="edge5" class="edge"><title>node10x100507460:f2&#45;&gt;node10x0:w2</title>
<path fill="none" stroke="black" d="M225,-110C258.688,-110 269.577,-110 298.811,-110"/>
<polygon fill="black" stroke="black" points="299,-113.5 309,-110 299,-106.5 299,-113.5"/>
</g>
<!-- node10x100507460&#45;&gt;node10x0 -->
<g id="edge6" class="edge"><title>node10x100507460:f3&#45;&gt;node10x0:w3</title>
<path fill="none" stroke="black" d="M225,-89C258.688,-89 269.577,-89 298.811,-89"/>
<polygon fill="black" stroke="black" points="299,-92.5001 309,-89 299,-85.5001 299,-92.5001"/>
</g>
<!-- HeadNode2 -->
<g id="node5" class="node"><title>HeadNode2</title>
<polygon fill="none" stroke="black" points="0,-181.5 0,-244.5 106,-244.5 106,-181.5 0,-181.5"/>
<text text-anchor="middle" x="11.5" y="-230.9" font-family="Times,serif" font-size="12.00">1</text>
<polyline fill="none" stroke="black" points="23,-223.5 23,-244.5 "/>
<text text-anchor="middle" x="64.5" y="-230.9" font-family="Times,serif" font-size="12.00">0x100507460</text>
<polyline fill="none" stroke="black" points="0,-223.5 106,-223.5 "/>
<text text-anchor="middle" x="11.5" y="-209.9" font-family="Times,serif" font-size="12.00">1</text>
<polyline fill="none" stroke="black" points="23,-202.5 23,-223.5 "/>
<text text-anchor="middle" x="64.5" y="-209.9" font-family="Times,serif" font-size="12.00">0x100507460</text>
<polyline fill="none" stroke="black" points="0,-202.5 106,-202.5 "/>
<text text-anchor="middle" x="11.5" y="-188.9" font-family="Times,serif" font-size="12.00">1</text>
<polyline fill="none" stroke="black" points="23,-181.5 23,-202.5 "/>
<text text-anchor="middle" x="64.5" y="-188.9" font-family="Times,serif" font-size="12.00">0x100507460</text>
</g>
<!-- node20x100507460 -->
<g id="node7" class="node"><title>node20x100507460</title>
<polygon fill="none" stroke="black" points="142,-182 142,-266 248,-266 248,-182 142,-182"/>
<text text-anchor="middle" x="195" y="-252.4" font-family="Times,serif" font-size="12.00">0</text>
<polyline fill="none" stroke="black" points="142,-245 248,-245 "/>
<text text-anchor="middle" x="153.5" y="-231.4" font-family="Times,serif" font-size="12.00">1</text>
<polyline fill="none" stroke="black" points="165,-224 165,-245 "/>
<text text-anchor="middle" x="206.5" y="-231.4" font-family="Times,serif" font-size="12.00">0x100507540</text>
<polyline fill="none" stroke="black" points="142,-224 248,-224 "/>
<text text-anchor="middle" x="153.5" y="-210.4" font-family="Times,serif" font-size="12.00">1</text>
<polyline fill="none" stroke="black" points="165,-203 165,-224 "/>
<text text-anchor="middle" x="206.5" y="-210.4" font-family="Times,serif" font-size="12.00">0x100507540</text>
<polyline fill="none" stroke="black" points="142,-203 248,-203 "/>
<text text-anchor="middle" x="165.5" y="-189.4" font-family="Times,serif" font-size="12.00">2</text>
<polyline fill="none" stroke="black" points="189,-182 189,-203 "/>
<text text-anchor="middle" x="218.5" y="-189.4" font-family="Times,serif" font-size="12.00">0x0</text>
</g>
<!-- HeadNode2&#45;&gt;node20x100507460 -->
<g id="edge7" class="edge"><title>HeadNode2:f0&#45;&gt;node20x100507460:w1</title>
<path fill="none" stroke="black" d="M106,-234C118.005,-234 123.249,-234.562 131.873,-234.844"/>
<polygon fill="black" stroke="black" points="131.947,-238.345 142,-235 132.055,-231.346 131.947,-238.345"/>
</g>
<!-- HeadNode2&#45;&gt;node20x100507460 -->
<g id="edge8" class="edge"><title>HeadNode2:f1&#45;&gt;node20x100507460:w2</title>
<path fill="none" stroke="black" d="M106,-213C118,-213 123.25,-213 131.875,-213"/>
<polygon fill="black" stroke="black" points="132,-216.5 142,-213 132,-209.5 132,-216.5"/>
</g>
<!-- HeadNode2&#45;&gt;node20x100507460 -->
<g id="edge9" class="edge"><title>HeadNode2:f2&#45;&gt;node20x100507460:w3</title>
<path fill="none" stroke="black" d="M106,-192C118,-192 123.25,-192 131.875,-192"/>
<polygon fill="black" stroke="black" points="132,-195.5 142,-192 132,-188.5 132,-195.5"/>
</g>
<!-- node20x0 -->
<g id="node6" class="node"><title>node20x0</title>
<polygon fill="none" stroke="black" points="452,-182.5 452,-245.5 506,-245.5 506,-182.5 452,-182.5"/>
<text text-anchor="middle" x="479" y="-231.9" font-family="Times,serif" font-size="12.00">NULL</text>
<polyline fill="none" stroke="black" points="452,-224.5 506,-224.5 "/>
<text text-anchor="middle" x="479" y="-210.9" font-family="Times,serif" font-size="12.00">NULL</text>
<polyline fill="none" stroke="black" points="452,-203.5 506,-203.5 "/>
<text text-anchor="middle" x="479" y="-189.9" font-family="Times,serif" font-size="12.00">NULL</text>
</g>
<!-- node20x100507460&#45;&gt;node20x0 -->
<g id="edge12" class="edge"><title>node20x100507460:f3&#45;&gt;node20x0:w3</title>
<path fill="none" stroke="black" d="M248,-192C334.787,-192 358.961,-192.925 440.978,-192.996"/>
<polygon fill="black" stroke="black" points="440.998,-196.496 451,-193 441.002,-189.496 440.998,-196.496"/>
</g>
<!-- node20x100507540 -->
<g id="node8" class="node"><title>node20x100507540</title>
<polygon fill="none" stroke="black" points="308,-203.5 308,-266.5 366,-266.5 366,-203.5 308,-203.5"/>
<text text-anchor="middle" x="337" y="-252.9" font-family="Times,serif" font-size="12.00">1</text>
<polyline fill="none" stroke="black" points="308,-245.5 366,-245.5 "/>
<text text-anchor="middle" x="319.5" y="-231.9" font-family="Times,serif" font-size="12.00">1</text>
<polyline fill="none" stroke="black" points="331,-224.5 331,-245.5 "/>
<text text-anchor="middle" x="348.5" y="-231.9" font-family="Times,serif" font-size="12.00">0x0</text>
<polyline fill="none" stroke="black" points="308,-224.5 366,-224.5 "/>
<text text-anchor="middle" x="319.5" y="-210.9" font-family="Times,serif" font-size="12.00">1</text>
<polyline fill="none" stroke="black" points="331,-203.5 331,-224.5 "/>
<text text-anchor="middle" x="348.5" y="-210.9" font-family="Times,serif" font-size="12.00">0x0</text>
</g>
<!-- node20x100507460&#45;&gt;node20x100507540 -->
<g id="edge10" class="edge"><title>node20x100507460:f1&#45;&gt;node20x100507540:w1</title>
<path fill="none" stroke="black" d="M248,-235C270.535,-235 278.545,-235 296.995,-235"/>
<polygon fill="black" stroke="black" points="297,-238.5 307,-235 297,-231.5 297,-238.5"/>
</g>
<!-- node20x100507460&#45;&gt;node20x100507540 -->
<g id="edge11" class="edge"><title>node20x100507460:f2&#45;&gt;node20x100507540:w2</title>
<path fill="none" stroke="black" d="M248,-213C270.538,-213 278.543,-213.739 296.994,-213.946"/>
<polygon fill="black" stroke="black" points="296.981,-217.446 307,-214 297.019,-210.446 296.981,-217.446"/>
</g>
<!-- node20x100507540&#45;&gt;node20x0 -->
<g id="edge13" class="edge"><title>node20x100507540:f1&#45;&gt;node20x0:w1</title>
<path fill="none" stroke="black" d="M367,-235C400.688,-235 411.577,-235 440.811,-235"/>
<polygon fill="black" stroke="black" points="441,-238.5 451,-235 441,-231.5 441,-238.5"/>
</g>
<!-- node20x100507540&#45;&gt;node20x0 -->
<g id="edge14" class="edge"><title>node20x100507540:f2&#45;&gt;node20x0:w2</title>
<path fill="none" stroke="black" d="M367,-214C400.688,-214 411.577,-214 440.811,-214"/>
<polygon fill="black" stroke="black" points="441,-217.5 451,-214 441,-210.5 441,-217.5"/>
</g>
<!-- HeadNode3 -->
<g id="node9" class="node"><title>HeadNode3</title>
<polygon fill="none" stroke="black" points="0,-301.5 0,-364.5 106,-364.5 106,-301.5 0,-301.5"/>
<text text-anchor="middle" x="11.5" y="-350.9" font-family="Times,serif" font-size="12.00">1</text>
<polyline fill="none" stroke="black" points="23,-343.5 23,-364.5 "/>
<text text-anchor="middle" x="64.5" y="-350.9" font-family="Times,serif" font-size="12.00">0x100507460</text>
<polyline fill="none" stroke="black" points="0,-343.5 106,-343.5 "/>
<text text-anchor="middle" x="11.5" y="-329.9" font-family="Times,serif" font-size="12.00">1</text>
<polyline fill="none" stroke="black" points="23,-322.5 23,-343.5 "/>
<text text-anchor="middle" x="64.5" y="-329.9" font-family="Times,serif" font-size="12.00">0x100507460</text>
<polyline fill="none" stroke="black" points="0,-322.5 106,-322.5 "/>
<text text-anchor="middle" x="11.5" y="-308.9" font-family="Times,serif" font-size="12.00">1</text>
<polyline fill="none" stroke="black" points="23,-301.5 23,-322.5 "/>
<text text-anchor="middle" x="64.5" y="-308.9" font-family="Times,serif" font-size="12.00">0x100507460</text>
</g>
<!-- node30x100507460 -->
<g id="node11" class="node"><title>node30x100507460</title>
<polygon fill="none" stroke="black" points="142,-302 142,-386 248,-386 248,-302 142,-302"/>
<text text-anchor="middle" x="195" y="-372.4" font-family="Times,serif" font-size="12.00">0</text>
<polyline fill="none" stroke="black" points="142,-365 248,-365 "/>
<text text-anchor="middle" x="153.5" y="-351.4" font-family="Times,serif" font-size="12.00">1</text>
<polyline fill="none" stroke="black" points="165,-344 165,-365 "/>
<text text-anchor="middle" x="206.5" y="-351.4" font-family="Times,serif" font-size="12.00">0x100507540</text>
<polyline fill="none" stroke="black" points="142,-344 248,-344 "/>
<text text-anchor="middle" x="153.5" y="-330.4" font-family="Times,serif" font-size="12.00">1</text>
<polyline fill="none" stroke="black" points="165,-323 165,-344 "/>
<text text-anchor="middle" x="206.5" y="-330.4" font-family="Times,serif" font-size="12.00">0x100507540</text>
<polyline fill="none" stroke="black" points="142,-323 248,-323 "/>
<text text-anchor="middle" x="153.5" y="-309.4" font-family="Times,serif" font-size="12.00">2</text>
<polyline fill="none" stroke="black" points="165,-302 165,-323 "/>
<text text-anchor="middle" x="206.5" y="-309.4" font-family="Times,serif" font-size="12.00">0x100507570</text>
</g>
<!-- HeadNode3&#45;&gt;node30x100507460 -->
<g id="edge15" class="edge"><title>HeadNode3:f0&#45;&gt;node30x100507460:w1</title>
<path fill="none" stroke="black" d="M106,-354C118.005,-354 123.249,-354.562 131.873,-354.844"/>
<polygon fill="black" stroke="black" points="131.947,-358.345 142,-355 132.055,-351.346 131.947,-358.345"/>
</g>
<!-- HeadNode3&#45;&gt;node30x100507460 -->
<g id="edge16" class="edge"><title>HeadNode3:f1&#45;&gt;node30x100507460:w2</title>
<path fill="none" stroke="black" d="M106,-333C118,-333 123.25,-333 131.875,-333"/>
<polygon fill="black" stroke="black" points="132,-336.5 142,-333 132,-329.5 132,-336.5"/>
</g>
<!-- HeadNode3&#45;&gt;node30x100507460 -->
<g id="edge17" class="edge"><title>HeadNode3:f2&#45;&gt;node30x100507460:w3</title>
<path fill="none" stroke="black" d="M106,-312C118,-312 123.25,-312 131.875,-312"/>
<polygon fill="black" stroke="black" points="132,-315.5 142,-312 132,-308.5 132,-315.5"/>
</g>
<!-- node30x0 -->
<g id="node10" class="node"><title>node30x0</title>
<polygon fill="none" stroke="black" points="570,-301.5 570,-364.5 624,-364.5 624,-301.5 570,-301.5"/>
<text text-anchor="middle" x="597" y="-350.9" font-family="Times,serif" font-size="12.00">NULL</text>
<polyline fill="none" stroke="black" points="570,-343.5 624,-343.5 "/>
<text text-anchor="middle" x="597" y="-329.9" font-family="Times,serif" font-size="12.00">NULL</text>
<polyline fill="none" stroke="black" points="570,-322.5 624,-322.5 "/>
<text text-anchor="middle" x="597" y="-308.9" font-family="Times,serif" font-size="12.00">NULL</text>
</g>
<!-- node30x100507540 -->
<g id="node12" class="node"><title>node30x100507540</title>
<polygon fill="none" stroke="black" points="284,-323.5 284,-386.5 390,-386.5 390,-323.5 284,-323.5"/>
<text text-anchor="middle" x="337" y="-372.9" font-family="Times,serif" font-size="12.00">1</text>
<polyline fill="none" stroke="black" points="284,-365.5 390,-365.5 "/>
<text text-anchor="middle" x="295.5" y="-351.9" font-family="Times,serif" font-size="12.00">1</text>
<polyline fill="none" stroke="black" points="307,-344.5 307,-365.5 "/>
<text text-anchor="middle" x="348.5" y="-351.9" font-family="Times,serif" font-size="12.00">0x100507570</text>
<polyline fill="none" stroke="black" points="284,-344.5 390,-344.5 "/>
<text text-anchor="middle" x="295.5" y="-330.9" font-family="Times,serif" font-size="12.00">1</text>
<polyline fill="none" stroke="black" points="307,-323.5 307,-344.5 "/>
<text text-anchor="middle" x="348.5" y="-330.9" font-family="Times,serif" font-size="12.00">0x100507570</text>
</g>
<!-- node30x100507460&#45;&gt;node30x100507540 -->
<g id="edge18" class="edge"><title>node30x100507460:f1&#45;&gt;node30x100507540:w1</title>
<path fill="none" stroke="black" d="M248,-355C260,-355 265.25,-355 273.875,-355"/>
<polygon fill="black" stroke="black" points="274,-358.5 284,-355 274,-351.5 274,-358.5"/>
</g>
<!-- node30x100507460&#45;&gt;node30x100507540 -->
<g id="edge19" class="edge"><title>node30x100507460:f2&#45;&gt;node30x100507540:w2</title>
<path fill="none" stroke="black" d="M248,-333C260.005,-333 265.249,-333.562 273.873,-333.844"/>
<polygon fill="black" stroke="black" points="273.947,-337.345 284,-334 274.055,-330.346 273.947,-337.345"/>
</g>
<!-- node30x100507570 -->
<g id="node13" class="node"><title>node30x100507570</title>
<polygon fill="none" stroke="black" points="450,-302 450,-386 508,-386 508,-302 450,-302"/>
<text text-anchor="middle" x="479" y="-372.4" font-family="Times,serif" font-size="12.00">2</text>
<polyline fill="none" stroke="black" points="450,-365 508,-365 "/>
<text text-anchor="middle" x="461.5" y="-351.4" font-family="Times,serif" font-size="12.00">1</text>
<polyline fill="none" stroke="black" points="473,-344 473,-365 "/>
<text text-anchor="middle" x="490.5" y="-351.4" font-family="Times,serif" font-size="12.00">0x0</text>
<polyline fill="none" stroke="black" points="450,-344 508,-344 "/>
<text text-anchor="middle" x="461.5" y="-330.4" font-family="Times,serif" font-size="12.00">1</text>
<polyline fill="none" stroke="black" points="473,-323 473,-344 "/>
<text text-anchor="middle" x="490.5" y="-330.4" font-family="Times,serif" font-size="12.00">0x0</text>
<polyline fill="none" stroke="black" points="450,-323 508,-323 "/>
<text text-anchor="middle" x="461.5" y="-309.4" font-family="Times,serif" font-size="12.00">1</text>
<polyline fill="none" stroke="black" points="473,-302 473,-323 "/>
<text text-anchor="middle" x="490.5" y="-309.4" font-family="Times,serif" font-size="12.00">0x0</text>
</g>
<!-- node30x100507460&#45;&gt;node30x100507570 -->
<g id="edge20" class="edge"><title>node30x100507460:f3&#45;&gt;node30x100507570:w3</title>
<path fill="none" stroke="black" d="M248,-312C333.844,-312 357.82,-312 438.83,-312"/>
<polygon fill="black" stroke="black" points="439,-315.5 449,-312 439,-308.5 439,-315.5"/>
</g>
<!-- node30x100507540&#45;&gt;node30x100507570 -->
<g id="edge21" class="edge"><title>node30x100507540:f1&#45;&gt;node30x100507570:w1</title>
<path fill="none" stroke="black" d="M390,-355C412.535,-355 420.545,-355 438.995,-355"/>
<polygon fill="black" stroke="black" points="439,-358.5 449,-355 439,-351.5 439,-358.5"/>
</g>
<!-- node30x100507540&#45;&gt;node30x100507570 -->
<g id="edge22" class="edge"><title>node30x100507540:f2&#45;&gt;node30x100507570:w2</title>
<path fill="none" stroke="black" d="M390,-334C412.538,-334 420.543,-333.261 438.994,-333.054"/>
<polygon fill="black" stroke="black" points="439.019,-336.554 449,-333 438.981,-329.554 439.019,-336.554"/>
</g>
<!-- node30x100507570&#45;&gt;node30x0 -->
<g id="edge23" class="edge"><title>node30x100507570:f1&#45;&gt;node30x0:w1</title>
<path fill="none" stroke="black" d="M509,-355C531.92,-355 540.061,-354.261 558.824,-354.054"/>
<polygon fill="black" stroke="black" points="559.019,-357.553 569,-354 558.982,-350.553 559.019,-357.553"/>
</g>
<!-- node30x100507570&#45;&gt;node30x0 -->
<g id="edge24" class="edge"><title>node30x100507570:f2&#45;&gt;node30x0:w2</title>
<path fill="none" stroke="black" d="M509,-333C531.917,-333 540.063,-333 558.825,-333"/>
<polygon fill="black" stroke="black" points="559,-336.5 569,-333 559,-329.5 559,-336.5"/>
</g>
<!-- node30x100507570&#45;&gt;node30x0 -->
<g id="edge25" class="edge"><title>node30x100507570:f3&#45;&gt;node30x0:w3</title>
<path fill="none" stroke="black" d="M509,-312C531.917,-312 540.063,-312 558.825,-312"/>
<polygon fill="black" stroke="black" points="559,-315.5 569,-312 559,-308.5 559,-315.5"/>
</g>
<!-- HeadNode4 -->
<g id="node14" class="node"><title>HeadNode4</title>
<polygon fill="none" stroke="black" points="0,-421.5 0,-484.5 106,-484.5 106,-421.5 0,-421.5"/>
<text text-anchor="middle" x="11.5" y="-470.9" font-family="Times,serif" font-size="12.00">1</text>
<polyline fill="none" stroke="black" points="23,-463.5 23,-484.5 "/>
<text text-anchor="middle" x="64.5" y="-470.9" font-family="Times,serif" font-size="12.00">0x100507460</text>
<polyline fill="none" stroke="black" points="0,-463.5 106,-463.5 "/>
<text text-anchor="middle" x="11.5" y="-449.9" font-family="Times,serif" font-size="12.00">1</text>
<polyline fill="none" stroke="black" points="23,-442.5 23,-463.5 "/>
<text text-anchor="middle" x="64.5" y="-449.9" font-family="Times,serif" font-size="12.00">0x100507460</text>
<polyline fill="none" stroke="black" points="0,-442.5 106,-442.5 "/>
<text text-anchor="middle" x="11.5" y="-428.9" font-family="Times,serif" font-size="12.00">1</text>
<polyline fill="none" stroke="black" points="23,-421.5 23,-442.5 "/>
<text text-anchor="middle" x="64.5" y="-428.9" font-family="Times,serif" font-size="12.00">0x100507460</text>
</g>
<!-- node40x100507460 -->
<g id="node16" class="node"><title>node40x100507460</title>
<polygon fill="none" stroke="black" points="142,-422 142,-506 248,-506 248,-422 142,-422"/>
<text text-anchor="middle" x="195" y="-492.4" font-family="Times,serif" font-size="12.00">0</text>
<polyline fill="none" stroke="black" points="142,-485 248,-485 "/>
<text text-anchor="middle" x="153.5" y="-471.4" font-family="Times,serif" font-size="12.00">1</text>
<polyline fill="none" stroke="black" points="165,-464 165,-485 "/>
<text text-anchor="middle" x="206.5" y="-471.4" font-family="Times,serif" font-size="12.00">0x100507540</text>
<polyline fill="none" stroke="black" points="142,-464 248,-464 "/>
<text text-anchor="middle" x="153.5" y="-450.4" font-family="Times,serif" font-size="12.00">1</text>
<polyline fill="none" stroke="black" points="165,-443 165,-464 "/>
<text text-anchor="middle" x="206.5" y="-450.4" font-family="Times,serif" font-size="12.00">0x100507540</text>
<polyline fill="none" stroke="black" points="142,-443 248,-443 "/>
<text text-anchor="middle" x="153.5" y="-429.4" font-family="Times,serif" font-size="12.00">2</text>
<polyline fill="none" stroke="black" points="165,-422 165,-443 "/>
<text text-anchor="middle" x="206.5" y="-429.4" font-family="Times,serif" font-size="12.00">0x100507570</text>
</g>
<!-- HeadNode4&#45;&gt;node40x100507460 -->
<g id="edge26" class="edge"><title>HeadNode4:f0&#45;&gt;node40x100507460:w1</title>
<path fill="none" stroke="black" d="M106,-474C118.005,-474 123.249,-474.562 131.873,-474.844"/>
<polygon fill="black" stroke="black" points="131.947,-478.345 142,-475 132.055,-471.346 131.947,-478.345"/>
</g>
<!-- HeadNode4&#45;&gt;node40x100507460 -->
<g id="edge27" class="edge"><title>HeadNode4:f1&#45;&gt;node40x100507460:w2</title>
<path fill="none" stroke="black" d="M106,-453C118,-453 123.25,-453 131.875,-453"/>
<polygon fill="black" stroke="black" points="132,-456.5 142,-453 132,-449.5 132,-456.5"/>
</g>
<!-- HeadNode4&#45;&gt;node40x100507460 -->
<g id="edge28" class="edge"><title>HeadNode4:f2&#45;&gt;node40x100507460:w3</title>
<path fill="none" stroke="black" d="M106,-432C118,-432 123.25,-432 131.875,-432"/>
<polygon fill="black" stroke="black" points="132,-435.5 142,-432 132,-428.5 132,-435.5"/>
</g>
<!-- node40x0 -->
<g id="node15" class="node"><title>node40x0</title>
<polygon fill="none" stroke="black" points="662,-421.5 662,-484.5 716,-484.5 716,-421.5 662,-421.5"/>
<text text-anchor="middle" x="689" y="-470.9" font-family="Times,serif" font-size="12.00">NULL</text>
<polyline fill="none" stroke="black" points="662,-463.5 716,-463.5 "/>
<text text-anchor="middle" x="689" y="-449.9" font-family="Times,serif" font-size="12.00">NULL</text>
<polyline fill="none" stroke="black" points="662,-442.5 716,-442.5 "/>
<text text-anchor="middle" x="689" y="-428.9" font-family="Times,serif" font-size="12.00">NULL</text>
</g>
<!-- node40x100507540 -->
<g id="node17" class="node"><title>node40x100507540</title>
<polygon fill="none" stroke="black" points="284,-443.5 284,-506.5 390,-506.5 390,-443.5 284,-443.5"/>
<text text-anchor="middle" x="337" y="-492.9" font-family="Times,serif" font-size="12.00">1</text>
<polyline fill="none" stroke="black" points="284,-485.5 390,-485.5 "/>
<text text-anchor="middle" x="295.5" y="-471.9" font-family="Times,serif" font-size="12.00">1</text>
<polyline fill="none" stroke="black" points="307,-464.5 307,-485.5 "/>
<text text-anchor="middle" x="348.5" y="-471.9" font-family="Times,serif" font-size="12.00">0x100507570</text>
<polyline fill="none" stroke="black" points="284,-464.5 390,-464.5 "/>
<text text-anchor="middle" x="295.5" y="-450.9" font-family="Times,serif" font-size="12.00">1</text>
<polyline fill="none" stroke="black" points="307,-443.5 307,-464.5 "/>
<text text-anchor="middle" x="348.5" y="-450.9" font-family="Times,serif" font-size="12.00">0x100507570</text>
</g>
<!-- node40x100507460&#45;&gt;node40x100507540 -->
<g id="edge29" class="edge"><title>node40x100507460:f1&#45;&gt;node40x100507540:w1</title>
<path fill="none" stroke="black" d="M248,-475C260,-475 265.25,-475 273.875,-475"/>
<polygon fill="black" stroke="black" points="274,-478.5 284,-475 274,-471.5 274,-478.5"/>
</g>
<!-- node40x100507460&#45;&gt;node40x100507540 -->
<g id="edge30" class="edge"><title>node40x100507460:f2&#45;&gt;node40x100507540:w2</title>
<path fill="none" stroke="black" d="M248,-453C260.005,-453 265.249,-453.562 273.873,-453.844"/>
<polygon fill="black" stroke="black" points="273.947,-457.345 284,-454 274.055,-450.346 273.947,-457.345"/>
</g>
<!-- node40x100507570 -->
<g id="node18" class="node"><title>node40x100507570</title>
<polygon fill="none" stroke="black" points="426,-422 426,-506 532,-506 532,-422 426,-422"/>
<text text-anchor="middle" x="479" y="-492.4" font-family="Times,serif" font-size="12.00">2</text>
<polyline fill="none" stroke="black" points="426,-485 532,-485 "/>
<text text-anchor="middle" x="437.5" y="-471.4" font-family="Times,serif" font-size="12.00">1</text>
<polyline fill="none" stroke="black" points="449,-464 449,-485 "/>
<text text-anchor="middle" x="490.5" y="-471.4" font-family="Times,serif" font-size="12.00">0x100507630</text>
<polyline fill="none" stroke="black" points="426,-464 532,-464 "/>
<text text-anchor="middle" x="449.5" y="-450.4" font-family="Times,serif" font-size="12.00">2</text>
<polyline fill="none" stroke="black" points="473,-443 473,-464 "/>
<text text-anchor="middle" x="502.5" y="-450.4" font-family="Times,serif" font-size="12.00">0x0</text>
<polyline fill="none" stroke="black" points="426,-443 532,-443 "/>
<text text-anchor="middle" x="449.5" y="-429.4" font-family="Times,serif" font-size="12.00">2</text>
<polyline fill="none" stroke="black" points="473,-422 473,-443 "/>
<text text-anchor="middle" x="502.5" y="-429.4" font-family="Times,serif" font-size="12.00">0x0</text>
</g>
<!-- node40x100507460&#45;&gt;node40x100507570 -->
<g id="edge31" class="edge"><title>node40x100507460:f3&#45;&gt;node40x100507570:w3</title>
<path fill="none" stroke="black" d="M248,-432C323.557,-432 344.992,-432 415.687,-432"/>
<polygon fill="black" stroke="black" points="416,-435.5 426,-432 416,-428.5 416,-435.5"/>
</g>
<!-- node40x100507540&#45;&gt;node40x100507570 -->
<g id="edge32" class="edge"><title>node40x100507540:f1&#45;&gt;node40x100507570:w1</title>
<path fill="none" stroke="black" d="M390,-475C402,-475 407.25,-475 415.875,-475"/>
<polygon fill="black" stroke="black" points="416,-478.5 426,-475 416,-471.5 416,-478.5"/>
</g>
<!-- node40x100507540&#45;&gt;node40x100507570 -->
<g id="edge33" class="edge"><title>node40x100507540:f2&#45;&gt;node40x100507570:w2</title>
<path fill="none" stroke="black" d="M390,-454C402.005,-454 407.249,-453.438 415.873,-453.156"/>
<polygon fill="black" stroke="black" points="416.055,-456.654 426,-453 415.947,-449.655 416.055,-456.654"/>
</g>
<!-- node40x100507570&#45;&gt;node40x0 -->
<g id="edge35" class="edge"><title>node40x100507570:f2&#45;&gt;node40x0:w2</title>
<path fill="none" stroke="black" d="M532,-453C586.28,-453 602.314,-453 651.963,-453"/>
<polygon fill="black" stroke="black" points="652,-456.5 662,-453 652,-449.5 652,-456.5"/>
</g>
<!-- node40x100507570&#45;&gt;node40x0 -->
<g id="edge36" class="edge"><title>node40x100507570:f3&#45;&gt;node40x0:w3</title>
<path fill="none" stroke="black" d="M532,-432C586.28,-432 602.314,-432 651.963,-432"/>
<polygon fill="black" stroke="black" points="652,-435.5 662,-432 652,-428.5 652,-435.5"/>
</g>
<!-- node40x100507630 -->
<g id="node19" class="node"><title>node40x100507630</title>
<polygon fill="none" stroke="black" points="568,-482 568,-524 626,-524 626,-482 568,-482"/>
<text text-anchor="middle" x="597" y="-510.4" font-family="Times,serif" font-size="12.00">3</text>
<polyline fill="none" stroke="black" points="568,-503 626,-503 "/>
<text text-anchor="middle" x="579.5" y="-489.4" font-family="Times,serif" font-size="12.00">1</text>
<polyline fill="none" stroke="black" points="591,-482 591,-503 "/>
<text text-anchor="middle" x="608.5" y="-489.4" font-family="Times,serif" font-size="12.00">0x0</text>
</g>
<!-- node40x100507570&#45;&gt;node40x100507630 -->
<g id="edge34" class="edge"><title>node40x100507570:f1&#45;&gt;node40x100507630:w1</title>
<path fill="none" stroke="black" d="M532,-475C545.685,-475 549.152,-485.169 558.207,-489.778"/>
<polygon fill="black" stroke="black" points="557.473,-493.2 568,-492 559.023,-486.374 557.473,-493.2"/>
</g>
<!-- node40x100507630&#45;&gt;node40x0 -->
<g id="edge37" class="edge"><title>node40x100507630:f1&#45;&gt;node40x0:w1</title>
<path fill="none" stroke="black" d="M626,-492C639.836,-492 643.104,-481.232 652.151,-476.353"/>
<polygon fill="black" stroke="black" points="653.087,-479.728 662,-474 651.46,-472.92 653.087,-479.728"/>
</g>
<!-- HeadNode5 -->
<g id="node20" class="node"><title>HeadNode5</title>
<polygon fill="none" stroke="black" points="0,-544.5 0,-607.5 106,-607.5 106,-544.5 0,-544.5"/>
<text text-anchor="middle" x="11.5" y="-593.9" font-family="Times,serif" font-size="12.00">1</text>
<polyline fill="none" stroke="black" points="23,-586.5 23,-607.5 "/>
<text text-anchor="middle" x="64.5" y="-593.9" font-family="Times,serif" font-size="12.00">0x100507540</text>
<polyline fill="none" stroke="black" points="0,-586.5 106,-586.5 "/>
<text text-anchor="middle" x="11.5" y="-572.9" font-family="Times,serif" font-size="12.00">1</text>
<polyline fill="none" stroke="black" points="23,-565.5 23,-586.5 "/>
<text text-anchor="middle" x="64.5" y="-572.9" font-family="Times,serif" font-size="12.00">0x100507540</text>
<polyline fill="none" stroke="black" points="0,-565.5 106,-565.5 "/>
<text text-anchor="middle" x="11.5" y="-551.9" font-family="Times,serif" font-size="12.00">2</text>
<polyline fill="none" stroke="black" points="23,-544.5 23,-565.5 "/>
<text text-anchor="middle" x="64.5" y="-551.9" font-family="Times,serif" font-size="12.00">0x100507570</text>
</g>
<!-- node50x100507540 -->
<g id="node22" class="node"><title>node50x100507540</title>
<polygon fill="none" stroke="black" points="142,-565.5 142,-628.5 248,-628.5 248,-565.5 142,-565.5"/>
<text text-anchor="middle" x="195" y="-614.9" font-family="Times,serif" font-size="12.00">1</text>
<polyline fill="none" stroke="black" points="142,-607.5 248,-607.5 "/>
<text text-anchor="middle" x="153.5" y="-593.9" font-family="Times,serif" font-size="12.00">1</text>
<polyline fill="none" stroke="black" points="165,-586.5 165,-607.5 "/>
<text text-anchor="middle" x="206.5" y="-593.9" font-family="Times,serif" font-size="12.00">0x100507570</text>
<polyline fill="none" stroke="black" points="142,-586.5 248,-586.5 "/>
<text text-anchor="middle" x="153.5" y="-572.9" font-family="Times,serif" font-size="12.00">1</text>
<polyline fill="none" stroke="black" points="165,-565.5 165,-586.5 "/>
<text text-anchor="middle" x="206.5" y="-572.9" font-family="Times,serif" font-size="12.00">0x100507570</text>
</g>
<!-- HeadNode5&#45;&gt;node50x100507540 -->
<g id="edge38" class="edge"><title>HeadNode5:f0&#45;&gt;node50x100507540:w1</title>
<path fill="none" stroke="black" d="M106,-597C118,-597 123.25,-597 131.875,-597"/>
<polygon fill="black" stroke="black" points="132,-600.5 142,-597 132,-593.5 132,-600.5"/>
</g>
<!-- HeadNode5&#45;&gt;node50x100507540 -->
<g id="edge39" class="edge"><title>HeadNode5:f1&#45;&gt;node50x100507540:w2</title>
<path fill="none" stroke="black" d="M106,-576C118,-576 123.25,-576 131.875,-576"/>
<polygon fill="black" stroke="black" points="132,-579.5 142,-576 132,-572.5 132,-579.5"/>
</g>
<!-- node50x100507570 -->
<g id="node23" class="node"><title>node50x100507570</title>
<polygon fill="none" stroke="black" points="284,-544 284,-628 390,-628 390,-544 284,-544"/>
<text text-anchor="middle" x="337" y="-614.4" font-family="Times,serif" font-size="12.00">2</text>
<polyline fill="none" stroke="black" points="284,-607 390,-607 "/>
<text text-anchor="middle" x="295.5" y="-593.4" font-family="Times,serif" font-size="12.00">1</text>
<polyline fill="none" stroke="black" points="307,-586 307,-607 "/>
<text text-anchor="middle" x="348.5" y="-593.4" font-family="Times,serif" font-size="12.00">0x100507630</text>
<polyline fill="none" stroke="black" points="284,-586 390,-586 "/>
<text text-anchor="middle" x="307.5" y="-572.4" font-family="Times,serif" font-size="12.00">2</text>
<polyline fill="none" stroke="black" points="331,-565 331,-586 "/>
<text text-anchor="middle" x="360.5" y="-572.4" font-family="Times,serif" font-size="12.00">0x0</text>
<polyline fill="none" stroke="black" points="284,-565 390,-565 "/>
<text text-anchor="middle" x="307.5" y="-551.4" font-family="Times,serif" font-size="12.00">2</text>
<polyline fill="none" stroke="black" points="331,-544 331,-565 "/>
<text text-anchor="middle" x="360.5" y="-551.4" font-family="Times,serif" font-size="12.00">0x0</text>
</g>
<!-- HeadNode5&#45;&gt;node50x100507570 -->
<g id="edge40" class="edge"><title>HeadNode5:f2&#45;&gt;node50x100507570:w3</title>
<path fill="none" stroke="black" d="M106,-555C181.558,-555 202.991,-554.088 273.687,-554.006"/>
<polygon fill="black" stroke="black" points="274.002,-557.506 284,-554 273.998,-550.506 274.002,-557.506"/>
</g>
<!-- node50x0 -->
<g id="node21" class="node"><title>node50x0</title>
<polygon fill="none" stroke="black" points="570,-543.5 570,-606.5 624,-606.5 624,-543.5 570,-543.5"/>
<text text-anchor="middle" x="597" y="-592.9" font-family="Times,serif" font-size="12.00">NULL</text>
<polyline fill="none" stroke="black" points="570,-585.5 624,-585.5 "/>
<text text-anchor="middle" x="597" y="-571.9" font-family="Times,serif" font-size="12.00">NULL</text>
<polyline fill="none" stroke="black" points="570,-564.5 624,-564.5 "/>
<text text-anchor="middle" x="597" y="-550.9" font-family="Times,serif" font-size="12.00">NULL</text>
</g>
<!-- node50x100507540&#45;&gt;node50x100507570 -->
<g id="edge41" class="edge"><title>node50x100507540:f1&#45;&gt;node50x100507570:w1</title>
<path fill="none" stroke="black" d="M248,-597C260,-597 265.25,-597 273.875,-597"/>
<polygon fill="black" stroke="black" points="274,-600.5 284,-597 274,-593.5 274,-600.5"/>
</g>
<!-- node50x100507540&#45;&gt;node50x100507570 -->
<g id="edge42" class="edge"><title>node50x100507540:f2&#45;&gt;node50x100507570:w2</title>
<path fill="none" stroke="black" d="M248,-576C260.005,-576 265.249,-575.438 273.873,-575.156"/>
<polygon fill="black" stroke="black" points="274.055,-578.654 284,-575 273.947,-571.655 274.055,-578.654"/>
</g>
<!-- node50x100507570&#45;&gt;node50x0 -->
<g id="edge44" class="edge"><title>node50x100507570:f2&#45;&gt;node50x0:w2</title>
<path fill="none" stroke="black" d="M390,-575C465.982,-575 487.537,-575 558.629,-575"/>
<polygon fill="black" stroke="black" points="559,-578.5 569,-575 559,-571.5 559,-578.5"/>
</g>
<!-- node50x100507570&#45;&gt;node50x0 -->
<g id="edge45" class="edge"><title>node50x100507570:f3&#45;&gt;node50x0:w3</title>
<path fill="none" stroke="black" d="M390,-554C465.982,-554 487.537,-554 558.629,-554"/>
<polygon fill="black" stroke="black" points="559,-557.5 569,-554 559,-550.5 559,-557.5"/>
</g>
<!-- node50x100507630 -->
<g id="node24" class="node"><title>node50x100507630</title>
<polygon fill="none" stroke="black" points="450,-604 450,-646 508,-646 508,-604 450,-604"/>
<text text-anchor="middle" x="479" y="-632.4" font-family="Times,serif" font-size="12.00">3</text>
<polyline fill="none" stroke="black" points="450,-625 508,-625 "/>
<text text-anchor="middle" x="461.5" y="-611.4" font-family="Times,serif" font-size="12.00">1</text>
<polyline fill="none" stroke="black" points="473,-604 473,-625 "/>
<text text-anchor="middle" x="490.5" y="-611.4" font-family="Times,serif" font-size="12.00">0x0</text>
</g>
<!-- node50x100507570&#45;&gt;node50x100507630 -->
<g id="edge43" class="edge"><title>node50x100507570:f1&#45;&gt;node50x100507630:w1</title>
<path fill="none" stroke="black" d="M390,-597C413.558,-597 420.074,-609.669 438.973,-613.134"/>
<polygon fill="black" stroke="black" points="438.736,-616.626 449,-614 439.338,-609.652 438.736,-616.626"/>
</g>
<!-- node50x100507630&#45;&gt;node50x0 -->
<g id="edge46" class="edge"><title>node50x100507630:f1&#45;&gt;node50x0:w1</title>
<path fill="none" stroke="black" d="M509,-614C533.034,-614 539.539,-600.585 558.78,-596.917"/>
<polygon fill="black" stroke="black" points="559.353,-600.38 569,-596 558.727,-593.408 559.353,-600.38"/>
</g>
<!-- HeadNode6 -->
<g id="node25" class="node"><title>HeadNode6</title>
<polygon fill="none" stroke="black" points="0,-665.5 0,-728.5 106,-728.5 106,-665.5 0,-665.5"/>
<text text-anchor="middle" x="11.5" y="-714.9" font-family="Times,serif" font-size="12.00">1</text>
<polyline fill="none" stroke="black" points="23,-707.5 23,-728.5 "/>
<text text-anchor="middle" x="64.5" y="-714.9" font-family="Times,serif" font-size="12.00">0x100507570</text>
<polyline fill="none" stroke="black" points="0,-707.5 106,-707.5 "/>
<text text-anchor="middle" x="11.5" y="-693.9" font-family="Times,serif" font-size="12.00">1</text>
<polyline fill="none" stroke="black" points="23,-686.5 23,-707.5 "/>
<text text-anchor="middle" x="64.5" y="-693.9" font-family="Times,serif" font-size="12.00">0x100507570</text>
<polyline fill="none" stroke="black" points="0,-686.5 106,-686.5 "/>
<text text-anchor="middle" x="11.5" y="-672.9" font-family="Times,serif" font-size="12.00">1</text>
<polyline fill="none" stroke="black" points="23,-665.5 23,-686.5 "/>
<text text-anchor="middle" x="64.5" y="-672.9" font-family="Times,serif" font-size="12.00">0x100507570</text>
</g>
<!-- node60x100507570 -->
<g id="node27" class="node"><title>node60x100507570</title>
<polygon fill="none" stroke="black" points="142,-666 142,-750 248,-750 248,-666 142,-666"/>
<text text-anchor="middle" x="195" y="-736.4" font-family="Times,serif" font-size="12.00">2</text>
<polyline fill="none" stroke="black" points="142,-729 248,-729 "/>
<text text-anchor="middle" x="153.5" y="-715.4" font-family="Times,serif" font-size="12.00">1</text>
<polyline fill="none" stroke="black" points="165,-708 165,-729 "/>
<text text-anchor="middle" x="206.5" y="-715.4" font-family="Times,serif" font-size="12.00">0x100507630</text>
<polyline fill="none" stroke="black" points="142,-708 248,-708 "/>
<text text-anchor="middle" x="165.5" y="-694.4" font-family="Times,serif" font-size="12.00">2</text>
<polyline fill="none" stroke="black" points="189,-687 189,-708 "/>
<text text-anchor="middle" x="218.5" y="-694.4" font-family="Times,serif" font-size="12.00">0x0</text>
<polyline fill="none" stroke="black" points="142,-687 248,-687 "/>
<text text-anchor="middle" x="165.5" y="-673.4" font-family="Times,serif" font-size="12.00">2</text>
<polyline fill="none" stroke="black" points="189,-666 189,-687 "/>
<text text-anchor="middle" x="218.5" y="-673.4" font-family="Times,serif" font-size="12.00">0x0</text>
</g>
<!-- HeadNode6&#45;&gt;node60x100507570 -->
<g id="edge47" class="edge"><title>HeadNode6:f0&#45;&gt;node60x100507570:w1</title>
<path fill="none" stroke="black" d="M106,-718C118.005,-718 123.249,-718.562 131.873,-718.844"/>
<polygon fill="black" stroke="black" points="131.947,-722.345 142,-719 132.055,-715.346 131.947,-722.345"/>
</g>
<!-- HeadNode6&#45;&gt;node60x100507570 -->
<g id="edge48" class="edge"><title>HeadNode6:f1&#45;&gt;node60x100507570:w2</title>
<path fill="none" stroke="black" d="M106,-697C118,-697 123.25,-697 131.875,-697"/>
<polygon fill="black" stroke="black" points="132,-700.5 142,-697 132,-693.5 132,-700.5"/>
</g>
<!-- HeadNode6&#45;&gt;node60x100507570 -->
<g id="edge49" class="edge"><title>HeadNode6:f2&#45;&gt;node60x100507570:w3</title>
<path fill="none" stroke="black" d="M106,-676C118,-676 123.25,-676 131.875,-676"/>
<polygon fill="black" stroke="black" points="132,-679.5 142,-676 132,-672.5 132,-679.5"/>
</g>
<!-- node60x0 -->
<g id="node26" class="node"><title>node60x0</title>
<polygon fill="none" stroke="black" points="452,-665.5 452,-728.5 506,-728.5 506,-665.5 452,-665.5"/>
<text text-anchor="middle" x="479" y="-714.9" font-family="Times,serif" font-size="12.00">NULL</text>
<polyline fill="none" stroke="black" points="452,-707.5 506,-707.5 "/>
<text text-anchor="middle" x="479" y="-693.9" font-family="Times,serif" font-size="12.00">NULL</text>
<polyline fill="none" stroke="black" points="452,-686.5 506,-686.5 "/>
<text text-anchor="middle" x="479" y="-672.9" font-family="Times,serif" font-size="12.00">NULL</text>
</g>
<!-- node60x100507570&#45;&gt;node60x0 -->
<g id="edge51" class="edge"><title>node60x100507570:f2&#45;&gt;node60x0:w2</title>
<path fill="none" stroke="black" d="M248,-697C334.786,-697 358.962,-697 440.978,-697"/>
<polygon fill="black" stroke="black" points="441,-700.5 451,-697 441,-693.5 441,-700.5"/>
</g>
<!-- node60x100507570&#45;&gt;node60x0 -->
<g id="edge52" class="edge"><title>node60x100507570:f3&#45;&gt;node60x0:w3</title>
<path fill="none" stroke="black" d="M248,-676C334.786,-676 358.962,-676 440.978,-676"/>
<polygon fill="black" stroke="black" points="441,-679.5 451,-676 441,-672.5 441,-679.5"/>
</g>
<!-- node60x100507630 -->
<g id="node28" class="node"><title>node60x100507630</title>
<polygon fill="none" stroke="black" points="308,-726 308,-768 366,-768 366,-726 308,-726"/>
<text text-anchor="middle" x="337" y="-754.4" font-family="Times,serif" font-size="12.00">3</text>
<polyline fill="none" stroke="black" points="308,-747 366,-747 "/>
<text text-anchor="middle" x="319.5" y="-733.4" font-family="Times,serif" font-size="12.00">1</text>
<polyline fill="none" stroke="black" points="331,-726 331,-747 "/>
<text text-anchor="middle" x="348.5" y="-733.4" font-family="Times,serif" font-size="12.00">0x0</text>
</g>
<!-- node60x100507570&#45;&gt;node60x100507630 -->
<g id="edge50" class="edge"><title>node60x100507570:f1&#45;&gt;node60x100507630:w1</title>
<path fill="none" stroke="black" d="M248,-719C271.558,-719 278.074,-731.669 296.973,-735.134"/>
<polygon fill="black" stroke="black" points="296.736,-738.626 307,-736 297.338,-731.652 296.736,-738.626"/>
</g>
<!-- node60x100507630&#45;&gt;node60x0 -->
<g id="edge53" class="edge"><title>node60x100507630:f1&#45;&gt;node60x0:w1</title>
<path fill="none" stroke="black" d="M367,-736C401.452,-736 411.036,-721.344 440.631,-718.481"/>
<polygon fill="black" stroke="black" points="441.173,-721.96 451,-718 440.848,-714.968 441.173,-721.96"/>
</g>
<!-- HeadNode7 -->
<g id="node29" class="node"><title>HeadNode7</title>
<polygon fill="none" stroke="black" points="0,-787 0,-823 106,-823 106,-787 0,-787"/>
<text text-anchor="middle" x="11.5" y="-801.9" font-family="Times,serif" font-size="12.00">1</text>
<polyline fill="none" stroke="black" points="23,-787 23,-823 "/>
<text text-anchor="middle" x="64.5" y="-801.9" font-family="Times,serif" font-size="12.00">0x100507630</text>
</g>
<!-- node70x100507630 -->
<g id="node31" class="node"><title>node70x100507630</title>
<polygon fill="none" stroke="black" points="166,-795 166,-837 224,-837 224,-795 166,-795"/>
<text text-anchor="middle" x="195" y="-823.4" font-family="Times,serif" font-size="12.00">3</text>
<polyline fill="none" stroke="black" points="166,-816 224,-816 "/>
<text text-anchor="middle" x="177.5" y="-802.4" font-family="Times,serif" font-size="12.00">1</text>
<polyline fill="none" stroke="black" points="189,-795 189,-816 "/>
<text text-anchor="middle" x="206.5" y="-802.4" font-family="Times,serif" font-size="12.00">0x0</text>
</g>
<!-- HeadNode7&#45;&gt;node70x100507630 -->
<g id="edge54" class="edge"><title>HeadNode7:f0&#45;&gt;node70x100507630:w1</title>
<path fill="none" stroke="black" d="M106,-805C128.535,-805 136.545,-805 154.995,-805"/>
<polygon fill="black" stroke="black" points="155,-808.5 165,-805 155,-801.5 155,-808.5"/>
</g>
<!-- node70x0 -->
<g id="node30" class="node"><title>node70x0</title>
<polygon fill="none" stroke="black" points="310,-787 310,-823 364,-823 364,-787 310,-787"/>
<text text-anchor="middle" x="337" y="-801.9" font-family="Times,serif" font-size="12.00">NULL</text>
</g>
<!-- node70x100507630&#45;&gt;node70x0 -->
<g id="edge55" class="edge"><title>node70x100507630:f1&#45;&gt;node70x0:w1</title>
<path fill="none" stroke="black" d="M225,-805C249.898,-805 277.909,-805 299.691,-805"/>
<polygon fill="black" stroke="black" points="299.842,-808.5 309.842,-805 299.842,-801.5 299.842,-808.5"/>
</g>
<!-- HeadNode8 -->
<g id="node32" class="node"><title>HeadNode8</title>
<polygon fill="none" stroke="black" points="1.5,-842 1.5,-878 104.5,-878 104.5,-842 1.5,-842"/>
<text text-anchor="middle" x="53" y="-856.9" font-family="Times,serif" font-size="12.00">Empty HeadNode</text>
</g>
</g>
</svg>
